<svg xmlns="http://www.w3.org/2000/svg" width="15" height="18" viewBox="0 0 15 18">
    <g fill="#8C94A0" fill-rule="evenodd">
        <path d="M11.58 6.158H3.142a.34.34 0 0 0-.34.34v7.075c0 .187.153.34.34.34h1.505v2.384a1.002 1.002 0 0 0 2.003 0v-2.385h1.401v2.385a1.002 1.002 0 1 0 2.003 0v-2.385h1.526a.34.34 0 0 0 .34-.34V6.498a.34.34 0 0 0-.34-.34zM1.374 6.156c-.553 0-1.001.448-1.001 1.002v4.068a1.002 1.002 0 0 0 2.003 0V7.158c0-.554-.449-1.002-1.002-1.002zM13.348 6.156c-.553 0-1.002.448-1.002 1.002v4.068a1.002 1.002 0 1 0 2.003 0V7.158c0-.554-.448-1.002-1.001-1.002zM3.21 5.661h8.281a.34.34 0 0 0 .333-.41A4.577 4.577 0 0 0 9.591 2.21L10.3.933a.179.179 0 0 0-.313-.174l-.713 1.287a4.553 4.553 0 0 0-1.922-.423c-.686 0-1.337.152-1.922.423L4.716.759a.179.179 0 0 0-.313.173l.708 1.278A4.577 4.577 0 0 0 2.878 5.25a.34.34 0 0 0 .333.41zm6.612-1.903a.385.385 0 1 1-.77 0 .385.385 0 0 1 .77 0zm-4.557-.385a.385.385 0 1 1 0 .77.385.385 0 0 1 0-.77z"/>
    </g>
</svg>
