<svg xmlns="http://www.w3.org/2000/svg" width="14" height="18" viewBox="0 0 14 18">
    <g fill="#8C94A0" fill-rule="evenodd">
        <path d="M11.526 9.503c-.018-2.066 1.692-3.072 1.77-3.118-.968-1.413-2.47-1.606-2.997-1.62-1.261-.134-2.484.754-3.126.754-.655 0-1.645-.742-2.71-.72-1.372.02-2.656.815-3.36 2.048-1.452 2.515-.369 6.21 1.023 8.243.696.996 1.51 2.107 2.574 2.068 1.042-.043 1.431-.664 2.688-.664 1.246 0 1.61.664 2.697.64 1.118-.019 1.822-1 2.493-2.005.805-1.141 1.128-2.265 1.14-2.323-.025-.009-2.17-.827-2.192-3.303zM9.475 3.427c.56-.7.944-1.654.837-2.621-.81.036-1.825.56-2.409 1.246-.516.604-.978 1.594-.859 2.524.911.068 1.847-.46 2.431-1.15z"/>
    </g>
</svg>
