<svg xmlns="http://www.w3.org/2000/svg" width="30" height="30" viewBox="0 0 30 30">
    <g fill="none" fill-rule="evenodd">
        <rect width="30" height="30" fill="#111" rx="8"/>
        <g fill="#FFF">
            <path d="M19.932 14.403c-.023-2.48 2.03-3.685 2.124-3.741-1.163-1.695-2.964-1.927-3.597-1.945-1.513-.16-2.981.905-3.752.905-.786 0-1.973-.89-3.252-.864-1.646.026-3.186.979-4.03 2.459-1.744 3.018-.444 7.452 1.226 9.891.835 1.195 1.812 2.529 3.09 2.482 1.25-.052 1.716-.797 3.225-.797 1.494 0 1.933.797 3.236.767 1.341-.022 2.186-1.2 2.992-2.405.965-1.37 1.353-2.718 1.369-2.787-.032-.011-2.606-.993-2.631-3.965zM17.47 7.112c.673-.84 1.133-1.984 1.005-3.145-.973.043-2.19.673-2.89 1.495-.62.725-1.175 1.913-1.032 3.03 1.093.081 2.216-.552 2.917-1.38z"/>
        </g>
    </g>
</svg>
