<?xml version="1.0" encoding="utf-8"?>
<!-- Generator: Adobe Illustrator 19.0.0, SVG Export Plug-In . SVG Version: 6.00 Build 0)  -->
<svg version="1.1" baseProfile="basic" id="Слой_1"
	 xmlns="http://www.w3.org/2000/svg" xmlns:xlink="http://www.w3.org/1999/xlink" x="0px" y="0px" viewBox="0 0 80 80"
	 xml:space="preserve">
<style type="text/css">
	.st0{fill:url(#XMLID_31_);}
	.st1{opacity:0.7;fill:#40C4FF;}
	.st2{fill:#0687EF;}
</style>
<linearGradient id="XMLID_31_" gradientUnits="userSpaceOnUse" x1="27.5548" y1="25.0093" x2="50.7124" y2="56.6332">
	<stop  offset="0" style="stop-color:#0687EF"/>
	<stop  offset="1" style="stop-color:#40C4FF"/>
</linearGradient>
<path id="XMLID_3_" class="st0" d="M39.2,14.7c-0.3-0.2-0.7-0.2-1,0L15.7,28.3c-0.3,0.2-0.5,0.5-0.5,0.8l0,22.5
	c0,0.3,0.2,0.6,0.5,0.8l22.6,13.6c0.3,0.2,0.7,0.2,1,0l23-13.8v-23c0-0.3-0.2-0.6-0.5-0.8L39.2,14.7z"/>
<path id="XMLID_2_" class="st1" d="M51.2,7L15.7,28.3c-0.3,0.2,19.2,12.1,22.6,14.1c0.3,0.2,0.7,0.2,1,0l35.3-21.2
	c0.3-0.2,0.3-0.6,0-0.8L52.2,7C51.9,6.8,51.5,6.8,51.2,7z"/>
<path id="XMLID_1_" class="st2" d="M62.3,40.8v11.3l8.7-5.2c0.3-0.2,0.3-0.6,0-0.8L62.3,40.8z"/>
</svg>
