<svg xmlns="http://www.w3.org/2000/svg" width="26" height="24" viewBox="0 0 26 24">
    <g fill="#13B72A" fill-rule="evenodd">
        <path d="M12 17a.997.997 0 0 1-.707-.293l-5-5a.999.999 0 1 1 1.414-1.414l4.288 4.288L24.191 2.202a1 1 0 0 1 1.425 1.403L12.712 16.702a.999.999 0 0 1-.708.298H12z"/>
        <path d="M21.842 10.285c.097.56.158 1.13.158 1.715 0 5.514-4.486 10-10 10S2 17.514 2 12 6.486 2 12 2a9.954 9.954 0 0 1 6.87 2.753l1.403-1.424A11.948 11.948 0 0 0 12 0C5.383 0 0 5.383 0 12s5.383 12 12 12c6.616 0 12-5.383 12-12 0-1.18-.179-2.32-.498-3.4l-1.66 1.685z"/>
    </g>
</svg>
