<svg width="203" height="60" viewBox="0 0 203 60" xmlns="http://www.w3.org/2000/svg"><title>google-play</title><defs><linearGradient x1="91.536%" y1="4.839%" x2="-37.559%" y2="71.968%" id="a"><stop stop-color="#00A0FF" offset="0%"/><stop stop-color="#00A1FF" offset=".657%"/><stop stop-color="#00BEFF" offset="26.01%"/><stop stop-color="#00D2FF" offset="51.22%"/><stop stop-color="#00DFFF" offset="76.04%"/><stop stop-color="#00E3FF" offset="100%"/></linearGradient><linearGradient x1="107.728%" y1="49.428%" x2="-130.665%" y2="49.428%" id="b"><stop stop-color="#FFE000" offset="0%"/><stop stop-color="#FFBD00" offset="40.87%"/><stop stop-color="#FFA500" offset="77.54%"/><stop stop-color="#FF9C00" offset="100%"/></linearGradient><linearGradient x1="86.389%" y1="17.815%" x2="-49.888%" y2="194.393%" id="c"><stop stop-color="#FF3A44" offset="0%"/><stop stop-color="#C31162" offset="100%"/></linearGradient><linearGradient x1="-18.579%" y1="-54.527%" x2="42.275%" y2="24.69%" id="d"><stop stop-color="#32A071" offset="0%"/><stop stop-color="#2DA771" offset="6.85%"/><stop stop-color="#15CF74" offset="47.62%"/><stop stop-color="#06E775" offset="80.09%"/><stop stop-color="#00F076" offset="100%"/></linearGradient></defs><g fill="none" fill-rule="evenodd"><path d="M7.5 60C3.3 60 0 56.7 0 52.5v-45C0 3.3 3.3 0 7.5 0H195c4.2 0 7.5 3.3 7.5 7.5v45c0 4.05-3.3 7.5-7.5 7.5H7.5z" fill="#000"/><g stroke="#FFF" stroke-width=".2" fill="#FFF"><path d="M71.1 15.3c0 1.2-.3 2.25-1.05 3-.9.9-1.95 1.35-3.3 1.35-1.35 0-2.4-.45-3.3-1.35-.9-.9-1.35-1.95-1.35-3.3 0-1.35.45-2.4 1.35-3.3.9-.9 1.95-1.35 3.3-1.35.6 0 1.2.15 1.8.45.6.3 1.05.6 1.35 1.05l-.75.75c-.6-.75-1.35-1.05-2.4-1.05-.9 0-1.8.3-2.4 1.05-.75.6-1.05 1.5-1.05 2.55 0 1.05.3 1.95 1.05 2.55.75.6 1.5 1.05 2.4 1.05 1.05 0 1.8-.3 2.55-1.05.45-.45.75-1.05.75-1.8h-3.3v-1.05h4.35v.45zM78 11.55h-4.05v2.85h3.75v1.05h-3.75v2.85H78v1.2h-5.25v-9H78zM82.95 19.5h-1.2v-7.95H79.2V10.5h6.3v1.05h-2.55zM89.85 19.5v-9h1.2v9zM96.15 19.5h-1.2v-7.95H92.4V10.5h6.15v1.05H96v7.95zM110.4 18.3c-.9.9-1.95 1.35-3.3 1.35-1.35 0-2.4-.45-3.3-1.35-.9-.9-1.35-1.95-1.35-3.3 0-1.35.45-2.4 1.35-3.3.9-.9 1.95-1.35 3.3-1.35 1.35 0 2.4.45 3.3 1.35.9.9 1.35 1.95 1.35 3.3 0 1.35-.45 2.4-1.35 3.3zm-5.7-.75c.6.6 1.5 1.05 2.4 1.05.9 0 1.8-.3 2.4-1.05.6-.6 1.05-1.5 1.05-2.55 0-1.05-.3-1.95-1.05-2.55-.6-.6-1.5-1.05-2.4-1.05-.9 0-1.8.3-2.4 1.05-.6.6-1.05 1.5-1.05 2.55 0 1.05.3 1.95 1.05 2.55zM113.4 19.5v-9h1.35l4.35 7.05V10.5h1.2v9h-1.2l-4.65-7.35v7.35z"/></g><path d="M102.15 32.7c-3.6 0-6.45 2.7-6.45 6.45 0 3.6 2.85 6.45 6.45 6.45s6.45-2.7 6.45-6.45c0-3.9-2.85-6.45-6.45-6.45zm0 10.2c-1.95 0-3.6-1.65-3.6-3.9s1.65-3.9 3.6-3.9c1.95 0 3.6 1.5 3.6 3.9 0 2.25-1.65 3.9-3.6 3.9zM88.2 32.7c-3.6 0-6.45 2.7-6.45 6.45 0 3.6 2.85 6.45 6.45 6.45s6.45-2.7 6.45-6.45c0-3.9-2.85-6.45-6.45-6.45zm0 10.2c-1.95 0-3.6-1.65-3.6-3.9s1.65-3.9 3.6-3.9c1.95 0 3.6 1.5 3.6 3.9 0 2.25-1.65 3.9-3.6 3.9zm-16.65-8.25v2.7H78c-.15 1.5-.75 2.7-1.5 3.45-.9.9-2.4 1.95-4.95 1.95-4.05 0-7.05-3.15-7.05-7.2 0-4.05 3.15-7.2 7.05-7.2 2.1 0 3.75.9 4.95 1.95l1.95-1.95c-1.65-1.5-3.75-2.7-6.75-2.7-5.4 0-10.05 4.5-10.05 9.9s4.65 9.9 10.05 9.9c3 0 5.1-.9 6.9-2.85 1.8-1.8 2.4-4.35 2.4-6.3 0-.6 0-1.2-.15-1.65h-9.3zm68.1 2.1c-.6-1.5-2.1-4.05-5.4-4.05-3.3 0-6 2.55-6 6.45 0 3.6 2.7 6.45 6.3 6.45 2.85 0 4.65-1.8 5.25-2.85l-2.1-1.5c-.75 1.05-1.65 1.8-3.15 1.8s-2.4-.6-3.15-1.95l8.55-3.6-.3-.75zm-8.7 2.1c0-2.4 1.95-3.75 3.3-3.75 1.05 0 2.1.6 2.4 1.35l-5.7 2.4zM123.9 45h2.85V26.25h-2.85V45zm-4.5-10.95c-.75-.75-1.95-1.5-3.45-1.5-3.15 0-6.15 2.85-6.15 6.45s2.85 6.3 6.15 6.3c1.5 0 2.7-.75 3.3-1.5h.15v.9c0 2.4-1.35 3.75-3.45 3.75-1.65 0-2.85-1.2-3.15-2.25l-2.4 1.05c.75 1.65 2.55 3.75 5.7 3.75 3.3 0 6-1.95 6-6.6V33h-2.7v1.05zm-3.3 8.85c-1.95 0-3.6-1.65-3.6-3.9s1.65-3.9 3.6-3.9c1.95 0 3.45 1.65 3.45 3.9s-1.5 3.9-3.45 3.9zm36.6-16.65h-6.75V45h2.85v-7.05h3.9c3.15 0 6.15-2.25 6.15-5.85 0-3.6-3-5.85-6.15-5.85zm.15 9h-4.05V28.8h4.05c2.1 0 3.3 1.8 3.3 3.15-.15 1.65-1.35 3.3-3.3 3.3zm17.25-2.7c-2.1 0-4.2.9-4.95 2.85l2.55 1.05c.6-1.05 1.5-1.35 2.55-1.35 1.5 0 2.85.9 3 2.4v.15c-.45-.3-1.65-.75-2.85-.75-2.7 0-5.4 1.5-5.4 4.2 0 2.55 2.25 4.2 4.65 4.2 1.95 0 2.85-.9 3.6-1.8h.15V45h2.7v-7.2c-.3-3.3-2.85-5.25-6-5.25zm-.3 10.35c-.9 0-2.25-.45-2.25-1.65 0-1.5 1.65-1.95 3-1.95 1.2 0 1.8.3 2.55.6-.3 1.8-1.8 3-3.3 3zm15.75-9.9l-3.15 8.1h-.15l-3.3-8.1h-3l4.95 11.4-2.85 6.3h2.85l7.65-17.7h-3zm-25.2 12h2.85V26.25h-2.85V45z" fill="#FFF"/><path d="M1.1.75c-.45.45-.75 1.2-.75 2.1V36c0 .9.3 1.65.75 2.1l.15.15 18.6-18.6v-.3L1.1.75z" fill="url(#a)" transform="translate(14.5 10.5)"/><path d="M26 25.95l-6.15-6.15V19.35L26 13.2l.15.15 7.35 4.2c2.1 1.2 2.1 3.15 0 4.35L26 25.95z" fill="url(#b)" transform="translate(14.5 10.5)"/><path d="M26.15 25.8l-6.3-6.3L1.1 38.25c.75.75 1.8.75 3.15.15l21.9-12.6" fill="url(#c)" transform="translate(14.5 10.5)"/><path d="M26.15 13.2L4.25.75C2.9 0 1.85.15 1.1.9l18.75 18.6 6.3-6.3z" fill="url(#d)" transform="translate(14.5 10.5)"/><g fill="#000"><path d="M40.5 36.15l-21.75 12.3c-1.2.75-2.25.6-3 0l-.15.15.15.15c.75.6 1.8.75 3 0l21.75-12.6z" opacity=".2"/><path d="M15.6 48.45c-.45-.45-.6-1.2-.6-2.1v.15c0 .9.3 1.65.75 2.1v-.15h-.15z" opacity=".12"/></g><path d="M48 31.95l-7.5 4.2.15.15L48 32.1c1.05-.6 1.5-1.35 1.5-2.1 0 .75-.6 1.35-1.5 1.95z" fill="#000" opacity=".12"/><path d="M18.75 11.4L48 28.05c.9.6 1.5 1.2 1.5 1.95 0-.75-.45-1.5-1.5-2.1L18.75 11.25c-2.1-1.2-3.75-.15-3.75 2.25v.15c0-2.4 1.65-3.45 3.75-2.25z" fill="#FFF" opacity=".25"/></g></svg>