<svg xmlns="http://www.w3.org/2000/svg" width="30" height="30" viewBox="0 0 30 30">
    <g fill="#111" fill-rule="evenodd">
        <path d="M19.243 10.757c.368.368.677.79.937 1.243h6.428a11.952 11.952 0 0 0-3.122-5.486l-4.243 4.243z"/>
        <path d="M22.071 22.071c-.39.39-1.024.39-1.415 0a1.002 1.002 0 0 1 0-1.415 1.002 1.002 0 0 1 1.415 0c.39.391.39 1.024 0 1.415m-7.07 2.93A1 1 0 1 1 15 23a1 1 0 0 1 0 2m-5.657-2.93c-.39.39-1.024.39-1.415 0a1.002 1.002 0 0 1 0-1.415 1.002 1.002 0 0 1 1.415 0c.39.391.39 1.024 0 1.415M6 16.001a1 1 0 1 1 0-2 1 1 0 0 1 0 2m1.928-8.073a1.002 1.002 0 0 1 1.415 0c.39.391.39 1.024 0 1.415-.39.39-1.024.39-1.415 0a1.002 1.002 0 0 1 0-1.415M15 5a1 1 0 1 1 0 2 1 1 0 0 1 0-2m11.95 9h-9.134A2.99 2.99 0 0 0 15 12a3 3 0 1 0 0 6 2.992 2.992 0 0 0 2.816-2h3.094A5.997 5.997 0 0 1 9 15a6 6 0 0 1 6-6c.925 0 1.8.216 2.581.59l.247-.247 4.117-4.117A11.926 11.926 0 0 0 15 3C8.372 3 3 8.372 3 15c0 6.627 5.372 12 12 12 6.627 0 12-5.373 12-12 0-.338-.023-.67-.05-1"/>
    </g>
</svg>
