<?xml version="1.0" encoding="utf-8"?>
<!-- Generator: Adobe Illustrator 26.0.1, SVG Export Plug-In . SVG Version: 6.00 Build 0)  -->
<svg version="1.2" baseProfile="tiny" id="Layer_1" xmlns="http://www.w3.org/2000/svg" xmlns:xlink="http://www.w3.org/1999/xlink"
	 x="0px" y="0px" viewBox="0 0 143 42" overflow="visible" xml:space="preserve">
<desc>Created with Sketch.</desc>
<g>
	<path fill="#2F2E42" d="M42.2,6.1c0.9,0,1.7,0.8,1.7,1.7v23h11.4c0.9,0,1.6,0.7,1.6,1.6c0,0.9-0.7,1.6-1.6,1.6H42.3
		c-0.5,0.1-1-0.1-1.4-0.5s-0.5-0.9-0.5-1.4V7.8c0-0.5,0.2-0.9,0.5-1.2C41.3,6.3,41.8,6.1,42.2,6.1z"/>
	<path fill="#2F2E42" d="M74.6,13.7c0.4,0,0.8,0.2,1.1,0.5c0.3,0.3,0.5,0.7,0.5,1.2c0,0.2,0,0.4-0.1,0.6l-9,22
		c-1.2,2.9-3.2,4-5.8,4.1c-0.3,0-0.6,0-0.9-0.1c-0.7,0-1.3-0.6-1.4-1.4c0-0.4,0.2-0.8,0.5-1c0.3-0.3,0.7-0.4,1.1-0.4
		c0.1,0,0.3,0,0.6,0c1.4,0,2.2-0.5,2.9-2.1l1.3-3l-7.4-18.2c-0.1-0.2-0.1-0.4-0.1-0.6c0-0.4,0.1-0.8,0.4-1.1
		c0.3-0.3,0.7-0.5,1.1-0.5c0.6,0,1.2,0.4,1.5,1L67,30.2l6.2-15.6C73.5,14.1,74.1,13.7,74.6,13.7z"/>
	<path fill="#2F2E42" d="M82.9,6.2c0.8,0,1.5,0.7,1.6,1.5v16.9l10.7-10.5c0.3-0.3,0.6-0.4,1-0.4c0.8,0,1.4,0.7,1.4,1.5
		c0,0.4-0.2,0.7-0.4,1L90,23l7.4,8.4c0.2,0.3,0.4,0.7,0.4,1.1c0,0.7-0.4,1.3-1,1.5c-0.6,0.2-1.3,0.1-1.8-0.4l-7.3-8.7L84.4,28v4.4
		c-0.1,0.8-0.7,1.5-1.6,1.5c-0.9,0-1.5-0.7-1.6-1.5V7.7C81.4,6.8,82,6.2,82.9,6.2z"/>
	<path fill="#2F2E42" d="M105.1,6.2c0.8,0,1.5,0.7,1.6,1.5v16.9l10.7-10.5c0.3-0.3,0.6-0.4,1-0.4c0.8,0,1.4,0.7,1.4,1.5
		c0,0.4-0.2,0.7-0.4,1l-7.1,6.9l7.4,8.4c0.2,0.3,0.4,0.7,0.4,1.1s-0.2,0.8-0.4,1.1c-0.3,0.3-0.7,0.5-1.1,0.5c-0.5,0-0.9-0.2-1.2-0.5
		l-7.3-8.7l-3.4,3.1v4.4c-0.1,0.8-0.7,1.5-1.6,1.5c-0.8,0-1.5-0.7-1.6-1.5V7.7C103.6,6.8,104.3,6.2,105.1,6.2z"/>
	<path fill="#2F2E42" d="M133.5,13.4c6,0,9.5,4.7,9.5,9.9c0,1-0.6,1.6-1.8,1.6H127c0.3,3.8,2.8,6.9,7.1,6.9c1.9,0,3.8-0.7,5.3-1.8
		c0.2-0.1,0.5-0.2,0.7-0.2c0.7,0,1.3,0.6,1.3,1.3c0,0.4-0.2,0.8-0.5,1.1c-2,1.6-4.5,2.4-7.1,2.3c-5.8,0-10.1-4.3-10.1-10.5
		C123.7,18.1,127.8,13.4,133.5,13.4z M133.5,15.9c-4.2,0-6.3,3.6-6.5,6.7h13C139.9,19.6,137.9,15.9,133.5,15.9z"/>
	<path fill="#2F2E42" d="M15.8,6.1c1,0,1.8,0.7,1.8,1.7v10h10.7c1,0,1.8,0.7,1.8,1.7c0,0.9-0.8,1.7-1.8,1.7H16c-0.1,0-0.1,0-0.2,0
		c-0.5,0-0.9-0.2-1.2-0.5c-0.3-0.3-0.5-0.7-0.5-1.2V7.8C14.2,6.8,14.9,6.1,15.8,6.1z"/>
	<path fill="#F27065" d="M10.8,18.6c1,0,1.7,0.8,1.7,1.7c0,0.9-0.8,1.7-1.7,1.7H1.6c-1,0-1.7-0.8-1.7-1.7s0.8-1.7,1.7-1.7H10.8z"/>
	<path fill="#F27065" d="M16.1,22.9L16.1,22.9c0.2,0.1,0.4,0.2,0.5,0.3l8.7,8.3c0.5,0.5,0.7,1.2,0.4,1.8c-0.3,0.6-0.9,1.1-1.6,1.1
		l0,0c-0.5,0-0.9-0.2-1.2-0.5l-7.6-7.2l-7.5,7.1c-0.4,0.4-1.1,0.6-1.7,0.4C5.6,34,5.1,33.6,5,33.1c-0.2-0.6,0-1.2,0.5-1.6l8.7-8.3
		C14.6,22.6,15.4,22.6,16.1,22.9z"/>
</g>
</svg>
