<svg xmlns="http://www.w3.org/2000/svg" width="134" height="39" viewBox="0 0 134 39">
    <g fill="#FFF" fill-rule="evenodd">
        <path d="M9.531 39.07l11.161-11.36 11.126 11.36v-6.801l-11.126-11.36-11.16 11.36z"/>
        <path d="M.213 16.062H15.98l4.712 4.848H4.925zM41.172 16.062H25.405V4.812L20.692 0v20.91H36.46z"/>
        <g>
            <path d="M133.013 24.853c0-5.427-3.189-9.08-7.972-9.08-4.677 0-8.22 3.726-8.22 8.646 0 5.1 3.472 8.682 8.468 8.682 2.586 0 4.996-.868 6.52-2.28l.176-.144-2.09-3.147-.213.217c-.992.977-2.763 1.52-3.933 1.52-2.161 0-3.756-1.23-4.145-3.184h11.409v-1.23zm-4.43-2.17h-7.015c.284-1.484 1.347-3.003 3.508-3.003 1.17-.037 3.189.615 3.508 3.002zM63.778 28.109h-9.035V9.695H50.1V32.63H65.55zM116.324 32.63l-6.484-8.826 6.307-7.561h-5.598l-5.138 6.33V9.696h-4.642V32.63h4.642v-7.56l5.776 7.56zM98.466 32.63l-6.484-8.826 6.307-7.561h-5.634l-5.137 6.33V9.696h-4.642V32.63h4.642v-7.56l5.775 7.56zM75.754 16.026l-3.756 9.803-3.685-9.803h-4.995l6.306 15.917-2.515 6.512h4.783l8.965-22.43z"/>
        </g>
    </g>
</svg>
