<?xml version="1.0" encoding="utf-8"?>
<!-- Generator: Adobe Illustrator 19.0.0, SVG Export Plug-In . SVG Version: 6.00 Build 0)  -->
<svg version="1.1" baseProfile="basic" id="Слой_1"
	 xmlns="http://www.w3.org/2000/svg" xmlns:xlink="http://www.w3.org/1999/xlink" x="0px" y="0px" viewBox="0 0 80 80"
	 xml:space="preserve">
<style type="text/css">
	.st0{fill:#FB8F02;}
	.st1{fill:url(#XMLID_31_);}
	.st2{opacity:0.7;fill:#FFCB48;}
</style>
<path id="XMLID_3_" class="st0" d="M25.1,14.9v13.3l-4.3,2.1L9.4,23.5l15-9C24.7,14.4,25.1,14.6,25.1,14.9z"/>
<linearGradient id="XMLID_31_" gradientUnits="userSpaceOnUse" x1="12.8264" y1="55.1181" x2="53.601" y2="26.4825">
	<stop  offset="0" style="stop-color:#FFCB48"/>
	<stop  offset="1" style="stop-color:#FB8F02"/>
</linearGradient>
<path id="XMLID_2_" class="st1" d="M50.8,61.2H15.1c-3.1,0-5.7-2.5-5.7-5.7v-32h41.4c3.1,0,5.7,2.5,5.7,5.7v26.3
	C56.5,58.6,53.9,61.2,50.8,61.2z"/>
<path id="XMLID_1_" class="st2" d="M53.6,13L9.4,39.5v20.7c0,0.5,0.4,0.9,0.9,0.9h10L77,27.2c0.3-0.2,0.3-0.6,0-0.8L54.6,13
	C54.3,12.8,53.9,12.8,53.6,13z"/>
</svg>
