<?xml version="1.0" encoding="UTF-8" standalone="no"?>
<svg width="143px" height="42px" viewBox="0 0 143 42" version="1.1" xmlns="http://www.w3.org/2000/svg" xmlns:xlink="http://www.w3.org/1999/xlink">
    <!-- Generator: Sketch 40.1 (33804) - http://www.bohemiancoding.com/sketch -->
    <title>logo_updated copy</title>
    <desc>Created with Sketch.</desc>
    <defs>
        <linearGradient x1="50.0397456%" y1="-23.5591633%" x2="50.0397456%" y2="126.865737%" id="linearGradient-1">
            <stop stop-color="#FF0029" offset="0%"></stop>
            <stop stop-color="#AB00FF" offset="100%"></stop>
        </linearGradient>
        <linearGradient x1="-25.0690311%" y1="6.88408304%" x2="100.649135%" y2="143.482007%" id="linearGradient-2">
            <stop stop-color="#FF9100" offset="0%"></stop>
            <stop stop-color="#FF0029" offset="51.53%"></stop>
            <stop stop-color="#AB00FF" offset="100%"></stop>
        </linearGradient>
    </defs>
    <g id="04_Lykke_B2B" stroke="none" stroke-width="1" fill="none" fill-rule="evenodd">
        <g id="03_lykke_b2b/02a_what_we_do" transform="translate(-40.000000, -25.000000)">
            <g id="logo_updated-copy" transform="translate(40.000000, 25.000000)">
                <g id="Group">
                    <g id="Shape">
                        <polygon fill="url(#linearGradient-1)" points="10.2461378 42 22.2444033 29.7888889 34.2045791 42 34.2045791 34.6888889 22.2444033 22.4777778 10.2461378 34.6888889 10.2461378 34.6888889 10.2461378 34.6888889"></polygon>
                        <polygon fill="#FF8F1C" points="0.22853839 17.2666667 17.178469 17.2666667 22.2444033 22.4777778 5.29447271 22.4777778 5.29447271 22.4777778 5.29447271 22.4777778"></polygon>
                        <polygon fill="url(#linearGradient-2)" points="44.2602683 17.2666667 27.3103377 17.2666667 27.3103377 5.17222222 22.2444033 0 22.2444033 22.4777778 39.194334 22.4777778 39.194334 22.4777778 39.194334 22.4777778"></polygon>
                    </g>
                    <g transform="translate(53.706522, 10.111111)" id="Shape" fill="#333333">
                        <path d="M89.2823312,16.6055556 C89.2823312,10.7722222 85.8542553,6.84444444 80.7121415,6.84444444 C75.6842969,6.84444444 71.8753238,10.85 71.8753238,16.1388889 C71.8753238,21.6222222 75.6081175,25.4722222 80.9787697,25.4722222 C83.7593201,25.4722222 86.3494218,24.5388889 87.9872803,23.0222222 L88.177729,22.8666667 L85.9304348,19.4833333 L85.7018964,19.7166667 C84.6353839,20.7666667 82.7308973,21.35 81.4739362,21.35 C79.1504625,21.35 77.4364246,20.0277778 77.0174376,17.9277778 L89.2823312,17.9277778 L89.2823312,16.6055556 L89.2823312,16.6055556 Z M84.5211147,14.2722222 L76.9793478,14.2722222 C77.2840657,12.6777778 78.4267576,11.0444444 80.7502313,11.0444444 C82.0071924,11.0055556 84.1783071,11.7055556 84.5211147,14.2722222 L84.5211147,14.2722222 Z"></path>
                        <polygon points="14.8549954 20.1055556 5.14211378 20.1055556 5.14211378 0.311111111 0.152358927 0.311111111 0.152358927 24.9666667 16.759482 24.9666667"></polygon>
                        <polygon points="71.3420675 24.9666667 64.3716466 15.4777778 71.1516189 7.35 65.1334413 7.35 59.6104302 14.1555556 59.6104302 0.311111111 54.6206753 0.311111111 54.6206753 24.9666667 59.6104302 24.9666667 59.6104302 16.8388889 65.8190564 24.9666667"></polygon>
                        <polygon points="52.1448427 24.9666667 45.1744218 15.4777778 51.9543941 7.35 45.8981267 7.35 40.3751156 14.1555556 40.3751156 0.311111111 35.3853608 0.311111111 35.3853608 24.9666667 40.3751156 24.9666667 40.3751156 16.8388889 46.5837419 24.9666667"></polygon>
                        <polygon points="27.7293247 7.11666667 23.6918131 17.6555556 19.730481 7.11666667 14.3598289 7.11666667 21.1398011 24.2277778 18.4354302 31.2277778 23.5775439 31.2277778 33.2142461 7.11666667"></polygon>
                    </g>
                </g>
            </g>
        </g>
    </g>
</svg>