<svg xmlns="http://www.w3.org/2000/svg" xmlns:xlink="http://www.w3.org/1999/xlink" width="28" height="28" viewBox="0 0 28 28">
    <defs>
        <path id="a" d="M7 22h10v-2H7v2zm11-4H6a1 1 0 0 0-1 1v4a1 1 0 0 0 1 1h12a1 1 0 0 0 1-1v-4a1 1 0 0 0-1-1z"/>
    </defs>
    <g fill="#000" fill-rule="evenodd" transform="translate(-1 -1)">
        <path d="M27 25c0 1.103-.897 2-2 2s-2-.897-2-2V9h4v16zM3 24V4c0-.551.449-1 1-1h16c.551 0 1 .449 1 1v21c0 .732.212 1.409.557 2H6c-1.654 0-3-1.346-3-3zM28 7h-5V4c0-1.654-1.346-3-3-3H4C2.346 1 1 2.346 1 4v20c0 2.757 2.243 5 5 5h19c2.206 0 4-1.794 4-4V8a1 1 0 0 0-1-1z"/>
        <path d="M18 6H6a1 1 0 0 0 0 2h12a1 1 0 0 0 0-2M18 10H6a1 1 0 0 0 0 2h12a1 1 0 0 0 0-2"/>
        <use xlink:href="#a"/>
    </g>
</svg>
