<?xml version="1.0" standalone="no"?>
<!DOCTYPE svg PUBLIC "-//W3C//DTD SVG 20010904//EN"
 "http://www.w3.org/TR/2001/REC-SVG-20010904/DTD/svg10.dtd">
<svg version="1.0" xmlns="http://www.w3.org/2000/svg"
 width="1024.000000pt" height="1024.000000pt" viewBox="0 0 1024.000000 1024.000000"
 preserveAspectRatio="xMidYMid meet">
<metadata>
Created by potrace 1.14, written by Peter Selinger 2001-2017
</metadata>
<g transform="translate(0.000000,1024.000000) scale(0.100000,-0.100000)"
fill="#000000" stroke="none">
<path d="M5295 9389 c-202 -26 -378 -192 -415 -390 -12 -65 -9 -3706 3 -3754
29 -115 145 -260 253 -317 117 -61 -15 -58 2112 -58 2159 0 2014 -5 2143 68
159 89 255 230 266 392 17 238 -105 425 -332 509 l-70 26 -1677 3 -1678 2 -1
1538 c0 845 -3 1551 -5 1567 -34 233 -236 405 -489 418 -33 1 -82 0 -110 -4z"/>
<path d="M1007 5628 c-92 -12 -200 -69 -277 -147 -105 -106 -148 -209 -148
-349 0 -47 7 -108 15 -136 49 -168 192 -306 361 -348 35 -8 423 -12 1482 -13
1582 -2 1507 -4 1628 61 77 42 140 100 189 172 167 252 68 596 -207 723 -96
44 -71 43 -1565 44 -781 0 -1446 -3 -1478 -7z"/>
<path d="M5115 4373 c-42 -9 -111 -37 -142 -58 -18 -12 -86 -73 -151 -136
-101 -98 -348 -334 -517 -494 -27 -27 -126 -121 -220 -210 -93 -90 -195 -186
-225 -215 -30 -29 -134 -128 -230 -220 -96 -92 -195 -187 -220 -210 -25 -23
-128 -122 -229 -219 -102 -97 -206 -196 -232 -221 -26 -25 -85 -81 -131 -125
-46 -44 -168 -161 -272 -260 -341 -324 -391 -376 -419 -435 -15 -30 -29 -71
-33 -90 -20 -102 8 -265 60 -355 45 -76 135 -151 236 -197 139 -63 294 -63
435 2 76 35 100 54 307 252 94 90 188 179 208 198 20 19 110 105 200 190 89
85 171 162 181 171 10 9 87 81 171 161 84 80 171 163 193 183 22 21 112 107
200 190 88 84 178 170 200 190 22 21 112 106 200 190 88 84 172 163 186 176
15 13 97 92 184 174 86 83 160 151 163 153 8 3 48 -33 256 -231 88 -84 176
-168 196 -187 21 -19 111 -105 200 -190 90 -85 171 -162 180 -170 10 -8 93
-87 186 -176 93 -89 189 -180 214 -203 25 -24 110 -105 190 -181 80 -76 165
-157 190 -180 45 -43 261 -248 380 -361 378 -360 390 -370 495 -409 63 -23
193 -31 265 -15 125 27 269 139 346 270 67 115 82 264 39 387 -44 126 -57 140
-516 578 -175 167 -430 411 -524 501 -257 247 -322 309 -355 339 -19 18 -114
108 -210 200 -96 93 -200 192 -230 220 -30 29 -135 130 -234 224 -98 94 -195
187 -215 206 -55 52 -399 380 -435 415 -18 17 -46 41 -62 52 -48 34 -183 99
-243 117 -50 15 -167 20 -216 9z"/>
</g>
</svg>
