<svg width="57" height="57" viewBox="0 0 57 57" fill="none" xmlns="http://www.w3.org/2000/svg">
  <path d="M28.266 5.76715L25.5913 0L27.0934 0.0378136L28.9696 4.38065L31.0621 0.137504L32.5642 0.175318L29.6034 5.79923L29.5039 9.78227L28.1665 9.74904L28.266 5.76829V5.76715Z" fill="black"/>
  <path d="M35.6189 6.92333L34.9599 0.599289L36.3682 1.1241L36.7343 5.84278L40.0887 2.50945L41.497 3.03426L36.8727 7.39084L35.4873 11.1252L34.2334 10.6589L35.6189 6.92562V6.92333Z" fill="black"/>
  <path d="M42.1937 10.4102L43.618 4.21335L44.7804 5.16671L43.5986 9.74903L47.851 7.68533L49.0134 8.63869L43.2279 11.257L40.7076 14.3394L39.6722 13.4903L42.1914 10.4091L42.1937 10.4102Z" fill="black"/>
  <path d="M47.2893 15.8405L50.6368 10.4377L51.4296 11.7165L48.8338 15.6709L53.5232 15.0945L54.3161 16.3733L47.9963 16.9795L44.6168 19.081L43.9109 17.9431L47.2893 15.8428V15.8405Z" fill="black"/>
  <path d="M50.3553 22.6366L55.2759 18.6192L55.61 20.087L51.8701 22.9792L56.492 23.9635L56.8261 25.4314L50.6539 23.944L46.7756 24.8286L46.4782 23.5224L50.3553 22.6377V22.6366Z" fill="black"/>
  <path d="M51.0486 30.0561L57 27.8434L56.8433 29.3399L52.3712 30.8685L56.4291 33.2932L56.2724 34.7897L50.9091 31.3876L46.953 30.9728L47.0925 29.6401L51.0475 30.0549L51.0486 30.0561Z" fill="black"/>
  <path d="M49.3108 37.3037L55.658 37.1524L55.0231 38.5172L50.2981 38.5046L53.347 42.1209L52.7121 43.4856L48.748 38.5195L45.1431 36.8362L45.7082 35.6216L49.312 37.3037H49.3108Z" fill="black"/>
  <path d="M45.3158 43.5888L51.3701 45.5035L50.329 46.5887L45.8627 45.0452L47.5787 49.4545L46.5377 50.5396L44.3914 44.5559L41.5244 41.7955L42.4511 40.8295L45.3181 43.5899L45.3158 43.5888Z" fill="black"/>
  <path d="M39.5063 48.2456L44.6168 52.0178L43.2806 52.7076L39.5521 49.8005L39.7523 54.5284L38.4161 55.2182L38.3165 48.8609L36.494 45.3202L37.6827 44.706L39.504 48.2456H39.5063Z" fill="black"/>
  <path d="M32.4967 50.7619L36.1016 55.9962L34.6144 56.2128L32.0345 52.2481L30.6857 56.7834L29.1984 57L31.1719 50.9567L30.601 47.0138L31.9247 46.8213L32.4956 50.7619H32.4967Z" fill="black"/>
  <path d="M25.0593 50.8662L26.7868 56.9851L25.3098 56.709L24.144 52.122L21.4075 55.9802L19.9305 55.704L23.7436 50.621L24.4724 46.7044L25.788 46.9496L25.0593 50.865V50.8662Z" fill="black"/>
  <path d="M17.9822 48.5504L17.6252 54.8985L16.3187 54.156L16.7089 49.4396L12.866 52.1942L11.5595 51.4517L16.8187 47.8915L18.7819 44.4264L19.9454 45.0876L17.9833 48.5515L17.9822 48.5504Z" fill="black"/>
  <path d="M12.0468 44.062L9.6615 49.9552L8.66389 48.8288L10.5539 44.4917L6.02914 45.8553L5.03153 44.7289L11.1568 43.0605L14.1313 40.417L15.0191 41.4196L12.0446 44.0632L12.0468 44.062Z" fill="black"/>
  <path d="M7.87449 37.8915L3.7113 42.6916L3.13241 41.3028L6.32431 37.8125L1.60281 37.6337L1.02392 36.2449L7.35853 36.654L11.0286 35.1185L11.5446 36.3549L7.87564 37.8904L7.87449 37.8915Z" fill="black"/>
  <path d="M5.92847 30.6863L0.418722 33.8455L0.328342 32.3432L4.4904 30.1019L0.0903799 28.3751L0 26.8729L5.84609 29.3502L9.81595 29.1119L9.89603 30.4491L5.92732 30.6875L5.92847 30.6863Z" fill="black"/>
  <path d="M6.41697 23.26L0.188766 24.4963L0.581175 23.0434L5.2386 22.247L1.61768 19.2059L2.01009 17.7529L6.76362 21.9663L10.6031 23.0067L10.2541 24.3004L6.41583 23.26H6.41697Z" fill="black"/>
  <path d="M9.28854 16.3802L2.99856 15.5185L3.84172 14.2729L8.50487 15.0384L6.06918 10.9831L6.91235 9.73758L10.0379 15.2721L13.3305 17.5077L12.58 18.6169L9.28854 16.3813V16.3802Z" fill="black"/>
  <path d="M14.2285 10.8078L8.55291 7.95804L9.75302 7.05166L13.9197 9.28381L12.922 4.65795L14.1221 3.75157L15.2959 9.99998L17.6916 13.1798L16.623 13.9864L14.2285 10.8067V10.8078Z" fill="black"/>
  <path d="M20.7004 7.13531L16.2569 2.59424L17.6859 2.12673L20.9029 5.59297L21.4589 0.892629L22.8879 0.425115L21.9726 6.71707L23.2071 10.5042L21.9349 10.9201L20.7016 7.13417L20.7004 7.13531Z" fill="black"/>
  <path d="M28.3393 14.3279L26.6758 10.7368L27.6117 10.7608L28.7786 13.4651L30.0817 10.8227L31.0175 10.8468L29.1733 14.3474L29.1104 16.8271L28.2775 16.8064L28.3404 14.3279H28.3393Z" fill="black"/>
  <path d="M32.9109 15.0441L32.4979 11.1069L33.3754 11.4323L33.6053 14.3692L35.6921 12.2929L36.5696 12.6183L33.6923 15.3317L32.8308 17.6567L32.0494 17.3668L32.9098 15.0418L32.9109 15.0441Z" fill="black"/>
  <path d="M37.0032 17.2121L37.8864 13.3539L38.6105 13.9475L37.8772 16.8007L40.5234 15.5139L41.2476 16.1075L37.6473 17.7403L36.0799 19.6608L35.4347 19.1325L37.0009 17.2132L37.0032 17.2121Z" fill="black"/>
  <path d="M40.1722 20.5809L42.2509 17.2144L42.7451 18.0096L41.132 20.4732L44.0517 20.11L44.5459 20.9052L40.6126 21.2879L38.511 22.5999L38.0706 21.8918L40.1722 20.5809Z" fill="black"/>
  <path d="M42.0862 24.8057L45.1454 22.2997L45.3547 23.213L43.0289 25.0177L45.9073 25.625L46.1167 26.5383L42.2727 25.6181L39.8599 26.1727L39.6734 25.3603L42.0862 24.8057Z" fill="black"/>
  <path d="M42.5266 29.4167L46.2288 28.0313L46.1327 28.9641L43.3504 29.922L45.8798 31.4265L45.7849 32.3581L42.442 30.2474L39.9788 29.9942L40.0635 29.1646L42.5255 29.4178L42.5266 29.4167Z" fill="black"/>
  <path d="M41.4569 33.9268L45.4085 33.8214L45.0161 34.6716H42.0747L43.9796 36.9175L43.5872 37.7678L41.1103 34.6831L38.8634 33.6415L39.2135 32.8841L41.4604 33.9245L41.4569 33.9268Z" fill="black"/>
  <path d="M38.9835 37.8434L42.7566 39.0236L42.1102 39.7009L39.3267 38.7486L40.4033 41.4907L39.7569 42.1679L38.4092 38.4461L36.6188 36.7331L37.1942 36.1303L38.9835 37.8434Z" fill="black"/>
  <path d="M35.3832 40.7482L38.5728 43.0857L37.7422 43.5177L35.4141 41.7164L35.5491 44.6602L34.7185 45.0922L34.643 41.1343L33.5012 38.9343L34.2403 38.5493L35.382 40.7493L35.3832 40.7482Z" fill="black"/>
  <path d="M31.0289 42.3306L33.2861 45.5803L32.3606 45.7189L30.7452 43.2565L29.9169 46.0833L28.9914 46.222L30.2052 42.4555L29.8403 40.0022L30.664 39.8796L31.0289 42.3318V42.3306Z" fill="black"/>
  <path d="M26.4047 42.4143L27.4973 46.2185L26.5763 46.0513L25.8384 43.1992L24.1452 45.6089L23.2242 45.4416L25.5844 42.2664L26.0271 39.8258L26.8463 39.9747L26.4035 42.4143H26.4047Z" fill="black"/>
  <path d="M22.0001 40.9945L21.7976 44.9478L20.9819 44.4894L21.2107 41.5514L18.8276 43.2782L18.0119 42.8199L21.2748 40.5866L22.4863 38.4232L23.2128 38.8311L22.0024 40.9934L22.0001 40.9945Z" fill="black"/>
  <path d="M18.2945 38.2227L16.8278 41.8986L16.2032 41.2008L17.3667 38.4943L14.5546 39.3582L13.93 38.6604L17.7385 37.6016L19.5827 35.9459L20.1387 36.5669L18.2957 38.2215L18.2945 38.2227Z" fill="black"/>
  <path d="M15.6781 34.3978L13.1028 37.4011L12.7379 36.5383L14.7125 34.3542L11.7723 34.2591L11.4073 33.3963L15.3532 33.6289L17.6321 32.6606L17.957 33.4284L15.6781 34.3966V34.3978Z" fill="black"/>
  <path d="M14.4425 29.9266L11.0252 31.9147L10.9634 30.9797L13.5456 29.568L10.7998 28.5103L10.7381 27.5753L14.3876 29.0947L16.8587 28.9297L16.9136 29.7616L14.4436 29.9255L14.4425 29.9266Z" fill="black"/>
  <path d="M14.7182 25.3042L10.8456 26.0983L11.0847 25.1919L13.9814 24.6774L11.7151 22.7993L11.9542 21.8929L14.931 24.4975L17.3255 25.13L17.1127 25.9367L14.7194 25.3042H14.7182Z" fill="black"/>
  <path d="M16.4732 21.0175L12.5537 20.5076L13.0731 19.7284L15.9789 20.1844L14.4448 17.6704L14.9642 16.8912L16.9342 20.3231L18.9935 21.7004L18.5313 22.3937L16.4732 21.0163V21.0175Z" fill="black"/>
  <path d="M19.5198 17.5318L15.9732 15.7832L16.7157 15.2137L19.3196 16.5841L18.6778 13.7092L19.4203 13.1397L20.1799 17.0241L21.6855 18.9927L21.0242 19.5004L19.5198 17.5318Z" fill="black"/>
  <path d="M23.5297 15.2171L20.7416 12.4109L21.6294 12.113L23.6487 14.2557L23.9724 11.3269L24.8602 11.029L24.3202 14.9501L25.1062 17.3014L24.3168 17.5661L23.5308 15.2148L23.5297 15.2171Z" fill="black"/>
  <path d="M28.3942 20.1203L27.4229 17.9993L27.9743 18.0153L28.655 19.6127L29.4295 18.0589L29.981 18.0749L28.8838 20.134L28.8403 21.595L28.3496 21.5801L28.393 20.1191L28.3942 20.1203Z" fill="black"/>
  <path d="M31.0873 20.5454L30.8436 18.225L31.3607 18.4175L31.4957 20.1489L32.7255 18.9251L33.2427 19.1176L31.546 20.7173L31.0381 22.0877L30.5782 21.917L31.0861 20.5465L31.0873 20.5454Z" fill="black"/>
  <path d="M33.4978 21.8219L34.0195 19.5473L34.4462 19.8968L34.0137 21.579L35.5742 20.8204L36.001 21.1699L33.8787 22.1324L32.9543 23.2645L32.5745 22.9529L33.4978 21.8219Z" fill="black"/>
  <path d="M35.3683 23.8123L36.5936 21.8276L36.8853 22.2963L35.9346 23.7481L37.6553 23.5338L37.947 24.0025L35.628 24.2282L34.389 25.0005L34.1293 24.5834L35.3683 23.8111V23.8123Z" fill="black"/>
  <path d="M36.494 26.3011L38.2982 24.8241L38.4218 25.3626L37.0512 26.426L38.7478 26.7846L38.8714 27.3232L36.605 26.7801L35.1818 27.1066L35.072 26.6277L36.494 26.3011Z" fill="black"/>
  <path d="M36.7537 29.0191L38.9377 28.2067L38.8805 28.7567L37.24 29.3182L38.7295 30.2073L38.6723 30.7562L36.7034 29.5084L35.2516 29.356L35.3031 28.8667L36.7549 29.0191H36.7537Z" fill="black"/>
  <path d="M36.1222 31.6775L38.4515 31.6168L38.2193 32.1175H36.4849L37.6072 33.441L37.375 33.9417L35.9163 32.1232L34.5915 31.5091L34.7974 31.0633L36.1211 31.6775H36.1222Z" fill="black"/>
  <path d="M34.6624 33.9853L36.8865 34.682L36.5055 35.0807L34.8649 34.5181L35.4987 36.1349L35.1177 36.5337L34.3238 34.3393L33.269 33.3287L33.6087 32.9735L34.6636 33.9841L34.6624 33.9853Z" fill="black"/>
  <path d="M32.5368 35.6995L34.4165 37.0791L33.9268 37.3335L32.5551 36.2701L32.634 38.005L32.1444 38.2594L32.1009 35.9264L31.4282 34.6281L31.8641 34.4012L32.5356 35.6983L32.5368 35.6995Z" fill="black"/>
  <path d="M29.9695 36.6299L31.2989 38.547L30.7532 38.6283L29.8025 37.1765L29.3128 38.8426L28.7671 38.924L29.4845 36.7044L29.2705 35.2583L29.7567 35.1861L29.9707 36.6322L29.9695 36.6299Z" fill="black"/>
  <path d="M27.2433 36.6769L27.8851 38.9205L27.3428 38.8208L26.9092 37.1387L25.9104 38.5584L25.3682 38.4587L26.7605 36.5887L27.0225 35.1506L27.5052 35.2388L27.2433 36.6769Z" fill="black"/>
  <path d="M24.6474 35.8381L24.5261 38.1688L24.0456 37.8984L24.1818 36.167L22.7757 37.1834L22.2952 36.913L24.2195 35.5987L24.9346 34.3244L25.3624 34.5651L24.6474 35.8393V35.8381Z" fill="black"/>
  <path d="M22.4646 34.2018L21.5985 36.3675L21.2313 35.9562L21.9188 34.3611L20.26 34.8687L19.8927 34.4574L22.1385 33.8352L23.2265 32.86L23.5537 33.2267L22.4657 34.2007L22.4646 34.2018Z" fill="black"/>
  <path d="M20.9235 31.9445L19.4031 33.7126L19.188 33.2038L20.3538 31.9181L18.6206 31.8608L18.4055 31.3521L20.7313 31.4919L22.0756 30.9224L22.2666 31.375L20.9224 31.9445H20.9235Z" fill="black"/>
  <path d="M20.1971 29.3067L18.1812 30.4766L18.1458 29.9255L19.6685 29.0947L18.0508 28.4702L18.0153 27.919L20.1662 28.8174L21.6225 28.7223L21.6546 29.2127L20.1982 29.3078L20.1971 29.3067Z" fill="black"/>
  <path d="M20.3629 26.5853L18.0806 27.0516L18.2213 26.5177L19.9293 26.2163L18.5942 25.1082L18.735 24.5743L20.4876 26.1109L21.8983 26.4856L21.7724 26.9611L20.3618 26.5864L20.3629 26.5853Z" fill="black"/>
  <path d="M21.4029 24.0552L19.093 23.7515L19.3996 23.292L21.1123 23.5636L20.2096 22.0809L20.5162 21.6214L21.6752 23.6461L22.8879 24.4597L22.6144 24.8688L21.4017 24.0552H21.4029Z" fill="black"/>
  <path d="M23.199 22.0041L21.11 20.9705L21.5482 20.6348L23.0823 21.4449L22.706 19.749L23.1441 19.4133L23.5892 21.7039L24.4746 22.8658L24.0845 23.1637L23.199 22.0018V22.0041Z" fill="black"/>
  <path d="M25.5672 20.6416L23.9267 18.9847L24.4495 18.8106L25.6381 20.0756L25.8315 18.3499L26.3543 18.1757L26.0328 20.487L26.4939 21.8735L26.0283 22.0293L25.5672 20.6428V20.6416Z" fill="black"/>
  </svg>
  