<?xml version="1.0" standalone="no"?>
<!DOCTYPE svg PUBLIC "-//W3C//DTD SVG 1.1//EN" "http://www.w3.org/Graphics/SVG/1.1/DTD/svg11.dtd" >
<svg xmlns="http://www.w3.org/2000/svg">
<metadata>
Created by FontPrep 20130207 at Fri Sep 22 11:37:15 2017
 By Yuliya Mochalova
Copyright (c) 2016 by Fontfabric LLC. All rights reserved.
</metadata>
<defs>
<font id="24d9fa92277e9e6319561a1d49ff2a1b" horiz-adv-x='1024' >
  <font-face 
    font-family="Akrobat-Regular"
    font-weight="500"
    font-stretch="normal"
    units-per-em="2048"
    panose-1="0 0 6 0 0 0 0 0 0 0"
    ascent="1638"
    descent="-410"
    x-height="1075"
    cap-height="1434"
    bbox="-780 -510 1642 1937"
    underline-thickness="102"
    underline-position="-102"
    unicode-range="U+0020-25CA"
  />
<missing-glyph horiz-adv-x="1024" 
d="M682 -37h-340v-67h143l-143 -97v-67h340v67h-209l143 97h66v67zM614 174v-96h-204v96h204zM682 242h-340v-232h340v232zM682 596h-205v-115h70v47h67v-96h-204v164h-68v-231h340v231zM682 846h-68v-135h-272v-70h340v205zM682 969h-340v-68h135v-76h-135v-67h205v143h135
v68zM477 1167v-73h-67v73h67zM547 1237h-205v-213h340v70h-135v143zM682 1501h-338v-67h133v-76h-135v-68h340v68h-135v76h135v67zM840 1638v-2048h-650v2048h650z" />
    <glyph glyph-name=".notdef" horiz-adv-x="1024" 
d="M682 -37h-340v-67h143l-143 -97v-67h340v67h-209l143 97h66v67zM614 174v-96h-204v96h204zM682 242h-340v-232h340v232zM682 596h-205v-115h70v47h67v-96h-204v164h-68v-231h340v231zM682 846h-68v-135h-272v-70h340v205zM682 969h-340v-68h135v-76h-135v-67h205v143h135
v68zM477 1167v-73h-67v73h67zM547 1237h-205v-213h340v70h-135v143zM682 1501h-338v-67h133v-76h-135v-68h340v68h-135v76h135v67zM840 1638v-2048h-650v2048h650z" />
    <glyph glyph-name=".null" 
 />
    <glyph glyph-name="nonmarkingreturn" horiz-adv-x="681" 
 />
    <glyph glyph-name="space" unicode=" " horiz-adv-x="468" 
 />
    <glyph glyph-name="exclam" unicode="!" horiz-adv-x="450" 
d="M225 -20q-43 0 -69 26t-27 70q0 44 27 70q28 26 70 26t69 -27t27 -69t-27 -70q-27 -26 -70 -26zM164 295v1139h123v-1139h-123z" />
    <glyph glyph-name="quotedbl" unicode="&#x22;" horiz-adv-x="460" 
d="M281 1434h137l-94 -426h-86zM76 1434h137l-94 -426h-86z" />
    <glyph glyph-name="numbersign" unicode="#" horiz-adv-x="1157" 
d="M416 487h221l100 437h-221zM195 0l88 387h-254l24 100h252l101 437h-254l22 100h254l94 410h111l-94 -410h221l94 410h113l-95 -410h256l-22 -100h-256l-100 -437h258l-25 -100h-256l-88 -387h-113l88 387h-221l-88 -387h-110z" />
    <glyph glyph-name="dollar" unicode="$" horiz-adv-x="923" 
d="M850 344q0 -134 -95 -248t-261 -123v-147h-93v151q-151 21 -241 125t-94 267h127q3 -131 75 -202t196 -71t190 72t67 177q0 105 -66 178q-67 73 -159 126t-186 111t-158 146q-66 89 -66 215t87 222t228 113v152h93v-150q150 -12 240 -116t97 -267h-126q-6 131 -72 197
q-67 66 -177 66t-176 -62q-66 -60 -65 -158q0 -98 66 -170q67 -72 159 -124t186 -108t158 -146q66 -92 66 -226z" />
    <glyph glyph-name="percent" unicode="%" horiz-adv-x="1159" 
d="M836 203q0 -125 97 -125t97 125v203q0 127 -96 126q-98 0 -98 -126v-203zM1130 203q0 -105 -55 -163t-142 -58t-142 58t-56 163v203q-1 104 55 163t143 59t142 -58q55 -60 55 -164v-203zM131 1026q0 -125 97 -125t98 125v203q0 127 -98 127t-97 -127v-203zM53 0l934 1434
h119l-934 -1434h-119zM228 805q-87 0 -142 58t-55 163v203q0 103 55 163t142 60q86 0 142 -59t56 -164v-203q0 -104 -55 -163q-56 -58 -143 -58z" />
    <glyph glyph-name="ampersand" unicode="&#x26;" horiz-adv-x="1171" 
d="M498 96q139 0 264 185q-266 367 -281 387q-188 -180 -188 -334q1 -104 59 -171t146 -67zM379 1174q0 -100 127 -314q94 86 143 154t49 144t-43 128q-43 51 -117 51q-74 -1 -116 -47q-43 -46 -43 -116zM485 -27q-143 -1 -235 93t-92 241t66 251t188 216q-160 252 -160 390
t76 216q76 80 215 80t213 -89t69 -216q-2 -78 -43 -156t-85 -125t-122 -120q104 -158 254 -359q45 92 72 180h141q-61 -180 -129 -296q109 -144 197 -279h-149q-78 115 -119 172q-156 -199 -357 -199z" />
    <glyph glyph-name="quotesingle" unicode="'" horiz-adv-x="256" 
d="M76 1434h137l-94 -426h-86z" />
    <glyph glyph-name="parenleft" unicode="(" horiz-adv-x="563" 
d="M158 88v1260q0 139 83 231t214 100v-116q-80 -7 -127 -65t-47 -150v-1260q0 -92 47 -150t127 -67v-117q-133 8 -215 100t-82 234z" />
    <glyph glyph-name="parenright" unicode=")" horiz-adv-x="563" 
d="M283 88v1260q0 92 -47 150t-127 65v116q131 -8 214 -100t83 -231v-1260q0 -142 -82 -234t-215 -100v117q80 9 127 67t47 150z" />
    <glyph glyph-name="asterisk" unicode="*" horiz-adv-x="598" 
d="M252 1479h92v-183l174 56l29 -86l-176 -56l108 -149l-73 -55l-109 149l-107 -147l-75 53l108 149l-172 56l27 88l174 -58v183z" />
    <glyph glyph-name="plus" unicode="+" horiz-adv-x="905" 
d="M811 690v-115h-301v-307h-115v307h-301v115h301v307h115v-307h301z" />
    <glyph glyph-name="comma" unicode="," horiz-adv-x="303" 
d="M104 160h138l-95 -426h-86z" />
    <glyph glyph-name="hyphen" unicode="-" horiz-adv-x="679" 
d="M94 469v115h492v-115h-492z" />
    <glyph glyph-name="period" unicode="." horiz-adv-x="372" 
d="M186 -20q-44 0 -70 26t-26 70t27 70t69 26t70 -27q27 -27 27 -69t-27 -70q-27 -26 -70 -26z" />
    <glyph glyph-name="slash" unicode="/" horiz-adv-x="831" 
d="M690 1659h121l-670 -1895h-121z" />
    <glyph glyph-name="zero" unicode="0" horiz-adv-x="933" 
d="M467 98q106 0 167 67q60 67 60 187v727q0 121 -59 189t-168 68t-168 -68t-59 -189v-727q0 -122 60 -188t167 -66zM467 -20q-156 0 -252 102t-96 270v727q0 167 95 271t253 104t253 -103t95 -272v-727q0 -168 -96 -270t-252 -102z" />
    <glyph glyph-name="one" unicode="1" horiz-adv-x="569" 
d="M412 1434v-1424h-123v1262l-236 -197v156l236 203h123z" />
    <glyph glyph-name="two" unicode="2" horiz-adv-x="825" 
d="M66 0v102q0 135 57 258q57 122 138 216t162 180q195 207 195 374q0 92 -57 150t-154 59q-97 0 -153 -62t-57 -181h-123q10 162 99 260t237 98t240 -92t91 -218q0 -221 -195 -431l-162 -176t-138 -198t-58 -224h568v-115h-690z" />
    <glyph glyph-name="three" unicode="3" horiz-adv-x="833" 
d="M379 838q180 0 269 -94t89 -267v-102q0 -187 -94 -291t-252 -104t-256 102t-98 299h123q10 -283 227 -283q229 0 229 277v102q0 127 -65 191q-66 63 -182 63h-129v103l305 487h-459v115h616v-88l-325 -510h2z" />
    <glyph glyph-name="four" unicode="4" horiz-adv-x="833" 
d="M829 502v-119h-174v-383h-123v383h-509v68l331 983h129l-315 -932h364v528h123v-528h174z" />
    <glyph glyph-name="five" unicode="5" horiz-adv-x="819" 
d="M446 956q136 0 218 -101t81 -286v-143q0 -446 -319 -446q-150 0 -237 94t-93 266h121q8 -242 209 -242q98 0 147 76t50 252v141q-1 139 -49 206t-152 67q-156 0 -197 -156h-116v750h596v-115h-476v-445q82 82 217 82z" />
    <glyph glyph-name="six" unicode="6" horiz-adv-x="880" 
d="M672 340v250q0 109 -65 171t-158 62t-150 -62t-57 -175v-246q0 -115 61 -178q61 -64 155 -64t154 64t60 178zM466 942q134 0 231 -98t98 -254v-250q-1 -164 -97 -262t-240 -98t-242 98q-97 98 -97 262v764q0 158 94 254q93 96 235 96t235 -94t103 -246h-122
q-6 104 -66 162t-148 59q-88 0 -148 -61t-60 -168v-260q90 96 224 96z" />
    <glyph glyph-name="seven" unicode="7" horiz-adv-x="720" 
d="M0 1436h659v-68l-395 -1372h-129l381 1321h-516v119z" />
    <glyph glyph-name="eight" unicode="8" horiz-adv-x="933" 
d="M709 369v34q0 129 -65 202q-66 73 -178 73t-176 -73t-65 -202v-34q-1 -127 63 -199t179 -72t179 72t63 199zM250 1085v-24q0 -125 57 -195t159 -70t161 70q57 70 57 195v24q0 119 -57 185t-159 66t-161 -66q-57 -66 -57 -185zM831 403v-34q0 -181 -96 -285t-268 -104
t-268 103t-97 286v34q0 117 50 206t139 130q-78 43 -121 128t-43 194v24q0 173 90 271t250 98t250 -97t90 -272v-24q0 -109 -43 -194t-121 -128q88 -41 138 -130t50 -206z" />
    <glyph glyph-name="nine" unicode="9" horiz-adv-x="880" 
d="M209 844q1 -110 65 -172t157 -62t151 62t57 176v246q0 115 -61 178q-60 63 -154 63t-154 -63t-61 -178v-250zM423 1454q143 0 241 -98t98 -262v-764q0 -158 -94 -254t-236 -96t-234 94q-93 94 -104 245h123q5 -104 65 -162q60 -59 149 -59t149 62t59 168v260
q-90 -96 -224 -96t-232 98q-97 98 -97 254v250q0 164 96 262q97 98 241 98z" />
    <glyph glyph-name="colon" unicode=":" horiz-adv-x="358" 
d="M180 -20q-44 0 -70 26t-26 70t27 70t69 26t70 -27q26 -27 26 -69t-26 -70q-27 -26 -70 -26zM180 690q-44 0 -70 27t-26 69t27 70q27 27 69 27t70 -27q26 -27 26 -70q0 -44 -26 -70t-70 -26z" />
    <glyph glyph-name="semicolon" unicode=";" horiz-adv-x="323" 
d="M104 160h138l-95 -426h-86zM166 690q-43 0 -70 27q-26 27 -26 69t26 70q27 27 70 27t70 -27q26 -27 26 -70q0 -44 -26 -70t-70 -26z" />
    <glyph glyph-name="less" unicode="&#x3c;" horiz-adv-x="843" 
d="M750 985v-121l-527 -231l527 -232v-120l-656 284v135z" />
    <glyph glyph-name="equal" unicode="=" horiz-adv-x="905" 
d="M94 412v114h717v-114h-717zM94 717v114h717v-114h-717z" />
    <glyph glyph-name="greater" unicode="&#x3e;" horiz-adv-x="843" 
d="M94 985l656 -285v-135l-656 -284v120l527 232l-527 231v121z" />
    <glyph glyph-name="question" unicode="?" horiz-adv-x="765" 
d="M350 -20q-44 0 -70 26t-26 70t27 70t69 26t70 -27q26 -27 26 -69t-26 -70q-27 -26 -70 -26zM285 295v129q0 175 105 301q44 53 88 105q106 125 106 278q0 104 -60 168t-155 63q-94 0 -155 -65q-60 -66 -60 -184h-123q6 168 99 266q94 98 240 98t241 -97t95 -264
t-105 -297q-44 -54 -88 -106q-107 -127 -105 -280v-115h-123z" />
    <glyph glyph-name="at" unicode="@" horiz-adv-x="1556" 
d="M772 342q78 0 124 48t46 145v223q0 78 -45 134t-131 56q-156 0 -156 -190v-221q0 -195 162 -195zM790 1499q318 0 488 -172t170 -504v-221q0 -168 -78 -259t-203 -91q-147 -4 -204 104q-63 -123 -207 -123q-113 0 -185 79t-71 225v221q0 143 69 220q70 77 193 77t184 -97
l12 78h93v-561q0 -115 116 -117q170 0 170 244v221q0 281 -141 425t-406 144t-418 -156q-153 -157 -153 -437v-269q0 -292 153 -456q154 -164 418 -164t410 119l55 -95q-170 -131 -476 -131t-488 193t-182 534v269q0 330 182 515q181 185 499 185z" />
    <glyph glyph-name="A" unicode="A" horiz-adv-x="937" 
d="M270 451h398l-148 593q-31 119 -49 226h-4q-18 -106 -49 -226zM780 0l-84 336h-454l-84 -336h-135l376 1434h140l376 -1434h-135z" />
    <glyph glyph-name="B" unicode="B" horiz-adv-x="1009" 
d="M526 119q141 1 210 67t69 204t-81 212t-220 74h-219v-557h241zM494 1315h-209v-520h213q248 0 248 260t-252 260zM934 391q0 -191 -108 -291t-300 -100h-368v1434h336q180 0 280 -98t100 -275q0 -131 -50 -212t-136 -106q114 -27 180 -117t66 -235z" />
    <glyph glyph-name="C" unicode="C" horiz-adv-x="983" 
d="M510 -25q-176 0 -283.5 114t-107.5 317v622q0 203 105.5 316.5t279.5 113.5t279.5 -107.5t115.5 -306.5h-123q-20 299 -274 299q-119 0 -189.5 -79.5t-70.5 -235.5v-622q0 -156 72.5 -236t195.5 -80q248 0 278 299h123q-16 -197 -120.5 -305.5t-280.5 -108.5z" />
    <glyph glyph-name="D" unicode="D" horiz-adv-x="1024" 
d="M285 121h194q143 0 221 76.5t78 226.5v584q0 152 -76.5 228.5t-222.5 76.5h-194v-1192zM158 0v1434h321q203 0 314.5 -110t111.5 -310v-596q0 -197 -112.5 -307.5t-313.5 -110.5h-321z" />
    <glyph glyph-name="E" unicode="E" horiz-adv-x="929" 
d="M285 117h563v-117h-690v1434h667v-117h-540v-531h506v-116h-506v-553z" />
    <glyph glyph-name="F" unicode="F" horiz-adv-x="860" 
d="M805 1317h-520v-551h485v-117h-485v-649h-127v1434h647v-117z" />
    <glyph glyph-name="G" unicode="G" horiz-adv-x="1015" 
d="M515 -20q-179 0 -287.5 113.5t-108.5 320.5v608q0 209 103.5 320.5t281.5 111.5t283.5 -107.5t113.5 -302.5h-123q-8 145 -78.5 218t-195.5 73t-193.5 -78.5t-68.5 -236.5v-606q0 -156 73.5 -236t200.5 -80t202 76t75 219v256h-279v115h399v-371q0 -193 -109.5 -303
t-288.5 -110z" />
    <glyph glyph-name="H" unicode="H" horiz-adv-x="1079" 
d="M795 1434h127v-1434h-127v670h-510v-670h-127v1434h127v-646h510v646z" />
    <glyph glyph-name="I" unicode="I" horiz-adv-x="442" 
d="M158 1434h127v-1434h-127v1434z" />
    <glyph glyph-name="J" unicode="J" horiz-adv-x="507" 
d="M0 -166v121q119 1 175 65t56 220v1194h127v-1194q0 -406 -358 -406z" />
    <glyph glyph-name="K" unicode="K" horiz-adv-x="983" 
d="M285 0h-127v1434h127v-684l116 168l367 516h158l-457 -625l514 -809h-152l-444 698l-102 -139v-559z" />
    <glyph glyph-name="L" unicode="L" horiz-adv-x="825" 
d="M285 121h524v-121h-651v1434h127v-1313z" />
    <glyph glyph-name="M" unicode="M" horiz-adv-x="1335" 
d="M1178 1434v-1434h-127v758q0 215 12 405l-8 2q-20 -59 -76.5 -198.5t-71.5 -178.5l-176 -450h-127l-176 450q-14 39 -70.5 178.5t-76.5 198.5l-9 -2q12 -190 13 -405v-758h-127v1434h135l256 -619q49 -123 115 -319h8q66 197 114 319l256 619h136z" />
    <glyph glyph-name="N" unicode="N" horiz-adv-x="1105" 
d="M821 1434h127v-1434h-131l-391 842q-78 166 -145 348l-7 -2q10 -272 11 -385v-803h-127v1434h131l387 -836q84 -174 155 -354l7 2q-16 279 -17 413v775z" />
    <glyph glyph-name="O" unicode="O" horiz-adv-x="1060" 
d="M530.5 96q139.5 0 211 90t71.5 258v545q0 168 -71.5 258t-211 90t-211 -90t-71.5 -258v-545q0 -168 71.5 -258t211 -90zM530.5 -27q-192.5 0 -302 127t-109.5 344v545q0 217 109.5 344t302 127t302 -127t109.5 -344v-545q0 -217 -109.5 -344t-302 -127z" />
    <glyph glyph-name="P" unicode="P" horiz-adv-x="983" 
d="M502 664q145 0 213.5 79.5t68.5 249.5q0 319 -282 320h-217v-649h217zM502 1434q197 0 303 -115t106 -331t-105.5 -330.5t-303.5 -114.5h-217v-543h-127v1434h344z" />
    <glyph glyph-name="Q" unicode="Q" horiz-adv-x="1062" 
d="M530 96q76 0 134 29l-146 176l82 72l148 -178q66 90 65 249v545q0 168 -71.5 258t-211 90t-211 -90t-71.5 -258v-545q0 -168 71.5 -258t210.5 -90zM119 444v545q0 217 109.5 344t302 127t302 -127t109.5 -344v-545q0 -223 -115 -350l117 -141l-82 -72l-119 146
q-90 -53 -213 -54q-193 0 -302 127t-109 344z" />
    <glyph glyph-name="R" unicode="R" horiz-adv-x="989" 
d="M285 1315v-637h198q139 0 211 84t72 244q0 309 -281 309h-200zM285 559v-559h-127v1434h327q197 0 303.5 -110t106.5 -303t-83 -309t-232 -145l352 -567h-148l-342 559h-157z" />
    <glyph glyph-name="S" unicode="S" horiz-adv-x="923" 
d="M465 -27q-178 0 -286.5 108.5t-112.5 287.5h127q4 -131 75.5 -202t195.5 -71t190.5 72t66.5 177t-65.5 178t-159 126t-186.5 110.5t-158.5 146.5t-65.5 204q0 150 103.5 250t268.5 100t265 -106.5t108 -278.5h-126q-6 131 -72 197q-67 66 -177 65.5t-175.5 -62
t-65.5 -158.5t65.5 -168.5t158.5 -124t186.5 -109t159 -146.5t65.5 -209q0 -158 -103.5 -272.5t-281.5 -114.5z" />
    <glyph glyph-name="T" unicode="T" horiz-adv-x="831" 
d="M795 1434v-119h-316v-1315h-127v1315h-315v119h758z" />
    <glyph glyph-name="U" unicode="U" horiz-adv-x="1052" 
d="M526.5 -18q-178.5 0 -285 114.5t-106.5 327.5v1010h127v-1010q0 -160 70.5 -240t193.5 -80t194 80t71 240v1010h127v-1010q0 -213 -106.5 -327.5t-285 -114.5z" />
    <glyph glyph-name="V" unicode="V" horiz-adv-x="921" 
d="M387 0l-364 1434h135l215 -897q42 -197 84 -363h8q66 278 84 363l215 897h135l-364 -1434h-148z" />
    <glyph glyph-name="W" unicode="W" horiz-adv-x="1458" 
d="M1303 1434h133l-318 -1434h-141l-174 780q-47 205 -70 451h-8q-23 -244 -70 -451l-174 -780h-141l-317 1434h133l180 -885q66 -336 70 -365h8q16 100 73 385l172 842h140l172 -842q57 -285 73 -385h9q4 29 69 365z" />
    <glyph glyph-name="X" unicode="X" horiz-adv-x="919" 
d="M881 0h-142l-278 625l-279 -625h-141l346 745l-328 689h142l260 -572l260 572h141l-327 -689z" />
    <glyph glyph-name="Y" unicode="Y" horiz-adv-x="864" 
d="M369 0v514l-359 920h135l205 -553q14 -37 41 -111t41 -111l287 775h135l-358 -920v-514h-127z" />
    <glyph glyph-name="Z" unicode="Z" horiz-adv-x="837" 
d="M774 119v-119h-733v96l569 1219h-542v119h696v-86l-574 -1229h584z" />
    <glyph glyph-name="bracketleft" unicode="[" horiz-adv-x="563" 
d="M455 1565h-174v-1696h174v-115h-297v1925h297v-114z" />
    <glyph glyph-name="backslash" unicode="\" horiz-adv-x="978" 
d="M215 1659l670 -1895h-121l-670 1895h121z" />
    <glyph glyph-name="bracketright" unicode="]" horiz-adv-x="563" 
d="M109 -131h174v1696h-174v114h297v-1925h-297v115z" />
    <glyph glyph-name="asciicircum" unicode="^" horiz-adv-x="632" 
d="M602 979h-125l-160 346l-161 -346h-125l217 455h137z" />
    <glyph glyph-name="underscore" unicode="_" horiz-adv-x="831" 
d="M47 -18h737v-113h-737v113z" />
    <glyph glyph-name="a" unicode="a" horiz-adv-x="915" 
d="M432.5 94q105.5 0 166 58.5t60.5 150.5v211h-217q-242 0 -241 -211q0 -102 63 -155.5t168.5 -53.5zM453 1100q152 0 239.5 -96.5t87.5 -260.5v-743h-104l-10 100q-86 -125 -243 -125t-251 88.5t-94 243t96 237.5t272 83h213v114q0 242 -213 242q-92 0 -150 -50t-65 -138
h-120q6 139 98 222t244 83z" />
    <glyph glyph-name="b" unicode="b" horiz-adv-x="946" 
d="M715 696q1 291 -227 291q-110 0 -172 -81t-62 -210v-313q0 -143 62.5 -219t160.5 -76q238 0 238 299v309zM502 1100q160 0 248 -103.5t88 -300.5v-309q0 -199 -91.5 -305.5t-249 -106.5t-247.5 125l-17 -100h-98v1483h119v-504q88 121 248 121z" />
    <glyph glyph-name="c" unicode="c" horiz-adv-x="884" 
d="M455 -20q-160 0 -253 100t-93 282v355q0 182 93 282.5t253 100.5t254 -100.5t98 -282.5h-123q-8 264 -230 264t-223 -264v-355q0 -264 223.5 -264t231.5 264h123q-4 -182 -99 -282t-255 -100z" />
    <glyph glyph-name="d" unicode="d" horiz-adv-x="946" 
d="M469 88q98 0 160.5 76t62.5 219v313q0 129 -62 210t-172 81q-228 0 -227 -291v-309q0 -299 238 -299zM692 1483h119v-1483h-98l-17 100q-90 -125 -248 -125t-248.5 106.5t-90.5 305.5v309q0 197 88 300.5t247.5 103.5t247.5 -121v504z" />
    <glyph glyph-name="e" unicode="e" horiz-adv-x="921" 
d="M459 981q-227 0 -228 -264v-125h463v125q1 264 -235 264zM459 -20q-164 0 -257 100t-93 282v355q0 182 94 282.5t256 100.5t259 -100.5t97 -282.5v-238h-584v-117q0 -264 228 -264q117 0 177.5 56.5t72.5 175.5h120q-12 -170 -109 -260t-261 -90z" />
    <glyph glyph-name="f" unicode="f" horiz-adv-x="593" 
d="M514 1399q-201 0 -201 -234v-90h236v-110h-236v-965h-120v965h-164v110h164v90q0 164 83 254q84 90 238 90h57v-110h-57z" />
    <glyph glyph-name="g" unicode="g" horiz-adv-x="948" 
d="M475 147q217 0 217 269v297q0 133 -61.5 202.5t-155.5 69.5q-244 0 -244 -293v-276q0 -133 63.5 -201t180.5 -68zM813 1075v-1149q0 -145 -93 -233t-246 -88t-245 84t-100 227h117q8 -96 66.5 -147.5t159.5 -51.5t160.5 55.5t59.5 153.5v209q-84 -102 -239.5 -102
t-249.5 100t-94 283v276q0 197 93 302.5t250 105.5t244 -133l17 108h100z" />
    <glyph glyph-name="h" unicode="h" horiz-adv-x="946" 
d="M535 1100q289 0 288 -451v-649h-121v639q0 184 -48 265t-156 81t-175 -89t-67 -247v-649h-121v1475h121v-535q93 160 279 160z" />
    <glyph glyph-name="i" unicode="i" horiz-adv-x="391" 
d="M135 0v1075h121v-1075h-121zM195 1274q-45 0 -72 26.5t-27 71.5t27 71.5t72 26.5t71.5 -26.5t26.5 -71.5t-26.5 -71.5t-71.5 -26.5z" />
    <glyph glyph-name="j" unicode="j" horiz-adv-x="477" 
d="M182 -20v1095h121v-1095q0 -176 -85 -274t-259 -99v117q123 2 173 65t50 191zM244 1272q-45 0 -72 26t-27 72q0 45 27 72q27 26 72 26q46 0 72 -26t26 -72t-26 -72t-72 -26z" />
    <glyph glyph-name="k" unicode="k" horiz-adv-x="870" 
d="M256 0h-121v1483h121v-887l408 479h153l-373 -434l426 -641h-145l-363 547l-106 -117v-430z" />
    <glyph glyph-name="l" unicode="l" horiz-adv-x="403" 
d="M141 0v1481h121v-1481h-121z" />
    <glyph glyph-name="m" unicode="m" horiz-adv-x="1480" 
d="M1079 1100q129 0 204 -104.5t75 -311.5v-684h-121v674q0 311 -184 311q-111 0 -178.5 -89t-67.5 -245v-651h-121v674q0 311 -190 311q-109 0 -174.5 -89t-65.5 -245v-651h-121v1075h101l18 -139q86 164 274 164t252 -207q82 207 299 207z" />
    <glyph glyph-name="n" unicode="n" horiz-adv-x="946" 
d="M535 1100q289 0 288 -412v-688h-121v670q0 164 -47 239.5t-155 75.5t-176 -89t-68 -245v-651h-121v1075h101l20 -133q91 158 279 158z" />
    <glyph glyph-name="o" unicode="o" horiz-adv-x="933" 
d="M466.5 94q235.5 0 235.5 271v346q0 270 -235.5 270t-235.5 -270v-346q0 -271 235.5 -271zM467 -25q-164 0 -261 101.5t-97 288.5v346q0 186 97 287.5t261 101.5t261 -101.5t97 -287.5v-346q0 -186 -97 -288t-261 -102z" />
    <glyph glyph-name="p" unicode="p" horiz-adv-x="946" 
d="M715 379v309q0 299 -238 299q-98 0 -160.5 -75.5t-62.5 -219.5v-313q0 -129 62 -210t172 -81q228 0 227 291zM498 1100q158 0 249 -106.5t91 -305.5v-309q0 -197 -88 -300.5t-248 -103.5t-248 121v-465h-119v1444h98l17 -100q90 125 248 125z" />
    <glyph glyph-name="q" unicode="q" horiz-adv-x="946" 
d="M231 379q-1 -291 227 -291q110 0 172 81t62 210v313q0 143 -62.5 219t-160.5 76q-238 0 -238 -299v-309zM811 1075v-1444h-119v465q-88 -121 -248 -121t-247.5 103.5t-87.5 300.5v309q0 199 91 305.5t248.5 106.5t247.5 -125l17 100h98z" />
    <glyph glyph-name="r" unicode="r" horiz-adv-x="677" 
d="M537 1098q68 0 108 -11v-131q-61 23 -135 23q-117 0 -185.5 -88t-68.5 -240v-651h-121v1075h101l20 -135v-2q93 160 281 160z" />
    <glyph glyph-name="s" unicode="s" horiz-adv-x="823" 
d="M415 -25q-155 0 -253.5 94.5t-98.5 249.5h121q0 -106 62.5 -165.5t168 -59.5t161 48t55.5 127t-57.5 127t-138.5 78t-161.5 63.5t-138 102.5t-57.5 185.5t89 195.5t237.5 79t239.5 -90t91 -240h-121q0 100 -56 156.5t-153.5 56.5t-150.5 -46t-53 -123t57 -122t138 -74.5
t162 -64.5t138.5 -105.5t57.5 -189.5t-92 -201t-247 -82z" />
    <glyph glyph-name="t" unicode="t" horiz-adv-x="608" 
d="M506 104h61v-114h-61q-147 0 -226 87t-79 242v644h-164v112h164v248h121v-248h221v-112h-221v-644q0 -215 184 -215z" />
    <glyph glyph-name="u" unicode="u" horiz-adv-x="946" 
d="M690 1075h121v-1075h-100l-21 133q-90 -158 -278 -158q-289 0 -289 412v688h121v-669q0 -164 47 -240t155 -76t176 89t68 245v651z" />
    <glyph glyph-name="v" unicode="v" horiz-adv-x="774" 
d="M631 1075h127l-305 -1075h-131l-306 1075h127l170 -629q12 -48 39 -160t31 -128h8l19 76q14 60 27 116t24 96z" />
    <glyph glyph-name="w" unicode="w" horiz-adv-x="1245" 
d="M1102 1075h127l-266 -1075h-134l-131 535q-57 233 -73 364h-4q-16 -131 -74 -364l-131 -535h-133l-267 1075h127l133 -586q52 -214 70 -337h4q41 219 78 378l129 525h131l129 -525q37 -160 78 -378h4q4 30 30.5 159t39.5 178z" />
    <glyph glyph-name="x" unicode="x" horiz-adv-x="778" 
d="M768 0h-141l-238 438l-237 -438h-142l309 537l-294 538h137l227 -422l227 422h138l-293 -538z" />
    <glyph glyph-name="y" unicode="y" horiz-adv-x="792" 
d="M158 -391h-70v119h53q63 0 95 39.5t57 119.5l67 222l-344 966h129l269 -784l235 784h127l-362 -1206q-39 -131 -95.5 -195.5t-160.5 -64.5z" />
    <glyph glyph-name="z" unicode="z" horiz-adv-x="731" 
d="M678 113v-113h-645v98l483 865h-461v112h607v-96l-484 -866h500z" />
    <glyph glyph-name="braceleft" unicode="{" horiz-adv-x="690" 
d="M397 991q0 -178 -141 -266q141 -88 141 -266v-377q-1 -94 53 -154t132 -59v-115q-127 0 -215 93t-88 235v377q-1 86 -49 137t-121 68v122q73 16 121 68t49 137v361q0 141 88 234t215 93v-114q-78 1 -131 -59t-54 -154v-361z" />
    <glyph glyph-name="bar" unicode="|" horiz-adv-x="399" 
d="M141 1628h117v-1802h-117v1802z" />
    <glyph glyph-name="braceright" unicode="}" horiz-adv-x="690" 
d="M412 977q0 -86 48 -137t122 -68v-123q-74 -16 -122 -67t-48 -138v-360q0 -140 -88 -234t-215 -94v115q78 0 131 59t53 154v360q0 178 141 267q-141 88 -141 266v377q0 94 -53 153t-131 60v114q127 0 215 -93t88 -234v-377z" />
    <glyph glyph-name="asciitilde" unicode="~" horiz-adv-x="942" 
d="M297 604q-80 0 -131 -76l-64 93q82 104 187 104q67 0 187 -49t165 -49q80 -1 131 75l66 -86q-78 -111 -189 -110q-67 0 -187 49t-165 49z" />
    <glyph glyph-name="exclamdown" unicode="&#xa1;" horiz-adv-x="450" 
d="M164 780h123v-1149h-123v1149zM225 1096q43 0 70 -27t27 -70t-27 -69t-70 -27q-43 0 -69 27q-26 28 -27 70q1 42 27 69t69 27z" />
    <glyph glyph-name="cent" unicode="&#xa2;" horiz-adv-x="872" 
d="M449 98q106 0 165 66t60 198h123q0 -166 -80 -265t-219 -115v-134h-109v136q-131 18 -206 116t-74 262v345q0 164 74 262q75 98 206 116v136h109v-134q139 -16 219 -115t80 -265h-123q0 133 -60 199t-165 65q-217 0 -218 -264v-345q1 -264 218 -264z" />
    <glyph glyph-name="sterling" unicode="&#xa3;" horiz-adv-x="964" 
d="M893 123v-123h-827v106q139 55 139 234v328h-144v114h144v279q0 178 91 286q91 107 244 107q154 0 246 -106t99 -293h-123q-6 137 -64 211t-158 74q-99 0 -156 -74q-56 -74 -56 -205v-279h387v-114h-387v-316q0 -147 -70 -229h635z" />
    <glyph glyph-name="currency" unicode="&#xa4;" horiz-adv-x="970" 
d="M485 360q102 0 161 66q58 66 59 182v123q-1 117 -59 183t-160 65q-102 0 -161 -66q-58 -66 -59 -182v-123q0 -116 58 -182t161 -66zM147 608v123q0 115 43 191l-106 127l78 67l92 -108q88 82 229 82t234 -82l92 108l78 -67l-107 -125q43 -76 43 -193v-123
q0 -117 -43 -192l107 -125l-78 -68l-92 109q-91 -82 -233 -82t-230 82l-92 -109l-78 68l106 127q-43 76 -43 190z" />
    <glyph glyph-name="yen" unicode="&#xa5;" horiz-adv-x="864" 
d="M811 608v-98h-315v-125h315v-98h-315v-287h-127v287h-316v98h316v125h-316v98h279l-322 826h135l205 -553q14 -37 41 -111t41 -111l287 775h135l-322 -826h279z" />
    <glyph glyph-name="brokenbar" unicode="&#xa6;" horiz-adv-x="358" 
d="M121 -133v590h117v-590h-117zM121 1038v590h117v-590h-117z" />
    <glyph glyph-name="section" unicode="&#xa7;" horiz-adv-x="841" 
d="M188 741q0 -80 64 -132t201 -99q90 6 141 53t51 124t-61 128t-176 100q-90 4 -155 -45t-65 -129zM737 188q0 -131 -88 -212q-87 -80 -237 -80t-244 93t-94 247h121q0 -104 58 -162q57 -58 157 -60q100 0 152 46t52 123t-56 127t-137 82t-162 68t-137 104t-56 164
q0 97 51 166t139 97q-152 90 -152 242q0 123 86 200t228 77t226 -88q85 -87 85 -232h-121q0 96 -50 149t-140 53t-140 -43t-50 -111t54 -116q56 -48 136 -81t160 -71t135 -108t55 -166q0 -186 -176 -264q145 -88 145 -244z" />
    <glyph glyph-name="copyright" unicode="&#xa9;" horiz-adv-x="1470" 
d="M733 297q-121 0 -193 77t-73 212v262q0 135 73 211q74 76 194 76t192 -76t71 -211h-104q0 92 -43 138t-117 46q-160 0 -160 -184v-262q0 -184 160 -185q76 -1 120 47t44 138h107q0 -135 -75 -212t-196 -77zM217 631q0 -269 135 -415t384 -146t383 146t134 415v184
q0 261 -134 405t-383 144t-384 -143t-135 -406v-184zM1352 631q0 -311 -162 -483t-454 -173q-292 0 -454 172t-163 484v184q0 305 163 474q162 169 454 169t454 -169t162 -474v-184z" />
    <glyph glyph-name="guillemotleft" unicode="&#xab;" horiz-adv-x="888" 
d="M672 182l-250 314v61l250 313h123l-273 -344l273 -344h-123zM344 182l-250 314v61l250 313h123l-272 -344l272 -344h-123z" />
    <glyph glyph-name="logicalnot" unicode="&#xac;" horiz-adv-x="942" 
d="M840 688v-282h-111v167h-616v115h727z" />
    <glyph glyph-name="registered" unicode="&#xae;" horiz-adv-x="952" 
d="M418 1221v-195h71q97 0 97 97t-97 98h-71zM647 1126q0 -131 -112 -157l122 -207h-69l-117 203h-53v-203h-62v520h133q76 0 117 -41t41 -115zM782 975v110q0 150 -79 233t-220 83t-221 -83t-80 -233v-110q0 -154 80 -240t221 -86t220 86t79 240zM483 1458q168 0 262 -98
t95 -275v-110q0 -179 -94 -281t-264 -102q-169 0 -263 101t-94 282v110q0 177 95 275t263 98z" />
    <glyph glyph-name="degree" unicode="&#xb0;" horiz-adv-x="647" 
d="M164 1198q0 -76 44 -122t116 -46t116 46t43 122q0 76 -44 122q-43 46 -115 46t-116 -46t-44 -122zM70 1198q0 116 70 188t184 72t184 -72t70 -188t-70 -188t-184 -72t-184 72t-70 188z" />
    <glyph glyph-name="plusminus" unicode="&#xb1;" horiz-adv-x="942" 
d="M113 139v115h716v-115h-716zM528 764h301v-115h-301v-307h-114v307h-301v115h301v307h114v-307z" />
    <glyph glyph-name="paragraph" unicode="&#xb6;" horiz-adv-x="1167" 
d="M1010 1434v-1627h-125v1508h-326v-1508h-125v992q-145 0 -235 86t-90 231q0 146 90 232t235 86h576z" />
    <glyph glyph-name="periodcentered" unicode="&#xb7;" horiz-adv-x="372" 
d="M186 432q-44 0 -70 27t-26 69t27 70q27 27 69 27t70 -27q27 -27 27 -70q0 -44 -27 -70t-70 -26z" />
    <glyph glyph-name="guillemotright" unicode="&#xbb;" horiz-adv-x="888" 
d="M545 182h-123l272 344l-272 344h123l250 -313v-61zM217 182h-123l273 344l-273 344h123l250 -313v-61z" />
    <glyph glyph-name="questiondown" unicode="&#xbf;" horiz-adv-x="765" 
d="M481 782v-129q0 -175 -105 -301q-44 -53 -88 -105q-106 -125 -106 -278q0 -103 60 -167t155 -64q94 0 155 65q60 66 60 185h123q-6 -168 -99 -266q-94 -98 -240 -99q-146 0 -241 97t-95 263t105 299q44 54 88 106q107 126 105 280v114h123zM416 1098q44 0 70 -27t26 -70
t-27 -69t-69 -27q-42 0 -70 27q-27 28 -27 70t27 69t70 27z" />
    <glyph glyph-name="Agrave" unicode="&#xc0;" horiz-adv-x="937" 
d="M270 451h398l-148 593q-31 119 -49 226h-4q-18 -106 -49 -226zM780 0l-84 336h-454l-84 -336h-135l376 1434h140l376 -1434h-135zM551 1575h-121l-215 231h147z" />
    <glyph glyph-name="Aacute" unicode="&#xc1;" horiz-adv-x="937" 
d="M270 451h398l-148 593q-31 119 -49 226h-4q-18 -106 -49 -226zM780 0l-84 336h-454l-84 -336h-135l376 1434h140l376 -1434h-135zM702 1806l-215 -231h-120l188 231h147z" />
    <glyph glyph-name="Acircumflex" unicode="&#xc2;" horiz-adv-x="937" 
d="M270 451h398l-148 593q-31 119 -49 226h-4q-18 -106 -49 -226zM780 0l-84 336h-454l-84 -336h-135l376 1434h140l376 -1434h-135zM465 1718l-117 -143h-115l166 231h131l166 -231h-114z" />
    <glyph glyph-name="Atilde" unicode="&#xc3;" horiz-adv-x="937" 
d="M270 451h398l-148 593q-31 119 -49 226h-4q-18 -106 -49 -226zM780 0l-84 336h-454l-84 -336h-135l376 1434h140l376 -1434h-135zM393 1694q-33 0 -39 -60h-110q4 74 41 117t91 43t102 -32.5t65 -32.5q41 0 47 59h102q-8 -76 -44 -118t-88 -42t-100.5 33t-66.5 33z" />
    <glyph glyph-name="Adieresis" unicode="&#xc4;" horiz-adv-x="937" 
d="M270 451h398l-148 593q-31 119 -49 226h-4q-18 -106 -49 -226zM780 0l-84 336h-454l-84 -336h-135l376 1434h140l376 -1434h-135zM598 1614q-37 0 -60.5 21.5t-23.5 58.5t23.5 58.5t60.5 21.5t59.5 -21.5t22.5 -58.5t-22.5 -58.5t-59.5 -21.5zM331 1614q-36 0 -58.5 21.5
t-22.5 58.5t22.5 58.5t58.5 21.5t58.5 -21.5t22.5 -58.5t-22.5 -58.5t-58.5 -21.5z" />
    <glyph glyph-name="Aring" unicode="&#xc5;" horiz-adv-x="937" 
d="M270 451h398l-148 593q-31 119 -49 226h-4q-18 -106 -49 -226zM780 0l-84 336h-454l-84 -336h-135l376 1434h140l376 -1434h-135zM464 1767q-28 0 -45.5 -17t-17.5 -46q0 -63 64 -64q29 0 46 17.5t17 46.5t-18 46t-46 17zM464.5 1565q-63.5 0 -103 38.5t-39.5 101
t39.5 100.5t103 38t103.5 -38t40 -100t-40 -101t-103.5 -39z" />
    <glyph glyph-name="AE" unicode="&#xc6;" horiz-adv-x="1433" 
d="M688 492v802h-2l-84 -219l-250 -583h336zM815 117h537v-117h-664v377h-383l-162 -377h-143l633 1434h696v-117h-514v-531h479v-116h-479v-553z" />
    <glyph glyph-name="Ccedilla" unicode="&#xc7;" horiz-adv-x="983" 
d="M551 -100q59 0 102 -39t43 -107t-52 -110.5t-131 -42.5t-129 40t-56 109h100q12 -57 84 -57q39 0 62.5 18.5t23.5 52.5q0 70 -80 70q-39 0 -63 -14l-35 33l39 124q-156 16 -248 128t-92 301v622q0 203 105.5 316.5t279.5 113.5t279.5 -107.5t115.5 -306.5h-123
q-20 299 -274 299q-119 0 -189.5 -79.5t-70.5 -235.5v-622q0 -156 72.5 -236t195.5 -80q248 0 278 299h123q-14 -186 -109 -293.5t-255 -118.5l-25 -79q8 2 29 2z" />
    <glyph glyph-name="Egrave" unicode="&#xc8;" horiz-adv-x="929" 
d="M285 117h563v-117h-690v1434h667v-117h-540v-531h506v-116h-506v-553zM582 1575h-121l-215 231h147z" />
    <glyph glyph-name="Eacute" unicode="&#xc9;" horiz-adv-x="929" 
d="M285 117h563v-117h-690v1434h667v-117h-540v-531h506v-116h-506v-553zM668 1806l-215 -231h-121l188 231h148z" />
    <glyph glyph-name="Ecircumflex" unicode="&#xca;" horiz-adv-x="929" 
d="M285 117h563v-117h-690v1434h667v-117h-540v-531h506v-116h-506v-553zM496 1718l-117 -143h-115l166 231h131l166 -231h-115z" />
    <glyph glyph-name="Edieresis" unicode="&#xcb;" horiz-adv-x="929" 
d="M285 117h563v-117h-690v1434h667v-117h-540v-531h506v-116h-506v-553zM629 1614q-37 0 -60.5 21.5t-23.5 58.5t23.5 58.5t60.5 21.5t59.5 -21.5t22.5 -58.5t-22.5 -58.5t-59.5 -21.5zM361 1614q-36 0 -58 21.5t-22 58.5t22.5 58.5t58 21.5t58 -21.5t22.5 -58.5
t-22.5 -58.5t-58.5 -21.5z" />
    <glyph glyph-name="Igrave" unicode="&#xcc;" horiz-adv-x="442" 
d="M158 1434h127v-1434h-127v1434zM311 1575h-121l-215 231h148z" />
    <glyph glyph-name="Iacute" unicode="&#xcd;" horiz-adv-x="442" 
d="M158 1434h127v-1434h-127v1434zM127 1575l188 231h148l-215 -231h-121z" />
    <glyph glyph-name="Icircumflex" unicode="&#xce;" horiz-adv-x="442" 
d="M158 0v1434h127v-1434h-127zM291 1806l166 -231h-115l-117 143l-116 -143h-115l166 231h131z" />
    <glyph glyph-name="Idieresis" unicode="&#xcf;" horiz-adv-x="475" 
d="M170 1434h127v-1434h-127v1434zM352 1614q-36 0 -60 22t-24 58t24 58t60 22t60 -22q22 -22 22 -58t-22 -59q-23 -21 -60 -21zM122 1774q36 0 58 -22t23 -58q-1 -36 -23 -58t-58 -22t-59 22t-22 58t23 58t58 22z" />
    <glyph glyph-name="Eth" unicode="&#xd0;" horiz-adv-x="1052" 
d="M807 424v584q0 152 -77 228t-222 77h-195v-531h203v-112h-203v-549h195q143 1 221 77t78 226zM508 1434q202 0 314 -110t112 -310v-596q0 -198 -113 -308t-313 -110h-322v670h-161v112h161v652h322z" />
    <glyph glyph-name="Ntilde" unicode="&#xd1;" horiz-adv-x="1105" 
d="M821 1434h127v-1434h-131l-391 842q-78 166 -145 348l-7 -2q10 -272 11 -385v-803h-127v1434h131l387 -836q84 -174 155 -354l7 2q-16 279 -17 413v775zM481 1694q-33 0 -39 -60h-110q4 74 41 117t91 43t102 -32.5t65 -32.5q41 0 47 59h102q-8 -76 -44 -118t-88 -42
t-100.5 33t-66.5 33z" />
    <glyph glyph-name="Ograve" unicode="&#xd2;" horiz-adv-x="1060" 
d="M530.5 96q139.5 0 211 90t71.5 258v545q0 168 -71.5 258t-211 90t-211 -90t-71.5 -258v-545q0 -168 71.5 -258t211 -90zM530.5 -27q-192.5 0 -302 127t-109.5 344v545q0 217 109.5 344t302 127t302 -127t109.5 -344v-545q0 -217 -109.5 -344t-302 -127zM616 1575h-120
l-215 231h147z" />
    <glyph glyph-name="Oacute" unicode="&#xd3;" horiz-adv-x="1060" 
d="M530.5 96q139.5 0 211 90t71.5 258v545q0 168 -71.5 258t-211 90t-211 -90t-71.5 -258v-545q0 -168 71.5 -258t211 -90zM530.5 -27q-192.5 0 -302 127t-109.5 344v545q0 217 109.5 344t302 127t302 -127t109.5 -344v-545q0 -217 -109.5 -344t-302 -127zM432 1575l189 231
h147l-215 -231h-121z" />
    <glyph glyph-name="Ocircumflex" unicode="&#xd4;" horiz-adv-x="1060" 
d="M813 444v545q0 168 -71.5 258t-211 90t-211 -90t-71.5 -258v-545q0 -168 71.5 -258t211 -90t211 90t71.5 258zM530.5 1460q192.5 0 302 -127t109.5 -344v-545q0 -217 -109.5 -344t-302 -127t-302 127t-109.5 344v545q0 217 109.5 344t302 127zM530 1718l-116 -143h-115
l166 231h131l166 -231h-115z" />
    <glyph glyph-name="Otilde" unicode="&#xd5;" horiz-adv-x="1060" 
d="M530.5 96q139.5 0 211 90t71.5 258v545q0 168 -71.5 258t-211 90t-211 -90t-71.5 -258v-545q0 -168 71.5 -258t211 -90zM530.5 -27q-192.5 0 -302 127t-109.5 344v545q0 217 109.5 344t302 127t302 -127t109.5 -344v-545q0 -217 -109.5 -344t-302 -127zM459 1694
q-33 0 -39 -60h-111q4 74 41 117q38 43 92 43t102 -32.5t64 -32.5q41 0 47 59h103q-8 -76 -44 -118t-88 -42t-100.5 33t-66.5 33z" />
    <glyph glyph-name="Odieresis" unicode="&#xd6;" horiz-adv-x="1060" 
d="M530.5 96q139.5 0 211 90t71.5 258v545q0 168 -71.5 258t-211 90t-211 -90t-71.5 -258v-545q0 -168 71.5 -258t211 -90zM530.5 -27q-192.5 0 -302 127t-109.5 344v545q0 217 109.5 344t302 127t302 -127t109.5 -344v-545q0 -217 -109.5 -344t-302 -127zM663.5 1614
q-36.5 0 -60 21.5t-23.5 58.5t23.5 58.5t60 21.5t59 -21.5t22.5 -58.5t-22.5 -58.5t-59 -21.5zM396 1614q-36 0 -58.5 21.5t-22.5 58.5t22.5 58.5t58.5 21.5t58.5 -21.5t22.5 -58.5t-22.5 -58.5t-58.5 -21.5z" />
    <glyph glyph-name="multiply" unicode="&#xd7;" horiz-adv-x="919" 
d="M168 244l-82 82l293 290l-291 291l78 84l295 -293l293 291l80 -82l-291 -291l291 -290l-80 -82l-293 293z" />
    <glyph glyph-name="Oslash" unicode="&#xd8;" horiz-adv-x="1048" 
d="M801 446v541q0 145 -51 230l-338 -1098q47 -20 112 -21q135 0 206 90t71 258zM248 446q0 -164 67 -251l340 1112q-57 29 -131 28q-135 0 -206 -90t-70 -258v-541zM930 987v-541q0 -217 -108 -344t-298 -127q-82 0 -149 25l-37 -123h-121l55 180q-154 125 -153 389v541
q0 217 107 344q108 127 298 127q96 0 168 -33l41 131h121l-59 -196q135 -125 135 -373z" />
    <glyph glyph-name="Ugrave" unicode="&#xd9;" horiz-adv-x="1052" 
d="M526.5 -18q-178.5 0 -285 114.5t-106.5 327.5v1010h127v-1010q0 -160 70.5 -240t193.5 -80t194 80t71 240v1010h127v-1010q0 -213 -106.5 -327.5t-285 -114.5zM612 1575h-120l-216 231h148z" />
    <glyph glyph-name="Uacute" unicode="&#xda;" horiz-adv-x="1052" 
d="M526.5 -18q-178.5 0 -285 114.5t-106.5 327.5v1010h127v-1010q0 -160 70.5 -240t193.5 -80t194 80t71 240v1010h127v-1010q0 -213 -106.5 -327.5t-285 -114.5zM428 1575l188 231h148l-215 -231h-121z" />
    <glyph glyph-name="Ucircumflex" unicode="&#xdb;" horiz-adv-x="1052" 
d="M791 1434h127v-1010q0 -213 -106.5 -327.5t-285 -114.5t-285 114.5t-106.5 327.5v1010h127v-1010q0 -160 70.5 -240t193.5 -80t194 80t71 240v1010zM526 1718l-116 -143h-115l166 231h131l166 -231h-115z" />
    <glyph glyph-name="Udieresis" unicode="&#xdc;" horiz-adv-x="1052" 
d="M526.5 -18q-178.5 0 -285 114.5t-106.5 327.5v1010h127v-1010q0 -160 70.5 -240t193.5 -80t194 80t71 240v1010h127v-1010q0 -213 -106.5 -327.5t-285 -114.5zM659.5 1614q-36.5 0 -60.5 21.5t-24 58.5t24 58.5t60.5 21.5t59 -21.5t22.5 -58.5t-22.5 -58.5t-59 -21.5z
M392 1614q-36 0 -58.5 21.5t-22.5 58.5t22.5 58.5t58.5 21.5t58.5 -21.5t22.5 -58.5t-22.5 -58.5t-58.5 -21.5z" />
    <glyph glyph-name="Yacute" unicode="&#xdd;" horiz-adv-x="864" 
d="M369 0v514l-359 920h135l205 -553q14 -37 41 -111t41 -111l287 775h135l-358 -920v-514h-127zM334 1575l188 231h148l-215 -231h-121z" />
    <glyph glyph-name="Thorn" unicode="&#xde;" horiz-adv-x="958" 
d="M502 414q145 0 214 80t68 249q0 319 -282 320h-217v-649h217zM502 1184q197 0 303 -115t106 -331t-105 -330t-304 -115h-217v-293h-127v1434h127v-250h217z" />
    <glyph glyph-name="germandbls" unicode="&#xdf;" horiz-adv-x="946" 
d="M872 371q0 -167 -100 -269t-280 -102h-132v121h132q129 1 190 67t61 207q0 287 -251 287h-132v119h97q227 0 227 270t-217 270q-109 -1 -159 -71t-50 -217v-1053h-123v1053q0 193 86 299t248 106t251 -104t89 -285q0 -131 -44 -213t-120 -106q227 -58 227 -379z" />
    <glyph glyph-name="agrave" unicode="&#xe0;" horiz-adv-x="915" 
d="M432.5 94q105.5 0 166 58.5t60.5 150.5v211h-217q-242 0 -241 -211q0 -102 63 -155.5t168.5 -53.5zM453 1100q152 0 239.5 -96.5t87.5 -260.5v-743h-104l-10 100q-86 -125 -243 -125t-251 88.5t-94 243t96 237.5t272 83h213v114q0 242 -213 242q-92 0 -150 -50t-65 -138
h-120q6 139 98 222t244 83zM545 1249h-119l-178 232h143z" />
    <glyph glyph-name="aacute" unicode="&#xe1;" horiz-adv-x="915" 
d="M432.5 94q105.5 0 166 58.5t60.5 150.5v211h-217q-242 0 -241 -211q0 -102 63 -155.5t168.5 -53.5zM453 1100q152 0 239.5 -96.5t87.5 -260.5v-743h-104l-10 100q-86 -125 -243 -125t-251 88.5t-94 243t96 237.5t272 83h213v114q0 242 -213 242q-92 0 -150 -50t-65 -138
h-120q6 139 98 222t244 83zM635 1481l-178 -232h-119l154 232h143z" />
    <glyph glyph-name="acircumflex" unicode="&#xe2;" horiz-adv-x="915" 
d="M432.5 94q105.5 0 166 58.5t60.5 150.5v211h-217q-242 0 -241 -211q0 -102 63 -155.5t168.5 -53.5zM453 1100q152 0 239.5 -96.5t87.5 -260.5v-743h-104l-10 100q-86 -125 -243 -125t-251 88.5t-94 243t96 237.5t272 83h213v114q0 242 -213 242q-92 0 -150 -50t-65 -138
h-120q6 139 98 222t244 83zM446 1391l-116 -144h-115l166 232h131l166 -232h-115z" />
    <glyph glyph-name="atilde" unicode="&#xe3;" horiz-adv-x="915" 
d="M432.5 94q105.5 0 166 58.5t60.5 150.5v211h-217q-242 0 -241 -211q0 -102 63 -155.5t168.5 -53.5zM453 1100q152 0 239.5 -96.5t87.5 -260.5v-743h-104l-10 100q-86 -125 -243 -125t-251 88.5t-94 243t96 237.5t272 83h213v114q0 242 -213 242q-92 0 -150 -50t-65 -138
h-120q6 139 98 222t244 83zM371 1346q-33 0 -39 -60h-111q4 74 41 117t91 43t102.5 -33t64.5 -33q41 0 47 60h103q-8 -76 -44 -118t-88.5 -42t-100.5 33t-66 33z" />
    <glyph glyph-name="adieresis" unicode="&#xe4;" horiz-adv-x="915" 
d="M432.5 94q105.5 0 166 58.5t60.5 150.5v211h-217q-242 0 -241 -211q0 -102 63 -155.5t168.5 -53.5zM453 1100q152 0 239.5 -96.5t87.5 -260.5v-743h-104l-10 100q-86 -125 -243 -125t-251 88.5t-94 243t96 237.5t272 83h213v114q0 242 -213 242q-92 0 -150 -50t-65 -138
h-120q6 139 98 222t244 83zM567 1292q-37 0 -60.5 21.5t-23.5 58.5t23.5 58.5t60.5 21.5t59.5 -21.5t22.5 -58.5t-22.5 -58.5t-59.5 -21.5zM325 1292q-36 0 -58.5 21.5t-22.5 58.5t22.5 58.5t58.5 21.5t58.5 -21.5t22.5 -58.5t-22.5 -58.5t-58.5 -21.5z" />
    <glyph glyph-name="aring" unicode="&#xe5;" horiz-adv-x="915" 
d="M432.5 94q105.5 0 166 58.5t60.5 150.5v211h-217q-242 0 -241 -211q0 -102 63 -155.5t168.5 -53.5zM453 1100q152 0 239.5 -96.5t87.5 -260.5v-743h-104l-10 100q-86 -125 -243 -125t-251 88.5t-94 243t96 237.5t272 83h213v114q0 242 -213 242q-92 0 -150 -50t-65 -138
h-120q6 139 98 222t244 83zM446.5 1444q-28.5 0 -46 -17.5t-17.5 -46.5q0 -63 63 -63q29 0 46.5 17.5t17.5 46t-17.5 46t-46 17.5zM446.5 1241q-63.5 0 -103.5 39t-40 101t40 100.5t103.5 38.5t103.5 -38t40 -100.5t-40 -101.5t-103.5 -39z" />
    <glyph glyph-name="ae" unicode="&#xe6;" horiz-adv-x="1404" 
d="M637 299v205h-186q-250 0 -250 -201q0 -101 61 -155q62 -54 164 -54t156 56t55 149zM760 717v-107h428v107q0 264 -214 264t-214 -264zM1192 350h121q0 -176 -92 -273t-248 -97q-190 0 -277 147q-36 -65 -112 -105t-176 -40q-145 0 -238 88q-92 88 -92 238t97 228
q97 79 282 78h180v148q0 102 -51 160q-50 58 -144 59q-94 0 -149 -49t-62 -137h-120q6 139 97 222t252 83t242 -148q88 148 256 148t260 -100q91 -100 91 -283v-213h-549v-142q0 -264 213 -264q219 0 219 252z" />
    <glyph glyph-name="ccedilla" unicode="&#xe7;" horiz-adv-x="884" 
d="M489 -100q59 0 102.5 -39t43.5 -107t-52.5 -110.5t-131.5 -42.5t-129 40t-56 109h101q12 -57 84 -57q39 0 62.5 18.5t23.5 52.5q0 70 -80 70q-39 0 -64 -14l-35 33l39 131q-135 16 -211.5 115.5t-76.5 262.5v355q0 182 93 282.5t253 100.5t254 -100.5t98 -282.5h-123
q-8 264 -230 264t-223 -264v-355q0 -264 223.5 -264t231.5 264h123q-4 -174 -90 -272t-234 -108l-24 -84q8 2 28 2z" />
    <glyph glyph-name="egrave" unicode="&#xe8;" horiz-adv-x="921" 
d="M459 981q-227 0 -228 -264v-125h463v125q1 264 -235 264zM459 -20q-164 0 -257 100t-93 282v355q0 182 94 282.5t256 100.5t259 -100.5t97 -282.5v-238h-584v-117q0 -264 228 -264q117 0 177.5 56.5t72.5 175.5h120q-12 -170 -109 -260t-261 -90zM555 1239h-119l-178 231
h143z" />
    <glyph glyph-name="eacute" unicode="&#xe9;" horiz-adv-x="921" 
d="M459 981q-227 0 -228 -264v-125h463v125q1 264 -235 264zM459 -20q-164 0 -257 100t-93 282v355q0 182 94 282.5t256 100.5t259 -100.5t97 -282.5v-238h-584v-117q0 -264 228 -264q117 0 177.5 56.5t72.5 175.5h120q-12 -170 -109 -260t-261 -90zM645 1470l-178 -231
h-119l154 231h143z" />
    <glyph glyph-name="ecircumflex" unicode="&#xea;" horiz-adv-x="921" 
d="M459 981q-227 0 -228 -264v-125h463v125q1 264 -235 264zM459 -20q-164 0 -257 100t-93 282v355q0 182 94 282.5t256 100.5t259 -100.5t97 -282.5v-238h-584v-117q0 -264 228 -264q117 0 177.5 56.5t72.5 175.5h120q-12 -170 -109 -260t-261 -90zM457 1380l-117 -143
h-115l166 231h131l166 -231h-115z" />
    <glyph glyph-name="edieresis" unicode="&#xeb;" horiz-adv-x="921" 
d="M459 981q-227 0 -228 -264v-125h463v125q1 264 -235 264zM459 -20q-164 0 -257 100t-93 282v355q0 182 94 282.5t256 100.5t259 -100.5t97 -282.5v-238h-584v-117q0 -264 228 -264q117 0 177.5 56.5t72.5 175.5h120q-12 -170 -109 -260t-261 -90zM577.5 1282
q-36.5 0 -60 21.5t-23.5 58.5t23.5 58.5t60 21.5t59 -21.5t22.5 -58.5t-22.5 -58.5t-59 -21.5zM335 1282q-36 0 -58.5 21.5t-22.5 58.5t22.5 58.5t58.5 21.5t58.5 -21.5t22.5 -58.5t-22.5 -58.5t-58.5 -21.5z" />
    <glyph glyph-name="igrave" unicode="&#xec;" horiz-adv-x="391" 
d="M135 0v1075h121v-1075h-121zM-2 1481h143l154 -232h-119z" />
    <glyph glyph-name="iacute" unicode="&#xed;" horiz-adv-x="391" 
d="M135 0v1075h121v-1075h-121zM385 1481l-178 -232h-119l154 232h143z" />
    <glyph glyph-name="icircumflex" unicode="&#xee;" horiz-adv-x="466" 
d="M172 0v1075h121v-1075h-121zM299 1479l158 -232h-113l-111 144l-110 -144h-113l158 232h131z" />
    <glyph glyph-name="idieresis" unicode="&#xef;" horiz-adv-x="409" 
d="M143 0v1075h121v-1075h-121zM319.5 1294q-36.5 0 -59 20.5t-22.5 57.5t22.5 57.5t59 20.5t58 -20.5t21.5 -57.5t-21.5 -57.5t-58 -20.5zM89 1294q-36 0 -57.5 20.5t-21.5 57.5t21.5 57.5t57.5 20.5t57.5 -20.5t21.5 -57.5t-21.5 -57.5t-57.5 -20.5z" />
    <glyph glyph-name="eth" unicode="&#xf0;" horiz-adv-x="915" 
d="M682 367v299q0 132 -60 200t-165 68q-225 0 -226 -268v-299q0 -268 224 -269q227 1 227 269zM805 911v-544q0 -183 -94 -285t-255 -102t-254 101t-93 286v299q0 182 89 284q90 102 244 102t242 -110q-8 170 -123 291l-170 -92l-33 67l144 76q-82 63 -213 105l39 110
q164 -41 286 -153l148 79l33 -67l-127 -68q137 -160 137 -379z" />
    <glyph glyph-name="ntilde" unicode="&#xf1;" horiz-adv-x="946" 
d="M535 1100q289 0 288 -412v-688h-121v670q0 164 -47 239.5t-155 75.5t-176 -89t-68 -245v-651h-121v1075h101l20 -133q91 158 279 158zM397 1335q-33 0 -39 -59h-110q4 74 41 117t91 43t102 -33t65 -33q41 0 47 60h102q-8 -76 -44 -118t-88 -42t-100.5 32.5t-66.5 32.5z
" />
    <glyph glyph-name="ograve" unicode="&#xf2;" horiz-adv-x="933" 
d="M466.5 94q235.5 0 235.5 271v346q0 270 -235.5 270t-235.5 -270v-346q0 -271 235.5 -271zM467 -25q-164 0 -261 101.5t-97 288.5v346q0 186 97 287.5t261 101.5t261 -101.5t97 -287.5v-346q0 -186 -97 -288t-261 -102zM268 1481h144l153 -232h-119z" />
    <glyph glyph-name="oacute" unicode="&#xf3;" horiz-adv-x="933" 
d="M466.5 94q235.5 0 235.5 271v346q0 270 -235.5 270t-235.5 -270v-346q0 -271 235.5 -271zM467 -25q-164 0 -261 101.5t-97 288.5v346q0 186 97 287.5t261 101.5t261 -101.5t97 -287.5v-346q0 -186 -97 -288t-261 -102zM655 1481l-178 -232h-119l154 232h143z" />
    <glyph glyph-name="ocircumflex" unicode="&#xf4;" horiz-adv-x="933" 
d="M702 365v346q0 270 -235.5 270t-235.5 -270v-346q0 -270 235.5 -270t235.5 270zM467 1100q164 0 261 -101.5t97 -287.5v-346q0 -186 -97 -288t-261 -102t-261 101.5t-97 288.5v346q0 186 97 287.5t261 101.5zM467 1391l-117 -144h-114l165 232h131l166 -232h-114z" />
    <glyph glyph-name="otilde" unicode="&#xf5;" horiz-adv-x="933" 
d="M466.5 94q235.5 0 235.5 271v346q0 270 -235.5 270t-235.5 -270v-346q0 -271 235.5 -271zM467 -25q-164 0 -261 101.5t-97 288.5v346q0 186 97 287.5t261 101.5t261 -101.5t97 -287.5v-346q0 -186 -97 -288t-261 -102zM391 1346q-33 0 -39 -60h-110q4 74 40 117
q38 43 92 43t102 -33t65 -33q41 0 47 60h102q-8 -76 -44 -118t-88 -42t-100.5 33t-66.5 33z" />
    <glyph glyph-name="odieresis" unicode="&#xf6;" horiz-adv-x="933" 
d="M466.5 94q235.5 0 235.5 271v346q0 270 -235.5 270t-235.5 -270v-346q0 -271 235.5 -271zM467 -25q-164 0 -261 101.5t-97 288.5v346q0 186 97 287.5t261 101.5t261 -101.5t97 -287.5v-346q0 -186 -97 -288t-261 -102zM588 1292q-37 0 -60.5 21.5t-23.5 58.5t23.5 58.5
t60.5 21.5t59.5 -21.5t22.5 -58.5t-22.5 -58.5t-59.5 -21.5zM345 1292q-36 0 -58.5 21.5t-22.5 58.5t22.5 58.5t58.5 21.5t58.5 -21.5t22.5 -58.5t-22.5 -58.5t-58.5 -21.5z" />
    <glyph glyph-name="divide" unicode="&#xf7;" horiz-adv-x="905" 
d="M453 231q-39 0 -67 28t-28 67q0 38 28 66t67 28t67 -28t27 -66q1 -38 -27 -67q-28 -28 -67 -28zM94 575v115h717v-115h-717zM453 829q-39 0 -67 28t-28 67q0 38 28 66t67 28t67 -28t27 -66q1 -38 -27 -67q-28 -28 -67 -28z" />
    <glyph glyph-name="oslash" unicode="&#xf8;" horiz-adv-x="933" 
d="M702 369v342q0 104 -36 170l-310 -762q47 -20 111 -21q235 1 235 271zM231 369q0 -104 39 -170l310 759q-45 23 -113 23q-236 0 -236 -270v-342zM825 369q0 -185 -97 -287t-261 -102q-86 0 -156 28l-53 -131h-119l78 193q-109 102 -108 299v342q0 186 97 287t261 102
q84 0 158 -29l51 127h119l-78 -188q109 -104 108 -299v-342z" />
    <glyph glyph-name="ugrave" unicode="&#xf9;" horiz-adv-x="946" 
d="M690 1075h121v-1075h-100l-21 133q-90 -158 -278 -158q-289 0 -289 412v688h121v-669q0 -164 47 -240t155 -76t176 89t68 245v651zM569 1239h-118l-179 231h144z" />
    <glyph glyph-name="uacute" unicode="&#xfa;" horiz-adv-x="946" 
d="M690 1075h121v-1075h-100l-21 133q-90 -158 -278 -158q-289 0 -289 412v688h121v-669q0 -164 47 -240t155 -76t176 89t68 245v651zM659 1470l-178 -231h-119l154 231h143z" />
    <glyph glyph-name="ucircumflex" unicode="&#xfb;" horiz-adv-x="946" 
d="M690 1075h121v-1075h-100l-21 133q-90 -158 -278 -158q-289 0 -289 412v688h121v-669q0 -164 47 -240t155 -76t176 89t68 245v651zM471 1380l-117 -143h-114l166 231h131l165 -231h-114z" />
    <glyph glyph-name="udieresis" unicode="&#xfc;" horiz-adv-x="946" 
d="M690 1075h121v-1075h-100l-21 133q-90 -158 -278 -158q-289 0 -289 412v688h121v-669q0 -164 47 -240t155.5 -76t176 89t67.5 245v651zM592 1282q-37 0 -60.5 21.5t-23.5 58.5t23.5 58.5t60.5 21.5t59.5 -21.5t22.5 -58.5t-22.5 -58.5t-59.5 -21.5zM349 1282
q-36 0 -58.5 21.5t-22.5 58.5t22.5 58.5t58.5 21.5t58.5 -21.5t22.5 -58.5t-22.5 -58.5t-58.5 -21.5z" />
    <glyph glyph-name="yacute" unicode="&#xfd;" horiz-adv-x="792" 
d="M158 -391h-70v119h53q63 0 95 39.5t57 119.5l67 222l-344 966h129l269 -784l235 784h127l-362 -1206q-39 -131 -95.5 -195.5t-160.5 -64.5zM575 1481l-178 -232h-118l153 232h143z" />
    <glyph glyph-name="thorn" unicode="&#xfe;" horiz-adv-x="935" 
d="M705 686q-1 291 -221 291q-108 0 -168 -81q-62 -81 -62 -210v-266q0 -129 61 -210t169 -81q221 0 221 291v266zM500 1090q158 0 242 -104t85 -300v-266q0 -197 -85 -300q-84 -104 -242 -104t-246 121v-506h-119v1844h119v-506q88 121 246 121z" />
    <glyph glyph-name="ydieresis" unicode="&#xff;" horiz-adv-x="792" 
d="M158 -391h-70v119h53q63 0 95 39.5t57 119.5l67 222l-344 966h129l269 -784l235 784h127l-362 -1206q-39 -131 -95.5 -195.5t-160.5 -64.5zM508 1292q-37 0 -60.5 21.5t-23.5 58.5t23.5 58.5t60.5 21.5t59.5 -21.5t22.5 -58.5t-22.5 -58.5t-59.5 -21.5zM265 1292
q-36 0 -58.5 21.5t-22.5 58.5t22.5 58.5t58.5 21.5t58.5 -21.5t22.5 -58.5t-22.5 -58.5t-58.5 -21.5z" />
    <glyph glyph-name="Amacron" unicode="&#x100;" horiz-adv-x="937" 
d="M270 451h398l-148 593q-31 119 -49 226h-4q-18 -106 -49 -226zM780 0l-84 336h-454l-84 -336h-135l376 1434h140l376 -1434h-135zM653 1739v-107h-377v107h377z" />
    <glyph glyph-name="amacron" unicode="&#x101;" horiz-adv-x="915" 
d="M432.5 94q105.5 0 166 58.5t60.5 150.5v211h-217q-242 0 -241 -211q0 -102 63 -155.5t168.5 -53.5zM453 1100q152 0 239.5 -96.5t87.5 -260.5v-743h-104l-10 100q-86 -125 -243 -125t-251 88.5t-94 243t96 237.5t272 83h213v114q0 242 -213 242q-92 0 -150 -50t-65 -138
h-120q6 139 98 222t244 83zM635 1411v-102h-377v102h377z" />
    <glyph glyph-name="Abreve" unicode="&#x102;" horiz-adv-x="937" 
d="M270 451h398l-148 593q-31 119 -49 226h-4q-18 -106 -49 -226zM780 0l-84 336h-454l-84 -336h-135l376 1434h140l376 -1434h-135zM464.5 1569q-106.5 0 -166.5 62.5t-65 174.5h107q8 -135 125 -135t125 135h106q-4 -113 -64.5 -175t-167 -62z" />
    <glyph glyph-name="abreve" unicode="&#x103;" horiz-adv-x="915" 
d="M432.5 94q105.5 0 166 58.5t60.5 150.5v211h-217q-242 0 -241 -211q0 -102 63 -155.5t168.5 -53.5zM453 1100q152 0 239.5 -96.5t87.5 -260.5v-743h-104l-10 100q-86 -125 -243 -125t-251 88.5t-94 243t96 237.5t272 83h213v114q0 242 -213 242q-92 0 -150 -50t-65 -138
h-120q6 139 98 222t244 83zM446.5 1243q-106.5 0 -167 62.5t-64.5 175.5h107q10 -135 124.5 -135t124.5 135h107q-4 -113 -64.5 -175.5t-167 -62.5z" />
    <glyph glyph-name="Aogonek" unicode="&#x104;" horiz-adv-x="940" 
d="M270 451h398l-148 593q-31 119 -49 226h-4q-18 -106 -49 -226zM852 -281q47 0 66 7v-107q-35 -12 -84 -12q-88 0 -133 48q-44 48 -44 118q0 121 123 227l-84 336h-454l-84 -336h-135l376 1434h140l376 -1434h-22q-51 -45 -85 -102t-34 -105q0 -74 78 -74z" />
    <glyph glyph-name="aogonek" unicode="&#x105;" horiz-adv-x="915" 
d="M432 94q106 0 166 58t61 151v211h-217q-242 0 -241 -211q0 -101 63 -155q62 -54 168 -54zM678 -393q-70 0 -114 48t-44 118q0 119 156 227l-10 100q-86 -125 -243 -125t-251 88t-94 243t96 238t272 83h213v114q0 242 -213 242q-92 0 -150 -50t-65 -138h-120q6 139 98 222
t244 83q151 0 239 -96t88 -261v-743q-61 -43 -102 -101t-41 -106q0 -74 78 -74q47 0 65 7v-107q-32 -12 -102 -12z" />
    <glyph glyph-name="Cacute" unicode="&#x106;" horiz-adv-x="983" 
d="M510 -25q-176 0 -283.5 114t-107.5 317v622q0 203 105.5 316.5t279.5 113.5t279.5 -107.5t115.5 -306.5h-123q-20 299 -274 299q-119 0 -189.5 -79.5t-70.5 -235.5v-622q0 -156 72.5 -236t195.5 -80q248 0 278 299h123q-16 -197 -120.5 -305.5t-280.5 -108.5zM395 1575
l189 231h147l-215 -231h-121z" />
    <glyph glyph-name="cacute" unicode="&#x107;" horiz-adv-x="884" 
d="M455 -20q-160 0 -253 100t-93 282v355q0 182 93 282.5t253 100.5t254 -100.5t98 -282.5h-123q-8 264 -230 264t-223 -264v-355q0 -264 223.5 -264t231.5 264h123q-4 -182 -99 -282t-255 -100zM637 1481l-178 -232h-119l154 232h143z" />
    <glyph glyph-name="Cdotaccent" unicode="&#x10a;" horiz-adv-x="983" 
d="M510 -25q-176 0 -283.5 114t-107.5 317v622q0 203 105.5 316.5t279.5 113.5t279.5 -107.5t115.5 -306.5h-123q-20 299 -274 299q-119 0 -189.5 -79.5t-70.5 -235.5v-622q0 -156 72.5 -236t195.5 -80q248 0 278 299h123q-16 -197 -120.5 -305.5t-280.5 -108.5zM494 1626
q-45 0 -72 26.5t-27 71.5t27 72t72 27t71.5 -27t26.5 -72t-26.5 -71.5t-71.5 -26.5z" />
    <glyph glyph-name="cdotaccent" unicode="&#x10b;" horiz-adv-x="884" 
d="M455 -20q-160 0 -253 100t-93 282v355q0 182 93 282.5t253 100.5t254 -100.5t98 -282.5h-123q-8 264 -230 264t-223 -264v-355q0 -264 223.5 -264t231.5 264h123q-4 -182 -99 -282t-255 -100zM446.5 1274q-45.5 0 -72 26.5t-26.5 71.5t26.5 71.5t72 26.5t72 -26.5
t26.5 -71.5t-26.5 -71.5t-72 -26.5z" />
    <glyph glyph-name="Ccaron" unicode="&#x10c;" horiz-adv-x="983" 
d="M510 -25q-176 0 -283.5 114t-107.5 317v622q0 203 105.5 316.5t279.5 113.5t279.5 -107.5t115.5 -306.5h-123q-20 299 -274 299q-119 0 -189.5 -79.5t-70.5 -235.5v-622q0 -156 72.5 -236t195.5 -80q247 0 278 299h123q-16 -197 -120.5 -305.5t-280.5 -108.5zM557 1575
h-131l-166 231h115l117 -143l116 143h115z" />
    <glyph glyph-name="ccaron" unicode="&#x10d;" horiz-adv-x="884" 
d="M454.5 -20q-159.5 0 -252.5 100t-93 282v355q0 182 93 282.5t253 100.5t254 -100.5t98 -282.5h-123q-8 264 -230 264t-223 -264v-355q0 -264 223.5 -264t231.5 264h123q-4 -182 -99.5 -282t-255 -100zM514 1249h-131l-166 232h115l117 -144l116 144h115z" />
    <glyph glyph-name="Dcaron" unicode="&#x10e;" horiz-adv-x="1024" 
d="M778 424v584q0 152 -76.5 228.5t-222.5 76.5h-194v-1192h194q143 0 221 76.5t78 226.5zM479 1434q203 0 314.5 -110t111.5 -310v-596q0 -197 -112.5 -307.5t-313.5 -110.5h-321v1434h321zM535 1575h-132l-165 231h114l117 -143l117 143h114z" />
    <glyph glyph-name="dcaron" unicode="&#x10f;" horiz-adv-x="997" 
d="M469 88q98 0 161 76q62 76 62 219v313q0 129 -61 210t-172 81q-226 0 -228 -291v-309q0 -299 238 -299zM692 1483h119v-1483h-98l-17 100q-90 -125 -248 -125q-158 1 -248 107t-91 305v309q0 197 88 300q87 104 247 104t248 -121v504zM926 1565h133l-66 -346h-86z" />
    <glyph glyph-name="Dcroat" unicode="&#x110;" horiz-adv-x="1052" 
d="M807 424v584q0 152 -77 228t-222 77h-195v-531h203v-112h-203v-549h195q143 1 221 77t78 226zM508 1434q202 0 314 -110t112 -310v-596q0 -198 -113 -308t-313 -110h-322v670h-161v112h161v652h322z" />
    <glyph glyph-name="dcroat" unicode="&#x111;" horiz-adv-x="952" 
d="M469 88q98 0 161 76q62 76 62 219v313q0 129 -61 210t-172 81q-226 0 -228 -291v-309q0 -299 238 -299zM930 1354v-94h-119v-1260h-98l-17 100q-90 -125 -248 -125q-158 1 -248 107t-91 305v309q0 197 88 300q87 104 247 104t248 -121v281h-192v94h192v129h119v-129h119z
" />
    <glyph glyph-name="Emacron" unicode="&#x112;" horiz-adv-x="929" 
d="M285 117h563v-117h-690v1434h667v-117h-540v-531h506v-116h-506v-553zM684 1739v-107h-377v107h377z" />
    <glyph glyph-name="emacron" unicode="&#x113;" horiz-adv-x="921" 
d="M459 981q-227 0 -228 -264v-125h463v125q1 264 -235 264zM459 -20q-164 0 -257 100t-93 282v355q0 182 94 282.5t256 100.5t259 -100.5t97 -282.5v-238h-584v-117q0 -264 228 -264q117 0 177.5 56.5t72.5 175.5h120q-12 -170 -109 -260t-261 -90zM645 1401v-103h-377v103
h377z" />
    <glyph glyph-name="Edotaccent" unicode="&#x116;" horiz-adv-x="929" 
d="M285 117h563v-117h-690v1434h667v-117h-540v-531h506v-116h-506v-553zM496 1626q-45 0 -72 26.5t-27 71.5t27 72t72 27t71.5 -27t26.5 -72t-26.5 -71.5t-71.5 -26.5z" />
    <glyph glyph-name="edotaccent" unicode="&#x117;" horiz-adv-x="921" 
d="M459 981q-227 0 -228 -264v-125h463v125q1 264 -235 264zM459 -20q-164 0 -257 100t-93 282v355q0 182 94 282.5t256 100.5t259 -100.5t97 -282.5v-238h-584v-117q0 -264 228 -264q117 0 177.5 56.5t72.5 175.5h120q-12 -170 -109 -260t-261 -90zM455 1264
q-45 0 -72 26.5t-27 71.5t27 71.5t72 26.5t71.5 -26.5t26.5 -71.5t-26.5 -71.5t-71.5 -26.5z" />
    <glyph glyph-name="Eogonek" unicode="&#x118;" horiz-adv-x="946" 
d="M721 -199q0 -82 85 -82q40 0 58 7v-107q-32 -12 -102 -12t-114 49t-44 119q0 117 131 225h-577v1434h667v-117h-540v-531h506v-116h-506v-553h563v-117q-53 -43 -90 -98t-37 -101z" />
    <glyph glyph-name="eogonek" unicode="&#x119;" horiz-adv-x="921" 
d="M231 592h463v125q0 131 -61 197t-172 67q-229 0 -230 -264v-125zM633 -393q-176 0 -176 185q0 89 92 194v2q-39 -8 -90 -8q-164 0 -257 100t-93 282v355q0 180 94 281q94 102 256 102t259 -100t97 -283v-238h-584v-117q0 -264 234 -264q221 0 244 232h120
q-11 -98 -33 -146t-73 -108q-150 -168 -150 -262t78 -95q47 0 66 7v-107q-35 -12 -84 -12z" />
    <glyph glyph-name="Ecaron" unicode="&#x11a;" horiz-adv-x="929" 
d="M285 117h563v-117h-690v1434h667v-117h-540v-531h506v-116h-506v-553zM559 1575h-131l-166 231h115l117 -143l116 143h115z" />
    <glyph glyph-name="ecaron" unicode="&#x11b;" horiz-adv-x="921" 
d="M459 981q-227 0 -228 -264v-125h463v125q1 264 -235 264zM459 -20q-164 0 -257 100t-93 282v355q0 182 94 282.5t256 100.5t259 -100.5t97 -282.5v-238h-584v-117q0 -264 228 -264q117 0 177.5 56.5t72.5 175.5h120q-12 -170 -109 -260t-261 -90zM522 1239h-131l-166 231
h115l117 -143l116 143h115z" />
    <glyph glyph-name="Gbreve" unicode="&#x11e;" horiz-adv-x="1015" 
d="M515 -20q-179 0 -287.5 113.5t-108.5 320.5v608q0 209 103.5 320.5t281.5 111.5t283.5 -107.5t113.5 -302.5h-123q-8 145 -78.5 218t-195.5 73t-193.5 -78.5t-68.5 -236.5v-606q0 -156 73.5 -236t200.5 -80t202 76t75 219v256h-279v115h399v-371q0 -193 -109.5 -303
t-288.5 -110zM491.5 1569q-106.5 0 -167 62.5t-64.5 174.5h107q10 -135 124.5 -135t124.5 135h107q-4 -113 -64.5 -175t-167 -62z" />
    <glyph glyph-name="gbreve" unicode="&#x11f;" horiz-adv-x="948" 
d="M475 147q217 0 217 269v297q0 133 -61.5 202.5t-155.5 69.5q-244 0 -244 -293v-276q0 -133 63.5 -201t180.5 -68zM813 1075v-1149q0 -145 -93 -233t-246 -88t-245 84t-100 227h117q8 -96 66.5 -147.5t159.5 -51.5t160.5 55.5t59.5 153.5v209q-84 -102 -239.5 -102
t-249.5 100t-94 283v276q0 197 93 302.5t250 105.5t244 -133l17 108h100zM464.5 1243q-106.5 0 -166.5 62.5t-65 175.5h107q8 -135 125 -135t125 135h106q-4 -113 -64.5 -175.5t-167 -62.5z" />
    <glyph glyph-name="Gdotaccent" unicode="&#x120;" horiz-adv-x="1015" 
d="M515 -20q-179 0 -287.5 113.5t-108.5 320.5v608q0 209 103.5 320.5t281.5 111.5t283.5 -107.5t113.5 -302.5h-123q-8 145 -78.5 218t-195.5 73t-193.5 -78.5t-68.5 -236.5v-606q0 -156 73.5 -236t200.5 -80t202 76t75 219v256h-279v115h399v-371q0 -193 -109.5 -303
t-288.5 -110zM491.5 1626q-45.5 0 -72 26.5t-26.5 71.5t26.5 72t72 27t72 -27t26.5 -72t-26.5 -71.5t-72 -26.5z" />
    <glyph glyph-name="gdotaccent" unicode="&#x121;" horiz-adv-x="948" 
d="M475 147q217 0 217 269v297q0 133 -61.5 202.5t-155.5 69.5q-244 0 -244 -293v-276q0 -133 63.5 -201t180.5 -68zM813 1075v-1149q0 -145 -93 -233t-246 -88t-245 84t-100 227h117q8 -96 66.5 -147.5t159.5 -51.5t160.5 55.5t59.5 153.5v209q-84 -102 -239.5 -102
t-249.5 100t-94 283v276q0 197 93 302.5t250 105.5t244 -133l17 108h100zM463 1274q-45 0 -71.5 26.5t-26.5 71.5t26.5 71.5t71.5 26.5t71.5 -26.5t26.5 -71.5t-26.5 -71.5t-71.5 -26.5z" />
    <glyph glyph-name="Gcommaaccent" unicode="&#x122;" horiz-adv-x="1015" 
d="M391 -510l37 369h133l-76 -369h-94zM515 -20q-179 0 -287.5 113.5t-108.5 320.5v608q0 209 103.5 320.5t281.5 111.5t283.5 -107.5t113.5 -302.5h-123q-8 145 -78.5 218t-195.5 73t-193.5 -78.5t-68.5 -236.5v-606q0 -156 73.5 -236t200.5 -80t202 76t75 219v256h-279
v115h399v-371q0 -193 -109.5 -303t-288.5 -110z" />
    <glyph glyph-name="gcommaaccent" unicode="&#x123;" horiz-adv-x="948" 
d="M475 147q217 0 217 269v297q0 133 -61.5 202.5t-155.5 69.5q-244 0 -244 -293v-276q0 -133 63.5 -201t180.5 -68zM813 1075v-1149q0 -145 -93 -233t-246 -88t-245 84t-100 227h117q8 -96 66.5 -147.5t159.5 -51.5t160.5 55.5t59.5 153.5v209q-84 -102 -239.5 -102
t-249.5 100t-94 283v276q0 197 93 302.5t250 105.5t244 -133l17 108h100zM545 1241h-137l-37 363h88z" />
    <glyph glyph-name="Hbar" unicode="&#x126;" horiz-adv-x="1130" 
d="M821 788v289h-510v-289h510zM1090 1171v-94h-142v-1077h-127v670h-510v-670h-127v1077h-143v94h143v263h127v-263h510v263h127v-263h142z" />
    <glyph glyph-name="hbar" unicode="&#x127;" horiz-adv-x="942" 
d="M530 1100q289 0 289 -451v-649h-121v639q0 184 -48 265t-156 81t-175 -89t-67 -247v-649h-121v1249h-131v94h131v138h121v-138h199v-94h-199v-309q92 160 278 160z" />
    <glyph glyph-name="Imacron" unicode="&#x12a;" horiz-adv-x="442" 
d="M158 1434h127v-1434h-127v1434zM37 1739h377v-107h-377v107z" />
    <glyph glyph-name="imacron" unicode="&#x12b;" horiz-adv-x="387" 
d="M133 0v1075h121v-1075h-121zM14 1411h361v-106h-361v106z" />
    <glyph glyph-name="Iogonek" unicode="&#x12e;" horiz-adv-x="434" 
d="M260 -281q47 0 66 7v-107q-35 -12 -84 -12q-92 0 -138 50q-45 50 -45 124q0 117 95 219v1434h127v-1434q-43 -43 -74 -99t-31 -100q0 -82 84 -82z" />
    <glyph glyph-name="iogonek" unicode="&#x12f;" horiz-adv-x="385" 
d="M156 -189.5q0 -91.5 84 -91.5q40 0 59 7v-107q-33 -12 -102.5 -12t-113.5 48t-44 118q0 119 94 223v1069h121v-1065q-98 -98 -98 -189.5zM194 1280q-34 0 -56.5 22.5t-22.5 57.5t22.5 57.5t57 22.5t57 -22.5t22.5 -56.5t-23 -57.5t-57 -23.5z" />
    <glyph glyph-name="Idotaccent" unicode="&#x130;" horiz-adv-x="442" 
d="M158 1434h127v-1434h-127v1434zM225 1626q-45 0 -71.5 26.5t-26.5 71.5t26.5 72t71.5 27t72 -27t27 -72t-27 -71.5t-72 -26.5z" />
    <glyph glyph-name="dotlessi" unicode="&#x131;" horiz-adv-x="391" 
d="M135 0v1075h121v-1075h-121z" />
    <glyph glyph-name="Kcommaaccent" unicode="&#x136;" horiz-adv-x="983" 
d="M416 -510l37 369h133l-76 -369h-94zM285 0h-127v1434h127v-684l116 168l367 516h158l-457 -625l514 -809h-152l-444 698l-102 -139v-559z" />
    <glyph glyph-name="kcommaaccent" unicode="&#x137;" horiz-adv-x="870" 
d="M371 -510l37 369h133l-76 -369h-94zM256 0h-121v1483h121v-887l408 479h153l-373 -434l426 -641h-145l-363 547l-106 -117v-430z" />
    <glyph glyph-name="Lacute" unicode="&#x139;" horiz-adv-x="780" 
d="M285 121h524v-121h-651v1434h127v-1313zM481 1806l-215 -231h-121l189 231h147z" />
    <glyph glyph-name="lacute" unicode="&#x13a;" horiz-adv-x="403" 
d="M141 0v1481h121v-1481h-121zM104 1575l189 231h147l-215 -231h-121z" />
    <glyph glyph-name="Lcommaaccent" unicode="&#x13b;" horiz-adv-x="825" 
d="M328 -510l37 369h133l-76 -369h-94zM285 121h524v-121h-651v1434h127v-1313z" />
    <glyph glyph-name="lcommaaccent" unicode="&#x13c;" horiz-adv-x="452" 
d="M141 -510l37 369h133l-75 -369h-95zM154 0v1481h120v-1481h-120z" />
    <glyph glyph-name="Lcaron" unicode="&#x13d;" horiz-adv-x="790" 
d="M653 1434l-65 -357h-86l18 357h133zM285 117h489v-117h-616v1434h127v-1317z" />
    <glyph glyph-name="lcaron" unicode="&#x13e;" horiz-adv-x="448" 
d="M141 0v1481h121v-1481h-121zM358 1206l19 357h133l-66 -357h-86z" />
    <glyph glyph-name="Lslash" unicode="&#x141;" horiz-adv-x="847" 
d="M342 117h489v-117h-616v653l-166 -63v121l166 63v660h127v-611l268 103v-121l-268 -103v-585z" />
    <glyph glyph-name="lslash" unicode="&#x142;" horiz-adv-x="479" 
d="M295 0h-121v748l-147 -52v115l147 51v613h121v-572l158 55v-114l-158 -56v-788z" />
    <glyph glyph-name="Nacute" unicode="&#x143;" horiz-adv-x="1105" 
d="M821 1434h127v-1434h-131l-391 842q-78 166 -145 348l-7 -2q10 -272 11 -385v-803h-127v1434h131l387 -836q84 -174 155 -354l7 2q-16 279 -17 413v775zM455 1575l188 231h148l-216 -231h-120z" />
    <glyph glyph-name="nacute" unicode="&#x144;" horiz-adv-x="946" 
d="M535 1100q289 0 288 -412v-688h-121v670q0 164 -47 239.5t-155 75.5t-176 -89t-68 -245v-651h-121v1075h101l20 -133q91 158 279 158zM662 1470l-179 -231h-118l153 231h144z" />
    <glyph glyph-name="Ncommaaccent" unicode="&#x145;" horiz-adv-x="1105" 
d="M453 -510l36 369h134l-76 -369h-94zM821 1434h127v-1434h-131l-391 842q-78 166 -145 348l-7 -2q10 -272 11 -385v-803h-127v1434h131l387 -836q84 -174 155 -354l7 2q-16 279 -17 413v775z" />
    <glyph glyph-name="ncommaaccent" unicode="&#x146;" horiz-adv-x="946" 
d="M399 -510l37 369h133l-75 -369h-95zM535 1100q289 0 288 -412v-688h-121v670q0 164 -47 239.5t-155 75.5t-176 -89t-68 -245v-651h-121v1075h101l20 -133q91 158 279 158z" />
    <glyph glyph-name="Ncaron" unicode="&#x147;" horiz-adv-x="1105" 
d="M821 1434h127v-1434h-131l-391 842q-78 166 -145 348l-7 -2q10 -272 11 -385v-803h-127v1434h131l387 -836q84 -174 155 -354l7 2q-16 279 -17 413v775zM616 1575h-131l-166 231h115l117 -143l117 143h114z" />
    <glyph glyph-name="ncaron" unicode="&#x148;" horiz-adv-x="946" 
d="M535 1100q289 0 288 -412v-688h-121v670q0 164 -47 239.5t-155 75.5t-176 -89t-68 -245v-651h-121v1075h101l20 -133q91 158 279 158zM539 1239h-131l-166 231h114l117 -143l117 143h115z" />
    <glyph glyph-name="Eng" unicode="&#x14a;" horiz-adv-x="1105" 
d="M821 1434h127v-1495q0 -154 -86 -242t-258 -90v117q119 2 171 56t52 159v45l-409 874q-66 141 -137 332l-7 -2q10 -272 11 -385v-803h-127v1434h131l399 -852q90 -213 150 -371l6 2q-23 244 -23 436v785z" />
    <glyph glyph-name="eng" unicode="&#x14b;" horiz-adv-x="946" 
d="M535 1100q289 0 288 -412v-776q0 -154 -86 -242t-258 -90v117q119 2 171 56t52 159v758q0 164 -47 239.5t-155 75.5t-176 -89t-68 -245v-651h-121v1075h101l20 -133q91 158 279 158z" />
    <glyph glyph-name="Omacron" unicode="&#x14c;" horiz-adv-x="1060" 
d="M530.5 96q139.5 0 211 90t71.5 258v545q0 168 -71.5 258t-211 90t-211 -90t-71.5 -258v-545q0 -168 71.5 -258t211 -90zM530.5 -27q-192.5 0 -302 127t-109.5 344v545q0 217 109.5 344t302 127t302 -127t109.5 -344v-545q0 -217 -109.5 -344t-302 -127zM342 1739h377
v-107h-377v107z" />
    <glyph glyph-name="omacron" unicode="&#x14d;" horiz-adv-x="933" 
d="M466.5 94q235.5 0 235.5 271v346q0 270 -235.5 270t-235.5 -270v-346q0 -271 235.5 -271zM467 -25q-164 0 -261 101.5t-97 288.5v346q0 186 97 287.5t261 101.5t261 -101.5t97 -287.5v-346q0 -186 -97 -288t-261 -102zM279 1411h376v-102h-376v102z" />
    <glyph glyph-name="Ohungarumlaut" unicode="&#x150;" horiz-adv-x="1060" 
d="M530.5 96q139.5 0 211 90t71.5 258v545q0 168 -71.5 258t-211 90t-211 -90t-71.5 -258v-545q0 -168 71.5 -258t211 -90zM530.5 -27q-192.5 0 -302 127t-109.5 344v545q0 217 109.5 344t302 127t302 -127t109.5 -344v-545q0 -217 -109.5 -344t-302 -127zM823 1806
l-176 -231h-108l147 231h137zM614 1806l-168 -231h-108l139 231h137z" />
    <glyph glyph-name="ohungarumlaut" unicode="&#x151;" horiz-adv-x="933" 
d="M466.5 94q235.5 0 235.5 271v346q0 270 -235.5 270t-235.5 -270v-346q0 -271 235.5 -271zM467 -25q-164 0 -261 101.5t-97 288.5v346q0 186 97 287.5t261 101.5t261 -101.5t97 -287.5v-346q0 -186 -97 -288t-261 -102zM754 1481l-176 -232h-109l147 232h138zM545 1481
l-168 -232h-109l140 232h137z" />
    <glyph glyph-name="OE" unicode="&#x152;" horiz-adv-x="1587" 
d="M813 444v545q0 168 -72 258t-211 90t-211 -90t-71 -258v-545q0 -168 72 -258t210 -90q139 0 211 90t72 258zM942 117h563v-117h-690v111q-104 -137 -291 -137q-186 0 -296 126q-110 127 -109 344v545q0 217 109 344q110 127 296 127t291 -137v111h668v-117h-541v-531h506
v-116h-506v-553z" />
    <glyph glyph-name="oe" unicode="&#x153;" horiz-adv-x="1466" 
d="M807 707v-111h446v111q0 264 -223 264t-223 -264zM684 367v335q0 268 -225 269q-227 0 -228 -269v-335q0 -268 228 -269q225 1 225 269zM1374 489h-567v-127q0 -264 223 -264t223 252h121q0 -176 -93 -273t-253 -97q-197 0 -283 176q-86 -176 -286 -176q-162 0 -256 101
t-94 286v335q0 184 94 286t256 102q201 0 286 -177q86 176 283 177q160 0 253 -100t93 -283v-218z" />
    <glyph glyph-name="Racute" unicode="&#x154;" horiz-adv-x="989" 
d="M285 1315v-637h198q139 0 211 84t72 244q0 309 -281 309h-200zM285 559v-559h-127v1434h327q197 0 303.5 -110t106.5 -303t-83 -309t-232 -145l352 -567h-148l-342 559h-157zM723 1806l-215 -231h-121l188 231h148z" />
    <glyph glyph-name="racute" unicode="&#x155;" horiz-adv-x="677" 
d="M537 1098q68 0 108 -11v-131q-61 23 -135 23q-117 0 -185.5 -88t-68.5 -240v-651h-121v1075h101l20 -135v-2q93 160 281 160zM567 1481l-178 -232h-119l154 232h143z" />
    <glyph glyph-name="Rcommaaccent" unicode="&#x156;" horiz-adv-x="989" 
d="M387 -510l37 369h133l-76 -369h-94zM285 1315v-637h198q139 0 211 84t72 244q0 309 -281 309h-200zM285 559v-559h-127v1434h327q197 0 303.5 -110t106.5 -303t-82.5 -309t-232.5 -145l352 -567h-148l-342 559h-157z" />
    <glyph glyph-name="rcommaaccent" unicode="&#x157;" horiz-adv-x="677" 
d="M143 -510l37 369h133l-75 -369h-95zM537 1098q68 0 108 -11v-131q-61 23 -135 23q-117 0 -185.5 -88t-68.5 -240v-651h-121v1075h101l20 -135v-2q93 160 281 160z" />
    <glyph glyph-name="Rcaron" unicode="&#x158;" horiz-adv-x="989" 
d="M285 1315v-637h198q139 0 211 84t72 244q0 309 -281 309h-200zM285 559v-559h-127v1434h327q197 0 303.5 -110t106.5 -303t-83 -309t-232 -145l352 -567h-148l-342 559h-157zM549 1575h-131l-166 231h115l116 -143l117 143h115z" />
    <glyph glyph-name="rcaron" unicode="&#x159;" horiz-adv-x="677" 
d="M537 1098q68 0 108 -11v-131q-61 23 -135 23q-117 0 -185.5 -88t-68.5 -240v-651h-121v1075h101l20 -135v-2q93 160 281 160zM444 1249h-131l-166 232h115l117 -144l117 144h114z" />
    <glyph glyph-name="Sacute" unicode="&#x15a;" horiz-adv-x="923" 
d="M465 -27q-178 0 -286.5 108.5t-112.5 287.5h127q4 -131 75.5 -202t195.5 -71t190.5 72t66.5 177t-65.5 178t-159 126t-186.5 110.5t-158.5 146.5t-65.5 204q0 150 103.5 250t268.5 100t265 -106.5t108 -278.5h-126q-6 131 -72 197q-67 66 -177 65.5t-175.5 -62
t-65.5 -158.5t65.5 -168.5t158.5 -124t186.5 -109t159 -146.5t65.5 -209q0 -158 -103.5 -272.5t-281.5 -114.5zM367 1575l188 231h147l-215 -231h-120z" />
    <glyph glyph-name="sacute" unicode="&#x15b;" horiz-adv-x="823" 
d="M415 -25q-155 0 -253.5 94.5t-98.5 249.5h121q0 -106 62.5 -165.5t168 -59.5t161 48t55.5 127t-57.5 127t-138.5 78t-161.5 63.5t-138 102.5t-57.5 185.5t89 195.5t237.5 79t239.5 -90t91 -240h-121q0 100 -56 156.5t-153.5 56.5t-150.5 -46t-53 -123t57 -122t138 -74.5
t162 -64.5t138.5 -105.5t57.5 -189.5t-92 -201t-247 -82zM596 1481l-178 -232h-119l154 232h143z" />
    <glyph glyph-name="Scedilla" unicode="&#x15e;" horiz-adv-x="923" 
d="M850 346q0 -133 -93 -245.5t-257 -125.5l-23 -77q8 2 29 2q59 0 102 -39t43 -107t-52 -110.5t-131 -42.5t-129 40t-56 109h100q12 -57 84 -57q39 0 62.5 18.5t23.5 52.5q0 70 -80 70q-39 0 -63 -14l-35 33l37 122q-156 16 -249 123t-97 271h127q4 -131 75.5 -202
t195.5 -71t190.5 72t66.5 177t-65.5 178t-159 126t-186.5 110.5t-158.5 146.5t-65.5 204q0 150 103.5 250t268.5 100t265 -106.5t108 -278.5h-126q-6 131 -72 196.5t-176.5 65.5t-176 -61.5t-65.5 -158.5t65.5 -168.5t158.5 -124t186.5 -109t159 -146.5t65.5 -223z" />
    <glyph glyph-name="scedilla" unicode="&#x15f;" horiz-adv-x="823" 
d="M754 259.5q0 -116.5 -85 -196t-227 -88.5l-22 -77q8 2 29 2q59 0 102 -39t43 -107t-52.5 -110.5t-131 -42.5t-129 40t-56.5 109h101q12 -57 84 -57q39 0 62.5 18.5t23.5 52.5q0 70 -80 70q-39 0 -64 -14l-35 33l39 127q-135 18 -214 109t-79 230h121q0 -106 62.5 -165.5
t168 -59.5t161 48t55.5 127t-57.5 127t-138.5 78t-161.5 63.5t-138 102.5t-57.5 185.5t89 195.5t237.5 79t239.5 -90t91 -240h-121q0 100 -56 156.5t-153.5 56.5t-150.5 -46t-53 -123t57 -122t138 -74.5t162 -64.5t138.5 -106t57.5 -187.5z" />
    <glyph glyph-name="Scaron" unicode="&#x160;" horiz-adv-x="923" 
d="M215 1117q0 -97 65.5 -168.5t158.5 -124t186.5 -109t159 -146.5t65.5 -209q0 -158 -103.5 -272.5t-281.5 -114.5t-286.5 108.5t-112.5 287.5h127q4 -131 75.5 -202t195.5 -71t190.5 72t66.5 177t-65.5 178t-159 126t-186.5 110.5t-158.5 146.5t-65.5 204q0 150 103.5 250
t268.5 100t265 -106.5t108 -278.5h-126q-6 131 -72 196.5t-176.5 65.5t-176 -61.5t-65.5 -158.5zM528 1575h-131l-166 231h115l117 -143l117 143h114z" />
    <glyph glyph-name="scaron" unicode="&#x161;" horiz-adv-x="823" 
d="M201 814q0 -77 57 -122t138 -74.5t162 -64.5t138.5 -105.5t57.5 -189.5t-92.5 -201t-247 -82t-253 94.5t-98.5 249.5h121q0 -106 62.5 -165.5t168 -59.5t161 48t55.5 127t-57.5 127t-138.5 78t-161.5 63.5t-138 102.5t-57.5 185.5t89 195.5t237.5 79t239.5 -90t91 -240
h-121q0 100 -56 156.5t-153.5 56.5t-150.5 -46t-53 -123zM473 1249h-131l-166 232h115l117 -144l116 144h115z" />
    <glyph glyph-name="uni0162" unicode="&#x162;" horiz-adv-x="831" 
d="M317 -510l37 369h133l-75 -369h-95zM37 1434h758v-119h-316v-1315h-127v1315h-315v119z" />
    <glyph glyph-name="uni0163" unicode="&#x163;" horiz-adv-x="608" 
d="M254 -510l37 369h133l-76 -369h-94zM506 104h61v-114h-61q-147 0 -226 87t-79 242v644h-164v112h164v248h121v-248h221v-112h-221v-644q0 -215 184 -215z" />
    <glyph glyph-name="Tcaron" unicode="&#x164;" horiz-adv-x="831" 
d="M795 1434v-119h-316v-1315h-127v1315h-315v119h758zM479 1575h-131l-166 231h115l117 -143l116 143h115z" />
    <glyph glyph-name="tcaron" unicode="&#x165;" horiz-adv-x="620" 
d="M322 319q0 -215 184 -215h61v-114h-61q-147 0 -226 87t-79 242v644h-164v112h164v248h121v-248h221v-112h-221v-644zM580 1565l-66 -357h-86l18 357h134z" />
    <glyph glyph-name="Tbar" unicode="&#x166;" horiz-adv-x="831" 
d="M795 1315h-316v-531h172v-94h-172v-690h-127v690h-172v94h172v531h-315v119h758v-119z" />
    <glyph glyph-name="tbar" unicode="&#x167;" horiz-adv-x="608" 
d="M506 104h61v-114h-61q-147 0 -226 87t-79 242v238h-127v94h127v312h-164v112h164v248h121v-248h221v-112h-221v-312h170v-94h-170v-238q0 -215 184 -215z" />
    <glyph glyph-name="Umacron" unicode="&#x16a;" horiz-adv-x="1052" 
d="M526.5 -18q-178.5 0 -285 114.5t-106.5 327.5v1010h127v-1010q0 -160 70.5 -240t193.5 -80t194 80t71 240v1010h127v-1010q0 -213 -106.5 -327.5t-285 -114.5zM338 1739h377v-107h-377v107z" />
    <glyph glyph-name="umacron" unicode="&#x16b;" horiz-adv-x="946" 
d="M690 1075h121v-1075h-100l-21 133q-90 -158 -278 -158q-289 0 -289 412v688h121v-669q0 -164 47 -240t155 -76t176 89t68 245v651zM659 1401v-103h-376v103h376z" />
    <glyph glyph-name="Uring" unicode="&#x16e;" horiz-adv-x="1052" 
d="M526.5 -18q-178.5 0 -285 114.5t-106.5 327.5v1010h127v-1010q0 -160 70.5 -240t193.5 -80t194 80t71 240v1010h127v-1010q0 -213 -106.5 -327.5t-285 -114.5zM463 1704q0 -63 63 -64q29 0 46.5 17.5t17.5 46.5t-18.5 46t-46.5 17t-45 -17t-17 -46zM383 1705q0 62 40 100
t103.5 38t103.5 -38t40 -100t-40 -101t-103.5 -39t-103.5 39t-40 101z" />
    <glyph glyph-name="uring" unicode="&#x16f;" horiz-adv-x="946" 
d="M690 1075h121v-1075h-100l-21 133q-90 -158 -278 -158q-289 0 -289 412v688h121v-669q0 -164 47 -240t155 -76t176 89t68 245v651zM471 1434q-29 0 -46 -17.5t-17 -46.5q0 -63 63 -63q29 0 46.5 17t17.5 45t-17.5 46.5t-46.5 18.5zM471.5 1231q-63.5 0 -103.5 39t-40 101
t40 100t103.5 38t103 -37.5t39.5 -99.5t-39.5 -101.5t-103 -39.5z" />
    <glyph glyph-name="Uhungarumlaut" unicode="&#x170;" horiz-adv-x="1052" 
d="M526.5 -18q-178.5 0 -285 114.5t-106.5 327.5v1010h127v-1010q0 -160 70.5 -240t193.5 -80t194 80t71 240v1010h127v-1010q0 -213 -106.5 -327.5t-285 -114.5zM819 1806l-176 -231h-108l147 231h137zM610 1806l-168 -231h-108l139 231h137z" />
    <glyph glyph-name="uhungarumlaut" unicode="&#x171;" horiz-adv-x="946" 
d="M690 1075h121v-1075h-100l-21 133q-90 -158 -278 -158q-289 0 -289 412v688h121v-669q0 -164 47 -240t155 -76t176 89t68 245v651zM582 1239h-109l148 231h137zM549 1470l-168 -231h-109l140 231h137z" />
    <glyph glyph-name="Uogonek" unicode="&#x172;" horiz-adv-x="1040" 
d="M652 -393q-70 0 -114 49t-44 119q0 127 143 243l-2 2q-53 -39 -113 -38q-174 0 -280 112t-107 309v1031h127v-1031q0 -145 71 -222t187 -77t188 77q71 77 70 222v1031h127v-1031q0 -125 -32 -195t-85 -122q-178 -182 -178 -287q0 -80 78 -80q47 0 66 7v-107
q-32 -12 -102 -12z" />
    <glyph glyph-name="uogonek" unicode="&#x173;" horiz-adv-x="946" 
d="M678 -209q0 -72 80 -72q27 0 51 7v-107q-31 -12 -78 -12q-86 0 -128 48t-42 116q0 123 150 229l-21 133q-92 -158 -276 -158q-291 0 -291 412v688h121v-669q0 -164 46 -240t156 -76t177 89q68 89 67 245v651h121v-1075q-57 -45 -95 -102t-38 -107z" />
    <glyph glyph-name="Wcircumflex" unicode="&#x174;" horiz-adv-x="1458" 
d="M1303 1434h133l-318 -1434h-141l-174 780q-47 205 -70 451h-8q-23 -244 -70 -451l-174 -780h-141l-317 1434h133l180 -885q66 -336 70 -365h8q16 100 73 385l172 842h140l172 -842q57 -285 73 -385h9q4 29 69 365zM729 1718l-117 -143h-114l166 231h131l166 -231h-115z
" />
    <glyph glyph-name="wcircumflex" unicode="&#x175;" horiz-adv-x="1245" 
d="M1102 1075h127l-266 -1075h-134l-131 535q-57 233 -73 364h-4q-16 -131 -74 -364l-131 -535h-133l-267 1075h127l133 -586q52 -214 70 -337h4q41 219 78 378l129 525h131l129 -525q37 -160 78 -378h4q4 30 30.5 159t39.5 178zM616 1380l-116 -143h-115l166 231h131
l166 -231h-115z" />
    <glyph glyph-name="Ycircumflex" unicode="&#x176;" horiz-adv-x="864" 
d="M496 0h-127v514l-359 920h135l205 -553q14 -37 41 -111t41 -111l287 775h135l-358 -920v-514zM432 1718l-117 -143h-114l166 231h131l166 -231h-115z" />
    <glyph glyph-name="ycircumflex" unicode="&#x177;" horiz-adv-x="792" 
d="M158 -391h-70v119h53q63 0 95 39.5t57 119.5l67 222l-344 966h129l269 -784l235 784h127l-362 -1206q-39 -131 -95.5 -195.5t-160.5 -64.5zM387 1391l-117 -144h-114l166 232h131l165 -232h-114z" />
    <glyph glyph-name="Ydieresis" unicode="&#x178;" horiz-adv-x="864" 
d="M369 0v514l-359 920h135l205 -553q14 -37 41 -111t41 -111l287 775h135l-358 -920v-514h-127zM565 1614q-37 0 -60.5 21.5t-23.5 58.5t23.5 58.5t60.5 21.5t59.5 -21.5t22.5 -58.5t-22.5 -58.5t-59.5 -21.5zM298 1614q-36 0 -58.5 21.5t-22.5 58.5t22.5 58.5t58.5 21.5
t58.5 -21.5t22.5 -58.5t-22.5 -58.5t-58.5 -21.5z" />
    <glyph glyph-name="Zacute" unicode="&#x179;" horiz-adv-x="837" 
d="M774 119v-119h-733v96l569 1219h-542v119h696v-86l-574 -1229h584zM303 1575l189 231h147l-215 -231h-121z" />
    <glyph glyph-name="zacute" unicode="&#x17a;" horiz-adv-x="731" 
d="M678 113v-113h-645v98l483 865h-461v112h607v-96l-484 -866h500zM545 1481l-178 -232h-119l153 232h144z" />
    <glyph glyph-name="Zdotaccent" unicode="&#x17b;" horiz-adv-x="837" 
d="M774 119v-119h-733v96l569 1219h-542v119h696v-86l-574 -1229h584zM399 1632q-45 0 -71.5 27t-26.5 72t26.5 71.5t71.5 26.5t72 -26.5t27 -71.5t-27 -72t-72 -27z" />
    <glyph glyph-name="zdotaccent" unicode="&#x17c;" horiz-adv-x="731" 
d="M678 113v-113h-645v98l483 865h-461v112h607v-96l-484 -866h500zM354 1274q-45 0 -71.5 26.5t-26.5 71.5t26.5 71.5t71.5 26.5t72 -26.5t27 -71.5t-27 -71.5t-72 -26.5z" />
    <glyph glyph-name="Zcaron" unicode="&#x17d;" horiz-adv-x="837" 
d="M774 119v-119h-733v96l569 1219h-542v119h696v-86l-574 -1229h584zM465 1575h-131l-166 231h115l116 -143l117 143h115z" />
    <glyph glyph-name="zcaron" unicode="&#x17e;" horiz-adv-x="731" 
d="M678 113v-113h-645v98l483 865h-461v112h607v-96l-484 -866h500zM422 1249h-131l-166 232h115l116 -144l117 144h115z" />
    <glyph glyph-name="Scommaaccent" unicode="&#x218;" horiz-adv-x="923" 
d="M391 -510l37 369h133l-76 -369h-94zM465 -27q-178 0 -286.5 108.5t-112.5 287.5h127q4 -131 75.5 -202t195.5 -71t190.5 72t66.5 177t-65.5 178t-159 126t-186.5 110.5t-158.5 146.5t-65.5 204q0 150 103.5 250t268.5 100t265 -106.5t108 -278.5h-126q-6 131 -72 197
q-67 66 -177 65.5t-175.5 -62t-65.5 -158.5t65.5 -168.5t158.5 -124t186.5 -109t159 -146.5t65.5 -209q0 -158 -103.5 -272.5t-281.5 -114.5z" />
    <glyph glyph-name="scommaaccent" unicode="&#x219;" horiz-adv-x="823" 
d="M334 -510l37 369h133l-76 -369h-94zM415 -25q-155 0 -253.5 94.5t-98.5 249.5h121q0 -106 62.5 -165.5t168 -59.5t161 48t55.5 127t-57.5 127t-138.5 78t-161.5 63.5t-138 102.5t-57.5 185.5t89 195.5t237.5 79t239.5 -90t91 -240h-121q0 100 -56 156.5t-153.5 56.5
t-150.5 -46t-53 -123t57 -122t138 -74.5t162 -64.5t138.5 -105.5t57.5 -189.5t-92 -201t-247 -82z" />
    <glyph glyph-name="uni021A" unicode="&#x21a;" horiz-adv-x="831" 
d="M317 -510l37 369h133l-75 -369h-95zM37 1434h758v-119h-316v-1315h-127v1315h-315v119z" />
    <glyph glyph-name="uni021B" unicode="&#x21b;" horiz-adv-x="608" 
d="M254 -510l37 369h133l-76 -369h-94zM506 104h61v-114h-61q-147 0 -226 87t-79 242v644h-164v112h164v248h121v-248h221v-112h-221v-644q0 -215 184 -215z" />
    <glyph glyph-name="gravecomb" unicode="&#x300;" 
d="M-297 1481h143l154 -232h-119z" />
    <glyph glyph-name="acutecomb" unicode="&#x301;" 
d="M0 1481l-178 -232h-119l154 232h143z" />
    <glyph glyph-name="uni0302" unicode="&#x302;" 
d="M0 1247h-115l-116 144l-117 -144h-115l166 232h131z" />
    <glyph glyph-name="tildecomb" unicode="&#x303;" 
d="M-299 1346q-33 0 -39 -60h-111q4 74 41 117q38 43 92 43t102 -33t64 -33q41 0 48 60h102q-8 -76 -44 -118t-88 -42t-100.5 33t-66.5 33z" />
    <glyph glyph-name="uni0304" unicode="&#x304;" 
d="M-377 1411h377v-102h-377v102z" />
    <glyph glyph-name="uni0306" unicode="&#x306;" 
d="M-235.5 1243q-106.5 0 -167 62.5t-64.5 175.5h107q8 -135 124.5 -135t124.5 135h107q-4 -113 -64.5 -175.5t-167 -62.5z" />
    <glyph glyph-name="uni0307" unicode="&#x307;" 
d="M-188 1274q-45 0 -72 26.5t-27 71.5t27 71.5t72 26.5t71.5 -26.5t26.5 -71.5t-26.5 -71.5t-71.5 -26.5z" />
    <glyph glyph-name="uni0308" unicode="&#x308;" 
d="M-82 1282q-37 0 -60.5 21.5t-23.5 58.5t23.5 58.5t60.5 21.5t59.5 -21.5t22.5 -58.5t-22.5 -58.5t-59.5 -21.5zM-325 1282q-36 0 -58.5 21.5t-22.5 58.5t23 58.5t58.5 21.5t58 -21.5t22.5 -58.5t-22.5 -58.5t-58.5 -21.5z" />
    <glyph glyph-name="uni030A" unicode="&#x30a;" 
d="M-238 1380q0 -63 64 -63q29 0 46 17.5t17 46t-18 46t-46 17.5t-45.5 -17.5t-17.5 -46.5zM-317 1381q0 62 39.5 100.5t103 38.5t103.5 -38t40 -100.5t-40 -101.5t-103.5 -39t-103 39t-39.5 101z" />
    <glyph glyph-name="uni030B" unicode="&#x30b;" 
d="M0 1481l-176 -232h-109l148 232h137zM-209 1481l-168 -232h-108l139 232h137z" />
    <glyph glyph-name="uni030C" unicode="&#x30c;" 
d="M-115 1481h115l-166 -232h-131l-166 232h115l117 -144z" />
    <glyph glyph-name="uni0312" unicode="&#x312;" 
d="M-86 1604l86 -363h-137l-37 363h88z" />
    <glyph glyph-name="uni0326" unicode="&#x326;" 
d="M-174 -510l37 369h133l-76 -369h-94z" />
    <glyph glyph-name="uni0327" unicode="&#x327;" 
d="M-218 -399q-79 0 -129 40t-56 109h100q12 -57 84 -57q39 0 62.5 18.5t23.5 52.5q0 70 -80 70q-39 0 -63 -14l-35 33l45 147h88l-31 -102q8 2 29 2q59 0 102 -39t43 -107t-52 -110.5t-131 -42.5z" />
    <glyph glyph-name="uni0328" unicode="&#x328;" 
d="M-102.5 -393q-69.5 0 -113.5 48t-44 118q0 121 123 227h112q-51 -45 -84.5 -102.5t-33.5 -104.5q0 -74 77 -74q47 0 66 7v-107q-33 -12 -102.5 -12z" />
    <glyph glyph-name="uni0335" unicode="&#x335;" 
d="M-430 762v94h410v-94h-410z" />
    <glyph glyph-name="uni0336" unicode="&#x336;" 
d="M-676 856h656v-94h-656v94z" />
    <glyph glyph-name="uni0337" unicode="&#x337;" 
d="M-494 -90l334 1216h121l-334 -1216h-121z" />
    <glyph glyph-name="uni0338" unicode="&#x338;" 
d="M-680 -76l440 1585h121l-440 -1585h-121z" />
    <glyph glyph-name="uni0401" unicode="&#x401;" horiz-adv-x="929" 
d="M285 117h563v-117h-690v1434h667v-117h-540v-531h506v-116h-506v-553zM633 1614q-37 0 -60.5 21.5t-23.5 58.5t23.5 58.5t60.5 21.5t59.5 -21.5t22.5 -58.5t-22.5 -58.5t-59.5 -21.5zM366 1614q-36 0 -58.5 21.5t-22.5 58.5t22.5 58.5t58.5 21.5t58 -21.5t22 -58.5
t-22 -58.5t-58 -21.5z" />
    <glyph glyph-name="uni0402" unicode="&#x402;" horiz-adv-x="1130" 
d="M733 1090q145 0 217 -109t72 -340v-305q0 -348 -344 -352v116q121 2 172 60t51 176v295q0 182 -47 263q-48 81 -154 81t-174 -89t-67 -245v-641h-127v1315h-295v119h717v-119h-295v-381q92 156 274 156z" />
    <glyph glyph-name="uni0403" unicode="&#x403;" horiz-adv-x="847" 
d="M811 1434v-119h-526v-1315h-127v1434h653zM684 1806l-215 -231h-121l189 231h147z" />
    <glyph glyph-name="uni0404" unicode="&#x404;" horiz-adv-x="983" 
d="M510 -25q-176 0 -283.5 114t-107.5 317v622q0 203 105.5 316.5t279.5 113.5t279.5 -107.5t115.5 -306.5h-123q-20 299 -274 299q-119 0 -189.5 -79.5t-70.5 -235.5v-240h438v-118h-438v-264q0 -156 72.5 -236t195.5 -80q247 0 278 299h123q-16 -197 -120.5 -305.5
t-280.5 -108.5z" />
    <glyph glyph-name="uni0405" unicode="&#x405;" horiz-adv-x="923" 
d="M465 -27q-178 0 -286.5 108.5t-112.5 287.5h127q4 -131 75.5 -202t195.5 -71t190.5 72t66.5 177t-65.5 178t-159 126t-186.5 110.5t-158.5 146.5t-65.5 204q0 150 103.5 250t268.5 100t265 -106.5t108 -278.5h-126q-6 131 -72 197q-67 66 -177 65.5t-175.5 -62
t-65.5 -158.5t65.5 -168.5t158.5 -124t186.5 -109t159 -146.5t65.5 -209q0 -158 -103.5 -272.5t-281.5 -114.5z" />
    <glyph glyph-name="uni0406" unicode="&#x406;" horiz-adv-x="442" 
d="M158 1434h127v-1434h-127v1434z" />
    <glyph glyph-name="uni0407" unicode="&#x407;" horiz-adv-x="442" 
d="M158 1434h127v-1434h-127v1434zM358.5 1614q-36.5 0 -60.5 21.5t-24 58.5t24 58.5t60.5 21.5t59 -21.5t22.5 -58.5t-22.5 -58.5t-59 -21.5zM91 1614q-36 0 -58.5 21.5t-22.5 58.5t22.5 58.5t58.5 21.5t58.5 -21.5t22.5 -58.5t-22.5 -58.5t-58.5 -21.5z" />
    <glyph glyph-name="uni0408" unicode="&#x408;" horiz-adv-x="507" 
d="M0 -166v121q119 1 175 65t56 220v1194h127v-1194q0 -406 -358 -406z" />
    <glyph glyph-name="uni0409" unicode="&#x409;" horiz-adv-x="1474" 
d="M797 121h211q135 0 214 78q78 78 78 221t-78 218q-79 75 -214 75h-211v-592zM0 -18v120q121 0 145 193q31 229 60 1139h592v-600h211q194 0 308 -110t114 -304t-115 -308q-115 -112 -307 -112h-338v1315h-344q-31 -848 -58 -1039q-43 -294 -268 -294z" />
    <glyph glyph-name="uni040A" unicode="&#x40a;" horiz-adv-x="1581" 
d="M1118 121q135 0 212 78t77 217t-77 211t-212 71h-211v-577h211zM1118 819q194 0 306 -105t112 -297q0 -193 -113 -305t-305 -112h-338v698h-495v-698h-127v1434h127v-617h495v617h127v-615h211z" />
    <glyph glyph-name="uni040B" unicode="&#x40b;" horiz-adv-x="1144" 
d="M733 1090q145 0 217 -109t72 -340v-641h-121v631q0 182 -47 263q-48 81 -154 81t-174 -89t-67 -245v-641h-127v1315h-295v119h717v-119h-295v-381q92 156 274 156z" />
    <glyph glyph-name="uni040C" unicode="&#x40c;" horiz-adv-x="983" 
d="M285 0h-127v1434h127v-684l116 168l367 516h158l-457 -625l514 -809h-152l-444 698l-102 -139v-559zM698 1806l-215 -231h-121l189 231h147z" />
    <glyph glyph-name="uni040D" unicode="&#x40d;" horiz-adv-x="1103" 
d="M158 0v1434h127v-908q0 -166 -6 -274l6 -2q39 104 100 233l418 951h143v-1434h-127v944l2 240l-4 2q-8 -25 -76 -185l-444 -1001h-139zM639 1575h-121l-215 231h148z" />
    <glyph glyph-name="uni040E" unicode="&#x40e;" horiz-adv-x="825" 
d="M139 -18h-49v120h49q139 0 197 193l47 151l-367 988h136l286 -803l244 803h131l-360 -1178q-84 -274 -314 -274zM419.5 1569q-106.5 0 -166.5 62.5t-65 174.5h107q8 -135 125 -135t125 135h106q-4 -113 -64.5 -175t-167 -62z" />
    <glyph glyph-name="uni040F" unicode="&#x40f;" horiz-adv-x="1079" 
d="M479 -236v236h-321v1434h127v-1315h510v1315h127v-1434h-320v-236h-123z" />
    <glyph glyph-name="uni0410" unicode="&#x410;" horiz-adv-x="937" 
d="M270 451h398l-148 593q-31 119 -49 226h-4q-18 -106 -49 -226zM780 0l-84 336h-454l-84 -336h-135l376 1434h140l376 -1434h-135z" />
    <glyph glyph-name="uni0411" unicode="&#x411;" horiz-adv-x="1001" 
d="M520 119q129 0 206 81t77 229t-77 226t-206 78h-235v-614h235zM520 852q186 0 299 -113t113 -311t-113 -312q-113 -116 -299 -116h-362v1434h696v-119h-569v-463h235z" />
    <glyph glyph-name="uni0412" unicode="&#x412;" horiz-adv-x="1009" 
d="M526 119q141 1 210 67t69 204t-81 212t-220 74h-219v-557h241zM494 1315h-209v-520h213q248 0 248 260t-252 260zM934 391q0 -191 -108 -291t-300 -100h-368v1434h336q180 0 280 -98t100 -275q0 -131 -50 -212t-136 -106q114 -27 180 -117t66 -235z" />
    <glyph glyph-name="uni0413" unicode="&#x413;" horiz-adv-x="847" 
d="M811 1434v-119h-526v-1315h-127v1434h653z" />
    <glyph glyph-name="uni0414" unicode="&#x414;" horiz-adv-x="1058" 
d="M752 119v1196h-359l-24 -697q-12 -330 -119 -499h502zM879 119h122v-355h-122v236h-742v-236h-123v355h78q62 61 106 203t50 329l24 783h607v-1315z" />
    <glyph glyph-name="uni0415" unicode="&#x415;" horiz-adv-x="929" 
d="M285 117h563v-117h-690v1434h667v-117h-540v-531h506v-116h-506v-553z" />
    <glyph glyph-name="uni0416" unicode="&#x416;" horiz-adv-x="1417" 
d="M770 0h-123v569l-65 93l-430 -662h-152l504 772l-471 662h149l465 -672v672h123v-674l465 674h149l-471 -662l504 -772h-151l-430 662l-66 -93v-569z" />
    <glyph glyph-name="uni0417" unicode="&#x417;" horiz-adv-x="991" 
d="M895 383q0 -190 -112 -300q-111 -110 -293 -110t-294 114t-122 296h129q10 -131 84 -209q75 -78 201 -78t203 77t77 214t-86 214t-221 77h-117v119h102q131 1 211 69t80 201t-66 202q-67 69 -188 68q-240 0 -262 -290h-127q10 195 112 305t277 108q177 0 279 -104
t102 -293q0 -254 -229 -322q260 -72 260 -358z" />
    <glyph glyph-name="uni0418" unicode="&#x418;" horiz-adv-x="1103" 
d="M158 0v1434h127v-908q0 -166 -6 -274l6 -2q39 104 100 233l418 951h143v-1434h-127v944l2 240l-4 2q-8 -25 -76 -185l-444 -1001h-139z" />
    <glyph glyph-name="uni0419" unicode="&#x419;" horiz-adv-x="1103" 
d="M158 0v1434h127v-908q0 -166 -6 -274l6 -2q39 104 100 233l418 951h143v-1434h-127v944l2 240l-4 2q-8 -25 -76 -185l-444 -1001h-139zM552.5 1569q-106.5 0 -166.5 62.5t-64 174.5h106q10 -135 125 -135t125 135h106q-4 -113 -64.5 -175t-167 -62z" />
    <glyph glyph-name="uni041A" unicode="&#x41a;" horiz-adv-x="983" 
d="M285 0h-127v1434h127v-684l116 168l367 516h158l-457 -625l514 -809h-152l-444 698l-102 -139v-559z" />
    <glyph glyph-name="uni041B" unicode="&#x41b;" horiz-adv-x="989" 
d="M831 1434v-1434h-126v1315h-369q-35 -844 -62 -1039q-16 -139 -86 -217t-188 -77v120q131 0 152 193q32 277 63 1139h616z" />
    <glyph glyph-name="uni041C" unicode="&#x41c;" horiz-adv-x="1335" 
d="M1178 1434v-1434h-127v758q0 215 12 405l-8 2q-20 -59 -76.5 -198.5t-71.5 -178.5l-176 -450h-127l-176 450q-14 39 -70.5 178.5t-76.5 198.5l-9 -2q12 -190 13 -405v-758h-127v1434h135l256 -619q49 -123 115 -319h8q66 197 114 319l256 619h136z" />
    <glyph glyph-name="uni041D" unicode="&#x41d;" horiz-adv-x="1079" 
d="M795 1434h127v-1434h-127v670h-510v-670h-127v1434h127v-646h510v646z" />
    <glyph glyph-name="uni041E" unicode="&#x41e;" horiz-adv-x="1060" 
d="M530.5 96q139.5 0 211 90t71.5 258v545q0 168 -71.5 258t-211 90t-211 -90t-71.5 -258v-545q0 -168 71.5 -258t211 -90zM530.5 -27q-192.5 0 -302 127t-109.5 344v545q0 217 109.5 344t302 127t302 -127t109.5 -344v-545q0 -217 -109.5 -344t-302 -127z" />
    <glyph glyph-name="uni041F" unicode="&#x41f;" horiz-adv-x="1079" 
d="M922 1434v-1434h-127v1315h-510v-1315h-127v1434h764z" />
    <glyph glyph-name="uni0420" unicode="&#x420;" horiz-adv-x="983" 
d="M502 664q145 0 213.5 79.5t68.5 249.5q0 319 -282 320h-217v-649h217zM502 1434q197 0 303 -115t106 -331t-105.5 -330.5t-303.5 -114.5h-217v-543h-127v1434h344z" />
    <glyph glyph-name="uni0421" unicode="&#x421;" horiz-adv-x="983" 
d="M510 -25q-176 0 -283.5 114t-107.5 317v622q0 203 105.5 316.5t279.5 113.5t279.5 -107.5t115.5 -306.5h-123q-20 299 -274 299q-119 0 -189.5 -79.5t-70.5 -235.5v-622q0 -156 72.5 -236t195.5 -80q248 0 278 299h123q-16 -197 -120.5 -305.5t-280.5 -108.5z" />
    <glyph glyph-name="uni0422" unicode="&#x422;" horiz-adv-x="831" 
d="M795 1434v-119h-316v-1315h-127v1315h-315v119h758z" />
    <glyph glyph-name="uni0423" unicode="&#x423;" horiz-adv-x="825" 
d="M139 -18h-49v120h49q139 0 197 193l47 151l-367 988h136l286 -803l244 803h131l-360 -1178q-84 -274 -314 -274z" />
    <glyph glyph-name="uni0424" unicode="&#x424;" horiz-adv-x="1325" 
d="M725 168h39q356 0 356 389v322q0 389 -356 389h-39v-1100zM559 168h39v1100h-39q-354 0 -354 -389v-322q0 -389 354 -389zM598 -115v160h-39q-229 0 -356 133t-127 379v322q0 247 127 379t356 133h39v149h127v-149h39q229 1 357 -133t128 -379v-322q0 -246 -128 -379
t-357 -133h-39v-160h-127z" />
    <glyph glyph-name="uni0425" unicode="&#x425;" horiz-adv-x="919" 
d="M881 0h-142l-278 625l-279 -625h-141l346 745l-328 689h142l260 -572l260 572h141l-327 -689z" />
    <glyph glyph-name="uni0426" unicode="&#x426;" horiz-adv-x="1095" 
d="M915 -236v236h-757v1434h127v-1315h499v1315h127v-1315h127v-355h-123z" />
    <glyph glyph-name="uni0427" unicode="&#x427;" horiz-adv-x="1005" 
d="M721 1434h127v-1434h-127v565q-109 -47 -211 -47q-197 0 -311.5 112.5t-114.5 319.5v484h127v-484q0 -154 79 -232q78 -78 200 -78.5t231 46.5v748z" />
    <glyph glyph-name="uni0428" unicode="&#x428;" horiz-adv-x="1617" 
d="M158 0v1434h127v-1315h460v1315h127v-1315h461v1315h127v-1434h-1302z" />
    <glyph glyph-name="uni0429" unicode="&#x429;" horiz-adv-x="1640" 
d="M1460 119h123v-355h-123v236h-1302v1434h127v-1315h460v1315h127v-1315h461v1315h127v-1315z" />
    <glyph glyph-name="uni042A" unicode="&#x42a;" horiz-adv-x="1087" 
d="M408 121h210q137 0 217 79q79 79 79 223t-79 221t-217 77h-210v-600zM281 0v1315h-246v119h373v-592h210q195 0 310 -111q114 -111 114 -307t-114 -310t-310 -114h-337z" />
    <glyph glyph-name="uni042B" unicode="&#x42b;" horiz-adv-x="1398" 
d="M285 121h204q135 0 214 78t79 221t-79 218t-214 75h-204v-592zM1114 0v1434h127v-1434h-127zM158 0v1434h127v-600h204q195 0 309 -110t114 -304t-116 -308q-114 -112 -307 -112h-331z" />
    <glyph glyph-name="uni042C" unicode="&#x42c;" horiz-adv-x="974" 
d="M285 119h239q125 0 201 79t76 223t-76 220t-201 76h-239v-598zM158 0v1434h127v-598h239q182 0 294 -111t112 -305t-112 -306q-112 -114 -294 -114h-366z" />
    <glyph glyph-name="uni042D" unicode="&#x42d;" horiz-adv-x="983" 
d="M479 1458q174 0 279.5 -113.5t105.5 -316.5v-622q0 -203 -107.5 -317t-283.5 -114t-280.5 109t-120.5 305h123q31 -299 278 -299q123 0 195.5 80t72.5 236v264h-438v118h438v240q0 156 -70.5 235.5t-189.5 79.5q-254 0 -274 -299h-123q10 199 115.5 306.5t279.5 107.5z
" />
    <glyph glyph-name="uni042E" unicode="&#x42e;" horiz-adv-x="1480" 
d="M1233 473v488q0 369 -281 368q-281 0 -280 -368v-488q0 -369 280 -369t281 369zM952 1452q194 0 302 -130t108 -361v-488q0 -231 -109 -361t-301 -130t-302 130q-108 130 -107 361v197h-258v-670h-127v1434h127v-646h258v173q0 231 108 361t301 130z" />
    <glyph glyph-name="uni042F" unicode="&#x42f;" horiz-adv-x="980" 
d="M496 686h200v629h-196q-279 0 -279 -311q0 -154 70 -236t205 -82zM92 1014q0 190 109 305t299 115h323v-1434h-127v567h-151l-340 -567h-148l349 575q-150 27 -232 138t-82 301z" />
    <glyph glyph-name="uni0430" unicode="&#x430;" horiz-adv-x="915" 
d="M432.5 94q105.5 0 166 58.5t60.5 150.5v211h-217q-242 0 -241 -211q0 -102 63 -155.5t168.5 -53.5zM453 1100q152 0 239.5 -96.5t87.5 -260.5v-743h-104l-10 100q-86 -125 -243 -125t-251 88.5t-94 243t96 237.5t272 83h213v114q0 242 -213 242q-92 0 -150 -50t-65 -138
h-120q6 139 98 222t244 83z" />
    <glyph glyph-name="uni0431" unicode="&#x431;" horiz-adv-x="946" 
d="M715 367v254q0 283 -223 282q-100 0 -167 -63t-67 -205v-268q0 -268 227 -269q230 1 230 269zM516 1022q146 0 234 -100t88 -279v-276q0 -183 -96 -285t-257 -102q-162 0 -256 101t-94 286v602q0 85 26 157t63 116q93 107 263 151q74 18 115 42t76 83l98 -70
q-59 -127 -255 -176t-242 -165q-23 -56 -23 -138v-82q84 135 260 135z" />
    <glyph glyph-name="uni0432" unicode="&#x432;" horiz-adv-x="866" 
d="M446 115q231 0 232 194q0 190 -232 191h-192v-385h192zM254 958v-344h162q102 0 155 45t54 127q0 172 -209 172h-162zM799 309q0 -147 -90 -228t-260 -81h-314v1073h283q156 0 242 -77t86 -209t-123 -218q80 -31 128 -105t48 -155z" />
    <glyph glyph-name="uni0433" unicode="&#x433;" horiz-adv-x="700" 
d="M670 1075v-117h-414v-958h-121v1075h535z" />
    <glyph glyph-name="uni0434" unicode="&#x434;" horiz-adv-x="911" 
d="M639 115v846h-322q-11 -616 -106 -846h428zM0 -236v351h78q84 159 103 443t22 517h557v-960h119v-351h-119v236h-641v-236h-119z" />
    <glyph glyph-name="uni0435" unicode="&#x435;" horiz-adv-x="921" 
d="M459 981q-227 0 -228 -264v-125h463v125q1 264 -235 264zM459 -20q-164 0 -257 100t-93 282v355q0 182 94 282.5t256 100.5t259 -100.5t97 -282.5v-238h-584v-117q0 -264 228 -264q117 0 177.5 56.5t72.5 175.5h120q-12 -170 -109 -260t-261 -90z" />
    <glyph glyph-name="uni0436" unicode="&#x436;" horiz-adv-x="1214" 
d="M666 0h-117v420l-72 92l-332 -512h-145l403 604l-372 471h151l201 -264q55 -72 166 -219v483h117v-483q111 147 165 219l201 264h152l-373 -471l403 -604h-145l-332 512l-71 -92v-420z" />
    <glyph glyph-name="uni0437" unicode="&#x437;" horiz-adv-x="827" 
d="M766 307q0 -145 -100 -236t-259 -91t-257 90t-105 231h121q6 -92 70 -147q64 -56 172 -56q110 0 172 56t63 151q0 95 -62 145t-175 50h-156v112h147q98 0 156 45q57 45 57 129t-54 136t-153 51q-99 0 -151 -50t-62 -159h-120q8 158 94 242t234 84t240 -85q93 -85 93 -206
q1 -173 -149 -236q80 -29 132 -97t52 -159z" />
    <glyph glyph-name="uni0438" unicode="&#x438;" horiz-adv-x="931" 
d="M135 0v1075h121v-614q0 -188 -4 -242l4 -4q39 92 72 160l344 700h125v-1075h-121v580q0 115 8 286l-4 2q-14 -47 -86 -194l-334 -674h-125z" />
    <glyph glyph-name="uni0439" unicode="&#x439;" horiz-adv-x="931" 
d="M135 0v1075h121v-614q0 -188 -4 -242l4 -4q39 92 72 160l344 700h125v-1075h-121v580q0 115 8 286l-4 2q-14 -47 -86 -194l-334 -674h-125zM466.5 1243q-106.5 0 -166.5 62.5t-64 175.5h106q10 -135 125 -135t125 135h106q-4 -113 -64.5 -175.5t-167 -62.5z" />
    <glyph glyph-name="uni043A" unicode="&#x43a;" horiz-adv-x="864" 
d="M256 0h-121v1075h121v-487q53 63 160 194l239 293h156l-391 -467l444 -608h-149l-375 514l-84 -102v-412z" />
    <glyph glyph-name="uni043B" unicode="&#x43b;" horiz-adv-x="882" 
d="M10 -8v117q94 0 123 110q30 110 42 299q11 189 20 557h553v-1075h-121v961h-314q-4 -180 -19 -457q-15 -276 -80 -394t-204 -118z" />
    <glyph glyph-name="uni043C" unicode="&#x43c;" horiz-adv-x="1101" 
d="M252 0h-117v1075h125l219 -489q10 -29 34 -85t36 -85h4q10 29 34 85t36 85l219 489h125v-1075h-117v592l10 264l-6 2q-55 -162 -94 -248l-148 -327h-123l-147 327q-39 86 -94 248l-6 -2l10 -264v-592z" />
    <glyph glyph-name="uni043D" unicode="&#x43d;" horiz-adv-x="921" 
d="M666 1075h120v-1075h-120v500h-410v-500h-121v1075h121v-461h410v461z" />
    <glyph glyph-name="uni043E" unicode="&#x43e;" horiz-adv-x="933" 
d="M466.5 94q235.5 0 235.5 271v346q0 270 -235.5 270t-235.5 -270v-346q0 -271 235.5 -271zM467 -25q-164 0 -261 101.5t-97 288.5v346q0 186 97 287.5t261 101.5t261 -101.5t97 -287.5v-346q0 -186 -97 -288t-261 -102z" />
    <glyph glyph-name="uni043F" unicode="&#x43f;" horiz-adv-x="921" 
d="M786 1075v-1075h-120v961h-410v-961h-121v1075h651z" />
    <glyph glyph-name="uni0440" unicode="&#x440;" horiz-adv-x="946" 
d="M715 379v309q0 299 -238 299q-98 0 -160.5 -75.5t-62.5 -219.5v-313q0 -129 62 -210t172 -81q228 0 227 291zM498 1100q158 0 249 -106.5t91 -305.5v-309q0 -197 -88 -300.5t-248 -103.5t-248 121v-465h-119v1444h98l17 -100q90 125 248 125z" />
    <glyph glyph-name="uni0441" unicode="&#x441;" horiz-adv-x="884" 
d="M455 -20q-160 0 -253 100t-93 282v355q0 182 93 282.5t253 100.5t254 -100.5t98 -282.5h-123q-8 264 -230 264t-223 -264v-355q0 -264 223.5 -264t231.5 264h123q-4 -182 -99 -282t-255 -100z" />
    <glyph glyph-name="uni0442" unicode="&#x442;" horiz-adv-x="702" 
d="M678 1075v-112h-266v-963h-121v963h-266v112h653z" />
    <glyph glyph-name="uni0443" unicode="&#x443;" horiz-adv-x="792" 
d="M158 -391h-70v119h53q63 0 95 39.5t57 119.5l67 222l-344 966h129l269 -784l235 784h127l-362 -1206q-39 -131 -95.5 -195.5t-160.5 -64.5z" />
    <glyph glyph-name="uni0444" unicode="&#x444;" horiz-adv-x="1257" 
d="M1026 399v267q0 150 -80 228t-205 79h-53v-871h53q123 0 204 77t81 220zM516 102h53v871h-53q-125 0 -205 -79t-80 -228v-267q0 -143 81 -220t204 -77zM741 1092q174 0 291 -115t117 -311v-267q0 -193 -117 -305t-291 -110h-53v-353h-119v353h-53q-174 0 -291 112
t-116 303v267q1 198 117 312t290 114h53v383h119v-383h53z" />
    <glyph glyph-name="uni0445" unicode="&#x445;" horiz-adv-x="778" 
d="M768 0h-141l-238 438l-237 -438h-142l309 537l-294 538h137l227 -422l227 422h138l-293 -538z" />
    <glyph glyph-name="uni0446" unicode="&#x446;" horiz-adv-x="944" 
d="M778 -236v236h-643v1075h121v-960h401v960h121v-960h119v-351h-119z" />
    <glyph glyph-name="uni0447" unicode="&#x447;" horiz-adv-x="870" 
d="M188 784q0 -303 237 -303q116 0 189 45v549h121v-1075h-121v406q-82 -43 -220 -43.5t-232 109.5t-94 312v291h120v-291z" />
    <glyph glyph-name="uni0448" unicode="&#x448;" horiz-adv-x="1404" 
d="M1149 1075h121v-1075h-1147v1075h121v-960h391v960h123v-960h391v960z" />
    <glyph glyph-name="uni0449" unicode="&#x449;" horiz-adv-x="1443" 
d="M1282 113h115v-349h-115v236h-1147v1075h121v-960h391v960h123v-960h391v960h121v-962z" />
    <glyph glyph-name="uni044A" unicode="&#x44a;" horiz-adv-x="940" 
d="M559 117q98 1 164 65q65 64 65 167t-65 167q-66 63 -164 64h-197v-463h197zM559 696q147 0 249 -98t103 -249q0 -151 -102 -250t-250 -99h-317v963h-217v112h337v-379h197z" />
    <glyph glyph-name="uni044B" unicode="&#x44b;" horiz-adv-x="1224" 
d="M453 117q98 0 163.5 62.5t65.5 162.5t-65.5 160.5t-163.5 60.5h-197v-446h197zM969 1065h121v-1065h-121v1065zM453 680q147 0 249 -96t102.5 -244t-102 -244t-249.5 -96h-318v1065h121v-385h197z" />
    <glyph glyph-name="uni044C" unicode="&#x44c;" horiz-adv-x="833" 
d="M453 117q97 1 163 65t66 167t-66 167t-163 64h-197v-463h197zM453 696q147 0 249 -98t102 -249t-102 -250t-249 -99h-318v1075h121v-379h197z" />
    <glyph glyph-name="uni044D" unicode="&#x44d;" horiz-adv-x="884" 
d="M430 1100q160 0 253 -100t93 -283v-355q0 -182 -93 -282t-253 -100t-255 100t-99 282h123q8 -264 231 -264t223 264v125h-370v113h370v117q0 264 -222 264t-230 -264h-123q4 183 98 283t254 100z" />
    <glyph glyph-name="uni044E" unicode="&#x44e;" horiz-adv-x="1251" 
d="M1020 367v346q0 268 -223 268t-224 -268v-346q0 -268 224 -269q223 1 223 269zM797 1100q160 0 253 -102t93 -285v-346q0 -183 -93 -285t-253 -102t-253 101t-93 286v127h-195v-494h-121v1075h121v-465h195v103q0 183 93 285t253 102z" />
    <glyph glyph-name="uni044F" unicode="&#x44f;" horiz-adv-x="821" 
d="M578 506v452h-177q-102 0 -159 -59t-58 -166q0 -227 205 -227h189zM401 1075h297v-1075h-120v393h-164l-246 -393h-143l260 399q-102 23 -163 113q-60 90 -60 232t92 237q93 94 247 94z" />
    <glyph glyph-name="uni0451" unicode="&#x451;" horiz-adv-x="921" 
d="M459 981q-227 0 -228 -264v-125h463v125q1 264 -235 264zM459 -20q-164 0 -257 100t-93 282v355q0 182 94 282.5t256 100.5t259 -100.5t97 -282.5v-238h-584v-117q0 -264 228 -264q117 0 177.5 56.5t72.5 175.5h120q-12 -170 -109 -260t-261 -90zM571.5 1282
q-36.5 0 -60.5 21.5t-24 58.5t24 58.5t60.5 21.5t59 -21.5t22.5 -58.5t-22.5 -58.5t-59 -21.5zM329 1282q-36 0 -58.5 21.5t-22.5 58.5t22.5 58.5t58.5 21.5t58.5 -21.5t22.5 -58.5t-22.5 -58.5t-58.5 -21.5z" />
    <glyph glyph-name="uni0452" unicode="&#x452;" horiz-adv-x="954" 
d="M543 1100q289 0 288 -451v-737q0 -154 -86 -242t-258 -90v117q119 2 171 56t53 159v727q0 184 -48 265t-156 81q-107 0 -175 -89t-68 -247v-649h-121v1260h-131v94h131v127h121v-127h199v-94h-199v-320q93 160 279 160z" />
    <glyph glyph-name="uni0453" unicode="&#x453;" horiz-adv-x="700" 
d="M670 1075v-117h-414v-958h-121v1075h535zM582 1481l-179 -232h-118l153 232h144z" />
    <glyph glyph-name="uni0454" unicode="&#x454;" horiz-adv-x="884" 
d="M455 -20q-160 0 -253 100t-93 282v355q0 182 93 282q93 101 253 101t254 -100t98 -283h-123q-8 264 -230 264t-223 -264v-117h371v-113h-371v-125q-1 -264 223 -264t232 264h123q-4 -182 -99 -282t-255 -100z" />
    <glyph glyph-name="uni0455" unicode="&#x455;" horiz-adv-x="823" 
d="M415 -25q-155 0 -253.5 94.5t-98.5 249.5h121q0 -106 62.5 -165.5t168 -59.5t161 48t55.5 127t-57.5 127t-138.5 78t-161.5 63.5t-138 102.5t-57.5 185.5t89 195.5t237.5 79t239.5 -90t91 -240h-121q0 100 -56 156.5t-153.5 56.5t-150.5 -46t-53 -123t57 -122t138 -74.5
t162 -64.5t138.5 -105.5t57.5 -189.5t-92 -201t-247 -82z" />
    <glyph glyph-name="uni0456" unicode="&#x456;" horiz-adv-x="391" 
d="M135 0v1075h121v-1075h-121zM195 1274q-45 0 -72 26.5t-27 71.5t27 71.5t72 26.5t71.5 -26.5t26.5 -71.5t-26.5 -71.5t-71.5 -26.5z" />
    <glyph glyph-name="uni0457" unicode="&#x457;" horiz-adv-x="409" 
d="M143 0v1075h121v-1075h-121zM319.5 1294q-36.5 0 -59 20.5t-22.5 57.5t22.5 57.5t59 20.5t58 -20.5t21.5 -57.5t-21.5 -57.5t-58 -20.5zM89 1294q-36 0 -57.5 20.5t-21.5 57.5t21.5 57.5t57.5 20.5t57.5 -20.5t21.5 -57.5t-21.5 -57.5t-57.5 -20.5z" />
    <glyph glyph-name="uni0458" unicode="&#x458;" horiz-adv-x="477" 
d="M182 -20v1095h121v-1095q0 -176 -85 -274t-259 -99v117q123 2 173 65t50 191zM244 1272q-45 0 -72 26t-27 72q0 45 27 72q27 26 72 26q46 0 72 -26t26 -72t-26 -72t-72 -26z" />
    <glyph glyph-name="uni0459" unicode="&#x459;" horiz-adv-x="1325" 
d="M748 117h196q98 0 164 62q66 63 66 163t-66 160t-164 61h-196v-446zM10 -8v117q92 0 126 115q26 89 38 286t21 565h553v-395h196q148 0 250 -95t102 -244t-102 -245t-250 -96h-317v961h-314q-4 -180 -18 -456q-14 -277 -79 -395t-206 -118z" />
    <glyph glyph-name="uni045A" unicode="&#x45a;" horiz-adv-x="1357" 
d="M979 117q98 0 163 59q64 58 64 150t-65 145q-66 53 -162 53h-197v-407h197zM979 641q147 0 249 -87t101 -226q0 -140 -101 -234t-249 -94h-317v524h-406v-524h-121v1075h121v-434h406v434h120v-434h197z" />
    <glyph glyph-name="uni045B" unicode="&#x45b;" horiz-adv-x="942" 
d="M530 1100q289 0 289 -451v-649h-121v639q0 184 -48 265t-156 81t-175 -89t-67 -247v-649h-121v1249h-131v94h131v138h121v-138h199v-94h-199v-309q92 160 278 160z" />
    <glyph glyph-name="uni045C" unicode="&#x45c;" horiz-adv-x="864" 
d="M256 0h-121v1075h121v-487q53 63 160 194l239 293h156l-391 -467l444 -608h-149l-375 514l-84 -102v-412zM608 1481l-178 -232h-119l154 232h143z" />
    <glyph glyph-name="uni045D" unicode="&#x45d;" horiz-adv-x="931" 
d="M135 0v1075h121v-614q0 -188 -4 -242l4 -4q39 92 72 160l344 700h125v-1075h-121v580q0 115 8 286l-4 2q-14 -47 -86 -194l-334 -674h-125zM268 1481h144l153 -232h-119z" />
    <glyph glyph-name="uni045E" unicode="&#x45e;" horiz-adv-x="792" 
d="M158 -391h-70v119h53q63 0 95 39.5t57 119.5l67 222l-344 966h129l269 -784l235 784h127l-362 -1206q-39 -131 -95.5 -195.5t-160.5 -64.5zM387.5 1243q-106.5 0 -167 62.5t-64.5 175.5h106q8 -135 125 -135t125 135h106q-4 -113 -64 -175.5t-166.5 -62.5z" />
    <glyph glyph-name="uni045F" unicode="&#x45f;" horiz-adv-x="921" 
d="M666 1075h120v-1075h-262v-236h-116v236h-273v1075h121v-960h410v960z" />
    <glyph glyph-name="uni0490" unicode="&#x490;" horiz-adv-x="847" 
d="M694 1638h117v-323h-526v-1315h-127v1434h536v204z" />
    <glyph glyph-name="uni0491" unicode="&#x491;" horiz-adv-x="700" 
d="M553 1280h117v-322h-414v-958h-121v1075h418v205z" />
    <glyph glyph-name="Wgrave" unicode="&#x1e80;" horiz-adv-x="1458" 
d="M1303 1434h133l-318 -1434h-141l-174 780q-47 205 -70 451h-8q-23 -244 -70 -451l-174 -780h-141l-317 1434h133l180 -885q66 -336 70 -365h8q16 100 73 385l172 842h140l172 -842q57 -285 73 -385h9q4 29 69 365zM815 1575h-121l-215 231h148z" />
    <glyph glyph-name="wgrave" unicode="&#x1e81;" horiz-adv-x="1245" 
d="M1102 1075h127l-266 -1075h-134l-131 535q-57 233 -73 364h-4q-16 -131 -74 -364l-131 -535h-133l-267 1075h127l133 -586q52 -214 70 -337h4q41 219 78 378l129 525h131l129 -525q37 -160 78 -378h4q4 30 30.5 159t39.5 178zM715 1239h-119l-178 231h143z" />
    <glyph glyph-name="Wacute" unicode="&#x1e82;" horiz-adv-x="1458" 
d="M1303 1434h133l-318 -1434h-141l-174 780q-47 205 -70 451h-8q-23 -244 -70 -451l-174 -780h-141l-317 1434h133l180 -885q66 -336 70 -365h8q16 100 73 385l172 842h140l172 -842q57 -285 73 -385h9q4 29 69 365zM631 1575l188 231h148l-215 -231h-121z" />
    <glyph glyph-name="wacute" unicode="&#x1e83;" horiz-adv-x="1245" 
d="M1102 1075h127l-266 -1075h-134l-131 535q-57 233 -73 364h-4q-16 -131 -74 -364l-131 -535h-133l-267 1075h127l133 -586q52 -214 70 -337h4q41 219 78 378l129 525h131l129 -525q37 -160 78 -378h4q4 30 30.5 159t39.5 178zM805 1470l-178 -231h-119l154 231h143z" />
    <glyph glyph-name="Wdieresis" unicode="&#x1e84;" horiz-adv-x="1458" 
d="M1303 1434h133l-318 -1434h-141l-174 780q-47 205 -70 451h-8q-23 -244 -70 -451l-174 -780h-141l-317 1434h133l180 -885q66 -336 70 -365h8q16 100 73 385l172 842h140l172 -842q57 -285 73 -385h9q4 29 69 365zM862 1614q-37 0 -60.5 21.5t-23.5 58.5t23.5 58.5
t60.5 21.5t59.5 -21.5t22.5 -58.5t-22.5 -58.5t-59.5 -21.5zM595 1614q-36 0 -58.5 21.5t-22.5 58.5t22.5 58.5t58.5 21.5t58.5 -21.5t22.5 -58.5t-22.5 -58.5t-58.5 -21.5z" />
    <glyph glyph-name="wdieresis" unicode="&#x1e85;" horiz-adv-x="1245" 
d="M1102 1075h127l-266 -1075h-134l-131 535q-57 233 -73 364h-4q-16 -131 -74 -364l-131 -535h-133l-267 1075h127l133 -586q52 -214 70 -337h4q41 219 78 378l129 525h131l129 -525q37 -160 78 -378h4q4 30 30.5 159t39.5 178zM737 1282q-37 0 -60.5 21.5t-23.5 58.5
t23.5 58.5t60.5 21.5t59.5 -21.5t22.5 -58.5t-22.5 -58.5t-59.5 -21.5zM495 1282q-36 0 -58.5 21.5t-22.5 58.5t22.5 58.5t58.5 21.5t58 -21.5t22 -58.5t-22 -58.5t-58 -21.5z" />
    <glyph glyph-name="Ygrave" unicode="&#x1ef2;" horiz-adv-x="864" 
d="M369 0v514l-359 920h135l205 -553q14 -37 41 -111t41 -111l287 775h135l-358 -920v-514h-127zM518 1575h-121l-215 231h148z" />
    <glyph glyph-name="ygrave" unicode="&#x1ef3;" horiz-adv-x="792" 
d="M158 -391h-70v119h53q63 0 95 39.5t57 119.5l67 222l-344 966h129l269 -784l235 784h127l-362 -1206q-39 -131 -95.5 -195.5t-160.5 -64.5zM485 1249h-118l-179 232h144z" />
    <glyph glyph-name="endash" unicode="&#x2013;" horiz-adv-x="884" 
d="M94 469v115h697v-115h-697z" />
    <glyph glyph-name="emdash" unicode="&#x2014;" horiz-adv-x="1130" 
d="M94 584h942v-115h-942v115z" />
    <glyph glyph-name="quoteleft" unicode="&#x2018;" horiz-adv-x="256" 
d="M180 1008h-137l94 426h86z" />
    <glyph glyph-name="quoteright" unicode="&#x2019;" horiz-adv-x="256" 
d="M76 1448h137l-94 -426h-86z" />
    <glyph glyph-name="quotesinglbase" unicode="&#x201a;" horiz-adv-x="303" 
d="M104 160h138l-95 -426h-86z" />
    <glyph glyph-name="quotedblleft" unicode="&#x201c;" horiz-adv-x="460" 
d="M385 1008h-137l94 426h86zM180 1008h-137l94 426h86z" />
    <glyph glyph-name="quotedblright" unicode="&#x201d;" horiz-adv-x="460" 
d="M281 1434h137l-94 -426h-86zM76 1434h137l-94 -426h-86z" />
    <glyph glyph-name="quotedblbase" unicode="&#x201e;" horiz-adv-x="303" 
d="M104 160h138l-95 -426h-86z" />
    <glyph glyph-name="dagger" unicode="&#x2020;" horiz-adv-x="757" 
d="M696 1065v-115h-256v-1134h-123v1134h-256v115h256v410h123v-410h256z" />
    <glyph glyph-name="daggerdbl" unicode="&#x2021;" horiz-adv-x="757" 
d="M696 950h-256v-610h256v-115h-256v-409h-123v409h-256v115h256v610h-256v115h256v410h123v-410h256v-115z" />
    <glyph glyph-name="bullet" unicode="&#x2022;" horiz-adv-x="360" 
d="M180 381q-59 0 -96 37t-37 96t37 95t95 36t95 -36t37 -95t-36 -96t-95 -37z" />
    <glyph glyph-name="ellipsis" unicode="&#x2026;" horiz-adv-x="1028" 
d="M842 -20q-43 0 -70 26t-27 70t27 70t70 26q44 0 70 -27t26 -69t-26 -70q-26 -26 -70 -26zM514 -20q-43 0 -70 26t-26 70q0 44 26 70t70 26q43 0 70 -27q26 -27 26 -69t-26 -70q-27 -26 -70 -26zM186 -20q-44 0 -70 26t-26 70t27 70t69 26t70 -27q27 -27 27 -69t-27 -70
q-27 -26 -70 -26z" />
    <glyph glyph-name="perthousand" unicode="&#x2030;" horiz-adv-x="1740" 
d="M1348 203q0 -125 97 -125t97 125v203q0 127 -96 126q-98 0 -98 -126v-203zM836 203q0 -125 97 -125t97 125v203q0 127 -96 126q-98 0 -98 -126v-203zM1642 203q0 -105 -55 -163t-142 -58t-142 58t-56 163v203q-1 104 55 163t143 59t142 -58q55 -60 55 -164v-203z
M1130 203q0 -105 -55 -163t-142 -58t-142 58t-56 163v203q-1 104 55 163t143 59t142 -58q55 -60 55 -164v-203zM131 1026q0 -125 97 -125t98 125v203q0 127 -98 127t-97 -127v-203zM20 0l996 1434h119l-996 -1434h-119zM228 805q-87 0 -142 58t-55 163v203q0 103 55 163
t142 60q86 0 142 -59t56 -164v-203q0 -104 -55 -163q-56 -58 -143 -58z" />
    <glyph glyph-name="guilsinglleft" unicode="&#x2039;" horiz-adv-x="561" 
d="M344 182l-250 314v61l250 313h123l-272 -344l272 -344h-123z" />
    <glyph glyph-name="guilsinglright" unicode="&#x203a;" horiz-adv-x="561" 
d="M217 182h-123l273 344l-273 344h123l250 -313v-61z" />
    <glyph glyph-name="fraction" unicode="&#x2044;" horiz-adv-x="1118" 
d="M29 0l925 1434h136l-926 -1434h-135z" />
    <glyph glyph-name="Euro" unicode="&#x20ac;" horiz-adv-x="1112" 
d="M640 -25q-176 0 -285 114q-108 114 -107 317v147h-170v96h170v133h-170v97h170v149q0 203 105 317q105 113 279 113t280 -108q105 -108 116 -306h-123q-20 299 -274 299q-119 1 -190 -79t-70 -236v-149h352v-97h-352v-133h352v-96h-352v-147q1 -156 73 -236t195 -80
q248 0 279 299h122q-16 -197 -120 -305t-280 -109z" />
    <glyph glyph-name="trademark" unicode="&#x2122;" horiz-adv-x="960" 
d="M883 1434v-551h-76v155q0 88 6 260l-4 2q-11 -22 -51 -122l-60 -150h-73l-60 150q-8 20 -25 63t-26 59l-4 -2q6 -172 6 -260v-155h-76v551h84l78 -183q27 -61 60 -147q33 86 59 147l78 183h84zM66 1360v74h311v-74h-117v-477h-78v477h-116z" />
    <glyph glyph-name="partialdiff" unicode="&#x2202;" horiz-adv-x="913" 
d="M682 367v299q0 132 -60 200t-165 68q-225 0 -226 -268v-299q0 -268 224 -269q227 1 227 269zM805 911v-544q0 -183 -94 -285t-255 -102t-254 101t-93 286v299q0 182 89 284q90 102 244 102t242 -110q-8 172 -116 284t-279 163l39 110q207 -53 342 -211t135 -377z" />
    <glyph glyph-name="emptyset" unicode="&#x2205;" horiz-adv-x="1677" 
d="M1458 714q0 286 -164 462l-845 -988q160 -115 382 -114q283 0 455 177t172 463zM205 717q0 -289 174 -467l848 987q-166 123 -396 123q-283 0 -455 -177t-171 -466zM831 1452q272 0 457 -143l160 186h121l-211 -246q196 -203 196 -533t-198 -533q-198 -202 -525 -201
q-264 0 -446 135l-152 -178h-120l202 235q-207 203 -207 539q0 335 200 537q198 202 523 202z" />
    <glyph glyph-name="product" unicode="&#x220f;" horiz-adv-x="1028" 
d="M158 -203v1637h712v-1639h-122v1520h-467v-1518h-123z" />
    <glyph glyph-name="summation" unicode="&#x2211;" horiz-adv-x="743" 
d="M82 0v113l324 604l-324 604v113h580v-115h-453l311 -567v-70l-311 -567h453v-115h-580z" />
    <glyph glyph-name="minus" unicode="&#x2212;" horiz-adv-x="905" 
d="M94 575v115h717v-115h-717z" />
    <glyph glyph-name="radical" unicode="&#x221a;" horiz-adv-x="931" 
d="M37 911v113h276l176 -891l289 1495h123l-309 -1628h-207l-172 911h-176z" />
    <glyph glyph-name="infinity" unicode="&#x221e;" horiz-adv-x="1294" 
d="M903 324q74 0 119 52t45 143t-44 140t-117 49q-72 0 -114 -46q-42 -47 -81 -138q64 -157 126 -186q29 -14 66 -14zM389 324q72 0 112 50t83 150q-39 90 -81 138t-115 47q-73 1 -117 -49t-44 -141t45 -143t117 -52zM903 819q119 0 201 -84t82 -220t-82 -219t-201 -83
q-166 0 -256 174q-90 -174 -256 -174q-119 0 -201 83t-82 219t82 220t201 84q164 0 256 -160q92 160 256 160z" />
    <glyph glyph-name="integral" unicode="&#x222b;" horiz-adv-x="608" 
d="M244 -59v1185q0 152 85 239t249 89v-117q-213 -6 -213 -211v-1185q0 -150 -84 -238t-248 -90v117q211 6 211 211z" />
    <glyph glyph-name="approxequal" unicode="&#x2248;" horiz-adv-x="942" 
d="M651 340q-67 0 -187 49t-165 49q-80 0 -131 -76l-64 93q82 104 187 104q67 0 187 -49t165 -49q80 0 131 76l66 -86q-78 -111 -189 -111zM651 651q-67 0 -187 49t-165 50q-80 0 -131 -76l-64 92q82 104 187 104q67 0 187 -49t165 -49q80 0 131 76l66 -86
q-78 -111 -189 -111z" />
    <glyph glyph-name="notequal" unicode="&#x2260;" horiz-adv-x="942" 
d="M829 813h-249l-103 -190h352v-115h-411l-84 -158h-115l84 158h-190v115h249l103 190h-352v115h411l84 157h115l-84 -157h190v-115z" />
    <glyph glyph-name="lessequal" unicode="&#x2264;" horiz-adv-x="843" 
d="M94 147v113h656v-113h-656zM750 1047v-121l-527 -232l527 -231v-121l-656 285v135z" />
    <glyph glyph-name="greaterequal" unicode="&#x2265;" horiz-adv-x="843" 
d="M94 147v113h656v-113h-656zM94 1047l656 -285v-135l-656 -285v121l527 231l-527 232v121z" />
    <glyph glyph-name="lozenge" unicode="&#x25ca;" horiz-adv-x="929" 
d="M465 106l254 611l-254 610l-254 -610zM399 -2l-290 678v82l290 676h131l291 -676v-82l-291 -678h-131z" />
    <glyph glyph-name="uni0162.ss01" horiz-adv-x="831" 
d="M479 0h-20l-33 -104q12 4 31 4q55 0 97 -40t42 -106t-51 -106t-128 -41q-77 0 -127 39t-57 106h101q12 -57 84 -57q38 0 62 18t24 49q0 72 -80 72q-39 0 -64 -14l-32 33l45 147h-21v1315h-315v119h758v-119h-316v-1315z" />
    <glyph glyph-name="i.loclTRK" horiz-adv-x="391" 
d="M135 0v1075h121v-1075h-121zM195 1274q-45 0 -72 26.5t-27 71.5t27 71.5t72 26.5t71.5 -26.5t26.5 -71.5t-26.5 -71.5t-71.5 -26.5z" />
    <glyph glyph-name="uni0163.ss01" horiz-adv-x="608" 
d="M506 -10q-45 0 -92 10l-39 -104q12 4 31 4q55 0 97 -40t42 -106t-51.5 -106.5t-128.5 -40.5t-127 39t-56 106h101q12 -57 84 -57q39 0 62.5 18.5t23.5 48.5q0 72 -80 72q-39 0 -64 -14l-33 33l62 178q-137 78 -137 288v644h-164v112h164v248h121v-248h221v-112h-221v-644
q0 -215 184 -215h61v-114h-61z" />
    <glyph glyph-name="uni0414.loclBGR" horiz-adv-x="958" 
d="M219 119h522l-168 731l-92 424h-4q-55 -279 -88 -422zM0 -236v355h90l322 1315h137l319 -1315h90v-355h-122v236h-713v-236h-123z" />
    <glyph glyph-name="uni041B.loclBGR" horiz-adv-x="921" 
d="M387 1434h148l364 -1434h-135l-215 897q-14 66 -42 184.5t-42 178.5h-8q-66 -278 -84 -363l-215 -897h-135z" />
    <glyph glyph-name="hacy.001" horiz-adv-x="778" 
d="M768 0h-141l-238 438l-237 -438h-142l309 537l-294 538h137l227 -422l227 422h138l-293 -538z" />
    <glyph glyph-name="uni0432.loclBGR" horiz-adv-x="933" 
d="M465 98q258 0 258 310q0 174 -76 244t-227 61l-166 -11v-301q0 -159 52 -231t159 -72zM453 1382q-92 0 -146 -72q-53 -73 -53 -208v-283l137 10q131 9 205 91t74 210q0 252 -217 252zM846 418q0 -215 -104 -327t-275 -111q-334 0 -334 440v682q0 186 88 292t242 105
q154 0 242 -99t88 -265q-1 -123 -51 -211t-140 -129q244 -57 244 -377z" />
    <glyph glyph-name="uni0433.loclBGR" horiz-adv-x="815" 
d="M407 -20q-153 0 -245 77.5t-92 214.5q0 96 55 166t133 109t156 73q188 81 188 191q0 82 -49 127t-137 45q-205 0 -205 -211h-121q0 147 90 237.5t234.5 90.5t228.5 -77t84 -208q0 -94 -55.5 -161.5t-133 -105.5t-155.5 -72q-188 -82 -188 -200q0 -82 60 -130t155 -48
q211 0 221 221h121q-4 -154 -98 -246.5t-247 -92.5z" />
    <glyph glyph-name="uni0434.loclBGR" horiz-adv-x="948" 
d="M475 147q217 0 217 269v297q0 133 -61.5 202.5t-155.5 69.5q-244 0 -244 -293v-276q0 -133 63.5 -201t180.5 -68zM813 1075v-1149q0 -145 -93 -233t-246 -88t-245 84t-100 227h117q8 -96 66.5 -147.5t159.5 -51.5t160.5 55.5t59.5 153.5v209q-84 -102 -239.5 -102
t-249.5 100t-94 283v276q0 197 93 302.5t250 105.5t244 -133l17 108h100z" />
    <glyph glyph-name="uni0436.loclBGR" horiz-adv-x="1214" 
d="M666 0h-117v426l-74 94l-330 -520h-145l399 614l-368 461h151l367 -475v879h117v-879l366 475h152l-369 -461l399 -614h-145l-330 518l-73 -92v-426z" />
    <glyph glyph-name="uni0437.loclBGR" horiz-adv-x="864" 
d="M778 12q0 -188 -96 -296t-270 -107q-332 0 -351 381h121q18 -262 228 -262q119 0 182 76t63 218q0 141 -72 223q-73 81 -204 81h-115v114h107q121 0 189 73t67 201q1 128 -57 198t-158 69q-197 0 -215 -262h-121q8 189 95 285t244 96t243 -98t87 -254q0 -154 -42 -235
t-144 -124q219 -74 219 -377z" />
    <glyph glyph-name="uni0438.loclBGR" horiz-adv-x="946" 
d="M690 1075h121v-1075h-100l-21 133q-90 -158 -278 -158q-289 0 -289 412v688h121v-669q0 -164 47 -240t155 -76t176 89t68 245v651z" />
    <glyph glyph-name="uni0439.loclBGR" horiz-adv-x="946" 
d="M690 1075h121v-1075h-100l-21 133q-90 -158 -278 -158q-289 0 -289 412v688h121v-669q0 -164 47 -240t155 -76t176 89t68 245v651zM466.5 1243q-106.5 0 -166.5 62.5t-64 175.5h106q10 -135 125 -135t125 135h106q-4 -113 -64.5 -175.5t-167 -62.5z" />
    <glyph glyph-name="uni045D.loclBGR" horiz-adv-x="958" 
d="M702 1075h121v-1075h-100l-21 133q-90 -158 -278 -158q-289 0 -289 412v688h121v-669q0 -164 47 -240t156 -76t176 89t67 245v651zM584 1249h-119l-178 232h143z" />
    <glyph glyph-name="uni043A.loclBGR" horiz-adv-x="870" 
d="M256 0h-121v1483h121v-887l408 479h153l-373 -434l426 -641h-145l-363 547l-106 -117v-430z" />
    <glyph glyph-name="uni043B.loclBGR" horiz-adv-x="774" 
d="M631 0l-170 629q-22 87 -44 180q-21 92 -26 109h-8q-4 -16 -29 -125t-41 -164l-170 -629h-127l306 1075h131l305 -1075h-127z" />
    <glyph glyph-name="uni043F.loclBGR" horiz-adv-x="946" 
d="M535 1100q289 0 288 -412v-688h-121v670q0 164 -47 239.5t-155 75.5t-176 -89t-68 -245v-651h-121v1075h101l20 -133q91 158 279 158z" />
    <glyph glyph-name="uni0442.loclBGR" horiz-adv-x="1480" 
d="M1079 1100q129 0 204 -104.5t75 -311.5v-684h-121v674q0 311 -184 311q-111 0 -178.5 -89t-67.5 -245v-651h-121v674q0 311 -190 311q-109 0 -174.5 -89t-65.5 -245v-651h-121v1075h101l18 -139q86 164 274 164t252 -207q82 207 299 207z" />
    <glyph glyph-name="uni0446.loclBGR" horiz-adv-x="972" 
d="M809 -236v236q-90 35 -113 147q-90 -172 -288 -172q-141 1 -213 99t-72 313v688h121v-669q0 -164 45 -240t153 -76t176 89t68 245v651h121v-799q0 -108 26 -140t93 -32v-340h-117z" />
    <glyph glyph-name="uni0448.loclBGR" horiz-adv-x="1480" 
d="M1225 1075h121v-1075h-101l-18 139q-86 -164 -274 -164t-253 207q-82 -207 -299 -207q-129 0 -203.5 104.5t-74.5 311.5v684h121v-674q0 -311 184 -311q111 0 178.5 89t67.5 245v651h121v-674q0 -311 190 -311q109 0 174.5 89t65.5 245v651z" />
    <glyph glyph-name="uni0449.loclBGR" horiz-adv-x="1503" 
d="M1337 276q0 -108 26 -140t93 -32v-340h-117v236q-90 35 -114 152q-83 -176 -271 -176t-254 198q-80 -199 -297 -199q-131 1 -205 105t-75 311v684h121v-674q0 -311 186 -311q112 0 176 89t64 245v651h121v-674q0 -311 188 -311q109 0 173 89t65 245v651h120v-799z" />
    <glyph glyph-name="uni044C.loclBGR" horiz-adv-x="837" 
d="M244 356q0 -130 58 -196t162 -66q105 0 164 68q58 68 58 200q0 260 -223 261q-103 0 -161 -69t-58 -198zM809 360q0 -178 -94 -281t-251 -103t-249 96t-92 256v747h121v-442q86 102 234 106t240 -99q92 -102 91 -280z" />
    <glyph glyph-name="uni044A.loclBGR" horiz-adv-x="946" 
d="M572 94q105 0 164 68q58 68 59 200q0 260 -224 261q-102 0 -160 -69q-59 -69 -59 -198q0 -130 58 -196t162 -66zM231 963h-217v112h338v-442q86 102 234 106t240 -99q92 -102 92 -280t-94 -281t-252 -103q-156 0 -248 96t-93 256v635z" />
    <glyph glyph-name="uni044E.loclBGR" horiz-adv-x="1257" 
d="M1026 367v335q0 268 -223 269q-223 0 -223 -269v-335q0 -268 223 -269q223 1 223 269zM803 1090q160 0 253 -102t93 -286v-335q0 -183 -93 -285t-253 -102t-253 101t-93 286v127h-195v-494h-121v1475h121v-865h195v92q0 184 93 286t253 102z" />
    <glyph glyph-name="emdash.case" horiz-adv-x="1130" 
d="M94 788h942v-114h-942v114z" />
    <glyph glyph-name="endash.case" horiz-adv-x="884" 
d="M94 674v114h697v-114h-697z" />
    <glyph glyph-name="hyphen.case" horiz-adv-x="679" 
d="M94 674v114h492v-114h-492z" />
    <glyph glyph-name="guillemotleft.case" horiz-adv-x="888" 
d="M672 305l-250 313v62l250 313h123l-273 -344l273 -344h-123zM344 305l-250 313v62l250 313h123l-272 -344l272 -344h-123z" />
    <glyph glyph-name="guillemotright.case" horiz-adv-x="888" 
d="M545 305h-123l272 344l-272 344h123l250 -313v-62zM217 305h-123l273 344l-273 344h123l250 -313v-62z" />
    <glyph glyph-name="guilsinglleft.case" horiz-adv-x="561" 
d="M344 305l-250 313v62l250 313h123l-272 -344l272 -344h-123z" />
    <glyph glyph-name="guilsinglright.case" horiz-adv-x="561" 
d="M217 305h-123l273 344l-273 344h123l250 -313v-62z" />
    <glyph glyph-name="uni0308.case" 
d="M-69.5 1614q-36.5 0 -60.5 21.5t-24 58.5t24 58.5t60.5 21.5t59 -21.5t22.5 -58.5t-22.5 -58.5t-59 -21.5zM-337 1614q-36 0 -58.5 21.5t-22.5 58.5t22.5 58.5t58.5 21.5t58.5 -21.5t22.5 -58.5t-22.5 -58.5t-58.5 -21.5z" />
    <glyph glyph-name="uni0307.case" 
d="M-88 1626q-45 0 -71.5 26.5t-26.5 71.5t26.5 72t71.5 27t71.5 -27t26.5 -72t-26.5 -71.5t-71.5 -26.5z" />
    <glyph glyph-name="gravecomb.case" 
d="M-18 1575h-121l-215 231h147z" />
    <glyph glyph-name="acutecomb.case" 
d="M-336 1575l189 231h147l-215 -231h-121z" />
    <glyph glyph-name="uni030B.case" 
d="M39 1806l-176 -231h-109l148 231h137zM-170 1806l-168 -231h-108l139 231h137z" />
    <glyph glyph-name="uni0302.case" 
d="M-23 1575h-114l-117 143l-117 -143h-114l166 231h131z" />
    <glyph glyph-name="uni030C.case" 
d="M-145 1806h114l-166 -231h-131l-166 231h115l117 -143z" />
    <glyph glyph-name="uni0306.case" 
d="M-235.5 1569q-106.5 0 -167 62.5t-64.5 174.5h107q8 -135 124.5 -135t124.5 135h107q-4 -113 -64.5 -175t-167 -62z" />
    <glyph glyph-name="uni030A.case" 
d="M-203 1704q0 -63 64 -64q29 0 46 17.5t17 46.5t-17.5 46t-46 17t-46 -17t-17.5 -46zM-283 1705q0 62 40 100t103.5 38t103.5 -38t40 -100t-40 -101t-103.5 -39t-103.5 39t-40 101z" />
    <glyph glyph-name="tildecomb.case" 
d="M-291 1694q-33 0 -39 -60h-110q4 74 41 117t91 43t102 -32.5t65 -32.5q41 0 47 59h102q-8 -76 -44 -118t-88 -42t-100.5 33t-66.5 33z" />
    <glyph glyph-name="uni0304.case" 
d="M-377 1739h377v-107h-377v107z" />
    <glyph glyph-name="uni0312.case" 
d="M-154 1937l86 -362h-137l-37 362h88z" />
    <glyph glyph-name="uni0326.case" 
d="M-197 -510l37 369h133l-75 -369h-95z" />
    <glyph glyph-name="uni0327.case" 
d="M-218 -399q-79 0 -129 40t-56 109h100q12 -57 84 -57q39 0 62.5 18.5t23.5 52.5q0 70 -80 70q-39 0 -63 -14l-35 33l45 147h88l-31 -102q8 2 29 2q59 0 102 -39t43 -107t-52 -110.5t-131 -42.5z" />
    <glyph glyph-name="uni0328.case" 
d="M-74 -393q-88 0 -132 48t-44 118q0 121 123 227h113q-51 -45 -85 -102.5t-34 -104.5q0 -74 78 -74q47 0 65 7v-107q-35 -12 -84 -12z" />
    <glyph glyph-name="uni0337.case" 
d="M-449 -90l334 1216h121l-334 -1216h-121z" />
    <glyph glyph-name="uni0338.case" 
d="M-780 -76l440 1585h121l-440 -1585h-121z" />
    <glyph glyph-name="brevecombcy" 
d="M-235.5 1243q-106.5 0 -167 62.5t-64.5 175.5h107q8 -135 124.5 -135t124.5 135h107q-4 -113 -64.5 -175.5t-167 -62.5z" />
    <glyph glyph-name="brevecombcy.case" 
d="M-235.5 1569q-106.5 0 -167 62.5t-64.5 174.5h107q8 -135 124.5 -135t124.5 135h107q-4 -113 -64.5 -175t-167 -62z" />
    </font>
</defs>
</svg>
