<?xml version="1.0" standalone="no"?>
<!DOCTYPE svg PUBLIC "-//W3C//DTD SVG 1.1//EN" "http://www.w3.org/Graphics/SVG/1.1/DTD/svg11.dtd" >
<svg xmlns="http://www.w3.org/2000/svg">
<metadata>
Created by FontPrep 20130207 at Fri Sep 22 11:37:10 2017
 By Yuliya Mochalova
Copyright (c) 2016 by Fontfabric LLC. All rights reserved.
</metadata>
<defs>
<font id="bff61a4db5fb15606168d32444c57f07" horiz-adv-x='1024' >
  <font-face 
    font-family="Akrobat-Bold"
    font-weight="700"
    font-stretch="normal"
    units-per-em="2048"
    panose-1="0 0 8 0 0 0 0 0 0 0"
    ascent="1638"
    descent="-410"
    x-height="1079"
    cap-height="1434"
    bbox="-977 -543 1659.02 1991"
    underline-thickness="102"
    underline-position="-102"
    unicode-range="U+0020-25CA"
  />
<missing-glyph horiz-adv-x="1024" 
d="M682 -37h-340v-67h143l-143 -97v-67h340v67h-209l143 97h66v67zM614 174v-96h-204v96h204zM682 242h-340v-232h340v232zM682 596h-205v-115h70v47h67v-96h-204v164h-68v-231h340v231zM682 846h-68v-135h-272v-70h340v205zM682 969h-340v-68h135v-76h-135v-67h205v143h135
v68zM477 1167v-73h-67v73h67zM547 1237h-205v-213h340v70h-135v143zM682 1501h-338v-67h133v-76h-135v-68h340v68h-135v76h135v67zM840 1638v-2048h-650v2048h650z" />
    <glyph glyph-name=".notdef" horiz-adv-x="1024" 
d="M682 -37h-340v-67h143l-143 -97v-67h340v67h-209l143 97h66v67zM614 174v-96h-204v96h204zM682 242h-340v-232h340v232zM682 596h-205v-115h70v47h67v-96h-204v164h-68v-231h340v231zM682 846h-68v-135h-272v-70h340v205zM682 969h-340v-68h135v-76h-135v-67h205v143h135
v68zM477 1167v-73h-67v73h67zM547 1237h-205v-213h340v70h-135v143zM682 1501h-338v-67h133v-76h-135v-68h340v68h-135v76h135v67zM840 1638v-2048h-650v2048h650z" />
    <glyph glyph-name=".null" 
 />
    <glyph glyph-name="nonmarkingreturn" horiz-adv-x="681" 
 />
    <glyph glyph-name="space" unicode=" " horiz-adv-x="440" 
 />
    <glyph glyph-name="exclam" unicode="!" horiz-adv-x="509" 
d="M255 -23q-56 0 -90 34t-34 90t34 90t90 34t90 -34t34 -90t-34 -90t-90 -34zM156 342v1092h198v-1092h-198z" />
    <glyph glyph-name="quotedbl" unicode="&#x22;" horiz-adv-x="577" 
d="M346 1434h197l-115 -482h-123zM82 1434h197l-117 -482h-123z" />
    <glyph glyph-name="numbersign" unicode="#" horiz-adv-x="1263" 
d="M477 518h219l86 375h-219zM180 0l84 367h-244l35 151h242l86 375h-242l33 151h244l90 390h180l-90 -390h219l88 390h182l-88 -390h244l-35 -151h-243l-86 -375h243l-35 -151h-241l-86 -367h-182l84 367h-218l-84 -367h-180z" />
    <glyph glyph-name="dollar" unicode="$" horiz-adv-x="952" 
d="M289 1094q1 -132 213 -250q88 -48 176 -106t150 -152t63 -229q0 -135 -90 -245t-250 -132v-154h-168v154q-154 28 -241 136t-89 277h211q2 -109 56 -164t154 -55q99 0 152 53q52 53 52 127t-33 123t-86 88t-170 109t-181 131q-130 124 -130 293q0 137 82 233t223 121v156
h168v-154q147 -23 231 -128t88 -267h-211q-2 100 -51 151q-49 52 -135 52t-135 -45t-49 -123z" />
    <glyph glyph-name="percent" unicode="%" horiz-adv-x="1193" 
d="M872 203q0 -101 77 -101t77 101v213q0 102 -77 102t-77 -102v-213zM949 -18q-95 0 -152 58t-58 165v209q-1 106 57 166t152 59q94 0 152 -59t57 -166v-209q0 -106 -56 -165q-57 -58 -152 -58zM227 918q78 0 78 102v211q0 104 -78 104t-77 -104v-211q-1 -102 77 -102z
M41 0l960 1434h150l-958 -1434h-152zM228 799q-95 0 -152 58t-58 165v207q0 105 58 165t151 60t151 -59t58 -166v-207q0 -106 -56 -165q-57 -58 -152 -58z" />
    <glyph glyph-name="ampersand" unicode="&#x26;" horiz-adv-x="1204" 
d="M508 160q109 0 213 125q-41 57 -121 167t-117 162q-141 -145 -141 -268q0 -82 48 -134t118 -52zM539 1284q-57 0 -91 -38t-34 -112q0 -75 98 -237q147 139 147 244q0 59 -31 101q-32 42 -89 42zM496 -27q-148 -1 -250 95t-102 244t62 252q62 103 171 208
q-147 236 -147 371t79 226q80 91 232 91q151 0 229 -92t76 -216t-62 -216t-168 -195l207 -292q37 76 54 139h196q-47 -170 -131 -309q101 -140 191 -279h-213q-16 27 -50 74q-33 47 -39 57q-152 -158 -335 -158z" />
    <glyph glyph-name="quotesingle" unicode="'" horiz-adv-x="311" 
d="M82 1434h197l-117 -482h-123z" />
    <glyph glyph-name="parenleft" unicode="(" horiz-adv-x="598" 
d="M143 1296q1 174 97 276t264 107v-186q-78 -4 -120 -52t-42 -134v-1182q0 -178 162 -188v-187q-168 4 -264 106t-97 277v1163z" />
    <glyph glyph-name="parenright" unicode=")" horiz-adv-x="598" 
d="M256 125v1182q0 86 -42 134t-120 52v186q168 -4 264 -106t97 -277v-1163q-1 -175 -97 -277t-264 -106v187q162 10 162 188z" />
    <glyph glyph-name="asterisk" unicode="*" horiz-adv-x="626" 
d="M246 1499h133v-168l160 51l41 -125l-160 -51l98 -137l-108 -78l-99 135l-96 -135l-109 78l99 137l-158 51l39 127l160 -53v168z" />
    <glyph glyph-name="plus" unicode="+" horiz-adv-x="944" 
d="M854 727v-184h-291v-299h-184v299h-291v184h291v299h184v-299h291z" />
    <glyph glyph-name="comma" unicode="," horiz-adv-x="346" 
d="M96 201h197l-117 -480h-123z" />
    <glyph glyph-name="hyphen" unicode="-" horiz-adv-x="657" 
d="M78 438v176h502v-176h-502z" />
    <glyph glyph-name="period" unicode="." horiz-adv-x="397" 
d="M199 -23q-55 0 -90 34t-35 90t35 90t90 34t90 -34t35 -90t-35 -90t-90 -34z" />
    <glyph glyph-name="slash" unicode="/" horiz-adv-x="868" 
d="M676 1665h176l-659 -1909h-179z" />
    <glyph glyph-name="zero" unicode="0" horiz-adv-x="964" 
d="M481 166q90 0 140 56q49 56 49 159v668q0 106 -49 162q-49 57 -139 57t-139 -56q-48 -56 -48 -163v-668q0 -103 48 -159t138 -56zM482 -20q-175 0 -277 108t-103 293v668q0 186 102 296q102 109 278 109q175 0 278 -108q102 -109 102 -297v-668q0 -186 -102 -294
q-103 -107 -278 -107z" />
    <glyph glyph-name="one" unicode="1" horiz-adv-x="608" 
d="M465 1434v-1428h-199v1159l-215 -151v225l266 195h148z" />
    <glyph glyph-name="two" unicode="2" horiz-adv-x="862" 
d="M57 0v137q0 131 56 251q55 120 133 209t155 170q189 196 189 335q0 72 -43 120t-120 48t-122 -51t-47 -148h-190q8 181 103 283t259 102t260 -102t96 -246q0 -106 -54 -212t-131 -190q-77 -85 -154 -167q-185 -197 -185 -355h535v-184h-740z" />
    <glyph glyph-name="three" unicode="3" horiz-adv-x="862" 
d="M778 498v-95q0 -209 -94 -317t-272 -109t-278 105t-103 305h196q10 -217 174 -217q92 0 136 56q43 56 43 180v88q0 116 -50 164t-149 49h-131v139l252 407h-422v183h663v-136l-274 -436q149 -8 229 -109t80 -257z" />
    <glyph glyph-name="four" unicode="4" horiz-adv-x="884" 
d="M881 539v-183h-160v-356h-195v356h-508v107l297 971h199l-276 -895h290l21 503h172v-503h160z" />
    <glyph glyph-name="five" unicode="5" horiz-adv-x="878" 
d="M487 973q147 0 235 -108t89 -300v-145q0 -217 -93 -330t-259 -113q-166 1 -261 103t-102 285h201q8 -195 160 -195q77 0 115 56t38 192v149q0 115 -36 166t-113 51q-127 0 -158 -137h-194v787h657v-179h-459v-340q78 58 180 58z" />
    <glyph glyph-name="six" unicode="6" horiz-adv-x="911" 
d="M635 356v215q0 85 -47 135t-121 50t-119 -49t-45 -138v-213q0 -88 46 -137t120 -49t120 49t46 137zM510 940q131 0 228 -100t98 -258v-228q0 -170 -104 -273t-263 -103q-160 0 -263 102q-103 104 -104 274v729q0 169 102 271t259 102q158 0 257 -99t107 -267h-200
q-6 82 -49 128t-114 46t-116 -46t-45 -131v-219q76 72 207 72z" />
    <glyph glyph-name="seven" unicode="7" horiz-adv-x="757" 
d="M-8 1436h715v-138l-388 -1300h-206l368 1251h-489v187z" />
    <glyph glyph-name="eight" unicode="8" horiz-adv-x="946" 
d="M662 383v49q0 104 -50 158t-139 55q-90 0 -139 -54t-49 -159v-49q0 -103 49 -157t139 -54q89 0 139 54t50 157zM307 1069v-31q0 -100 43 -153t123 -53t123 52q43 54 43 154v31q0 195 -166 195t-166 -195zM858 432v-49q0 -188 -103 -297t-281 -109t-283 109
q-103 109 -103 297v49q0 102 42 185t116 131q-133 106 -133 294v33q0 177 97 279t263 102t263 -102t98 -279v-33q-1 -185 -136 -294q160 -98 160 -316z" />
    <glyph glyph-name="nine" unicode="9" horiz-adv-x="911" 
d="M276 862q0 -86 47 -135t121 -49t119 49t45 137v213q0 88 -46 137q-46 50 -120 50t-120 -50t-46 -137v-215zM442 1456q160 0 264 -103t103 -274v-729q0 -168 -101 -270q-102 -102 -260 -102t-257 98q-99 100 -107 268h201q6 -82 49 -128q44 -46 114 -46t115 46t45 130v219
q-76 -71 -206 -71t-229 100q-97 100 -97 258v227q0 169 103 273t263 104z" />
    <glyph glyph-name="colon" unicode=":" horiz-adv-x="372" 
d="M195 -23q-55 0 -91 34q-34 34 -34 90t34 90t90 34t91 -34t35 -90t-36 -90q-34 -34 -89 -34zM195 680q-55 0 -91 34q-34 34 -34 90t34 90t90 34t91 -34t35 -90t-36 -90q-34 -34 -89 -34z" />
    <glyph glyph-name="semicolon" unicode=";" horiz-adv-x="364" 
d="M96 201h197l-117 -480h-123zM187 930q57 0 91 -34t34 -90t-35 -90q-34 -34 -90 -34t-90 34t-34 90t34 90t90 34z" />
    <glyph glyph-name="less" unicode="&#x3c;" horiz-adv-x="882" 
d="M795 999v-186l-504 -192l504 -195v-186l-705 280v199z" />
    <glyph glyph-name="equal" unicode="=" horiz-adv-x="944" 
d="M88 348v180h766v-180h-766zM88 717v182h766v-182h-766z" />
    <glyph glyph-name="greater" unicode="&#x3e;" horiz-adv-x="882" 
d="M88 999l705 -280v-199l-705 -280v186l504 195l-504 192v186z" />
    <glyph glyph-name="question" unicode="?" horiz-adv-x="804" 
d="M370 -23q-56 0 -90 34t-34 90t34 90t90 34t90 -34t34 -90t-34 -90t-90 -34zM268 342v92q0 185 101 318q41 53 83 101q101 115 101 239q0 80 -44 131t-124 51t-127 -54t-49 -155h-193q10 181 108 287t259 106q162 0 264 -101q103 -101 103 -266t-102 -291
q-42 -52 -83 -102q-100 -123 -100 -268v-88h-197z" />
    <glyph glyph-name="at" unicode="@" horiz-adv-x="1632" 
d="M807 360q61 0 97 41t36 121v219q0 68 -35 114t-100 46q-121 0 -121 -151v-234q0 -156 123 -156zM94 784q0 336 196 524t538 187q342 0 526 -175t184 -501v-221q0 -193 -94 -290t-238 -97t-202 121q-68 -131 -222 -131q-122 0 -194 81t-72 230v233q0 154 71 234t193 80
t183 -103l14 78h127v-528q0 -68 24 -103t86 -36q162 0 162 231v221q0 256 -139 387t-409 131t-420 -143t-150 -410v-247q0 -293 152 -451t418 -158t434 103l81 -127q-190 -133 -493 -133q-358 1 -557 201t-199 565v247z" />
    <glyph glyph-name="A" unicode="A" horiz-adv-x="974" 
d="M342 481h291l-90 385q-31 143 -54 308h-6q-27 -195 -53 -308zM743 0l-67 289h-379l-66 -289h-217l361 1434h223l360 -1434h-215z" />
    <glyph glyph-name="B" unicode="B" horiz-adv-x="1036" 
d="M526 195q229 0 230 215q0 110 -64 166t-174 57h-168v-438h176zM508 1239h-158v-412h164q188 0 188 206t-194 206zM553 0h-410v1434h389q174 0 278 -106t103 -284q0 -215 -145 -307q92 -39 145 -125t54 -202q0 -190 -113 -300t-301 -110z" />
    <glyph glyph-name="C" unicode="C" horiz-adv-x="1007" 
d="M521 -25q-196 0 -307.5 117t-111.5 330v590q0 215 111 331.5t305.5 116.5t305 -113.5t118.5 -326.5h-205q-18 244 -223 244q-94 0 -147.5 -63.5t-53.5 -188.5v-590q0 -125 54.5 -187.5t150.5 -62.5q207 0 227 242h205q-10 -211 -121.5 -325t-307.5 -114z" />
    <glyph glyph-name="D" unicode="D" horiz-adv-x="1044" 
d="M350 197h152q111 0 171 65.5t60 192.5v528q0 254 -231 254h-152v-1040zM143 0v1434h357q209 0 325.5 -118t116.5 -329v-536q0 -213 -116.5 -332t-323.5 -119h-359z" />
    <glyph glyph-name="E" unicode="E" horiz-adv-x="944" 
d="M350 195h516v-195h-723v1434h703v-195h-496v-416h457v-190h-457v-438z" />
    <glyph glyph-name="F" unicode="F" horiz-adv-x="870" 
d="M819 1239h-469v-428h432v-188h-432v-623h-207v1434h676v-195z" />
    <glyph glyph-name="G" unicode="G" horiz-adv-x="1036" 
d="M525 -23q-196 0 -309.5 117t-113.5 332v584q0 215 112 330.5t306.5 115.5t303 -112.5t116.5 -323.5h-205q-12 238 -213 237q-209 0 -209 -249v-582q0 -250 217 -250t218 240v180h-228v184h430v-364q-2 -209 -115.5 -324t-309.5 -115z" />
    <glyph glyph-name="H" unicode="H" horiz-adv-x="1105" 
d="M756 1434h207v-1434h-207v629h-406v-629h-207v1434h207v-611h406v611z" />
    <glyph glyph-name="I" unicode="I" horiz-adv-x="491" 
d="M143 1434h207v-1434h-207v1434z" />
    <glyph glyph-name="J" unicode="J" horiz-adv-x="581" 
d="M0 -238v203q121 -1 179 59t59 205v1205h206v-1205q0 -227 -114 -347t-330 -120z" />
    <glyph glyph-name="K" unicode="K" horiz-adv-x="1030" 
d="M348 0h-205v1434h205v-623l94 168l287 455h242l-410 -625l469 -809h-237l-351 627l-94 -142v-485z" />
    <glyph glyph-name="L" unicode="L" horiz-adv-x="839" 
d="M350 197h475v-197h-682v1434h207v-1237z" />
    <glyph glyph-name="M" unicode="M" horiz-adv-x="1409" 
d="M1266 1434v-1434h-203v559q8 301 16 463l-8 4q-41 -115 -139 -377l-125 -325h-205l-125 325q-98 262 -139 377l-8 -4q12 -299 16 -463v-559h-203v1434h211l242 -582q47 -117 104 -285h9q57 168 104 285l242 582h211z" />
    <glyph glyph-name="N" unicode="N" horiz-adv-x="1136" 
d="M788 1434h205v-1434h-207l-319 702q-88 219 -137 349l-6 -4q25 -246 24 -494v-553h-205v1434h207l330 -732q37 -82 131 -315l6 4q-29 248 -29 483v560z" />
    <glyph glyph-name="O" unicode="O" horiz-adv-x="1081" 
d="M541 176q111 0 168 71.5t57 207.5v524q0 135 -57.5 206.5t-167.5 71.5q-225 0 -226 -278v-524q1 -279 226 -279zM540.5 -27q-204.5 0 -321.5 128t-117 354v524q0 225 117 353t321.5 128t321.5 -128t117 -353v-524q0 -225 -117 -353.5t-321.5 -128.5z" />
    <glyph glyph-name="P" unicode="P" horiz-adv-x="1026" 
d="M520 700q232 0 232 268t-232 269h-170v-537h170zM522 1434q211 0 326 -122t115 -344t-115 -343t-326 -121h-172v-504h-207v1434h379z" />
    <glyph glyph-name="Q" unicode="Q" horiz-adv-x="1083" 
d="M766 455v524q0 279 -225 278q-223 0 -224 -278v-524q0 -279 224 -279q27 0 41 2l-97 115l123 110l115 -137q43 70 43 189zM981 979v-524q0 -229 -119 -355l115 -137l-125 -108l-127 151q-78 -33 -184 -33q-205 0 -322 128t-117 354v524q0 225 117 353t323 128t322.5 -128
t116.5 -353z" />
    <glyph glyph-name="R" unicode="R" horiz-adv-x="1032" 
d="M350 1237v-520h160q109 0 165 67.5t56 196.5q0 256 -219 256h-162zM350 520v-520h-207v1434h371q205 0 317.5 -118t112.5 -331q0 -166 -67.5 -278.5t-190.5 -157.5l311 -549h-229l-289 520h-129z" />
    <glyph glyph-name="S" unicode="S" horiz-adv-x="952" 
d="M474 -27q-194 0 -306.5 113t-114.5 307h211q2 -109 56.5 -164t153.5 -55t151.5 53.5t52.5 127t-33 122.5t-86 88t-117 77q-166 100 -246 174q-118 111 -118 275.5t107.5 266.5t287.5 102t286.5 -108.5t110.5 -292.5h-211q-2 100 -51 151.5t-135 51.5t-135 -45.5t-49 -122
t62.5 -139t150.5 -111.5t176 -106.5t150.5 -151.5t62.5 -217q0 -168 -111.5 -282t-305.5 -114z" />
    <glyph glyph-name="T" unicode="T" horiz-adv-x="874" 
d="M842 1434v-197h-299v-1237h-211v1237h-297v197h807z" />
    <glyph glyph-name="U" unicode="U" horiz-adv-x="1085" 
d="M542 -20q-196 0 -309.5 121.5t-113.5 340.5v992h213v-992q0 -262 211 -262q98 0 153.5 65.5t55.5 196.5v992h213v-992q0 -219 -113.5 -340.5t-309.5 -121.5z" />
    <glyph glyph-name="V" unicode="V" horiz-adv-x="960" 
d="M367 0l-353 1434h217l172 -791q18 -78 72 -381h8q47 264 72 381l174 791h215l-352 -1434h-225z" />
    <glyph glyph-name="W" unicode="W" horiz-adv-x="1538" 
d="M1309 1434h215l-322 -1434h-221l-139 633q-51 225 -68 461h-8q-23 -252 -70 -461l-139 -633h-221l-322 1434h215l148 -785q59 -338 65 -381h9q16 115 65 391l143 752h220l143 -752q49 -276 65 -391h9q6 43 65 381z" />
    <glyph glyph-name="X" unicode="X" horiz-adv-x="974" 
d="M944 0h-229l-226 530l-227 -530h-229l342 743l-322 691h228l208 -486l207 486h228l-322 -691z" />
    <glyph glyph-name="Y" unicode="Y" horiz-adv-x="913" 
d="M354 0v471l-348 963h215l162 -478q51 -154 72 -225h4l73 230l160 473h217l-348 -963v-471h-207z" />
    <glyph glyph-name="Z" unicode="Z" horiz-adv-x="862" 
d="M811 197v-197h-776v143l512 1094h-481v197h735v-142l-514 -1095h524z" />
    <glyph glyph-name="bracketleft" unicode="[" horiz-adv-x="610" 
d="M516 1495h-176v-1556h176v-185h-373v1925h373v-184z" />
    <glyph glyph-name="backslash" unicode="\" horiz-adv-x="1015" 
d="M266 1665l662 -1909h-178l-660 1909h176z" />
    <glyph glyph-name="bracketright" unicode="]" horiz-adv-x="610" 
d="M94 -61h176v1556h-176v184h373v-1925h-373v185z" />
    <glyph glyph-name="asciicircum" unicode="^" horiz-adv-x="684" 
d="M664 973h-183l-139 299l-139 -299h-183l230 461h184z" />
    <glyph glyph-name="underscore" unicode="_" horiz-adv-x="794" 
d="M39 -18h717v-191h-717v191z" />
    <glyph glyph-name="a" unicode="a" horiz-adv-x="929" 
d="M612 322v147h-157q-190 0 -191 -162q0 -74 45 -115.5t126 -41.5t129 47t48 125zM466 1106q167 0 256 -100.5t89 -288.5v-717h-162l-14 100q-76 -127 -233 -127t-248 91.5t-91 248t104.5 242.5t287.5 86h157v76q0 199 -155 198q-68 0 -112 -36.5t-52 -106.5h-199
q8 156 106.5 245t265.5 89z" />
    <glyph glyph-name="b" unicode="b" horiz-adv-x="956" 
d="M662 395v297q0 225 -175 226q-82 0 -128 -60.5t-46 -165.5v-299q0 -113 47.5 -171t126.5 -58q175 0 175 231zM520 1106q158 0 251 -110.5t93 -303.5v-297q0 -197 -94 -308.5t-244 -111.5t-250 123l-14 -98h-143v1483h194v-463q86 86 207 86z" />
    <glyph glyph-name="c" unicode="c" horiz-adv-x="894" 
d="M461 -23q-172 0 -269.5 103.5t-97.5 292.5v340q0 186 97.5 289.5t269.5 103.5t269 -102.5t104 -290.5h-201q-6 203 -172 202.5t-166 -202.5v-340q0 -205 168 -205t176 205h199q-4 -188 -104.5 -292t-272.5 -104z" />
    <glyph glyph-name="d" unicode="d" horiz-adv-x="956" 
d="M645 393v299q0 104 -47 165t-129 61q-174 0 -174 -226v-297q0 -231 174 -231q80 0 128 58t48 171zM645 1483h193v-1483h-144l-14 100q-96 -125 -247 -125t-245 113t-94 307v297q0 195 92.5 304.5t233.5 109.5t225 -88v465z" />
    <glyph glyph-name="e" unicode="e" horiz-adv-x="929" 
d="M465 920q-172 0 -172 -213v-93h350v93q0 213 -178 213zM463 -23q-172 0 -270.5 106.5t-98.5 299.5v322q0 190 98.5 295.5t272.5 105.5t274.5 -105.5t100.5 -295.5v-240h-547v-82q0 -215 172 -215q88 0 132 40t58 130h199q-14 -172 -116.5 -266.5t-274.5 -94.5z" />
    <glyph glyph-name="f" unicode="f" horiz-adv-x="622" 
d="M543 1331q-86 0 -126 -46t-40 -146v-60h209v-180h-209v-899h-197v899h-157v180h157v60q0 174 90 273t273 99h63v-180h-63z" />
    <glyph glyph-name="g" unicode="g" horiz-adv-x="962" 
d="M473 231q170 0 170 207v271q0 100 -47 153t-123 53q-178 0 -178 -219v-258q0 -207 178 -207zM844 1079v-1134q0 -154 -98.5 -247t-262.5 -93t-260 91t-102 245h194q12 -152 166 -152q76 0 119 42t43 114v168q-82 -70 -203 -70q-154 0 -250 108.5t-96 286.5v258
q0 188 95.5 299t249 111t243.5 -113l16 86h146z" />
    <glyph glyph-name="h" unicode="h" horiz-adv-x="960" 
d="M555 1106q297 0 297 -449v-657h-199v651q0 141 -36.5 204t-118.5 63t-131.5 -66t-49.5 -184v-668h-198v1479h198v-504q88 131 238 131z" />
    <glyph glyph-name="i" unicode="i" horiz-adv-x="436" 
d="M119 0v1079h198v-1079h-198zM217 1260q-55 0 -90 35.5t-35 89.5t35 90t90 36t91 -35.5t36 -89.5t-36 -90t-91 -36z" />
    <glyph glyph-name="j" unicode="j" horiz-adv-x="503" 
d="M162 0v1079h196v-1071q0 -193 -98 -297t-291 -106v190q100 2 147 52q46 50 46 153zM259 1257q-54 0 -89 35t-35 90q0 56 35 92t89 36t90 -36t36 -90t-36 -91q-36 -36 -90 -36z" />
    <glyph glyph-name="k" unicode="k" horiz-adv-x="903" 
d="M315 0h-196v1483h196v-826l308 422h235l-332 -432l383 -647h-227l-287 494l-80 -86v-408z" />
    <glyph glyph-name="l" unicode="l" horiz-adv-x="428" 
d="M115 0v1483h198v-1483h-198z" />
    <glyph glyph-name="m" unicode="m" horiz-adv-x="1466" 
d="M1063 1106q139 0 217 -108.5t78 -321.5v-676h-197v670q0 248 -143 248q-82 0 -131 -66t-49 -184v-668h-197v670q0 248 -147 248q-82 0 -130.5 -66t-48.5 -184v-668h-196v1079h141l21 -121q86 148 260 148t250 -164q84 164 272 164z" />
    <glyph glyph-name="n" unicode="n" horiz-adv-x="960" 
d="M549 1106q143 0 223 -106.5t80 -321.5v-678h-199v668q0 131 -36.5 190.5t-118.5 59.5t-131.5 -66t-49.5 -184v-668h-198v1079h141l21 -121q88 148 268 148z" />
    <glyph glyph-name="o" unicode="o" horiz-adv-x="948" 
d="M295 385q0 -217 179 -217t179 217v311q0 217 -179 217t-179 -217v-311zM474 -25q-177 0 -278.5 106.5t-101.5 303.5v311q0 197 101.5 303.5t278.5 106.5t278.5 -106.5t101.5 -303.5v-311q0 -197 -101.5 -303.5t-278.5 -106.5z" />
    <glyph glyph-name="p" unicode="p" horiz-adv-x="956" 
d="M662 389v297q0 231 -175 232q-80 0 -127 -58.5t-47 -171.5v-299q0 -106 46.5 -166.5t127.5 -60.5q175 0 175 227zM520 1104q156 0 250 -111.5t94 -306.5v-297q0 -195 -93 -304.5t-251 -109.5q-125 0 -207 86v-430h-194v1450h143l14 -100q41 53 107.5 88t136.5 35z" />
    <glyph glyph-name="q" unicode="q" horiz-adv-x="956" 
d="M469 162q82 0 129 60.5t47 166.5v299q0 113 -48 171.5t-128 58.5q-174 0 -174 -232v-297q0 -227 174 -227zM838 1081v-1450h-193v430q-86 -86 -209 -86q-158 0 -250 110t-92 304v297q0 195 94.5 306.5t247.5 111.5q72 0 138.5 -35t105.5 -88l14 100h144z" />
    <glyph glyph-name="r" unicode="r" horiz-adv-x="696" 
d="M559 1104q72 0 113 -17v-196q-57 25 -146 25t-149 -66t-60 -184v-666h-198v1079h141l23 -125q88 150 276 150z" />
    <glyph glyph-name="s" unicode="s" horiz-adv-x="854" 
d="M432 -27q-172 0 -275.5 101.5t-105.5 257.5h197q2 -78 49 -126t131 -48t127 35.5t43 93t-39 94.5t-98.5 58.5t-128 52t-128 64.5t-98 98.5t-38.5 150.5q0 137 95 219t258 82t255 -94t98 -250h-194q-4 164 -164 164q-70 0 -111 -33t-41 -89t55.5 -94t133 -66t155.5 -63.5
t133.5 -109.5t55.5 -180q0 -143 -96.5 -230.5t-268.5 -87.5z" />
    <glyph glyph-name="t" unicode="t" horiz-adv-x="647" 
d="M530 174h66v-186h-76q-160 0 -251 96t-91 264v551h-151v180h151v256h197v-256h200v-180h-200v-553q-1 -172 155 -172z" />
    <glyph glyph-name="u" unicode="u" horiz-adv-x="960" 
d="M643 1079h199v-1079h-142l-20 121q-88 -147 -268 -148q-143 0 -223 106.5t-80 321.5v678h198v-667q0 -131 37 -190.5t119 -59.5t131 65.5t49 184.5v667z" />
    <glyph glyph-name="v" unicode="v" horiz-adv-x="831" 
d="M614 1079h209l-297 -1079h-221l-297 1079h211l119 -485q57 -268 74 -356h10q16 88 74 356z" />
    <glyph glyph-name="w" unicode="w" horiz-adv-x="1302" 
d="M1090 1079h204l-256 -1079h-215l-94 391q-57 254 -74 426h-8q-14 -172 -74 -426l-92 -391h-215l-258 1079h207l96 -483q39 -209 62 -371h8q25 178 68 379l98 455h211l98 -455q51 -266 68 -379h8q12 102 61 371z" />
    <glyph glyph-name="x" unicode="x" horiz-adv-x="833" 
d="M836 0h-226l-192 383l-195 -383h-225l299 541l-277 538h220l178 -366l176 366h219l-272 -538z" />
    <glyph glyph-name="y" unicode="y" horiz-adv-x="854" 
d="M211 -389h-107v192h68q57 0 86 36t51 112l47 162l-348 966h209l223 -684l201 684h205l-346 -1163q-43 -147 -109.5 -226t-179.5 -79z" />
    <glyph glyph-name="z" unicode="z" horiz-adv-x="749" 
d="M713 182v-182h-693v133l424 764h-391v182h641v-131l-424 -766h443z" />
    <glyph glyph-name="braceleft" unicode="{" horiz-adv-x="692" 
d="M434 1006q0 -184 -133 -285q133 -100 133 -285v-319q0 -80 45 -127t121 -47v-189q-164 0 -262 104t-98 277v322q0 75 -39 117t-107 51v192q68 8 107 51t39 119v311q0 174 98 278t262 103v-188q-76 0 -121 -47t-45 -127v-311z" />
    <glyph glyph-name="bar" unicode="|" horiz-adv-x="430" 
d="M115 1638h200v-1826h-200v1826z" />
    <glyph glyph-name="braceright" unicode="}" horiz-adv-x="692" 
d="M453 979q0 -74 39 -117t106 -51v-193q-68 -8 -106 -51t-39 -118v-312q-1 -174 -99 -277t-262 -104v189q76 0 121 47t45 127v311q0 184 133 285q-133 100 -133 284v320q0 80 -45 127t-121 47v188q164 0 262 -103t99 -278v-321z" />
    <glyph glyph-name="asciitilde" unicode="~" horiz-adv-x="962" 
d="M672 489q-70 1 -195 49t-170 48q-74 0 -127 -76l-102 129q88 125 211 125q69 0 193 -49t171 -49q74 -1 125 77l107 -127q-84 -127 -213 -127z" />
    <glyph glyph-name="exclamdown" unicode="&#xa1;" horiz-adv-x="509" 
d="M156 737h198v-1106h-198v1106zM255 1102q56 0 90 -34t34 -90t-34 -90t-90 -34t-90 34t-34 90t34 90t90 34z" />
    <glyph glyph-name="cent" unicode="&#xa2;" horiz-adv-x="888" 
d="M535 -152h-162v138q-131 23 -205 123t-74 264v334q0 162 74 262t205 123v135h162v-133q139 -23 215 -122t77 -265h-198q-2 203 -170 202q-164 0 -164 -202v-334q0 -205 166 -205t172 205h198q-3 -164 -81 -265t-215 -124v-136z" />
    <glyph glyph-name="sterling" unicode="&#xa3;" horiz-adv-x="978" 
d="M913 193v-193h-854v172q127 29 127 195v256h-129v176h129v262q0 178 98 287q98 108 256 108q159 0 258 -108t107 -299h-200q-16 211 -166 211q-70 0 -111 -52t-41 -145v-264h344v-176h-344v-250q0 -104 -45 -180h571z" />
    <glyph glyph-name="currency" unicode="&#xa4;" horiz-adv-x="958" 
d="M479 408q74 0 116 47t42 137v141q0 90 -42 137q-42 48 -116 48q-73 0 -115 -48t-42 -137v-141q0 -90 42 -137t115 -47zM135 590v145q0 109 43 189l-106 137l116 90l91 -117q83 60 201 60t200 -60l90 117l117 -90l-107 -137q43 -80 43 -189v-145q0 -109 -43 -191l107 -137
l-117 -88l-92 117q-82 -59 -199 -59t-198 59l-91 -117l-118 88l106 139q-43 80 -43 189z" />
    <glyph glyph-name="yen" unicode="&#xa5;" horiz-adv-x="913" 
d="M881 600v-129h-320v-125h320v-131h-320v-215h-207v215h-321v131h321v125h-321v129h274l-301 834h215l162 -478q51 -154 72 -225h4l73 230l160 473h217l-301 -834h273z" />
    <glyph glyph-name="brokenbar" unicode="&#xa6;" horiz-adv-x="389" 
d="M94 -168v625h201v-625h-201zM94 1014v624h201v-624h-201z" />
    <glyph glyph-name="section" unicode="&#xa7;" horiz-adv-x="864" 
d="M604 688q0 56 -51 98t-147 82q-66 0 -111 -36t-45 -96t56 -101t177 -82q57 8 89 43q32 36 32 92zM428 -111q-168 1 -267 101t-102 256h197q2 -76 45 -124t124 -48q163 0 163 135q0 57 -56 99t-134 73t-156 69t-133 108t-56 171q0 176 154 256q-121 89 -121 229t92 219
t249 79t245 -93q88 -92 94 -248h-193q-6 160 -151 160q-66 0 -103 -32q-37 -31 -37 -83q1 -91 184 -163q77 -31 154 -70t130 -114t53 -181q0 -166 -135 -248q118 -94 118 -236t-95 -228t-263 -87z" />
    <glyph glyph-name="copyright" unicode="&#xa9;" horiz-adv-x="1425" 
d="M712 303q-124 0 -196 77t-72 212v256q0 135 72 211t196 76t194 -75t71 -212h-146q-2 143 -118 143q-121 0 -121 -143v-256q0 -143 120 -143t126 143h145q-3 -135 -75 -212t-196 -77zM714 113q228 0 348 137t120 393v166q0 252 -120 386t-348 134t-349 -134t-121 -386
v-166q0 -258 121 -394t349 -136zM1323 643q-1 -313 -161 -487t-448 -174t-450 174t-162 487v166q0 309 162 480t450 171t448 -171t161 -480v-166z" />
    <glyph glyph-name="guillemotleft" unicode="&#xab;" horiz-adv-x="960" 
d="M686 178l-240 311v74l240 311h195l-265 -348l265 -348h-195zM317 178l-239 311v74l239 311h195l-264 -348l264 -348h-195z" />
    <glyph glyph-name="logicalnot" unicode="&#xac;" horiz-adv-x="962" 
d="M881 725v-334h-181v150h-602v184h783z" />
    <glyph glyph-name="registered" unicode="&#xae;" horiz-adv-x="940" 
d="M424 1186v-166h57q76 0 76 83t-76 83h-57zM639 1104q0 -117 -90 -150l108 -196h-90l-100 184h-43v-184h-82v508h139q76 0 117 -42t41 -120zM766 958v117q0 152 -75 232q-75 79 -215 79t-215 -78t-75 -233v-117q0 -160 75 -242t215 -83q140 1 215 83t75 242zM109 1077
q0 183 97 283t270 100t269 -100t97 -283v-119q0 -190 -96 -293t-270 -103q-173 0 -270 102q-97 104 -97 294v119z" />
    <glyph glyph-name="degree" unicode="&#xb0;" horiz-adv-x="641" 
d="M190 1186q0 -64 36 -102t94 -38t95 38q36 38 36 102t-36 101q-36 38 -94 38q-59 0 -95 -38t-36 -101zM53 1186q0 124 74 198t195 74q122 0 194 -75t72 -197t-73 -198q-73 -75 -193 -75t-195 75q-74 75 -74 198z" />
    <glyph glyph-name="plusminus" unicode="&#xb1;" horiz-adv-x="962" 
d="M98 109v174h766v-174h-766zM573 836h291v-181h-291v-280h-184v280h-291v181h291v280h184v-280z" />
    <glyph glyph-name="paragraph" unicode="&#xb6;" horiz-adv-x="1226" 
d="M1083 1438v-1626h-200v1437h-254v-1437h-201v972q-150 0 -242 88t-92 239t92 239t242 88h655z" />
    <glyph glyph-name="periodcentered" unicode="&#xb7;" horiz-adv-x="397" 
d="M199 403q-55 0 -90 34t-35 90t35 90t90 34t90 -34t35 -90t-35 -90t-90 -34z" />
    <glyph glyph-name="guillemotright" unicode="&#xbb;" horiz-adv-x="960" 
d="M643 178h-194l264 348l-264 348h194l240 -311v-74zM274 178h-194l264 348l-264 348h194l240 -311v-74z" />
    <glyph glyph-name="questiondown" unicode="&#xbf;" horiz-adv-x="804" 
d="M524 735v-92q0 -191 -101 -316q-42 -53 -83 -101q-102 -120 -100 -240q0 -80 45 -131t125 -51t126 54q46 56 48 156h194q-10 -182 -108 -287t-260 -105t-265 99q-102 99 -102 263t100 294q41 52 83 102q102 121 102 267v88h196zM424 1100q55 0 90 -34t35 -89t-35 -90
t-90 -35t-90 35t-35 90t35 89t90 34z" />
    <glyph glyph-name="Agrave" unicode="&#xc0;" horiz-adv-x="974" 
d="M342 481h291l-90 385q-31 143 -54 308h-6q-27 -195 -53 -308zM743 0l-67 289h-379l-66 -289h-217l361 1434h223l360 -1434h-215zM618 1573h-155l-223 256h188z" />
    <glyph glyph-name="Aacute" unicode="&#xc1;" horiz-adv-x="974" 
d="M342 481h291l-90 385q-31 143 -54 308h-6q-27 -195 -53 -308zM743 0l-67 289h-379l-66 -289h-217l361 1434h223l360 -1434h-215zM745 1829l-223 -256h-155l190 256h188z" />
    <glyph glyph-name="Acircumflex" unicode="&#xc2;" horiz-adv-x="974" 
d="M342 481h291l-90 385q-31 143 -54 308h-6q-27 -195 -53 -308zM743 0l-67 289h-379l-66 -289h-217l361 1434h223l360 -1434h-215zM487 1716l-104 -143h-147l165 256h170l166 -256h-147z" />
    <glyph glyph-name="Atilde" unicode="&#xc3;" horiz-adv-x="974" 
d="M342 481h291l-90 385q-31 143 -54 308h-6q-27 -195 -53 -308zM743 0l-67 289h-379l-66 -289h-217l361 1434h223l360 -1434h-215zM426 1675q-41 0 -49 -55h-133q4 88 48 138t104 50t106.5 -30.5t62.5 -30.5q43 0 53 55h130q-8 -88 -51.5 -138t-100.5 -50t-104.5 30.5
t-65.5 30.5z" />
    <glyph glyph-name="Adieresis" unicode="&#xc4;" horiz-adv-x="974" 
d="M342 481h291l-90 385q-31 143 -54 308h-6q-27 -195 -53 -308zM743 0l-67 289h-379l-66 -289h-217l361 1434h223l360 -1434h-215zM635 1602q-47 0 -76 27.5t-29 73.5t29 73.5t76 27.5t74.5 -27.5t27.5 -73.5t-27.5 -73.5t-74.5 -27.5zM336 1602q-47 0 -75 27.5t-28 73.5
t28 73.5t75 27.5t74.5 -27.5t27.5 -73.5t-27.5 -73.5t-74.5 -27.5z" />
    <glyph glyph-name="Aring" unicode="&#xc5;" horiz-adv-x="974" 
d="M342 481h291l-90 385q-31 143 -54 308h-6q-27 -195 -53 -308zM743 0l-67 289h-379l-66 -289h-217l361 1434h223l360 -1434h-215zM487.5 1790q-28.5 0 -47 -18.5t-18.5 -47t18.5 -47t47 -18.5t47 18.5t18.5 47t-18.5 47t-47 18.5zM488 1565q-75 0 -119.5 45t-44.5 116.5
t45 114.5t119.5 43t119.5 -43t45 -114.5t-45 -116.5t-120 -45z" />
    <glyph glyph-name="AE" unicode="&#xc6;" horiz-adv-x="1439" 
d="M678 502v704h-6q-49 -172 -101 -319l-151 -385h258zM885 195h477v-195h-684v309h-334l-121 -309h-223l580 1434h761v-195h-456v-416h418v-190h-418v-438z" />
    <glyph glyph-name="Ccedilla" unicode="&#xc7;" horiz-adv-x="1007" 
d="M590 -98q63 0 105 -40t42 -114t-57 -122t-143.5 -48t-143.5 46t-65 122h123q20 -55 81 -55q80 0 80 67.5t-73 67.5q-39 0 -68 -16l-39 36l39 131q-172 14 -270.5 130t-98.5 315v590q0 215 111 331.5t305.5 116.5t305 -113.5t118.5 -326.5h-205q-18 244 -223 244
q-94 0 -147.5 -63.5t-53.5 -188.5v-590q0 -125 54.5 -187.5t150.5 -62.5q207 0 227 242h205q-8 -193 -102 -304.5t-260 -129.5l-23 -80q6 2 25 2z" />
    <glyph glyph-name="Egrave" unicode="&#xc8;" horiz-adv-x="944" 
d="M350 195h516v-195h-723v1434h703v-195h-496v-416h457v-190h-457v-438zM623 1573h-156l-223 256h188z" />
    <glyph glyph-name="Eacute" unicode="&#xc9;" horiz-adv-x="944" 
d="M350 195h516v-195h-723v1434h703v-195h-496v-416h457v-190h-457v-438zM750 1829l-224 -256h-155l190 256h189z" />
    <glyph glyph-name="Ecircumflex" unicode="&#xca;" horiz-adv-x="944" 
d="M350 195h516v-195h-723v1434h703v-195h-496v-416h457v-190h-457v-438zM492 1716l-105 -143h-147l166 256h169l166 -256h-147z" />
    <glyph glyph-name="Edieresis" unicode="&#xcb;" horiz-adv-x="944" 
d="M350 195h516v-195h-723v1434h703v-195h-496v-416h457v-190h-457v-438zM639 1602q-47 0 -75.5 27.5t-28.5 73.5t28.5 73.5t75.5 27.5t74.5 -27.5t27.5 -73.5t-27.5 -73.5t-74.5 -27.5zM340 1602q-47 0 -74.5 27.5t-27.5 73.5t27.5 73.5t74.5 27.5t74.5 -27.5t27.5 -73.5
t-27.5 -73.5t-74.5 -27.5z" />
    <glyph glyph-name="Igrave" unicode="&#xcc;" horiz-adv-x="491" 
d="M143 1434h207v-1434h-207v1434zM383 1573h-156l-223 256h189z" />
    <glyph glyph-name="Iacute" unicode="&#xcd;" horiz-adv-x="491" 
d="M143 1434h207v-1434h-207v1434zM131 1573l191 256h188l-223 -256h-156z" />
    <glyph glyph-name="Icircumflex" unicode="&#xce;" horiz-adv-x="491" 
d="M143 0v1434h207v-1434h-207zM336 1829l166 -256h-148l-102 143l-105 -143h-147l166 256h170z" />
    <glyph glyph-name="Idieresis" unicode="&#xcf;" horiz-adv-x="512" 
d="M150 1434h206v-1434h-206v1434zM393 1602q-47 0 -75 28t-28 73q0 46 28 74q28 27 75 27t76 -28t29 -73t-29 -73t-76 -28zM119 1602q-47 0 -75 28t-28 73q0 46 28 74q28 27 75 27t75 -28t28 -73q0 -46 -28 -74q-28 -27 -75 -27z" />
    <glyph glyph-name="Eth" unicode="&#xd0;" horiz-adv-x="1067" 
d="M754 434v570q0 233 -232 233h-151v-436h172v-142h-172v-462h151q232 -1 232 237zM512 1434q211 0 332 -113t121 -313v-578q0 -206 -121 -318t-330 -112h-350v659h-146v142h146v633h348z" />
    <glyph glyph-name="Ntilde" unicode="&#xd1;" horiz-adv-x="1136" 
d="M788 1434h205v-1434h-207l-319 702q-88 219 -137 349l-6 -4q25 -246 24 -494v-553h-205v1434h207l330 -732q37 -82 131 -315l6 4q-29 248 -29 483v560zM508 1675q-41 0 -49 -55h-133q4 88 48 138t103 50t106.5 -30.5t63.5 -30.5q43 0 53 55h129q-8 -88 -51 -138t-100 -50
t-104.5 30.5t-65.5 30.5z" />
    <glyph glyph-name="Ograve" unicode="&#xd2;" horiz-adv-x="1081" 
d="M541 176q111 0 168 71.5t57 207.5v524q0 135 -57.5 206.5t-167.5 71.5q-225 0 -226 -278v-524q1 -279 226 -279zM540.5 -27q-204.5 0 -321.5 128t-117 354v524q0 225 117 353t321.5 128t321.5 -128t117 -353v-524q0 -225 -117 -353.5t-321.5 -128.5zM672 1573h-156
l-223 256h188z" />
    <glyph glyph-name="Oacute" unicode="&#xd3;" horiz-adv-x="1081" 
d="M541 176q111 0 168 71.5t57 207.5v524q0 135 -57.5 206.5t-167.5 71.5q-225 0 -226 -278v-524q1 -279 226 -279zM540.5 -27q-204.5 0 -321.5 128t-117 354v524q0 225 117 353t321.5 128t321.5 -128t117 -353v-524q0 -225 -117 -353.5t-321.5 -128.5zM420 1573l190 256
h189l-224 -256h-155z" />
    <glyph glyph-name="Ocircumflex" unicode="&#xd4;" horiz-adv-x="1081" 
d="M766 455v524q0 135 -57.5 206.5t-167.5 71.5q-225 0 -226 -278v-524q0 -279 226 -279q111 0 168 72t57 207zM540.5 1460q204.5 0 321.5 -128t117 -353v-524q0 -225 -117 -353.5t-321.5 -128.5t-321.5 128t-117 354v524q0 225 117 353t321.5 128zM541 1716l-105 -143h-147
l166 256h170l166 -256h-148z" />
    <glyph glyph-name="Otilde" unicode="&#xd5;" horiz-adv-x="1081" 
d="M541 176q111 0 168 71.5t57 207.5v524q0 135 -57.5 206.5t-167.5 71.5q-225 0 -226 -278v-524q1 -279 226 -279zM540.5 -27q-204.5 0 -321.5 128t-117 354v524q0 225 117 353t321.5 128t321.5 -128t117 -353v-524q0 -225 -117 -353.5t-321.5 -128.5zM479 1675
q-41 0 -49 -55h-133q4 88 48 138q43 50 103 50t107 -30.5t63 -30.5q43 0 54 55h129q-8 -88 -51 -138q-42 -50 -100 -50t-105.5 30.5t-65.5 30.5z" />
    <glyph glyph-name="Odieresis" unicode="&#xd6;" horiz-adv-x="1081" 
d="M541 176q111 0 168 71.5t57 207.5v524q0 135 -57.5 206.5t-167.5 71.5q-225 0 -226 -278v-524q1 -279 226 -279zM540.5 -27q-204.5 0 -321.5 128t-117 354v524q0 225 117 353t321.5 128t321.5 -128t117 -353v-524q0 -225 -117 -353.5t-321.5 -128.5zM688 1602
q-47 0 -75.5 27.5t-28.5 73.5t28.5 73.5t75.5 27.5t75 -27.5t28 -73.5t-28 -73.5t-75 -27.5zM389 1602q-47 0 -74.5 27.5t-27.5 73.5t27.5 73.5t74.5 27.5t75 -27.5t28 -73.5t-28 -73.5t-75 -27.5z" />
    <glyph glyph-name="multiply" unicode="&#xd7;" horiz-adv-x="948" 
d="M209 219l-129 131l264 264l-262 263l127 131l266 -265l264 265l129 -131l-262 -263l262 -264l-129 -131l-264 264z" />
    <glyph glyph-name="Oslash" unicode="&#xd8;" horiz-adv-x="1077" 
d="M760 455v524q0 70 -15 119l-276 -914q27 -8 70 -8q109 0 165 72t56 207zM317 455q0 -88 21 -144l285 932q-35 14 -84 14q-221 0 -222 -278v-524zM973 455q0 -223 -116 -351t-318 -129q-68 0 -129 17l-37 -123h-168l59 192q-162 127 -162 394v524q0 223 116 351t321 128
q76 0 141 -18l39 125h168l-62 -203q147 -129 148 -383v-524z" />
    <glyph glyph-name="Ugrave" unicode="&#xd9;" horiz-adv-x="1085" 
d="M542 -20q-196 0 -309.5 121.5t-113.5 340.5v992h213v-992q0 -262 211 -262q98 0 153.5 65.5t55.5 196.5v992h213v-992q0 -219 -113.5 -340.5t-309.5 -121.5zM676 1573h-156l-223 256h188z" />
    <glyph glyph-name="Uacute" unicode="&#xda;" horiz-adv-x="1085" 
d="M542 -20q-196 0 -309.5 121.5t-113.5 340.5v992h213v-992q0 -262 211 -262q98 0 153.5 65.5t55.5 196.5v992h213v-992q0 -219 -113.5 -340.5t-309.5 -121.5zM424 1573l190 256h189l-223 -256h-156z" />
    <glyph glyph-name="Ucircumflex" unicode="&#xdb;" horiz-adv-x="1085" 
d="M752 1434h213v-992q0 -218 -114 -340q-113 -122 -309 -122t-309.5 121.5t-113.5 340.5v992h213v-992q0 -262 211 -262q98 0 153.5 65.5t55.5 196.5v992zM545 1716l-105 -143h-147l166 256h170l166 -256h-148z" />
    <glyph glyph-name="Udieresis" unicode="&#xdc;" horiz-adv-x="1085" 
d="M542 -20q-196 0 -309.5 121.5t-113.5 340.5v992h213v-992q0 -262 211 -262q98 0 153.5 65.5t55.5 196.5v992h213v-992q0 -219 -113.5 -340.5t-309.5 -121.5zM692 1602q-47 0 -75.5 27.5t-28.5 73.5t28.5 73.5t75.5 27.5t75 -27.5t28 -73.5t-28 -73.5t-75 -27.5zM393 1602
q-47 0 -74.5 27.5t-27.5 73.5t27.5 73.5t74.5 27.5t75 -27.5t28 -73.5t-28 -73.5t-75 -27.5z" />
    <glyph glyph-name="Yacute" unicode="&#xdd;" horiz-adv-x="913" 
d="M354 0v471l-348 963h215l162 -478q51 -154 72 -225h4l73 230l160 473h217l-348 -963v-471h-207zM338 1573l190 256h189l-223 -256h-156z" />
    <glyph glyph-name="Thorn" unicode="&#xde;" horiz-adv-x="1001" 
d="M520 471q232 0 232 269t-232 270h-170v-539h170zM522 1206q211 0 326 -122t115 -344t-115 -344t-326 -122h-172v-274h-207v1434h207v-228h172z" />
    <glyph glyph-name="germandbls" unicode="&#xdf;" horiz-adv-x="980" 
d="M520 0h-96v197h70q217 0 217 223t-213 223h-74v191h55q189 0 189 216t-172 216t-172 -228v-1038h-205v1038q0 195 100 309q101 113 277 113t277 -114t101 -310q0 -198 -145 -288q90 -42 142 -132t53 -204q0 -190 -111 -301t-293 -111z" />
    <glyph glyph-name="agrave" unicode="&#xe0;" horiz-adv-x="929" 
d="M612 322v147h-157q-190 0 -191 -162q0 -74 45 -115.5t126 -41.5t129 47t48 125zM466 1106q167 0 256 -100.5t89 -288.5v-717h-162l-14 100q-76 -127 -233 -127t-248 91.5t-91 248t104.5 242.5t287.5 86h157v76q0 199 -155 198q-68 0 -112 -36.5t-52 -106.5h-199
q8 156 106.5 245t265.5 89zM594 1249h-156l-182 254h184z" />
    <glyph glyph-name="aacute" unicode="&#xe1;" horiz-adv-x="929" 
d="M612 322v147h-157q-190 0 -191 -162q0 -74 45 -115.5t126 -41.5t129 47t48 125zM466 1106q167 0 256 -100.5t89 -288.5v-717h-162l-14 100q-76 -127 -233 -127t-248 91.5t-91 248t104.5 242.5t287.5 86h157v76q0 199 -155 198q-68 0 -112 -36.5t-52 -106.5h-199
q8 156 106.5 245t265.5 89zM678 1503l-182 -254h-156l154 254h184z" />
    <glyph glyph-name="acircumflex" unicode="&#xe2;" horiz-adv-x="929" 
d="M612 322v147h-157q-190 0 -191 -162q0 -74 45 -115.5t126 -41.5t129 47t48 125zM466 1106q167 0 256 -100.5t89 -288.5v-717h-162l-14 100q-76 -127 -233 -127t-248 91.5t-91 248t104.5 242.5t287.5 86h157v76q0 199 -155 198q-68 0 -112 -36.5t-52 -106.5h-199
q8 156 106.5 245t265.5 89zM461 1391l-105 -144h-147l166 256h170l166 -256h-148z" />
    <glyph glyph-name="atilde" unicode="&#xe3;" horiz-adv-x="929" 
d="M612 322v147h-157q-190 0 -191 -162q0 -74 45 -115.5t126 -41.5t129 47t48 125zM466 1106q167 0 256 -100.5t89 -288.5v-717h-162l-14 100q-76 -127 -233 -127t-248 91.5t-91 248t104.5 242.5t287.5 86h157v76q0 199 -155 198q-68 0 -112 -36.5t-52 -106.5h-199
q8 156 106.5 245t265.5 89zM391 1327q-39 0 -49 -55h-133q4 88 48 138t102.5 50t105.5 -30.5t65 -30.5q43 0 54 55h129q-8 -88 -51.5 -138t-100.5 -50t-104.5 30.5t-65.5 30.5z" />
    <glyph glyph-name="adieresis" unicode="&#xe4;" horiz-adv-x="929" 
d="M612 322v147h-157q-190 0 -191 -162q0 -74 45 -115.5t126 -41.5t129 47t48 125zM466 1106q167 0 256 -100.5t89 -288.5v-717h-162l-14 100q-76 -127 -233 -127t-248 91.5t-91 248t104.5 242.5t287.5 86h157v76q0 199 -155 198q-68 0 -112 -36.5t-52 -106.5h-199
q8 156 106.5 245t265.5 89zM604 1274q-47 0 -75.5 27.5t-28.5 74.5t28.5 75t75.5 28t75 -29t28 -74t-28 -73.5t-75 -28.5zM317.5 1274q-47.5 0 -75 28.5t-27.5 73.5t27.5 74t75 29t75 -29t27.5 -74t-27.5 -73.5t-75 -28.5z" />
    <glyph glyph-name="aring" unicode="&#xe5;" horiz-adv-x="929" 
d="M612 322v147h-157q-190 0 -191 -162q0 -74 45 -115.5t126 -41.5t129 47t48 125zM466 1106q167 0 256 -100.5t89 -288.5v-717h-162l-14 100q-76 -127 -233 -127t-248 91.5t-91 248t104.5 242.5t287.5 86h157v76q0 199 -155 198q-68 0 -112 -36.5t-52 -106.5h-199
q8 156 106.5 245t265.5 89zM460.5 1466q-28.5 0 -47 -18t-18.5 -47t18.5 -47.5t47 -18.5t47 18.5t18.5 47.5t-18.5 47t-47 18zM462 1241q-75 0 -120 45t-45 117t45 115t120 43t120 -43t45 -115t-45 -117t-120 -45z" />
    <glyph glyph-name="ae" unicode="&#xe6;" horiz-adv-x="1415" 
d="M604 319v148h-143q-197 0 -197 -160q0 -74 45 -116q45 -41 126 -41t125 46t44 123zM801 707v-84h334v84q0 213 -167 213t-167 -213zM604 727q0 186 -147 186t-164 -141h-199q8 156 106 245t261 89q162 0 250 -123q92 123 258 123t264 -106t98 -295v-230h-530v-92
q0 -215 166 -215q82 0 124 43t50 135h198q-8 -174 -107 -271t-268 -97t-270 131q-86 -131 -305 -132q-147 -1 -236 91t-89 248t104 237q106 82 293 82h143v92z" />
    <glyph glyph-name="ccedilla" unicode="&#xe7;" horiz-adv-x="894" 
d="M518 -98q63 0 105.5 -40t42.5 -114t-57.5 -122t-143.5 -48t-143.5 46t-65.5 122h123q20 -55 91 -55t71 67.5t-74 67.5q-39 0 -68 -16l-39 36l39 136q-143 16 -224 118.5t-81 272.5v340q0 186 97.5 289.5t269.5 103.5t269 -102.5t104 -290.5h-201q-6 203 -172 202.5
t-166 -202.5v-340q0 -205 168 -205t176 205h199q-4 -172 -89 -273.5t-233 -117.5l-22 -82q6 2 24 2z" />
    <glyph glyph-name="egrave" unicode="&#xe8;" horiz-adv-x="929" 
d="M465 920q-172 0 -172 -213v-93h350v93q0 213 -178 213zM463 -23q-172 0 -270.5 106.5t-98.5 299.5v322q0 190 98.5 295.5t272.5 105.5t274.5 -105.5t100.5 -295.5v-240h-547v-82q0 -215 172 -215q88 0 132 40t58 130h199q-14 -172 -116.5 -266.5t-274.5 -94.5zM596 1245
h-156l-182 254h184z" />
    <glyph glyph-name="eacute" unicode="&#xe9;" horiz-adv-x="929" 
d="M465 920q-172 0 -172 -213v-93h350v93q0 213 -178 213zM463 -23q-172 0 -270.5 106.5t-98.5 299.5v322q0 190 98.5 295.5t272.5 105.5t274.5 -105.5t100.5 -295.5v-240h-547v-82q0 -215 172 -215q88 0 132 40t58 130h199q-14 -172 -116.5 -266.5t-274.5 -94.5zM680 1499
l-182 -254h-156l154 254h184z" />
    <glyph glyph-name="ecircumflex" unicode="&#xea;" horiz-adv-x="929" 
d="M465 920q-172 0 -172 -213v-93h350v93q0 213 -178 213zM463 -23q-172 0 -270.5 106.5t-98.5 299.5v322q0 190 98.5 295.5t272.5 105.5t274.5 -105.5t100.5 -295.5v-240h-547v-82q0 -215 172 -215q88 0 132 40t58 130h199q-14 -172 -116.5 -266.5t-274.5 -94.5zM463 1386
l-105 -143h-147l166 256h170l166 -256h-148z" />
    <glyph glyph-name="edieresis" unicode="&#xeb;" horiz-adv-x="929" 
d="M465 920q-172 0 -172 -213v-93h350v93q0 213 -178 213zM463 -23q-172 0 -270.5 106.5t-98.5 299.5v322q0 190 98.5 295.5t272.5 105.5t274.5 -105.5t100.5 -295.5v-240h-547v-82q0 -215 172 -215q88 0 132 40t58 130h199q-14 -172 -116.5 -266.5t-274.5 -94.5zM605 1270
q-46 0 -74.5 27.5t-28.5 74.5t28.5 75t74.5 28t75 -29t29 -74t-29 -73.5t-75 -28.5zM319.5 1270q-45.5 0 -74 28.5t-28.5 73.5t28.5 74t74 29t74 -29t28.5 -74t-28.5 -73.5t-74 -28.5z" />
    <glyph glyph-name="igrave" unicode="&#xec;" horiz-adv-x="436" 
d="M119 0v1079h198v-1079h-198zM14 1503h185l153 -254h-155z" />
    <glyph glyph-name="iacute" unicode="&#xed;" horiz-adv-x="436" 
d="M119 0v1079h198v-1079h-198zM436 1503l-182 -254h-156l154 254h184z" />
    <glyph glyph-name="icircumflex" unicode="&#xee;" horiz-adv-x="479" 
d="M139 0v1079h199v-1079h-199zM324 1503l159 -256h-145l-96 142l-101 -142h-143l160 256h166z" />
    <glyph glyph-name="idieresis" unicode="&#xef;" horiz-adv-x="475" 
d="M137 0v1079h199v-1079h-199zM371 1278q-45 0 -73 26.5t-28 71.5t28 73t73 28t72.5 -28t27.5 -73t-27.5 -71.5t-72.5 -26.5zM104.5 1278q-45.5 0 -72 26.5t-26.5 71.5t26.5 73t72 28t72 -28t26.5 -73t-26.5 -71.5t-72 -26.5z" />
    <glyph glyph-name="eth" unicode="&#xf0;" horiz-adv-x="940" 
d="M643 387v246q0 217 -174 217t-174 -217v-246q0 -217 174 -217t174 217zM844 387q0 -197 -100 -303t-276 -106q-175 0 -274 106t-100 303v246q0 195 94 303t256 106q113 0 189 -61q-27 121 -105 213l-155 -80l-35 78l125 63q-74 59 -172 91l69 161q166 -45 283 -159
l135 69l37 -76l-113 -57q141 -184 142 -461v-436z" />
    <glyph glyph-name="ntilde" unicode="&#xf1;" horiz-adv-x="960" 
d="M549 1106q143 0 223 -106.5t80 -321.5v-678h-199v668q0 131 -36.5 190.5t-118.5 59.5t-131.5 -66t-49.5 -184v-668h-198v1079h141l21 -121q88 148 268 148zM412 1323q-39 0 -50 -55h-133q4 88 48.5 138t102.5 50t105 -30.5t66 -30.5q43 0 53 55h129q-8 -88 -51 -138
q-42 -50 -100 -50t-105 30.5t-65 30.5z" />
    <glyph glyph-name="ograve" unicode="&#xf2;" horiz-adv-x="948" 
d="M295 385q0 -217 179 -217t179 217v311q0 217 -179 217t-179 -217v-311zM474 -25q-177 0 -278.5 106.5t-101.5 303.5v311q0 197 101.5 303.5t278.5 106.5t278.5 -106.5t101.5 -303.5v-311q0 -197 -101.5 -303.5t-278.5 -106.5zM268 1503h185l153 -254h-155z" />
    <glyph glyph-name="oacute" unicode="&#xf3;" horiz-adv-x="948" 
d="M295 385q0 -217 179 -217t179 217v311q0 217 -179 217t-179 -217v-311zM474 -25q-177 0 -278.5 106.5t-101.5 303.5v311q0 197 101.5 303.5t278.5 106.5t278.5 -106.5t101.5 -303.5v-311q0 -197 -101.5 -303.5t-278.5 -106.5zM690 1503l-182 -254h-156l154 254h184z" />
    <glyph glyph-name="ocircumflex" unicode="&#xf4;" horiz-adv-x="948" 
d="M653 385v311q0 217 -179 217t-179 -217v-311q0 -217 179 -217t179 217zM474 1106q177 0 278.5 -106.5t101.5 -303.5v-311q0 -197 -101.5 -303.5t-278.5 -106.5t-278.5 106.5t-101.5 303.5v311q0 197 101.5 303.5t278.5 106.5zM473 1391l-104 -144h-148l166 256h170
l166 -256h-148z" />
    <glyph glyph-name="otilde" unicode="&#xf5;" horiz-adv-x="948" 
d="M295 385q0 -217 179 -217t179 217v311q0 217 -179 217t-179 -217v-311zM474 -25q-177 0 -278.5 106.5t-101.5 303.5v311q0 197 101.5 303.5t278.5 106.5t278.5 -106.5t101.5 -303.5v-311q0 -197 -101.5 -303.5t-278.5 -106.5zM403 1327q-39 0 -49 -55h-133q4 88 48 138
t103.5 50t105.5 -30.5t65 -30.5q43 0 53 55h129q-8 -88 -51 -138t-100.5 -50t-105 30.5t-65.5 30.5z" />
    <glyph glyph-name="odieresis" unicode="&#xf6;" horiz-adv-x="948" 
d="M295 385q0 -217 179 -217t179 217v311q0 217 -179 217t-179 -217v-311zM474 -25q-177 0 -278.5 106.5t-101.5 303.5v311q0 197 101.5 303.5t278.5 106.5t278.5 -106.5t101.5 -303.5v-311q0 -197 -101.5 -303.5t-278.5 -106.5zM616.5 1274q-47.5 0 -76 27.5t-28.5 74.5
t28.5 75t76 28t75 -29t27.5 -74t-27.5 -73.5t-75 -28.5zM330 1274q-47 0 -75 28.5t-28 73.5t28 74t75 29t74.5 -29t27.5 -74t-27.5 -73.5t-74.5 -28.5z" />
    <glyph glyph-name="divide" unicode="&#xf7;" horiz-adv-x="944" 
d="M473 182q-51 0 -85 34t-34 85t34 85t85 34t85 -34t34 -85t-34 -85t-85 -34zM88 539v174h766v-174h-766zM473 817q-51 0 -85 34t-34 86t33 86t86 34t86 -34t33 -86t-34 -86t-85 -34z" />
    <glyph glyph-name="oslash" unicode="&#xf8;" horiz-adv-x="948" 
d="M653 387v309q0 53 -8 86l-237 -602q35 -10 65 -10q180 0 180 217zM295 387q0 -55 12 -94l240 608q-35 12 -74 12q-178 0 -178 -217v-309zM854 696v-309q0 -197 -101 -303t-280 -107q-78 0 -137 21l-53 -135h-146l80 200q-123 106 -123 324v309q0 197 102 303t277 107
q78 0 145 -23l54 138h145l-80 -205q117 -111 117 -320z" />
    <glyph glyph-name="ugrave" unicode="&#xf9;" horiz-adv-x="960" 
d="M643 1079h199v-1079h-142l-20 121q-88 -147 -268 -148q-143 0 -223 106.5t-80 321.5v678h198v-667q0 -131 37 -190.5t119 -59.5t131 65.5t49 184.5v667zM608 1245h-155l-183 254h185z" />
    <glyph glyph-name="uacute" unicode="&#xfa;" horiz-adv-x="960" 
d="M643 1079h199v-1079h-142l-20 121q-88 -147 -268 -148q-143 0 -223 106.5t-80 321.5v678h198v-667q0 -131 37 -190.5t119 -59.5t131 65.5t49 184.5v667zM692 1499l-182 -254h-156l154 254h184z" />
    <glyph glyph-name="ucircumflex" unicode="&#xfb;" horiz-adv-x="960" 
d="M643 1079h199v-1079h-142l-20 121q-88 -147 -268 -148q-143 0 -223 106.5t-80 321.5v678h198v-667q0 -131 37 -190.5t119 -59.5t131 65.5t49 184.5v667zM475 1386l-104 -143h-148l166 256h170l166 -256h-147z" />
    <glyph glyph-name="udieresis" unicode="&#xfc;" horiz-adv-x="960" 
d="M643 1079h199v-1079h-142l-20 121q-88 -147 -268 -148q-143 0 -223 106.5t-80 321.5v678h198v-667q0 -131 37 -190.5t119 -59.5t131 65.5t49 184.5v667zM617 1270q-46 0 -74.5 27.5t-28.5 74.5t28.5 75t74.5 28t75 -29t29 -74t-29 -73.5t-75 -28.5zM332 1270
q-45 0 -74 28.5t-29 73.5t29 74t74 29t73.5 -29t28.5 -74t-28.5 -73.5t-73.5 -28.5z" />
    <glyph glyph-name="yacute" unicode="&#xfd;" horiz-adv-x="854" 
d="M211 -389h-107v192h68q57 0 86 36t51 112l47 162l-348 966h209l223 -684l201 684h205l-346 -1163q-43 -147 -109.5 -226t-179.5 -79zM639 1507l-182 -254h-156l154 254h184z" />
    <glyph glyph-name="thorn" unicode="&#xfe;" horiz-adv-x="952" 
d="M657 410v290q0 227 -170 228q-82 0 -128 -60t-46 -168v-290q0 -104 46 -166t128 -62q170 1 170 228zM520 1116q156 0 247 -110t91 -306v-290q0 -195 -91 -305t-247 -109q-121 0 -207 86v-451h-194v1848h194v-451q84 88 207 88z" />
    <glyph glyph-name="ydieresis" unicode="&#xff;" horiz-adv-x="854" 
d="M211 -389h-107v192h68q57 0 86 36t51 112l47 162l-348 966h209l223 -684l201 684h205l-346 -1163q-43 -147 -109.5 -226t-179.5 -79zM564 1278q-46 0 -74.5 27.5t-28.5 74.5t28.5 75t74.5 28t75 -29t29 -74t-29 -73.5t-75 -28.5zM278.5 1278q-45.5 0 -74 28.5t-28.5 73.5
t28.5 74t74 29t74 -29t28.5 -74t-28.5 -73.5t-74 -28.5z" />
    <glyph glyph-name="Amacron" unicode="&#x100;" horiz-adv-x="974" 
d="M342 481h291l-90 385q-31 143 -54 308h-6q-27 -195 -53 -308zM743 0l-67 289h-379l-66 -289h-217l361 1434h223l360 -1434h-215zM696 1765v-141h-413v141h413z" />
    <glyph glyph-name="amacron" unicode="&#x101;" horiz-adv-x="929" 
d="M612 322v147h-157q-190 0 -191 -162q0 -74 45 -115.5t126 -41.5t129 47t48 125zM466 1106q167 0 256 -100.5t89 -288.5v-717h-162l-14 100q-76 -127 -233 -127t-248 91.5t-91 248t104.5 242.5t287.5 86h157v76q0 199 -155 198q-68 0 -112 -36.5t-52 -106.5h-199
q8 156 106.5 245t265.5 89zM668 1442v-139h-414v139h414z" />
    <glyph glyph-name="Abreve" unicode="&#x102;" horiz-adv-x="974" 
d="M342 481h291l-90 385q-31 143 -54 308h-6q-27 -195 -53 -308zM743 0l-67 289h-379l-66 -289h-217l361 1434h223l360 -1434h-215zM489.5 1573q-108.5 0 -176 65.5t-71.5 180.5h141q6 -109 105 -109t106 109h141q-4 -117 -70.5 -181.5t-175 -64.5z" />
    <glyph glyph-name="abreve" unicode="&#x103;" horiz-adv-x="929" 
d="M612 322v147h-157q-190 0 -191 -162q0 -74 45 -115.5t126 -41.5t129 47t48 125zM466 1106q167 0 256 -100.5t89 -288.5v-717h-162l-14 100q-76 -127 -233 -127t-248 91.5t-91 248t104.5 242.5t287.5 86h157v76q0 199 -155 198q-68 0 -112 -36.5t-52 -106.5h-199
q8 156 106.5 245t265.5 89zM462.5 1247q-108.5 0 -176 65.5t-71.5 180.5h141q6 -109 105.5 -109t105.5 109h142q-4 -117 -71 -181.5t-175.5 -64.5z" />
    <glyph glyph-name="Aogonek" unicode="&#x104;" horiz-adv-x="974" 
d="M342 481h291l-90 385q-31 143 -54 308h-6q-27 -195 -53 -308zM881 -238q35 0 59 7l2 -146q-45 -18 -132 -18t-136 48t-49 122q0 121 118 225l-67 289h-379l-66 -289h-217l361 1434h223l360 -1434h-43q-47 -37 -77 -87t-29 -87q0 -64 72 -64z" />
    <glyph glyph-name="aogonek" unicode="&#x105;" horiz-adv-x="933" 
d="M438 150q82 0 130 47t48 125v147h-159q-193 0 -193 -162q0 -73 46 -115t128 -42zM685 -395q-83 0 -129 49t-46 125q0 117 143 221l-14 100q-76 -127 -235 -127q-160 -1 -250 91t-90 248t104 243q104 86 289 86h159v76q0 199 -157 198q-68 -1 -113 -37t-53 -106h-199
q8 156 106 245t268 89q169 0 258 -100t89 -289v-717q-59 -41 -96 -89t-37 -89q0 -61 68 -62q41 0 65 9v-146q-47 -18 -130 -18z" />
    <glyph glyph-name="Cacute" unicode="&#x106;" horiz-adv-x="1007" 
d="M521 -25q-196 0 -307.5 117t-111.5 330v590q0 215 111 331.5t305.5 116.5t305 -113.5t118.5 -326.5h-205q-18 244 -223 244q-94 0 -147.5 -63.5t-53.5 -188.5v-590q0 -125 54.5 -187.5t150.5 -62.5q207 0 227 242h205q-10 -211 -121.5 -325t-307.5 -114zM387 1573
l191 256h188l-223 -256h-156z" />
    <glyph glyph-name="cacute" unicode="&#x107;" horiz-adv-x="894" 
d="M461 -23q-172 0 -269.5 103.5t-97.5 292.5v340q0 186 97.5 289.5t269.5 103.5t269 -102.5t104 -290.5h-201q-6 203 -172 202.5t-166 -202.5v-340q0 -205 168 -205t176 205h199q-4 -188 -104.5 -292t-272.5 -104zM680 1503l-182 -254h-156l154 254h184z" />
    <glyph glyph-name="Cdotaccent" unicode="&#x10a;" horiz-adv-x="1007" 
d="M521 -25q-196 0 -307.5 117t-111.5 330v590q0 215 111 331.5t305.5 116.5t305 -113.5t118.5 -326.5h-205q-18 244 -223 244q-94 0 -147.5 -63.5t-53.5 -188.5v-590q0 -125 54.5 -187.5t150.5 -62.5q207 0 227 242h205q-10 -211 -121.5 -325t-307.5 -114zM504 1593
q-55 0 -90 36t-35 90t36 90t90 36t90 -35.5t36 -89t-36 -90.5t-91 -37z" />
    <glyph glyph-name="cdotaccent" unicode="&#x10b;" horiz-adv-x="894" 
d="M461 -23q-172 0 -269.5 103.5t-97.5 292.5v340q0 186 97.5 289.5t269.5 103.5t269 -102.5t104 -290.5h-201q-6 203 -172 202.5t-166 -202.5v-340q0 -205 168 -205t176 205h199q-4 -188 -104.5 -292t-272.5 -104zM461 1260q-55 0 -90 35.5t-35 89.5t35 90t90 36t91 -35.5
t36 -90t-36 -90t-91 -35.5z" />
    <glyph glyph-name="Ccaron" unicode="&#x10c;" horiz-adv-x="1007" 
d="M521 -25q-196 0 -307.5 117t-111.5 330v590q0 215 111 331.5t305.5 116.5t305 -113.5t118.5 -326.5h-205q-18 244 -223 244q-94 0 -147.5 -63.5t-53.5 -188.5v-590q0 -125 54.5 -187.5t150.5 -62.5q207 0 227 242h205q-10 -211 -121.5 -325t-307.5 -114zM592 1573h-170
l-166 256h147l105 -143l102 143h148z" />
    <glyph glyph-name="ccaron" unicode="&#x10d;" horiz-adv-x="894" 
d="M461 -23q-172 0 -269.5 103.5t-97.5 292.5v340q0 186 97.5 289.5t269.5 103.5t269 -102.5t104 -290.5h-201q-6 203 -172 202.5t-166 -202.5v-340q0 -205 168 -205t176 205h199q-4 -188 -104.5 -292t-272.5 -104zM547 1247h-170l-166 256h147l105 -143l102 143h148z" />
    <glyph glyph-name="Dcaron" unicode="&#x10e;" horiz-adv-x="1044" 
d="M733 455v528q0 254 -231 254h-152v-1040h152q111 0 171 65.5t60 192.5zM500 1434q209 0 325.5 -118t116.5 -329v-536q0 -213 -116.5 -332t-323.5 -119h-359v1434h357zM580 1573h-170l-166 256h147l105 -143l102 143h147z" />
    <glyph glyph-name="dcaron" unicode="&#x10f;" horiz-adv-x="1093" 
d="M645 393v299q0 104 -47 164t-129 62q-174 0 -174 -226v-297q0 -231 174 -231q80 0 128 58t48 171zM645 1483h193v-1483h-144l-14 100q-96 -125 -247 -125t-245 113t-94 307v297q0 194 92 304t250 110q125 0 209 -88v465zM967 1581h180l-84 -379h-123z" />
    <glyph glyph-name="Dcroat" unicode="&#x110;" horiz-adv-x="1067" 
d="M754 434v570q0 233 -232 233h-151v-436h172v-142h-172v-462h151q232 -1 232 237zM512 1434q211 0 332 -113t121 -313v-578q0 -206 -121 -318t-330 -112h-350v659h-146v142h146v633h348z" />
    <glyph glyph-name="dcroat" unicode="&#x111;" horiz-adv-x="968" 
d="M645 393v299q0 104 -47 164t-129 62q-174 0 -174 -226v-297q0 -231 174 -231q80 0 128 58t48 171zM969 1346v-115h-131v-1231h-144l-14 100q-96 -125 -247 -125t-245 113t-94 307v297q0 194 92 304t250 110q125 0 209 -88v213h-201v115h201v137h193v-137h131z" />
    <glyph glyph-name="Emacron" unicode="&#x112;" horiz-adv-x="944" 
d="M350 195h516v-195h-723v1434h703v-195h-496v-416h457v-190h-457v-438zM700 1765v-141h-413v141h413z" />
    <glyph glyph-name="emacron" unicode="&#x113;" horiz-adv-x="929" 
d="M465 920q-172 0 -172 -213v-93h350v93q0 213 -178 213zM463 -23q-172 0 -270.5 106.5t-98.5 299.5v322q0 190 98.5 295.5t272.5 105.5t274.5 -105.5t100.5 -295.5v-240h-547v-82q0 -215 172 -215q88 0 132 40t58 130h199q-14 -172 -116.5 -266.5t-274.5 -94.5zM670 1438
v-140h-414v140h414z" />
    <glyph glyph-name="Edotaccent" unicode="&#x116;" horiz-adv-x="944" 
d="M350 195h516v-195h-723v1434h703v-195h-496v-416h457v-190h-457v-438zM487 1593q-55 0 -90 36t-35 90t36 90t90 36t90 -35.5t36 -89t-36 -90.5t-91 -37z" />
    <glyph glyph-name="edotaccent" unicode="&#x117;" horiz-adv-x="929" 
d="M465 920q-172 0 -172 -213v-93h350v93q0 213 -178 213zM463 -23q-172 0 -270.5 106.5t-98.5 299.5v322q0 190 98.5 295.5t272.5 105.5t274.5 -105.5t100.5 -295.5v-240h-547v-82q0 -215 172 -215q88 0 132 40t58 130h199q-14 -172 -116.5 -266.5t-274.5 -94.5zM461 1255
q-55 0 -90 36t-35 90t35 90t90 36t91 -35.5t36 -90t-36 -90.5t-91 -36z" />
    <glyph glyph-name="Eogonek" unicode="&#x118;" horiz-adv-x="952" 
d="M746 -395q-88 0 -137 48q-48 48 -48 122q0 121 135 225h-553v1434h703v-195h-496v-416h457v-190h-457v-438h516v-195q-53 -37 -88 -85t-35 -85q0 -68 72 -68q34 1 59 7l3 -146q-43 -18 -131 -18z" />
    <glyph glyph-name="eogonek" unicode="&#x119;" horiz-adv-x="929" 
d="M293 614h350v93q0 213 -178 213q-172 0 -172 -213v-93zM615 -395q-82 0 -132 48q-49 48 -49 124q0 104 109 207v2q-45 -8 -80 -9q-172 1 -270 107t-99 299v322q0 188 98 294q98 107 273 107q174 0 274 -106t101 -295v-240h-547v-82q0 -215 174 -215q88 0 132 42t56 128
h199q-16 -158 -115 -264q-133 -140 -133 -226t78 -86q41 0 68 7v-146q-55 -18 -137 -18z" />
    <glyph glyph-name="Ecaron" unicode="&#x11a;" horiz-adv-x="944" 
d="M350 195h516v-195h-723v1434h703v-195h-496v-416h457v-190h-457v-438zM575 1573h-169l-166 256h147l105 -143l102 143h147z" />
    <glyph glyph-name="ecaron" unicode="&#x11b;" horiz-adv-x="929" 
d="M465 920q-172 0 -172 -213v-93h350v93q0 213 -178 213zM463 -23q-172 0 -270.5 106.5t-98.5 299.5v322q0 190 98.5 295.5t272.5 105.5t274.5 -105.5t100.5 -295.5v-240h-547v-82q0 -215 172 -215q88 0 132 40t58 130h199q-14 -172 -116.5 -266.5t-274.5 -94.5zM547 1243
h-170l-166 256h147l105 -143l102 143h148z" />
    <glyph glyph-name="Gbreve" unicode="&#x11e;" horiz-adv-x="1036" 
d="M525 -23q-196 0 -309.5 117t-113.5 332v584q0 215 112 330.5t306.5 115.5t303 -112.5t116.5 -323.5h-205q-12 238 -213 237q-209 0 -209 -249v-582q0 -250 217 -250t218 240v180h-228v184h430v-364q-2 -209 -115.5 -324t-309.5 -115zM516.5 1573q-108.5 0 -176.5 65.5
t-72 180.5h142q6 -109 105 -109t106 109h141q-4 -117 -70.5 -181.5t-175 -64.5z" />
    <glyph glyph-name="gbreve" unicode="&#x11f;" horiz-adv-x="962" 
d="M473 231q170 0 170 207v271q0 100 -47 153t-123 53q-178 0 -178 -219v-258q0 -207 178 -207zM844 1079v-1134q0 -154 -98.5 -247t-262.5 -93t-260 91t-102 245h194q12 -152 166 -152q76 0 119 42t43 114v168q-82 -70 -203 -70q-154 0 -250 108.5t-96 286.5v258
q0 188 95.5 299t249 111t243.5 -113l16 86h146zM473.5 1247q-108.5 0 -176.5 65.5t-72 180.5h142q6 -109 105 -109t106 109h141q-4 -117 -70.5 -181.5t-175 -64.5z" />
    <glyph glyph-name="Gdotaccent" unicode="&#x120;" horiz-adv-x="1036" 
d="M525 -23q-196 0 -309.5 117t-113.5 332v584q0 215 112 330.5t306.5 115.5t303 -112.5t116.5 -323.5h-205q-12 238 -213 237q-209 0 -209 -249v-582q0 -250 217 -250t218 240v180h-228v184h430v-364q-2 -209 -115.5 -324t-309.5 -115zM510 1593q-55 0 -90 36t-35 90t35 90
t90 36t91 -35.5t36 -89t-36 -90.5t-91 -37z" />
    <glyph glyph-name="gdotaccent" unicode="&#x121;" horiz-adv-x="962" 
d="M473 231q170 0 170 207v271q0 100 -47 153t-123 53q-178 0 -178 -219v-258q0 -207 178 -207zM844 1079v-1134q0 -154 -98.5 -247t-262.5 -93t-260 91t-102 245h194q12 -152 166 -152q76 0 119 42t43 114v168q-82 -70 -203 -70q-154 0 -250 108.5t-96 286.5v258
q0 188 95.5 299t249 111t243.5 -113l16 86h146zM469 1260q-55 0 -90 35.5t-35 89.5t35 90t90 36t91 -35.5t36 -90t-36 -90t-91 -35.5z" />
    <glyph glyph-name="Gcommaaccent" unicode="&#x122;" horiz-adv-x="1036" 
d="M395 -543l35 400h180l-88 -400h-127zM525 -23q-196 0 -309.5 117t-113.5 332v584q0 215 112 330.5t306.5 115.5t303 -112.5t116.5 -323.5h-205q-12 238 -213 237q-209 0 -209 -249v-582q0 -250 217 -250t218 240v180h-228v184h430v-364q-2 -209 -115.5 -324t-309.5 -115z
" />
    <glyph glyph-name="gcommaaccent" unicode="&#x123;" horiz-adv-x="962" 
d="M473 231q170 0 170 207v271q0 100 -47 153t-123 53q-178 0 -178 -219v-258q0 -207 178 -207zM844 1079v-1134q0 -154 -98.5 -247t-262.5 -93t-260 91t-102 245h194q12 -152 166 -152q76 0 119 42t43 114v168q-82 -70 -203 -70q-154 0 -250 108.5t-96 286.5v258
q0 188 95.5 299t249 111t243.5 -113l16 86h146zM563 1237h-196l-37 401h129z" />
    <glyph glyph-name="Hbar" unicode="&#x126;" horiz-adv-x="1167" 
d="M786 823v250h-405v-250h405zM1130 1186v-113h-137v-1073h-207v629h-405v-629h-207v1073h-139v113h139v248h207v-248h405v248h207v-248h137z" />
    <glyph glyph-name="hbar" unicode="&#x127;" horiz-adv-x="956" 
d="M551 1106q299 0 299 -449v-657h-199v651q0 141 -38 204q-39 63 -119 63t-130.5 -66t-50.5 -184v-668h-196v1239h-131v113h131v131h196v-131h193v-113h-193v-266q86 133 238 133z" />
    <glyph glyph-name="Imacron" unicode="&#x12a;" horiz-adv-x="491" 
d="M143 1434h207v-1434h-207v1434zM47 1765h414v-141h-414v141z" />
    <glyph glyph-name="imacron" unicode="&#x12b;" horiz-adv-x="430" 
d="M117 0v1079h198v-1079h-198zM27 1442h379v-144h-379v144z" />
    <glyph glyph-name="Iogonek" unicode="&#x12e;" horiz-adv-x="489" 
d="M324 -236q43 0 61 7v-146q-59 -20 -144 -20t-135 49q-49 49 -49 131q0 121 107 215h-23v1434h207v-1434h-24q-37 -37 -62 -85t-24 -83q0 -68 86 -68z" />
    <glyph glyph-name="iogonek" unicode="&#x12f;" horiz-adv-x="432" 
d="M287 -238q33 0 61 7v-146q-43 -18 -135 -18t-141 48t-49 122q0 119 88 223v1077h198v-1075l-28 -2q-76 -84 -76 -160t82 -76zM211 1264q-49 0 -82 32.5t-33 82.5t32 83t82 33t84 -32.5t34 -82.5t-34 -83t-83 -33z" />
    <glyph glyph-name="Idotaccent" unicode="&#x130;" horiz-adv-x="491" 
d="M143 1434h207v-1434h-207v1434zM248 1593q-55 0 -90 36t-35 90t35 90t90 36t91 -35.5t36 -89t-36 -90.5t-91 -37z" />
    <glyph glyph-name="dotlessi" unicode="&#x131;" horiz-adv-x="436" 
d="M119 0v1079h198v-1079h-198z" />
    <glyph glyph-name="Kcommaaccent" unicode="&#x136;" horiz-adv-x="1030" 
d="M397 -543l35 400h180l-88 -400h-127zM348 0h-205v1434h205v-623l94 168l287 455h242l-410 -625l469 -809h-237l-351 627l-94 -142v-485z" />
    <glyph glyph-name="kcommaaccent" unicode="&#x137;" horiz-adv-x="903" 
d="M350 -543l35 400h180l-88 -400h-127zM315 0h-196v1483h196v-826l308 422h235l-332 -432l383 -647h-227l-287 494l-80 -86v-408z" />
    <glyph glyph-name="Lacute" unicode="&#x139;" horiz-adv-x="839" 
d="M350 197h475v-197h-682v1434h207v-1237zM625 1829l-224 -256h-155l190 256h189z" />
    <glyph glyph-name="lacute" unicode="&#x13a;" horiz-adv-x="438" 
d="M115 0v1483h198v-1483h-198zM96 1573l191 256h188l-223 -256h-156z" />
    <glyph glyph-name="Lcommaaccent" unicode="&#x13b;" horiz-adv-x="839" 
d="M311 -543l35 400h180l-88 -400h-127zM350 197h475v-197h-682v1434h207v-1237z" />
    <glyph glyph-name="lcommaaccent" unicode="&#x13c;" horiz-adv-x="428" 
d="M113 -543l34 400h181l-88 -400h-127zM115 0v1483h198v-1483h-198z" />
    <glyph glyph-name="Lcaron" unicode="&#x13d;" horiz-adv-x="827" 
d="M750 1434l-82 -412h-123l20 412h185zM350 195h445v-195h-652v1434h207v-1239z" />
    <glyph glyph-name="lcaron" unicode="&#x13e;" horiz-adv-x="569" 
d="M115 0v1483h198v-1483h-198zM414 1196l26 383h183l-86 -383h-123z" />
    <glyph glyph-name="Lslash" unicode="&#x141;" horiz-adv-x="880" 
d="M408 195h458v-195h-665v614l-156 -59v178l156 60v641h207v-564l251 97v-179l-251 -96v-497z" />
    <glyph glyph-name="lslash" unicode="&#x142;" horiz-adv-x="528" 
d="M360 0h-196v715l-139 -47v161l139 48v602h196v-537l144 49v-162l-144 -49v-780z" />
    <glyph glyph-name="Nacute" unicode="&#x143;" horiz-adv-x="1136" 
d="M788 1434h205v-1434h-207l-319 702q-88 219 -137 349l-6 -4q25 -246 24 -494v-553h-205v1434h207l330 -732q37 -82 131 -315l6 4q-29 248 -29 483v560zM449 1573l190 256h188l-223 -256h-155z" />
    <glyph glyph-name="nacute" unicode="&#x144;" horiz-adv-x="960" 
d="M549 1106q143 0 223 -106.5t80 -321.5v-678h-199v668q0 131 -36.5 190.5t-118.5 59.5t-131.5 -66t-49.5 -184v-668h-198v1079h141l21 -121q88 148 268 148zM698 1499l-182 -254h-156l154 254h184z" />
    <glyph glyph-name="Ncommaaccent" unicode="&#x145;" horiz-adv-x="1136" 
d="M451 -543l34 400h181l-88 -400h-127zM788 1434h205v-1434h-207l-319 702q-88 219 -137 349l-6 -4q25 -246 24 -494v-553h-205v1434h207l330 -732q37 -82 131 -315l6 4q-29 248 -29 483v560z" />
    <glyph glyph-name="ncommaaccent" unicode="&#x146;" horiz-adv-x="960" 
d="M348 -543l35 400h180l-88 -400h-127zM549 1106q143 0 223 -106.5t80 -321.5v-678h-199v668q0 131 -36.5 190.5t-118.5 59.5t-131.5 -66t-49.5 -184v-668h-198v1079h141l21 -121q88 148 268 148z" />
    <glyph glyph-name="Ncaron" unicode="&#x147;" horiz-adv-x="1136" 
d="M788 1434h205v-1434h-207l-319 702q-88 219 -137 349l-6 -4q25 -246 24 -494v-553h-205v1434h207l330 -732q37 -82 131 -315l6 4q-29 248 -29 483v560zM653 1573h-170l-166 256h148l104 -143l103 143h147z" />
    <glyph glyph-name="ncaron" unicode="&#x148;" horiz-adv-x="960" 
d="M549 1106q143 0 223 -106.5t80 -321.5v-678h-199v668q0 131 -36.5 190.5t-118.5 59.5t-131.5 -66t-49.5 -184v-668h-198v1079h141l21 -121q88 148 268 148zM565 1243h-170l-166 256h148l104 -143l103 143h147z" />
    <glyph glyph-name="Eng" unicode="&#x14a;" horiz-adv-x="1136" 
d="M788 1434h205v-1446q0 -180 -97 -280t-282 -103v190q180 2 181 185v2l-332 729q-63 158 -133 340l-6 -4q25 -246 24 -494v-553h-205v1434h207l338 -740q74 -186 125 -323l6 2q-31 272 -31 497v564z" />
    <glyph glyph-name="eng" unicode="&#x14b;" horiz-adv-x="960" 
d="M549 1106q303 0 303 -428v-705q0 -180 -97.5 -280.5t-281.5 -102.5v191q180 2 180 184v703q0 131 -36.5 190.5t-118.5 59.5t-131.5 -66t-49.5 -184v-668h-198v1079h141l21 -121q88 148 268 148z" />
    <glyph glyph-name="Omacron" unicode="&#x14c;" horiz-adv-x="1081" 
d="M541 176q111 0 168 71.5t57 207.5v524q0 135 -57.5 206.5t-167.5 71.5q-225 0 -226 -278v-524q1 -279 226 -279zM540.5 -27q-204.5 0 -321.5 128t-117 354v524q0 225 117 353t321.5 128t321.5 -128t117 -353v-524q0 -225 -117 -353.5t-321.5 -128.5zM336 1765h414v-141
h-414v141z" />
    <glyph glyph-name="omacron" unicode="&#x14d;" horiz-adv-x="948" 
d="M295 385q0 -217 179 -217t179 217v311q0 217 -179 217t-179 -217v-311zM474 -25q-177 0 -278.5 106.5t-101.5 303.5v311q0 197 101.5 303.5t278.5 106.5t278.5 -106.5t101.5 -303.5v-311q0 -197 -101.5 -303.5t-278.5 -106.5zM266 1442h414v-139h-414v139z" />
    <glyph glyph-name="Ohungarumlaut" unicode="&#x150;" horiz-adv-x="1081" 
d="M541 176q111 0 168 71.5t57 207.5v524q0 135 -57.5 206.5t-167.5 71.5q-225 0 -226 -278v-524q1 -279 226 -279zM540.5 -27q-204.5 0 -321.5 128t-117 354v524q0 225 117 353t321.5 128t321.5 -128t117 -353v-524q0 -225 -117 -353.5t-321.5 -128.5zM885 1829l-189 -254
h-141l158 254h172zM623 1829l-179 -254h-141l148 254h172z" />
    <glyph glyph-name="ohungarumlaut" unicode="&#x151;" horiz-adv-x="948" 
d="M295 385q0 -217 179 -217t179 217v311q0 217 -179 217t-179 -217v-311zM474 -25q-177 0 -278.5 106.5t-101.5 303.5v311q0 197 101.5 303.5t278.5 106.5t278.5 -106.5t101.5 -303.5v-311q0 -197 -101.5 -303.5t-278.5 -106.5zM811 1503l-188 -254h-142l158 254h172z
M549 1503l-178 -254h-142l148 254h172z" />
    <glyph glyph-name="OE" unicode="&#x152;" horiz-adv-x="1566" 
d="M532 176q233 0 234 279v524q0 279 -234 278q-217 0 -217 -278v-524q0 -279 217 -279zM973 195h518v-195h-725v82q-102 -109 -246 -109q-194 0 -306 128t-112 354v524q0 225 112 353t306 128q143 0 246 -108v82h702v-195h-495v-416h459v-190h-459v-438z" />
    <glyph glyph-name="oe" unicode="&#x153;" horiz-adv-x="1464" 
d="M645 387v305q0 215 -175 215t-175 -215v-305q0 -217 175 -217t175 217zM842 702v-86h344v86q0 211 -172 211t-172 -211zM94 692q0 197 100 302q100 106 277 106q178 0 270 -133q91 133 267 133t274 -106t98 -294v-231h-538v-86q0 -215 170 -215q86 0 128 43t50 137h199
q-9 -176 -109 -273t-272 -97t-265 135q-98 -135 -274 -135t-275 106t-100 303v305z" />
    <glyph glyph-name="Racute" unicode="&#x154;" horiz-adv-x="1032" 
d="M350 1237v-520h160q109 0 165 67.5t56 196.5q0 256 -219 256h-162zM350 520v-520h-207v1434h371q205 0 317.5 -118t112.5 -331q0 -166 -67.5 -278.5t-190.5 -157.5l311 -549h-229l-289 520h-129zM780 1829l-223 -256h-156l191 256h188z" />
    <glyph glyph-name="racute" unicode="&#x155;" horiz-adv-x="696" 
d="M559 1104q72 0 113 -17v-196q-57 25 -146 25t-149 -66t-60 -184v-666h-198v1079h141l23 -125q88 150 276 150zM598 1503l-182 -254h-156l154 254h184z" />
    <glyph glyph-name="Rcommaaccent" unicode="&#x156;" horiz-adv-x="1032" 
d="M403 -543l35 400h180l-88 -400h-127zM350 1237v-520h160q109 0 165 67.5t56 196.5q0 256 -219 256h-162zM350 520v-520h-207v1434h371q205 0 317.5 -118t112.5 -331q0 -166 -67.5 -278.5t-190.5 -157.5l311 -549h-229l-289 520h-129z" />
    <glyph glyph-name="rcommaaccent" unicode="&#x157;" horiz-adv-x="696" 
d="M135 -543l35 400h180l-88 -400h-127zM559 1104q72 0 113 -17v-196q-57 25 -146 25t-149 -66t-60 -184v-666h-198v1079h141l23 -125q88 150 276 150z" />
    <glyph glyph-name="Rcaron" unicode="&#x158;" horiz-adv-x="1032" 
d="M350 1237v-520h160q109 0 165 67.5t56 196.5q0 256 -219 256h-162zM350 520v-520h-207v1434h371q205 0 317.5 -118t112.5 -331q0 -166 -67.5 -278.5t-190.5 -157.5l311 -549h-229l-289 520h-129zM606 1573h-170l-166 256h148l104 -143l103 143h147z" />
    <glyph glyph-name="rcaron" unicode="&#x159;" horiz-adv-x="696" 
d="M559 1104q72 0 113 -17v-196q-57 25 -146 25t-149 -66t-60 -184v-666h-198v1079h141l23 -125q88 150 276 150zM465 1247h-170l-166 256h147l105 -143l102 143h148z" />
    <glyph glyph-name="Sacute" unicode="&#x15a;" horiz-adv-x="952" 
d="M474 -27q-194 0 -306.5 113t-114.5 307h211q2 -109 56.5 -164t153.5 -55t151.5 53.5t52.5 127t-33 122.5t-86 88t-117 77q-166 100 -246 174q-118 111 -118 275.5t107.5 266.5t287.5 102t286.5 -108.5t110.5 -292.5h-211q-2 100 -51 151.5t-135 51.5t-135 -45.5t-49 -122
t62.5 -139t150.5 -111.5t176 -106.5t150.5 -151.5t62.5 -217q0 -168 -111.5 -282t-305.5 -114zM356 1573l191 256h188l-223 -256h-156z" />
    <glyph glyph-name="sacute" unicode="&#x15b;" horiz-adv-x="854" 
d="M432 -27q-172 0 -275.5 101.5t-105.5 257.5h197q2 -78 49 -126t131 -48t127 35.5t43 93t-39 94.5t-98.5 58.5t-128 52t-128 64.5t-98 98.5t-38.5 150.5q0 137 95 219t258 82t255 -94t98 -250h-194q-4 164 -164 164q-70 0 -111 -33t-41 -89t55.5 -94t133 -66t155.5 -63.5
t133.5 -109.5t55.5 -180q0 -143 -96.5 -230.5t-268.5 -87.5zM645 1507l-182 -254h-156l154 254h184z" />
    <glyph glyph-name="Scedilla" unicode="&#x15e;" horiz-adv-x="952" 
d="M891 354.5q0 -137.5 -93 -247t-257 -130.5l-23 -77q6 2 25 2q63 0 105 -40t42 -114t-57.5 -122t-143.5 -48t-143 46t-65 122h122q20 -55 91 -55t71 67.5t-73 67.5q-39 0 -68 -16l-39 36l37 129q-170 16 -268.5 127t-100.5 291h211q2 -109 56.5 -164t153.5 -55t151.5 53.5
t52.5 127t-33 122.5t-86 88t-117 77q-166 100 -246 174q-118 111 -118 275.5t107.5 266.5t287.5 102t286.5 -108.5t110.5 -292.5h-211q-2 100 -51 151.5t-135 51.5t-135 -45.5t-49 -122t62.5 -139t150.5 -111.5t176 -106.5t150.5 -151.5t62.5 -231.5z" />
    <glyph glyph-name="scedilla" unicode="&#x15f;" horiz-adv-x="854" 
d="M797 276.5q0 -120.5 -84 -205.5t-232 -96l-22 -75q6 2 24 2q63 0 105.5 -40t42.5 -114t-57.5 -122t-143.5 -48t-143.5 46t-65.5 122h123q20 -55 91 -55t71 67.5t-74 67.5q-39 0 -67 -16l-39 36l39 134q-147 20 -229.5 117.5t-84.5 234.5h197q2 -78 49 -126t131 -48
t127 35.5t43 93t-39 94.5t-98.5 58.5t-128 52t-128 64.5t-98 98.5t-38.5 150.5q0 137 95 219t258 82t255 -94t98 -250h-194q-4 164 -164 164q-70 0 -111 -33t-41 -89t55.5 -94t133 -66t155.5 -63.5t133.5 -109.5t55.5 -194.5z" />
    <glyph glyph-name="Scaron" unicode="&#x160;" horiz-adv-x="952" 
d="M289 1095q0 -77 62.5 -139.5t150.5 -111.5t176 -106.5t150.5 -151.5t62.5 -217q0 -168 -111.5 -282t-305.5 -114t-306.5 113t-114.5 307h211q2 -109 56.5 -164t153.5 -55t151.5 53.5t52.5 127t-33 122.5t-86 88t-117 77q-166 100 -246 174q-118 111 -118 275.5
t107.5 266.5t287.5 102t286.5 -108.5t110.5 -292.5h-211q-2 100 -51 151.5t-135 51.5t-135 -45t-49 -122zM561 1573h-170l-166 256h148l104 -143l103 143h147z" />
    <glyph glyph-name="scaron" unicode="&#x161;" horiz-adv-x="854" 
d="M264 804q0 -56 55.5 -94t133 -66t155.5 -63.5t133.5 -109.5t55.5 -180q0 -143 -96.5 -230.5t-268.5 -87.5t-275.5 101.5t-105.5 257.5h197q2 -78 49 -126t131 -48t127 35.5t43 93t-39 94.5t-98.5 58.5t-128 52t-128 64.5t-98 98.5t-38.5 150.5q0 137 95 219t258 82
t255 -94t98 -250h-194q-4 164 -164 164q-70 0 -111 -33t-41 -89zM512 1251h-170l-166 256h148l104 -143l102 143h148z" />
    <glyph glyph-name="uni0162" unicode="&#x162;" horiz-adv-x="874" 
d="M322 -543l34 400h181l-88 -400h-127zM842 1434v-197h-299v-1237h-211v1237h-297v197h807z" />
    <glyph glyph-name="uni0163" unicode="&#x163;" horiz-adv-x="626" 
d="M248 -543l35 400h180l-88 -400h-127zM530 174h66v-186h-76q-160 0 -251 96t-91 264v551h-151v180h151v256h197v-256h200v-180h-200v-553q-1 -172 155 -172z" />
    <glyph glyph-name="Tcaron" unicode="&#x164;" horiz-adv-x="874" 
d="M842 1434v-197h-299v-1237h-211v1237h-297v197h807zM524 1573h-170l-166 256h148l104 -143l103 143h147z" />
    <glyph glyph-name="tcaron" unicode="&#x165;" horiz-adv-x="747" 
d="M375 346q0 -172 155 -172h66v-186h-76q-160 0 -251 96t-91 264v551h-151v180h151v256h197v-256h200v-180h-200v-553zM518 1579h178l-84 -369h-125z" />
    <glyph glyph-name="Tbar" unicode="&#x166;" horiz-adv-x="874" 
d="M842 1237h-299v-449h166v-122h-166v-666h-211v666h-164v122h164v449h-297v197h807v-197z" />
    <glyph glyph-name="tbar" unicode="&#x167;" horiz-adv-x="647" 
d="M530 174h66v-186h-76q-160 0 -251 96t-91 264v168h-117v135h117v248h-151v180h151v256h197v-256h200v-180h-200v-248h147v-135h-147v-170q-1 -172 155 -172z" />
    <glyph glyph-name="Umacron" unicode="&#x16a;" horiz-adv-x="1085" 
d="M542 -20q-196 0 -309.5 121.5t-113.5 340.5v992h213v-992q0 -262 211 -262q98 0 153.5 65.5t55.5 196.5v992h213v-992q0 -219 -113.5 -340.5t-309.5 -121.5zM340 1765h414v-141h-414v141z" />
    <glyph glyph-name="umacron" unicode="&#x16b;" horiz-adv-x="960" 
d="M643 1079h199v-1079h-142l-20 121q-88 -147 -268 -148q-143 0 -223 106.5t-80 321.5v678h198v-667q0 -131 37 -190.5t119 -59.5t131 65.5t49 184.5v667zM682 1438v-140h-414v140h414z" />
    <glyph glyph-name="Uring" unicode="&#x16e;" horiz-adv-x="1085" 
d="M542 -20q-196 0 -309.5 121.5t-113.5 340.5v992h213v-992q0 -262 211 -262q98 0 153.5 65.5t55.5 196.5v992h213v-992q0 -219 -113.5 -340.5t-309.5 -121.5zM479 1724.5q0 -28.5 18.5 -47t47 -18.5t47 18.5t18.5 47t-18.5 47t-47 18.5t-47 -18.5t-18.5 -47zM381 1726.5
q0 71.5 45 114.5t120 43t120 -43t45 -114.5t-45 -116.5t-120 -45t-120 45t-45 116.5z" />
    <glyph glyph-name="uring" unicode="&#x16f;" horiz-adv-x="960" 
d="M643 1079h199v-1079h-142l-20 121q-88 -147 -268 -148q-143 0 -223 106.5t-80 321.5v678h198v-667q0 -131 37 -190.5t119 -59.5t131 65.5t49 184.5v667zM475 1462q-29 0 -47 -18.5t-18 -47t18 -47t47 -18.5t47.5 18.5t18.5 47t-18.5 47t-47.5 18.5zM476 1237
q-75 0 -120 45t-45 116.5t45 114.5t120 43t120 -43t45 -114.5t-45 -116.5t-120 -45z" />
    <glyph glyph-name="Uhungarumlaut" unicode="&#x170;" horiz-adv-x="1085" 
d="M542 -20q-196 0 -309.5 121.5t-113.5 340.5v992h213v-992q0 -262 211 -262q98 0 153.5 65.5t55.5 196.5v992h213v-992q0 -219 -113.5 -340.5t-309.5 -121.5zM889 1829l-189 -254h-141l158 254h172zM627 1829l-178 -254h-142l148 254h172z" />
    <glyph glyph-name="uhungarumlaut" unicode="&#x171;" horiz-adv-x="960" 
d="M643 1079h199v-1079h-142l-20 121q-88 -147 -268 -148q-143 0 -223 106.5t-80 321.5v678h198v-667q0 -131 37 -190.5t119 -59.5t131 65.5t49 184.5v667zM625 1245h-142l158 254h172zM551 1499l-178 -254h-142l148 254h172z" />
    <glyph glyph-name="Uogonek" unicode="&#x172;" horiz-adv-x="1079" 
d="M653 -395q-83 0 -133 48q-49 48 -49 122q0 117 127 223l-2 2q-31 -20 -66 -20q-188 4 -300 124t-111 328v1002h213v-1002q0 -124 55 -188t153 -64t151 64q54 64 54 188v1002h213v-1002q0 -231 -143 -360q-160 -152 -160 -242q0 -68 72 -68q35 0 61 7v-146
q-52 -18 -135 -18z" />
    <glyph glyph-name="uogonek" unicode="&#x173;" horiz-adv-x="960" 
d="M715 -178q0 -59 71 -60q29 0 54 7v-146q-43 -18 -125 -18t-128 48t-46 120q0 125 159 227l-20 123q-88 -147 -266 -148q-305 0 -305 428v676h198v-667q0 -128 37 -188t119 -60t131 66t49 182v667h199v-1079q-57 -39 -92 -88t-35 -90z" />
    <glyph glyph-name="Wcircumflex" unicode="&#x174;" horiz-adv-x="1538" 
d="M1309 1434h215l-322 -1434h-221l-139 633q-51 225 -68 461h-8q-23 -252 -70 -461l-139 -633h-221l-322 1434h215l148 -785q59 -338 65 -381h9q16 115 65 391l143 752h220l143 -752q49 -276 65 -391h9q6 43 65 381zM780 1716l-104 -143h-148l166 256h170l166 -256h-147z
" />
    <glyph glyph-name="wcircumflex" unicode="&#x175;" horiz-adv-x="1302" 
d="M1090 1079h204l-256 -1079h-215l-94 391q-57 254 -74 426h-8q-14 -172 -74 -426l-92 -391h-215l-258 1079h207l96 -483q39 -209 62 -371h8q25 178 68 379l98 455h211l98 -455q51 -266 68 -379h8q12 102 61 371zM645 1386l-104 -143h-148l166 256h170l166 -256h-147z" />
    <glyph glyph-name="Ycircumflex" unicode="&#x176;" horiz-adv-x="913" 
d="M561 0h-207v471l-348 963h215l162 -478q51 -154 72 -225h4l73 230l160 473h217l-348 -963v-471zM459 1716l-105 -143h-147l166 256h170l166 -256h-148z" />
    <glyph glyph-name="ycircumflex" unicode="&#x177;" horiz-adv-x="854" 
d="M211 -389h-107v192h68q57 0 86 36t51 112l47 162l-348 966h209l223 -684l201 684h205l-346 -1163q-43 -147 -109.5 -226t-179.5 -79zM422 1395l-105 -144h-147l166 256h170l166 -256h-148z" />
    <glyph glyph-name="Ydieresis" unicode="&#x178;" horiz-adv-x="913" 
d="M354 0v471l-348 963h215l162 -478q51 -154 72 -225h4l73 230l160 473h217l-348 -963v-471h-207zM606 1602q-47 0 -75.5 27.5t-28.5 73.5t28.5 73.5t75.5 27.5t75 -27.5t28 -73.5t-28 -73.5t-75 -27.5zM307 1602q-47 0 -74.5 27.5t-27.5 73.5t27.5 73.5t74.5 27.5
t75 -27.5t28 -73.5t-28 -73.5t-75 -27.5z" />
    <glyph glyph-name="Zacute" unicode="&#x179;" horiz-adv-x="862" 
d="M811 197v-197h-776v143l512 1094h-481v197h735v-142l-514 -1095h524zM309 1573l191 256h188l-223 -256h-156z" />
    <glyph glyph-name="zacute" unicode="&#x17a;" horiz-adv-x="749" 
d="M713 182v-182h-693v133l424 764h-391v182h641v-131l-424 -766h443zM582 1503l-183 -254h-155l153 254h185z" />
    <glyph glyph-name="Zdotaccent" unicode="&#x17b;" horiz-adv-x="862" 
d="M811 197v-197h-776v143l512 1094h-481v197h735v-142l-514 -1095h524zM426 1614q-55 0 -90 36t-35 90t35 90t90 36t91 -36t36 -90t-36 -90t-91 -36z" />
    <glyph glyph-name="zdotaccent" unicode="&#x17c;" horiz-adv-x="749" 
d="M713 182v-182h-693v133l424 764h-391v182h641v-131l-424 -766h443zM362.5 1260q-55.5 0 -90 35.5t-34.5 89.5t34.5 90t90 36t91 -35.5t35.5 -90t-35.5 -90t-91 -35.5z" />
    <glyph glyph-name="Zcaron" unicode="&#x17d;" horiz-adv-x="862" 
d="M811 197v-197h-776v143l512 1094h-481v197h735v-142l-514 -1095h524zM514 1573h-170l-166 256h148l104 -143l102 143h148z" />
    <glyph glyph-name="zcaron" unicode="&#x17e;" horiz-adv-x="749" 
d="M713 182v-182h-693v133l424 764h-391v182h641v-131l-424 -766h443zM449 1247h-170l-166 256h147l105 -143l102 143h147z" />
    <glyph glyph-name="Scommaaccent" unicode="&#x218;" horiz-adv-x="952" 
d="M373 -543l35 400h180l-88 -400h-127zM474 -27q-194 0 -306.5 113t-114.5 307h211q2 -109 56.5 -164t153.5 -55t151.5 53.5t52.5 127t-33 122.5t-86 88t-117 77q-166 100 -246 174q-118 111 -118 275.5t107.5 266.5t287.5 102t286.5 -108.5t110.5 -292.5h-211
q-2 100 -51 151.5t-135 51.5t-135 -45.5t-49 -122t62.5 -139t150.5 -111.5t176 -106.5t150.5 -151.5t62.5 -217q0 -168 -111.5 -282t-305.5 -114z" />
    <glyph glyph-name="scommaaccent" unicode="&#x219;" horiz-adv-x="854" 
d="M326 -543l34 400h181l-88 -400h-127zM432 -27q-172 0 -275.5 101.5t-105.5 257.5h197q2 -78 49 -126t131 -48t127 35.5t43 93t-39 94.5t-98.5 58.5t-128 52t-128 64.5t-98 98.5t-38.5 150.5q0 137 95 219t258 82t255 -94t98 -250h-194q-4 164 -164 164q-70 0 -111 -33
t-41 -89t55.5 -94t133 -66t155.5 -63.5t133.5 -109.5t55.5 -180q0 -143 -96.5 -230.5t-268.5 -87.5z" />
    <glyph glyph-name="uni021A" unicode="&#x21a;" horiz-adv-x="874" 
d="M322 -543l34 400h181l-88 -400h-127zM842 1434v-197h-299v-1237h-211v1237h-297v197h807z" />
    <glyph glyph-name="uni021B" unicode="&#x21b;" horiz-adv-x="626" 
d="M248 -543l35 400h180l-88 -400h-127zM530 174h66v-186h-76q-160 0 -251 96t-91 264v551h-151v180h151v256h197v-256h200v-180h-200v-553q-1 -172 155 -172z" />
    <glyph glyph-name="gravecomb" unicode="&#x300;" 
d="M-338 1503h184l154 -254h-156z" />
    <glyph glyph-name="acutecomb" unicode="&#x301;" 
d="M0 1503l-182 -254h-156l154 254h184z" />
    <glyph glyph-name="uni0302" unicode="&#x302;" 
d="M2 1247h-147l-103 144l-104 -144h-148l166 256h170z" />
    <glyph glyph-name="tildecomb" unicode="&#x303;" 
d="M-322 1337q-39 0 -49 -55h-133q4 88 48 138t102 50t106.5 -30.5t65.5 -30.5q43 0 53 55h129q-8 -88 -51 -138t-101 -50t-105 30.5t-65 30.5z" />
    <glyph glyph-name="uni0304" unicode="&#x304;" 
d="M-414 1442h414v-139h-414v139z" />
    <glyph glyph-name="uni0306" unicode="&#x306;" 
d="M-247.5 1247q-108.5 0 -176.5 65.5t-72 180.5h142q6 -109 105 -109t106 109h141q-4 -117 -70.5 -181.5t-175 -64.5z" />
    <glyph glyph-name="uni0307" unicode="&#x307;" 
d="M-200.5 1260q-55.5 0 -90.5 35.5t-35 89.5t35 90t90.5 36t91 -35.5t35.5 -89.5t-35.5 -90t-91 -36z" />
    <glyph glyph-name="uni0308" unicode="&#x308;" 
d="M-103 1270q-46 0 -75 27.5t-29 74.5t28.5 75t75 28t75 -29t28.5 -74t-28.5 -73.5t-74.5 -28.5zM-389 1270q-45 0 -74 28.5t-29 73.5t29 74t74 29t73.5 -29t28.5 -74t-28.5 -73.5t-73.5 -28.5z" />
    <glyph glyph-name="uni030A" unicode="&#x30a;" 
d="M-248 1401q0 -29 18.5 -47.5t47 -18.5t47 18.5t18.5 47.5t-18.5 47t-47 18t-47 -18t-18.5 -47zM-346 1403q0 72 45 115t120 43t120 -43t45 -115t-45 -117t-120 -45t-120 45t-45 117z" />
    <glyph glyph-name="uni030B" unicode="&#x30b;" 
d="M0 1503l-188 -254h-142l158 254h172zM-262 1503l-178 -254h-142l148 254h172z" />
    <glyph glyph-name="uni030C" unicode="&#x30c;" 
d="M-137 1503h147l-166 -256h-170l-166 256h148l104 -143z" />
    <glyph glyph-name="uni0312" unicode="&#x312;" 
d="M-104 1638l104 -401h-197l-36 401h129z" />
    <glyph glyph-name="uni0326" unicode="&#x326;" 
d="M-217 -543l35 400h180l-88 -400h-127z" />
    <glyph glyph-name="uni0327" unicode="&#x327;" 
d="M-219 -422q-86 0 -143.5 46t-65.5 122h123q20 -55 91 -55t71 67.5t-74 67.5q-39 0 -68 -16l-39 36l45 154h117l-28 -100q6 2 24 2q63 0 105.5 -40t42.5 -114t-57.5 -122t-143.5 -48z" />
    <glyph glyph-name="uni0328" unicode="&#x328;" 
d="M-143 -395q-86 0 -135.5 48t-49.5 122q0 119 123 225h174q-49 -37 -80.5 -87t-31.5 -87q0 -63 71 -64q35 0 62 7v-146q-47 -18 -133 -18z" />
    <glyph glyph-name="uni0335" unicode="&#x335;" 
d="M-430 762v115h410v-115h-410z" />
    <glyph glyph-name="uni0336" unicode="&#x336;" 
d="M-676 877h656v-115h-656v115z" />
    <glyph glyph-name="uni0337" unicode="&#x337;" 
d="M-551 -90l326 1220h211l-326 -1220h-211z" />
    <glyph glyph-name="uni0338" unicode="&#x338;" 
d="M-717 -78l436 1589h207l-436 -1589h-207z" />
    <glyph glyph-name="uni0401" unicode="&#x401;" horiz-adv-x="944" 
d="M350 195h516v-195h-723v1434h703v-195h-496v-416h457v-190h-457v-438zM659.5 1602q-47.5 0 -76 27.5t-28.5 73.5t28.5 73.5t76 27.5t75 -27.5t27.5 -73.5t-27.5 -73.5t-75 -27.5zM360.5 1602q-47.5 0 -75 27.5t-27.5 73.5t27.5 73.5t75 27.5t75 -27.5t27.5 -73.5
t-27.5 -73.5t-75 -27.5z" />
    <glyph glyph-name="uni0402" unicode="&#x402;" horiz-adv-x="1159" 
d="M768 1063q297 0 297 -449v-235q-2 -187 -99 -289t-282 -102v190q182 2 182 203v229q0 140 -37 202t-117 62t-129 -62q-50 -62 -51 -171v-641h-210v1237h-287v197h786v-197h-289v-303q84 129 236 129z" />
    <glyph glyph-name="uni0403" unicode="&#x403;" horiz-adv-x="864" 
d="M829 1434v-197h-479v-1237h-207v1434h686zM723 1829l-223 -256h-156l191 256h188z" />
    <glyph glyph-name="uni0404" unicode="&#x404;" horiz-adv-x="1007" 
d="M521 -25q-196 0 -307.5 117t-111.5 330v590q0 215 111 331.5t305.5 116.5t305 -113.5t118.5 -326.5h-205q-18 244 -223 244q-94 0 -147.5 -63.5t-53.5 -188.5v-195h367v-178h-367v-217q0 -125 54.5 -187.5t150.5 -62.5q207 0 227 242h205q-10 -211 -121.5 -325
t-307.5 -114z" />
    <glyph glyph-name="uni0405" unicode="&#x405;" horiz-adv-x="952" 
d="M474 -27q-194 0 -306.5 113t-114.5 307h211q2 -109 56.5 -164t153.5 -55t151.5 53.5t52.5 127t-33 122.5t-86 88t-117 77q-166 100 -246 174q-118 111 -118 275.5t107.5 266.5t287.5 102t286.5 -108.5t110.5 -292.5h-211q-2 100 -51 151.5t-135 51.5t-135 -45.5t-49 -122
t62.5 -139t150.5 -111.5t176 -106.5t150.5 -151.5t62.5 -217q0 -168 -111.5 -282t-305.5 -114z" />
    <glyph glyph-name="uni0406" unicode="&#x406;" horiz-adv-x="491" 
d="M143 1434h207v-1434h-207v1434z" />
    <glyph glyph-name="uni0407" unicode="&#x407;" horiz-adv-x="491" 
d="M143 1434h207v-1434h-207v1434zM399 1602q-47 0 -75.5 27.5t-28.5 73.5t28.5 73.5t75.5 27.5t75 -27.5t28 -73.5t-28 -73.5t-75 -27.5zM100 1602q-47 0 -74.5 27.5t-27.5 73.5t27.5 73.5t74.5 27.5t75 -27.5t28 -73.5t-28 -73.5t-75 -27.5z" />
    <glyph glyph-name="uni0408" unicode="&#x408;" horiz-adv-x="581" 
d="M0 -238v203q121 -1 179 59t59 205v1205h206v-1205q0 -227 -114 -347t-330 -120z" />
    <glyph glyph-name="uni0409" unicode="&#x409;" horiz-adv-x="1540" 
d="M918 193h137q231 0 231 235t-231 236h-137v-471zM0 -20v190q70 0 106 48t59 186q22 138 56 1030h697v-574h149q209 0 321 -116t112 -322t-112 -314t-321 -108h-360v1239h-291q-31 -719 -62 -912t-114 -271q-84 -76 -240 -76z" />
    <glyph glyph-name="uni040A" unicode="&#x40a;" horiz-adv-x="1599" 
d="M1112 193q231 0 231 233q0 111 -59 168t-172 57h-158v-458h158zM1122 848q211 0 324 -114t113 -316t-111 -310t-326 -108h-374v649h-398v-649h-207v1434h207v-590h398v590h206v-586h168z" />
    <glyph glyph-name="uni040B" unicode="&#x40b;" horiz-adv-x="1173" 
d="M768 1063q297 0 297 -449v-614h-199v610q0 140 -37 202t-115 62t-128 -60q-49 -60 -54 -171v-643h-210v1237h-287v197h786v-197h-289v-303q84 129 236 129z" />
    <glyph glyph-name="uni040C" unicode="&#x40c;" horiz-adv-x="1030" 
d="M348 0h-205v1434h205v-623l94 168l287 455h242l-410 -625l469 -809h-237l-351 627l-94 -142v-485zM721 1829l-223 -256h-156l190 256h189z" />
    <glyph glyph-name="uni040D" unicode="&#x40d;" horiz-adv-x="1134" 
d="M143 0v1434h203v-627q0 -217 -22 -414l6 -4q72 188 102 254l348 791h211v-1434h-203v625q0 207 19 419l-6 5q-61 -170 -103 -265l-346 -784h-209zM700 1573h-155l-223 256h188z" />
    <glyph glyph-name="uni040E" unicode="&#x40e;" horiz-adv-x="892" 
d="M147 -20h-51v186h58q82 0 125 45t75 156l17 53l-361 1014h219l234 -699l207 699h217l-348 -1133q-55 -178 -142.5 -249.5t-249.5 -71.5zM452.5 1573q-108.5 0 -176 65.5t-71.5 180.5h141q6 -109 105.5 -109t105.5 109h141q-4 -117 -70.5 -181.5t-175 -64.5z" />
    <glyph glyph-name="uni040F" unicode="&#x40f;" horiz-adv-x="1103" 
d="M451 -240v240h-308v1434h207v-1237h406v1237h207v-1434h-310v-240h-202z" />
    <glyph glyph-name="uni0410" unicode="&#x410;" horiz-adv-x="974" 
d="M342 481h291l-90 385q-31 143 -54 308h-6q-27 -195 -53 -308zM743 0l-67 289h-379l-66 -289h-217l361 1434h223l360 -1434h-215z" />
    <glyph glyph-name="uni0411" unicode="&#x411;" horiz-adv-x="1028" 
d="M524 197q109 0 170 60q62 60 62 178t-62 179t-170 62h-174v-479h174zM537 868q203 0 317 -116t113 -323q0 -205 -112 -317t-318 -112h-394v1434h746v-195h-539v-371h187z" />
    <glyph glyph-name="uni0412" unicode="&#x412;" horiz-adv-x="1036" 
d="M526 195q229 0 230 215q0 110 -64 166t-174 57h-168v-438h176zM508 1239h-158v-412h164q188 0 188 206t-194 206zM553 0h-410v1434h389q174 0 278 -106t103 -284q0 -215 -145 -307q92 -39 145 -125t54 -202q0 -190 -113 -300t-301 -110z" />
    <glyph glyph-name="uni0413" unicode="&#x413;" horiz-adv-x="864" 
d="M829 1434v-197h-479v-1237h-207v1434h686z" />
    <glyph glyph-name="uni0414" unicode="&#x414;" horiz-adv-x="1138" 
d="M768 195v1044h-291l-20 -555q-12 -311 -113 -489h424zM973 195h127v-435h-203v240h-682v-240h-203v435h84q147 150 162 546l25 693h690v-1239z" />
    <glyph glyph-name="uni0415" unicode="&#x415;" horiz-adv-x="944" 
d="M350 195h516v-195h-723v1434h703v-195h-496v-416h457v-190h-457v-438z" />
    <glyph glyph-name="uni0416" unicode="&#x416;" horiz-adv-x="1482" 
d="M842 0h-201v500l-70 108l-338 -608h-233l457 782l-422 652h237l271 -443l98 -178v621h201v-623l104 186l264 437h238l-422 -652l457 -782h-234l-338 608l-69 -108v-500z" />
    <glyph glyph-name="uni0417" unicode="&#x417;" horiz-adv-x="997" 
d="M934 397q0 -195 -124 -309t-320 -115q-196 0 -317 124q-120 124 -130 313h209q6 -102 67 -170t167 -68t173 62q66 62 66 176t-70 174q-70 61 -186 61h-109v184h91q238 0 237 226q0 98 -52 153t-147 56q-203 0 -217 -242h-204q10 204 118 322t299 118q190 0 301 -110
t111 -299q0 -232 -211 -310q248 -70 248 -346z" />
    <glyph glyph-name="uni0418" unicode="&#x418;" horiz-adv-x="1134" 
d="M143 0v1434h203v-627q0 -217 -22 -414l6 -4q72 188 102 254l348 791h211v-1434h-203v625q0 207 19 419l-6 5q-61 -170 -103 -265l-346 -784h-209z" />
    <glyph glyph-name="uni0419" unicode="&#x419;" horiz-adv-x="1134" 
d="M143 0v1434h203v-627q0 -217 -22 -414l6 -4q72 188 102 254l348 791h211v-1434h-203v625q0 207 19 419l-6 5q-61 -170 -103 -265l-346 -784h-209zM573.5 1573q-108.5 0 -176 65.5t-71.5 180.5h141q6 -109 105 -109t106 109h141q-4 -117 -70.5 -181.5t-175 -64.5z" />
    <glyph glyph-name="uni041A" unicode="&#x41a;" horiz-adv-x="1030" 
d="M348 0h-205v1434h205v-623l94 168l287 455h242l-410 -625l469 -809h-237l-351 627l-94 -142v-485z" />
    <glyph glyph-name="uni041B" unicode="&#x41b;" horiz-adv-x="1075" 
d="M932 1434v-1434h-207v1239h-303q-35 -723 -64 -913t-115 -269q-87 -78 -243 -77v188q68 0 104 46t54 157q28 197 65 1063h709z" />
    <glyph glyph-name="uni041C" unicode="&#x41c;" horiz-adv-x="1409" 
d="M1266 1434v-1434h-203v559q8 301 16 463l-8 4q-41 -115 -139 -377l-125 -325h-205l-125 325q-98 262 -139 377l-8 -4q12 -299 16 -463v-559h-203v1434h211l242 -582q47 -117 104 -285h9q57 168 104 285l242 582h211z" />
    <glyph glyph-name="uni041D" unicode="&#x41d;" horiz-adv-x="1105" 
d="M756 1434h207v-1434h-207v629h-406v-629h-207v1434h207v-611h406v611z" />
    <glyph glyph-name="uni041E" unicode="&#x41e;" horiz-adv-x="1081" 
d="M541 176q111 0 168 71.5t57 207.5v524q0 135 -57.5 206.5t-167.5 71.5q-225 0 -226 -278v-524q1 -279 226 -279zM540.5 -27q-204.5 0 -321.5 128t-117 354v524q0 225 117 353t321.5 128t321.5 -128t117 -353v-524q0 -225 -117 -353.5t-321.5 -128.5z" />
    <glyph glyph-name="uni041F" unicode="&#x41f;" horiz-adv-x="1103" 
d="M963 1434v-1434h-207v1237h-406v-1237h-207v1434h820z" />
    <glyph glyph-name="uni0420" unicode="&#x420;" horiz-adv-x="1026" 
d="M520 700q232 0 232 268t-232 269h-170v-537h170zM522 1434q211 0 326 -122t115 -344t-115 -343t-326 -121h-172v-504h-207v1434h379z" />
    <glyph glyph-name="uni0421" unicode="&#x421;" horiz-adv-x="1007" 
d="M521 -25q-196 0 -307.5 117t-111.5 330v590q0 215 111 331.5t305.5 116.5t305 -113.5t118.5 -326.5h-205q-18 244 -223 244q-94 0 -147.5 -63.5t-53.5 -188.5v-590q0 -125 54.5 -187.5t150.5 -62.5q207 0 227 242h205q-10 -211 -121.5 -325t-307.5 -114z" />
    <glyph glyph-name="uni0422" unicode="&#x422;" horiz-adv-x="874" 
d="M842 1434v-197h-299v-1237h-211v1237h-297v197h807z" />
    <glyph glyph-name="uni0423" unicode="&#x423;" horiz-adv-x="892" 
d="M147 -20h-51v186h58q82 0 125 45t75 156l17 53l-361 1014h219l234 -699l207 699h217l-348 -1133q-55 -178 -142.5 -249.5t-249.5 -71.5z" />
    <glyph glyph-name="uni0424" unicode="&#x424;" horiz-adv-x="1368" 
d="M786 231h39q279 0 279 326v313q0 332 -279 332h-39v-971zM541 231h41v971h-41q-276 0 -277 -332v-313q0 -164 73 -245t204 -81zM582 -127v160h-33q-221 0 -356 138t-136 386v313q-1 248 135 390t357 141h33v151h204v-151h33q221 0 357 -141t135 -390v-313
q0 -248 -135 -386t-357 -138h-33v-160h-204z" />
    <glyph glyph-name="uni0425" unicode="&#x425;" horiz-adv-x="974" 
d="M944 0h-229l-226 530l-227 -530h-229l342 743l-322 691h228l208 -486l207 486h228l-322 -691z" />
    <glyph glyph-name="uni0426" unicode="&#x426;" horiz-adv-x="1124" 
d="M883 -240v240h-740v1434h207v-1237h398v1237h206v-1237h131v-437h-202z" />
    <glyph glyph-name="uni0427" unicode="&#x427;" horiz-adv-x="1042" 
d="M692 1434h207v-1438h-207v530q-90 -33 -194 -32q-197 0 -309.5 119.5t-112.5 336.5v484h207v-490q0 -256 237 -256q94 0 172 31v715z" />
    <glyph glyph-name="uni0428" unicode="&#x428;" horiz-adv-x="1648" 
d="M143 0v1434h205v-1237h373v1237h205v-1237h374v1237h205v-1434h-1362z" />
    <glyph glyph-name="uni0429" unicode="&#x429;" horiz-adv-x="1669" 
d="M1501 197h127v-437h-203v240h-1282v1434h205v-1237h371v1237h205v-1237h372v1237h205v-1237z" />
    <glyph glyph-name="uni042A" unicode="&#x42a;" horiz-adv-x="1140" 
d="M502 193h149q238 -1 238 237t-238 238h-149v-475zM293 0v1243h-262v191h471v-570h162q212 0 324 -116t112 -323q0 -205 -111 -315t-325 -110h-371z" />
    <glyph glyph-name="uni042B" unicode="&#x42b;" horiz-adv-x="1452" 
d="M354 193h135q229 0 230 237q1 115 -59 174t-171 60h-135v-471zM1104 0v1434h207v-1434h-207zM143 0v1434h211v-574h146q210 0 322 -116t112 -320t-111 -314t-323 -110h-357z" />
    <glyph glyph-name="uni042C" unicode="&#x42c;" horiz-adv-x="997" 
d="M350 190h166q109 0 168 60t59 179q0 118 -59 177t-168 60h-166v-476zM143 0v1434h207v-572h176q205 0 318 -117q112 -117 112 -321t-110 -314t-320 -110h-383z" />
    <glyph glyph-name="uni042D" unicode="&#x42d;" horiz-adv-x="1007" 
d="M490 1460q195 0 305 -116.5t110 -331.5v-590q0 -213 -111.5 -330t-307.5 -117t-307 114t-122 325h205q20 -242 227 -242q96 0 150.5 62.5t54.5 187.5v217h-366v178h366v195q0 125 -53 188.5t-147 63.5q-205 0 -224 -244h-204q8 213 118.5 326.5t305.5 113.5z" />
    <glyph glyph-name="uni042E" unicode="&#x42e;" horiz-adv-x="1548" 
d="M1233 469v496q0 289 -221 288q-219 0 -219 -288v-496q0 -289 220 -289t220 289zM1012 1454q204 0 318 -129t114 -360v-496q0 -231 -114 -360t-318 -129t-319 129q-114 129 -113 360v160h-232v-629h-205v1434h205v-611h232v142q0 231 113 360q114 129 319 129z" />
    <glyph glyph-name="uni042F" unicode="&#x42f;" horiz-adv-x="1028" 
d="M516 713h162v524h-160q-219 0 -219 -260q0 -127 55 -196q56 -68 162 -68zM88 973q0 219 113 340t315 121h369v-1434h-207v518h-127l-287 -518h-229l309 553q-124 41 -190 151t-66 269z" />
    <glyph glyph-name="uni0430" unicode="&#x430;" horiz-adv-x="929" 
d="M612 322v147h-157q-190 0 -191 -162q0 -74 45 -115.5t126 -41.5t129 47t48 125zM466 1106q167 0 256 -100.5t89 -288.5v-717h-162l-14 100q-76 -127 -233 -127t-248 91.5t-91 248t104.5 242.5t287.5 86h157v76q0 199 -155 198q-68 0 -112 -36.5t-52 -106.5h-199
q8 156 106.5 245t265.5 89z" />
    <glyph glyph-name="uni0431" unicode="&#x431;" horiz-adv-x="964" 
d="M670 385v203q0 223 -172 223q-80 0 -129 -52t-50 -163v-211q-1 -215 175 -215t176 215zM542 1004q146 0 238 -106t92 -298v-215q0 -195 -101 -301t-276 -106t-275 106t-101 301v571q0 186 95 286t255 155q88 29 126 53t73 78l143 -117q-72 -133 -252 -186
q-181 -48 -223 -145q-20 -46 -21 -111v-56q81 91 227 91z" />
    <glyph glyph-name="uni0432" unicode="&#x432;" horiz-adv-x="880" 
d="M467 168q172 0 172 150t-172 151h-156v-301h156zM311 913v-276h121q154 0 154 139q0 62 -40 100t-116 37h-119zM836 313q0 -149 -96 -231t-281 -82h-340v1079h323q162 0 250 -79t88 -214t-118 -213q86 -33 130 -103t44 -157z" />
    <glyph glyph-name="uni0433" unicode="&#x433;" horiz-adv-x="708" 
d="M680 1081v-190h-361v-891h-200v1081h561z" />
    <glyph glyph-name="uni0434" unicode="&#x434;" horiz-adv-x="974" 
d="M631 182v715h-244q-5 -221 -19 -405t-61 -310h324zM0 -240v422h82q78 112 95 388t24 509h626v-897h123v-422h-190v240h-570v-240h-190z" />
    <glyph glyph-name="uni0435" unicode="&#x435;" horiz-adv-x="929" 
d="M465 920q-172 0 -172 -213v-93h350v93q0 213 -178 213zM463 -23q-172 0 -270.5 106.5t-98.5 299.5v322q0 190 98.5 295.5t272.5 105.5t274.5 -105.5t100.5 -295.5v-240h-547v-82q0 -215 172 -215q88 0 132 40t58 130h199q-14 -172 -116.5 -266.5t-274.5 -94.5z" />
    <glyph glyph-name="uni0436" unicode="&#x436;" horiz-adv-x="1294" 
d="M743 0h-190v391l-64 72l-272 -463h-223l373 616l-334 463h231l160 -245q92 -147 129 -209v454h190v-454q37 61 129 209l160 245h232l-334 -463l370 -616h-223l-272 463l-62 -70v-393z" />
    <glyph glyph-name="uni0437" unicode="&#x437;" horiz-adv-x="858" 
d="M803 319q1 -159 -103 -251t-277 -92t-275 92t-111 247h190q5 -71 57 -113t139 -42t136 44t49 120t-48 114t-134 39h-137v154h131q74 0 116 38q42 37 42 105t-41 107t-115 39q-160 0 -172 -166h-193q11 166 103 256t255 90t259 -86t96 -230t-127 -215q68 -31 114 -97
t46 -153z" />
    <glyph glyph-name="uni0438" unicode="&#x438;" horiz-adv-x="956" 
d="M119 0v1079h192v-454q0 -182 -4 -299l6 -4q25 80 113 305l209 452h203v-1079h-193v414q0 168 10 348l-6 2q-8 -37 -49 -152.5t-72 -179.5l-206 -432h-203z" />
    <glyph glyph-name="uni0439" unicode="&#x439;" horiz-adv-x="956" 
d="M119 0v1079h192v-454q0 -182 -4 -299l6 -4q25 80 113 305l209 452h203v-1079h-193v414q0 168 10 348l-6 2q-8 -37 -49 -152.5t-72 -179.5l-206 -432h-203zM481.5 1247q-108.5 0 -176 65.5t-72.5 180.5h142q6 -109 105 -109t106 109h141q-4 -117 -70.5 -181.5t-175 -64.5z
" />
    <glyph glyph-name="uni043A" unicode="&#x43a;" horiz-adv-x="903" 
d="M315 0h-196v1079h196v-458l127 198l179 260h235l-340 -461l391 -618h-227l-293 463l-72 -78v-385z" />
    <glyph glyph-name="uni043B" unicode="&#x43b;" horiz-adv-x="925" 
d="M0 -14v190q76 0 104 70t43 219q25 315 31 614h629v-1079h-197v897h-241q-3 -231 -25 -461t-104 -340t-240 -110z" />
    <glyph glyph-name="uni043C" unicode="&#x43c;" horiz-adv-x="1138" 
d="M1018 1079v-1079h-184v428q0 35 12 317l-10 3q-49 -164 -88 -271l-89 -209h-182l-88 209q-12 35 -29 89t-59 182l-10 -3q12 -283 12 -317v-428h-184v1079h198l166 -389q59 -143 82 -225h6q16 53 82 225l166 389h199z" />
    <glyph glyph-name="uni043D" unicode="&#x43d;" horiz-adv-x="935" 
d="M618 1079h199v-1079h-199v461h-301v-461h-198v1079h198v-434h301v434z" />
    <glyph glyph-name="uni043E" unicode="&#x43e;" horiz-adv-x="948" 
d="M295 385q0 -217 179 -217t179 217v311q0 217 -179 217t-179 -217v-311zM474 -25q-177 0 -278.5 106.5t-101.5 303.5v311q0 197 101.5 303.5t278.5 106.5t278.5 -106.5t101.5 -303.5v-311q0 -197 -101.5 -303.5t-278.5 -106.5z" />
    <glyph glyph-name="uni043F" unicode="&#x43f;" horiz-adv-x="935" 
d="M817 1079v-1079h-199v897h-301v-897h-198v1079h698z" />
    <glyph glyph-name="uni0440" unicode="&#x440;" horiz-adv-x="956" 
d="M662 389v297q0 231 -175 232q-80 0 -127 -58.5t-47 -171.5v-299q0 -106 46.5 -166.5t127.5 -60.5q175 0 175 227zM520 1104q156 0 250 -111.5t94 -306.5v-297q0 -195 -93 -304.5t-251 -109.5q-125 0 -207 86v-430h-194v1450h143l14 -100q41 53 107.5 88t136.5 35z" />
    <glyph glyph-name="uni0441" unicode="&#x441;" horiz-adv-x="894" 
d="M461 -23q-172 0 -269.5 103.5t-97.5 292.5v340q0 186 97.5 289.5t269.5 103.5t269 -102.5t104 -290.5h-201q-6 203 -172 202.5t-166 -202.5v-340q0 -205 168 -205t176 205h199q-4 -188 -104.5 -292t-272.5 -104z" />
    <glyph glyph-name="uni0442" unicode="&#x442;" horiz-adv-x="729" 
d="M711 1079v-186h-248v-893h-197v893h-246v186h691z" />
    <glyph glyph-name="uni0443" unicode="&#x443;" horiz-adv-x="854" 
d="M211 -389h-107v192h68q57 0 86 36t51 112l47 162l-348 966h209l223 -684l201 684h205l-346 -1163q-43 -147 -109.5 -226t-179.5 -79z" />
    <glyph glyph-name="uni0444" unicode="&#x444;" horiz-adv-x="1275" 
d="M981 414v260q0 115 -55 172t-150 57h-43v-723h43q92 0 148 60t57 174zM500 180h41v723h-41q-94 0 -150 -57t-55 -172v-260q1 -114 57 -174t148 -60zM776 1096q184 0 295 -112t111 -310v-260q0 -201 -112 -315t-294 -113h-43v-355h-192v355h-41q-182 0 -294 114t-112 314
v260q0 198 111 310t295 112h41v383h192v-383h43z" />
    <glyph glyph-name="uni0445" unicode="&#x445;" horiz-adv-x="833" 
d="M836 0h-226l-192 383l-195 -383h-225l299 541l-277 538h220l178 -366l176 366h219l-272 -538z" />
    <glyph glyph-name="uni0446" unicode="&#x446;" horiz-adv-x="970" 
d="M743 -240v240h-624v1079h198v-897h297v897h199v-897h123v-422h-193z" />
    <glyph glyph-name="uni0447" unicode="&#x447;" horiz-adv-x="884" 
d="M578 1079h188v-1079h-188v377q-76 -39 -183 -39q-152 0 -244 108.5t-92 327.5v305h189v-305q0 -250 166 -250q104 0 164 39v516z" />
    <glyph glyph-name="uni0448" unicode="&#x448;" horiz-adv-x="1396" 
d="M1081 1079h195v-1079h-1167v1079h194v-895h291v895h197v-895h290v895z" />
    <glyph glyph-name="uni0449" unicode="&#x449;" horiz-adv-x="1443" 
d="M1288 180h121v-420h-188v240h-1102v1079h196v-895h291v895h197v-895h289v895h196v-899z" />
    <glyph glyph-name="uni044A" unicode="&#x44a;" horiz-adv-x="983" 
d="M584 180q80 0 128 49t48 130t-48 128t-128 48h-150v-355h150zM602 715q156 -1 256 -99t100 -257t-100 -259t-256 -100h-366v897h-216v182h414v-364h168z" />
    <glyph glyph-name="uni044B" unicode="&#x44b;" horiz-adv-x="1294" 
d="M467 180q80 0 128 47t48 127t-48 125t-128 45h-150v-344h150zM975 1075h199v-1075h-199v1075zM487 705q156 0 256.5 -97.5t100.5 -254.5t-100.5 -255t-256.5 -98h-368v1075h198v-370h170z" />
    <glyph glyph-name="uni044C" unicode="&#x44c;" horiz-adv-x="868" 
d="M467 180q80 0 128 49t48 130t-48 128t-128 48h-150v-355h150zM487 715q156 -1 256 -99q101 -98 101 -257t-100 -259t-257 -100h-368v1079h198v-364h170z" />
    <glyph glyph-name="uni044D" unicode="&#x44d;" horiz-adv-x="894" 
d="M434 1106q172 0 269 -104t98 -289v-340q1 -187 -97 -291t-270 -104t-272 100q-100 102 -105 284h199q8 -195 178 -194q166 0 166 205v102h-324v141h324v97q0 203 -166 202q-166 0 -172 -194h-201q5 185 103 285t270 100z" />
    <glyph glyph-name="uni044E" unicode="&#x44e;" horiz-adv-x="1298" 
d="M1008 387v311q0 215 -171 215t-171 -215v-311q0 -217 171 -217t171 217zM838 1106q172 0 270 -106t98 -302v-311q0 -197 -98 -303t-270 -106t-270 106t-99 303v70h-158v-457h-192v1079h192v-436h158v55q1 196 99 302t270 106z" />
    <glyph glyph-name="uni044F" unicode="&#x44f;" horiz-adv-x="856" 
d="M555 535v364h-131q-86 0 -131 -46t-45 -132q0 -186 172 -186h135zM416 1079h332v-1079h-193v365h-117l-194 -365h-226l230 393q-88 35 -142 121q-53 86 -53 230q-1 144 99 240q100 95 264 95z" />
    <glyph glyph-name="uni0451" unicode="&#x451;" horiz-adv-x="929" 
d="M465 920q-172 0 -172 -213v-93h350v93q0 213 -178 213zM463 -23q-172 0 -270.5 106.5t-98.5 299.5v322q0 190 98.5 295.5t272.5 105.5t274.5 -105.5t100.5 -295.5v-240h-547v-82q0 -215 172 -215q88 0 132 40t58 130h199q-14 -172 -116.5 -266.5t-274.5 -94.5zM596 1270
q-47 0 -75.5 27.5t-28.5 74.5t28.5 75t75.5 28t74.5 -29t27.5 -74t-27.5 -73.5t-74.5 -28.5zM309 1270q-47 0 -74.5 28.5t-27.5 73.5t27.5 74t74.5 29t75 -29t28 -74t-28 -73.5t-75 -28.5z" />
    <glyph glyph-name="uni0452" unicode="&#x452;" horiz-adv-x="960" 
d="M555 1106q299 0 299 -449v-684q0 -180 -99 -280t-292 -103v191q193 2 192 184v686q0 141 -38 203q-39 62 -119 64q-80 0 -130 -66t-51 -184v-668h-196v1247h-131v113h131v123h196v-123h193v-113h-193v-272q88 131 238 131z" />
    <glyph glyph-name="uni0453" unicode="&#x453;" horiz-adv-x="708" 
d="M680 1081v-190h-361v-891h-200v1081h561zM610 1503l-182 -254h-156l154 254h184z" />
    <glyph glyph-name="uni0454" unicode="&#x454;" horiz-adv-x="894" 
d="M94 373v340q0 186 97 289q97 104 269 104t270 -100q97 -100 104 -285h-201q-6 195 -172 194q-166 0 -166 -202v-97h323v-141h-323v-102q0 -205 166 -205q170 -1 178 194h199q-4 -182 -104 -283t-273 -101q-171 0 -269 102q-98 104 -98 293z" />
    <glyph glyph-name="uni0455" unicode="&#x455;" horiz-adv-x="854" 
d="M432 -27q-172 0 -275.5 101.5t-105.5 257.5h197q2 -78 49 -126t131 -48t127 35.5t43 93t-39 94.5t-98.5 58.5t-128 52t-128 64.5t-98 98.5t-38.5 150.5q0 137 95 219t258 82t255 -94t98 -250h-194q-4 164 -164 164q-70 0 -111 -33t-41 -89t55.5 -94t133 -66t155.5 -63.5
t133.5 -109.5t55.5 -180q0 -143 -96.5 -230.5t-268.5 -87.5z" />
    <glyph glyph-name="uni0456" unicode="&#x456;" horiz-adv-x="436" 
d="M119 0v1079h198v-1079h-198zM217 1260q-55 0 -90 35.5t-35 89.5t35 90t90 36t91 -35.5t36 -89.5t-36 -90t-91 -36z" />
    <glyph glyph-name="uni0457" unicode="&#x457;" horiz-adv-x="475" 
d="M137 0v1079h199v-1079h-199zM371 1278q-45 0 -73 26.5t-28 71.5t28 73t73 28t72.5 -28t27.5 -73t-27.5 -71.5t-72.5 -26.5zM104.5 1278q-45.5 0 -72 26.5t-26.5 71.5t26.5 73t72 28t72 -28t26.5 -73t-26.5 -71.5t-72 -26.5z" />
    <glyph glyph-name="uni0458" unicode="&#x458;" horiz-adv-x="503" 
d="M162 0v1079h196v-1071q0 -193 -98 -297t-291 -106v190q100 2 147 52q46 50 46 153zM259 1257q-54 0 -89 35t-35 90q0 56 35 92t89 36t90 -36t36 -90t-36 -91q-36 -36 -90 -36z" />
    <glyph glyph-name="uni0459" unicode="&#x459;" horiz-adv-x="1355" 
d="M805 180h151q80 0 128 47t48 127t-48 125t-128 45h-151v-344zM0 -14v190q76 0 106 71q59 141 72 832h627v-374h170q156 1 256 -97t100 -255t-100 -255t-256 -98h-365v897h-241q-3 -231 -25 -461t-104 -340t-240 -110z" />
    <glyph glyph-name="uni045A" unicode="&#x45a;" horiz-adv-x="1363" 
d="M965 180q78 0 126 44t48 116t-48 112t-126 40h-150v-312h150zM983 672q156 0 256 -91t100 -240t-100 -245t-256 -96h-367v487h-299v-487h-198v1079h198v-407h299v407h199v-407h168z" />
    <glyph glyph-name="uni045B" unicode="&#x45b;" horiz-adv-x="956" 
d="M551 1106q299 0 299 -449v-657h-199v651q0 141 -38 204q-39 63 -119 63t-130.5 -66t-50.5 -184v-668h-196v1239h-131v113h131v131h196v-131h193v-113h-193v-266q86 133 238 133z" />
    <glyph glyph-name="uni045C" unicode="&#x45c;" horiz-adv-x="903" 
d="M315 0h-196v1079h196v-458l127 198l179 260h235l-340 -461l391 -618h-227l-293 463l-72 -78v-385zM670 1503l-183 -254h-155l153 254h185z" />
    <glyph glyph-name="uni045D" unicode="&#x45d;" horiz-adv-x="956" 
d="M119 0v1079h192v-454q0 -182 -4 -299l6 -4q25 80 113 305l209 452h203v-1079h-193v414q0 168 10 348l-6 2q-8 -37 -49 -152.5t-72 -179.5l-206 -432h-203zM272 1503h185l153 -254h-155z" />
    <glyph glyph-name="uni045E" unicode="&#x45e;" horiz-adv-x="854" 
d="M211 -389h-107v192h68q57 0 86 36t51 112l47 162l-348 966h209l223 -684l201 684h205l-346 -1163q-43 -147 -109.5 -226t-179.5 -79zM426 1251q-109 0 -176.5 65.5t-71.5 180.5h141q6 -109 105 -108q100 0 106 108h142q-4 -117 -70.5 -181.5t-175.5 -64.5z" />
    <glyph glyph-name="uni045F" unicode="&#x45f;" horiz-adv-x="935" 
d="M817 1079v-1079h-254v-240h-184v240h-260v1079h198v-895h301v895h199z" />
    <glyph glyph-name="uni0490" unicode="&#x490;" horiz-adv-x="864" 
d="M655 1669h174v-432h-479v-1237h-207v1434h512v235z" />
    <glyph glyph-name="uni0491" unicode="&#x491;" horiz-adv-x="710" 
d="M514 1284h168v-393h-363v-891h-200v1079h395v205z" />
    <glyph glyph-name="Wgrave" unicode="&#x1e80;" horiz-adv-x="1538" 
d="M1309 1434h215l-322 -1434h-221l-139 633q-51 225 -68 461h-8q-23 -252 -70 -461l-139 -633h-221l-322 1434h215l148 -785q59 -338 65 -381h9q16 115 65 391l143 752h220l143 -752q49 -276 65 -391h9q6 43 65 381zM911 1573h-155l-224 256h189z" />
    <glyph glyph-name="wgrave" unicode="&#x1e81;" horiz-adv-x="1302" 
d="M1090 1079h204l-256 -1079h-215l-94 391q-57 254 -74 426h-8q-14 -172 -74 -426l-92 -391h-215l-258 1079h207l96 -483q39 -209 62 -371h8q25 178 68 379l98 455h211l98 -455q51 -266 68 -379h8q12 102 61 371zM778 1245h-155l-183 254h185z" />
    <glyph glyph-name="Wacute" unicode="&#x1e82;" horiz-adv-x="1538" 
d="M1309 1434h215l-322 -1434h-221l-139 633q-51 225 -68 461h-8q-23 -252 -70 -461l-139 -633h-221l-322 1434h215l148 -785q59 -338 65 -381h9q16 115 65 391l143 752h220l143 -752q49 -276 65 -391h9q6 43 65 381zM659 1573l191 256h188l-223 -256h-156z" />
    <glyph glyph-name="wacute" unicode="&#x1e83;" horiz-adv-x="1302" 
d="M1090 1079h204l-256 -1079h-215l-94 391q-57 254 -74 426h-8q-14 -172 -74 -426l-92 -391h-215l-258 1079h207l96 -483q39 -209 62 -371h8q25 178 68 379l98 455h211l98 -455q51 -266 68 -379h8q12 102 61 371zM862 1499l-182 -254h-156l154 254h184z" />
    <glyph glyph-name="Wdieresis" unicode="&#x1e84;" horiz-adv-x="1538" 
d="M1309 1434h215l-322 -1434h-221l-139 633q-51 225 -68 461h-8q-23 -252 -70 -461l-139 -633h-221l-322 1434h215l148 -785q59 -338 65 -381h9q16 115 65 391l143 752h220l143 -752q49 -276 65 -391h9q6 43 65 381zM928 1602q-47 0 -76 27.5t-29 73.5t29 73.5t76 27.5
t74.5 -27.5t27.5 -73.5t-27.5 -73.5t-74.5 -27.5zM629 1602q-47 0 -75 27.5t-28 73.5t28 73.5t75 27.5t74.5 -27.5t27.5 -73.5t-27.5 -73.5t-74.5 -27.5z" />
    <glyph glyph-name="wdieresis" unicode="&#x1e85;" horiz-adv-x="1302" 
d="M1090 1079h204l-256 -1079h-215l-94 391q-57 254 -74 426h-8q-14 -172 -74 -426l-92 -391h-215l-258 1079h207l96 -483q39 -209 62 -371h8q25 178 68 379l98 455h211l98 -455q51 -266 68 -379h8q12 102 61 371zM788.5 1270q-47.5 0 -76 27.5t-28.5 74.5t28.5 75t76 28
t75 -29t27.5 -74t-27.5 -73.5t-75 -28.5zM502 1270q-47 0 -75 28.5t-28 73.5t28 74t75 29t74.5 -29t27.5 -74t-27.5 -73.5t-74.5 -28.5z" />
    <glyph glyph-name="Ygrave" unicode="&#x1ef2;" horiz-adv-x="913" 
d="M354 0v471l-348 963h215l162 -478q51 -154 72 -225h4l73 230l160 473h217l-348 -963v-471h-207zM590 1573h-156l-223 256h188z" />
    <glyph glyph-name="ygrave" unicode="&#x1ef3;" horiz-adv-x="854" 
d="M211 -389h-107v192h68q57 0 86 36t51 112l47 162l-348 966h209l223 -684l201 684h205l-346 -1163q-43 -147 -109.5 -226t-179.5 -79zM555 1253h-156l-182 254h184z" />
    <glyph glyph-name="endash" unicode="&#x2013;" horiz-adv-x="862" 
d="M78 438v176h706v-176h-706z" />
    <glyph glyph-name="emdash" unicode="&#x2014;" horiz-adv-x="1128" 
d="M78 614h973v-176h-973v176z" />
    <glyph glyph-name="quoteleft" unicode="&#x2018;" horiz-adv-x="311" 
d="M229 952h-196l117 482h122z" />
    <glyph glyph-name="quoteright" unicode="&#x2019;" horiz-adv-x="311" 
d="M82 1442h197l-117 -481h-123z" />
    <glyph glyph-name="quotesinglbase" unicode="&#x201a;" horiz-adv-x="346" 
d="M96 201h197l-117 -480h-123z" />
    <glyph glyph-name="quotedblleft" unicode="&#x201c;" horiz-adv-x="577" 
d="M496 952h-199l117 482h123zM229 952h-196l117 482h122z" />
    <glyph glyph-name="quotedblright" unicode="&#x201d;" horiz-adv-x="577" 
d="M346 1434h197l-115 -482h-123zM82 1434h197l-117 -482h-123z" />
    <glyph glyph-name="quotedblbase" unicode="&#x201e;" horiz-adv-x="346" 
d="M96 201h197l-117 -480h-123z" />
    <glyph glyph-name="dagger" unicode="&#x2020;" horiz-adv-x="757" 
d="M711 1065v-178h-238v-1082h-188v1082h-238v178h238v389h188v-389h238z" />
    <glyph glyph-name="daggerdbl" unicode="&#x2021;" horiz-adv-x="763" 
d="M713 887h-238v-467h238v-180h-238v-435h-188v435h-238v180h238v467h-238v178h238v389h188v-389h238v-178z" />
    <glyph glyph-name="bullet" unicode="&#x2022;" horiz-adv-x="423" 
d="M210 346q-75 0 -121 46t-46 121t46 121t121 46t121 -46t46 -121t-46 -121t-121 -46z" />
    <glyph glyph-name="ellipsis" unicode="&#x2026;" horiz-adv-x="1112" 
d="M913 -20q-55 0 -90 34t-35 89q0 57 35 91t90 34t91 -34q34 -34 34 -90t-34 -91q-36 -33 -91 -33zM556 -20q-56 0 -90 34t-34 89q0 57 34 91t90 34t90 -34t34 -90t-34 -90t-90 -34zM199 -20q-55 0 -90 34t-35 89q0 57 35 91t90 34t90 -34t35 -90t-35 -90t-90 -34z" />
    <glyph glyph-name="perthousand" unicode="&#x2030;" horiz-adv-x="1720" 
d="M1374 203q0 -101 77 -101t77 101v213q0 102 -77 102t-77 -102v-213zM852 203q0 -101 77 -101t77 101v213q0 102 -77 102t-77 -102v-213zM1452 -18q-94 0 -152 58q-57 58 -57 165v209q0 106 57 166q56 60 150 59q94 0 152 -59t57 -166v-209q0 -106 -56 -165
q-57 -58 -151 -58zM930 -18q-94 0 -152 58q-57 58 -57 165v209q0 106 57 166q56 60 150 59q94 0 151 -59t58 -166v-209q-1 -107 -57 -165t-150 -58zM248 918q78 0 78 102v211q0 104 -78 104t-78 -104v-211q0 -102 78 -102zM25 0l991 1434h151l-991 -1434h-151zM248 799
q-94 0 -152 58q-57 58 -57 165v207q0 105 57 165q58 60 152 60t151 -59t58 -166v-207q1 -106 -57 -164t-152 -59z" />
    <glyph glyph-name="guilsinglleft" unicode="&#x2039;" horiz-adv-x="591" 
d="M317 178l-239 311v74l239 311h195l-264 -348l264 -348h-195z" />
    <glyph glyph-name="guilsinglright" unicode="&#x203a;" horiz-adv-x="591" 
d="M274 178h-194l264 348l-264 348h194l240 -311v-74z" />
    <glyph glyph-name="fraction" unicode="&#x2044;" horiz-adv-x="1146" 
d="M23 0l931 1434h170l-934 -1434h-167z" />
    <glyph glyph-name="Euro" unicode="&#x20ac;" horiz-adv-x="1136" 
d="M650 -25q-194 0 -306 117t-111 330v119h-165v123h165v114h-165v123h165v111q0 216 110 332q111 116 305 116t304 -114t119 -326h-205q-14 244 -221 244q-94 0 -147 -64t-54 -188v-111h293v-123h-293v-114h293v-123h-293v-119q0 -126 54 -188t151 -62q203 0 228 242h204
q-10 -211 -123 -325q-114 -114 -308 -114z" />
    <glyph glyph-name="trademark" unicode="&#x2122;" horiz-adv-x="966" 
d="M905 1434v-555h-100v116q0 43 8 265l-6 2q-10 -29 -47 -134l-39 -110h-96l-39 110q-37 104 -47 134l-7 -2q8 -221 9 -265v-116h-101v555h113l53 -131q47 -106 66 -189q12 43 65 189l56 131h112zM49 1335v99h330v-99h-113v-456h-102v456h-115z" />
    <glyph glyph-name="partialdiff" unicode="&#x2202;" horiz-adv-x="937" 
d="M643 387v246q0 217 -174 217t-174 -217v-246q0 -217 174 -217t174 217zM844 387q0 -197 -100 -303t-276 -106q-175 0 -274 106t-100 303v246q0 195 94 303t256 106q113 0 189 -61q-57 270 -342 365l69 161q214 -59 348 -231t136 -453v-436z" />
    <glyph glyph-name="emptyset" unicode="&#x2205;" horiz-adv-x="1640" 
d="M1370 708q0 249 -131 404l-709 -901q127 -70 287 -70q248 0 401 159q152 159 152 408zM262 724q0 -253 137 -407l711 902q-129 74 -293 73q-251 0 -403 -158t-152 -410zM94 716q0 334 199 536t524 202q227 0 397 -102l117 147h213l-198 -252q194 -201 194 -533t-199 -533
q-199 -202 -524 -201q-223 0 -391 98l-113 -144h-215l195 248q-199 199 -199 534z" />
    <glyph glyph-name="product" unicode="&#x220f;" horiz-adv-x="1048" 
d="M143 -203v1637h762v-1639h-203v1442h-356v-1440h-203z" />
    <glyph glyph-name="summation" unicode="&#x2211;" horiz-adv-x="768" 
d="M72 -4v168l309 553l-309 553v168h624v-185h-405l264 -477v-119l-264 -477h405v-184h-624z" />
    <glyph glyph-name="minus" unicode="&#x2212;" horiz-adv-x="944" 
d="M88 543v184h766v-184h-766z" />
    <glyph glyph-name="radical" unicode="&#x221a;" horiz-adv-x="997" 
d="M27 846v178h333l156 -840l260 1438h195l-312 -1622h-284l-174 846h-174z" />
    <glyph glyph-name="infinity" unicode="&#x221e;" horiz-adv-x="1284" 
d="M890 371q52 0 86 40q34 41 34 109t-34 106t-86 38t-86 -36t-61 -106q31 -76 63 -114t84 -37zM274 519q0 -69 34 -109t86 -39q52 0 84 37t65 114q-59 141 -148 142q-55 0 -88 -38t-33 -107zM899 838q123 0 207 -90t84 -232t-83 -231q-83 -88 -206 -88q-162 0 -258 153
q-100 -154 -260 -153q-123 0 -206 88t-83 230q0 143 84 233t209 90q152 0 256 -138q100 138 256 138z" />
    <glyph glyph-name="integral" unicode="&#x222b;" horiz-adv-x="661" 
d="M231 -27v1102q-1 179 97 279t286 100v-188q-184 -2 -184 -172v-1102q0 -180 -97 -280q-98 -99 -284 -101v190q182 2 182 172z" />
    <glyph glyph-name="approxequal" unicode="&#x2248;" horiz-adv-x="962" 
d="M294 393q-62 0 -112 -65l-98 139q84 104 205 104q73 0 195 -43t182 -43t114 66l99 -137q-82 -106 -205 -107q-72 0 -195 43t-185 43zM294 735q-62 0 -112 -63l-98 137q84 104 205 104q73 0 195 -42q122 -41 182 -41t114 63l99 -135q-82 -106 -205 -107q-72 0 -195 42
t-185 42z" />
    <glyph glyph-name="notequal" unicode="&#x2260;" horiz-adv-x="962" 
d="M864 748h-258l-76 -162h334v-185h-420l-67 -143h-174l67 143h-172v185h258l76 162h-334v184h420l68 145h174l-68 -145h172v-184z" />
    <glyph glyph-name="lessequal" unicode="&#x2264;" horiz-adv-x="882" 
d="M90 129v174h705v-174h-705zM795 1130v-186l-504 -192l504 -195v-186l-705 280v199z" />
    <glyph glyph-name="greaterequal" unicode="&#x2265;" horiz-adv-x="882" 
d="M88 129v174h705v-174h-705zM88 1130l705 -280v-199l-705 -280v186l504 195l-504 192v186z" />
    <glyph glyph-name="lozenge" unicode="&#x25ca;" horiz-adv-x="956" 
d="M477 197l203 520l-203 520l-201 -520zM371 -2l-277 682v76l277 678h215l276 -678v-76l-276 -682h-215z" />
    <glyph glyph-name="uni0162.ss01" horiz-adv-x="874" 
d="M543 0h-49l-31 -96q6 2 24 2q59 -2 103 -41t43 -107q0 -68 -56 -110q-57 -43 -139 -43t-137 42t-63 115h118q20 -53 80 -53q33 1 56 17t22 45q0 61 -70 61q-37 0 -71 -14l-37 37l43 145h-47v1237h-297v197h807v-197h-299v-1237z" />
    <glyph glyph-name="i.loclTRK" horiz-adv-x="436" 
d="M119 0v1079h198v-1079h-198zM217 1260q-55 0 -90 35.5t-35 89.5t35 90t90 36t91 -35.5t36 -89.5t-36 -90t-91 -36z" />
    <glyph glyph-name="uni0163.ss01" horiz-adv-x="647" 
d="M520 -12q-49 0 -82 8l-35 -92q4 2 25 2q59 0 101 -40t42 -108t-55 -110.5t-138 -42.5t-137.5 42t-62.5 115h117q20 -53 80 -53q35 0 56.5 16.5t21.5 45.5q0 61 -70 61q-37 0 -70 -14l-37 37l60 176q-158 90 -158 317v549h-151v182h151v256h197v-256h200v-182h-200v-551
q0 -174 155 -174h66v-184h-76z" />
    <glyph glyph-name="uni0414.loclBGR" horiz-adv-x="1050" 
d="M317 195h418l-131 571q-31 154 -76 412h-6q-39 -244 -73 -410zM0 -240v435h109l307 1239h219l307 -1239h109v-435h-205v240h-643v-240h-203z" />
    <glyph glyph-name="uni041B.loclBGR" horiz-adv-x="960" 
d="M367 1434h225l352 -1434h-215l-174 791q-25 117 -72 380h-8q-53 -303 -72 -380l-172 -791h-217z" />
    <glyph glyph-name="hacy.001" horiz-adv-x="833" 
d="M836 0h-226l-192 383l-195 -383h-225l299 541l-277 538h220l178 -366l176 366h219l-272 -538z" />
    <glyph glyph-name="uni0432.loclBGR" horiz-adv-x="933" 
d="M463 168q201 0 201 252q0 138 -58 200t-176 54l-129 -8v-277q0 -221 162 -221zM455 1315q-72 0 -113 -55t-41 -160v-252l96 8q102 8 159 76q56 68 56 182q1 201 -157 201zM862 424q0 -211 -108 -329t-286 -118q-177 0 -269 110t-93 327v686q0 188 96 297t259 109
q164 0 256 -101q92 -100 92 -272q0 -232 -170 -328q223 -86 223 -381z" />
    <glyph glyph-name="uni0433.loclBGR" horiz-adv-x="849" 
d="M421 -25q-171 0 -268.5 85t-97.5 231q0 102 53.5 174t130 108.5t153.5 66.5t130 70t53 95q0 119 -141 119q-156 0 -162 -160h-192q6 154 97 248t253 94t253 -80t91 -221q0 -100 -53 -170t-129 -106.5t-153 -67.5t-130 -71t-53 -99t45 -94t121 -35q172 0 178 170h199
q-4 -156 -105.5 -256.5t-272.5 -100.5z" />
    <glyph glyph-name="uni0434.loclBGR" horiz-adv-x="962" 
d="M473 231q170 0 170 207v271q0 100 -47 153t-123 53q-178 0 -178 -219v-258q0 -207 178 -207zM844 1079v-1134q0 -154 -98.5 -247t-262.5 -93t-260 91t-102 245h194q12 -152 166 -152q76 0 119 42t43 114v168q-82 -70 -203 -70q-154 0 -250 108.5t-96 286.5v258
q0 188 95.5 299t249 111t243.5 -113l16 86h146z" />
    <glyph glyph-name="uni0436.loclBGR" horiz-adv-x="1290" 
d="M739 0h-190v403l-62 68l-270 -471h-223l366 625l-327 454h229l207 -309l80 -133v844h190v-846l80 135l209 309h229l-327 -454l364 -625h-223l-268 471l-64 -70v-401z" />
    <glyph glyph-name="uni0437.loclBGR" horiz-adv-x="907" 
d="M434 -205q96 1 146 63t51 181t-57 185t-164 65h-119v180h100q100 0 155 61q54 61 54 170t-45 165t-127 57q-158 0 -174 -205h-193q7 189 105 289t268 100t264 -101t95 -284q0 -123 -37 -202t-135 -130q211 -82 210 -362q0 -199 -105 -310q-104 -111 -288 -111t-284 103
q-100 102 -109 297h193q12 -211 196 -211z" />
    <glyph glyph-name="uni0438.loclBGR" horiz-adv-x="960" 
d="M643 1079h199v-1079h-142l-20 121q-88 -147 -268 -148q-143 0 -223 106.5t-80 321.5v678h198v-667q0 -131 37 -190.5t119 -59.5t131 65.5t49 184.5v667z" />
    <glyph glyph-name="uni0439.loclBGR" horiz-adv-x="960" 
d="M643 1079h199v-1079h-142l-20 121q-88 -147 -268 -148q-143 0 -223 106.5t-80 321.5v678h198v-667q0 -131 37 -190.5t119 -59.5t131 65.5t49 184.5v667zM471 1247q-109 0 -176.5 65.5t-71.5 180.5h142q6 -109 105 -109t105 109h142q-4 -117 -70.5 -181.5t-175.5 -64.5z
" />
    <glyph glyph-name="uni045D.loclBGR" horiz-adv-x="970" 
d="M655 1079h199v-1079h-141l-21 121q-88 -147 -268 -148q-143 0 -223 106.5t-80 321.5v678h198v-667q0 -131 37 -190.5t119 -59.5t131 65.5t49 184.5v667zM569 1249h-155l-183 254h185z" />
    <glyph glyph-name="uni043A.loclBGR" horiz-adv-x="903" 
d="M315 0h-196v1483h196v-826l308 422h235l-332 -432l383 -647h-227l-287 494l-80 -86v-408z" />
    <glyph glyph-name="uni043B.loclBGR" horiz-adv-x="831" 
d="M614 0l-118 485q-57 268 -74 357h-10q-16 -88 -74 -357l-119 -485h-211l297 1079h221l297 -1079h-209z" />
    <glyph glyph-name="uni043F.loclBGR" horiz-adv-x="960" 
d="M549 1106q143 0 223 -106.5t80 -321.5v-678h-199v668q0 131 -36.5 190.5t-118.5 59.5t-131.5 -66t-49.5 -184v-668h-198v1079h141l21 -121q88 148 268 148z" />
    <glyph glyph-name="uni0442.loclBGR" horiz-adv-x="1466" 
d="M1063 1106q139 0 217 -108.5t78 -321.5v-676h-197v670q0 248 -143 248q-82 0 -131 -66t-49 -184v-668h-197v670q0 248 -147 248q-82 0 -130.5 -66t-48.5 -184v-668h-196v1079h141l21 -121q86 148 260 148t250 -164q84 164 272 164z" />
    <glyph glyph-name="uni0446.loclBGR" horiz-adv-x="997" 
d="M772 -240v240q-76 29 -94 129q-84 -154 -268 -154q-301 0 -301 428v676h198v-667q0 -132 36 -190t118 -58t131 66t49 182v667h199v-764q0 -85 26 -117t97 -32v-406h-191z" />
    <glyph glyph-name="uni0448.loclBGR" horiz-adv-x="1466" 
d="M1151 1079h197v-1079h-142l-20 121q-86 -147 -260 -147t-250 163q-84 -164 -273 -164q-139 0 -216.5 108.5t-77.5 321.5v676h196v-669q0 -248 144 -248q82 0 131 65.5t49 184.5v667h196v-669q0 -248 148 -248q82 0 130 65.5t48 184.5v667z" />
    <glyph glyph-name="uni0449.loclBGR" horiz-adv-x="1505" 
d="M1346 315q0 -85 26 -117t98 -32v-406h-190v240q-76 31 -94 131q-78 -156 -257 -156t-251 166q-84 -166 -275 -166q-139 0 -217 109t-77 322v673h196v-669q0 -246 144 -246q84 0 132 66t48 182v667h196v-669q0 -246 148 -246q82 0 129 66t47 182v667h197v-764z" />
    <glyph glyph-name="uni044C.loclBGR" horiz-adv-x="868" 
d="M471 162q172 0 172 203t-170 202q-80 0 -124 -51t-44 -147q0 -207 166 -207zM844 367q0 -178 -102 -286t-271 -108q-168 1 -265 99t-97 266v741h196v-405q82 78 197 78q154 2 248 -102t94 -283z" />
    <glyph glyph-name="uni044A.loclBGR" horiz-adv-x="985" 
d="M422 369q0 -207 169 -207t169 203t-170 202q-80 0 -124 -51t-44 -147zM590 -27q-168 1 -266 99t-99 266v559h-215v182h412v-405q82 78 199 78q155 2 247 -102t92 -283q0 -178 -100 -286q-102 -108 -270 -108z" />
    <glyph glyph-name="uni044E.loclBGR" horiz-adv-x="1296" 
d="M1004 387v305q0 215 -171 215t-171 -215v-305q0 -217 171 -217t171 217zM834 1100q172 0 270 -106t98 -302v-305q0 -197 -98 -303t-270 -106t-270 106t-99 303v70h-158v-457h-192v1479h192v-836h158v49q1 196 99 302t270 106z" />
    <glyph glyph-name="emdash.case" horiz-adv-x="1128" 
d="M78 819h973v-176h-973v176z" />
    <glyph glyph-name="endash.case" horiz-adv-x="862" 
d="M78 643v176h706v-176h-706z" />
    <glyph glyph-name="hyphen.case" horiz-adv-x="657" 
d="M78 643v176h502v-176h-502z" />
    <glyph glyph-name="guillemotleft.case" horiz-adv-x="960" 
d="M686 301l-240 311v74l240 311h195l-265 -348l265 -348h-195zM317 301l-239 311v74l239 311h195l-264 -348l264 -348h-195z" />
    <glyph glyph-name="guillemotright.case" horiz-adv-x="960" 
d="M643 301h-194l264 348l-264 348h194l240 -311v-74zM274 301h-194l264 348l-264 348h194l240 -311v-74z" />
    <glyph glyph-name="guilsinglleft.case" horiz-adv-x="591" 
d="M317 301l-239 311v74l239 311h195l-264 -348l264 -348h-195z" />
    <glyph glyph-name="guilsinglright.case" horiz-adv-x="591" 
d="M274 301h-194l264 348l-264 348h194l240 -311v-74z" />
    <glyph glyph-name="uni0308.case" 
d="M-96 1602q-47 0 -76 27.5t-29 73.5t29 73.5t76 27.5t74.5 -27.5t27.5 -73.5t-27.5 -73.5t-74.5 -27.5zM-395 1602q-47 0 -75 27.5t-28 73.5t28 73.5t75 27.5t74.5 -27.5t27.5 -73.5t-27.5 -73.5t-74.5 -27.5z" />
    <glyph glyph-name="uni0307.case" 
d="M-121 1593q-55 0 -90 36t-35 90t35 90t90 36t91 -35.5t36 -89t-36 -90.5t-91 -37z" />
    <glyph glyph-name="gravecomb.case" 
d="M-10 1573h-156l-223 256h188z" />
    <glyph glyph-name="acutecomb.case" 
d="M-379 1573l191 256h188l-223 -256h-156z" />
    <glyph glyph-name="uni030B.case" 
d="M18 1829l-188 -254h-141l157 254h172zM-244 1829l-178 -254h-141l147 254h172z" />
    <glyph glyph-name="uni0302.case" 
d="M-4 1573h-148l-102 143l-104 -143h-148l166 256h170z" />
    <glyph glyph-name="uni030C.case" 
d="M-156 1829h148l-166 -256h-170l-166 256h148l104 -143z" />
    <glyph glyph-name="uni0306.case" 
d="M-239.5 1573q-108.5 0 -176 65.5t-71.5 180.5h141q6 -109 105 -109t106 109h141q-4 -117 -70.5 -181.5t-175 -64.5z" />
    <glyph glyph-name="uni030A.case" 
d="M-223 1724.5q0 -28.5 18.5 -47t47 -18.5t47 18.5t18.5 47t-18.5 47t-47 18.5t-47 -18.5t-18.5 -47zM-322 1726.5q0 71.5 46 114.5t120 43t119 -43t45 -114.5t-45 -116.5t-120 -45t-120 45t-45 116.5z" />
    <glyph glyph-name="tildecomb.case" 
d="M-299 1675q-41 0 -49 -55h-133q4 88 48 138q43 50 103 50t107 -30.5t63 -30.5q43 0 54 55h129q-8 -88 -51.5 -138t-100.5 -50t-104.5 30.5t-65.5 30.5z" />
    <glyph glyph-name="uni0304.case" 
d="M-403 1765h413v-141h-413v141z" />
    <glyph glyph-name="uni0312.case" 
d="M-121 1991l103 -402h-197l-35 402h129z" />
    <glyph glyph-name="uni0326.case" 
d="M-229 -543l34 400h181l-88 -400h-127z" />
    <glyph glyph-name="uni0327.case" 
d="M-199 -422q-86 0 -143 46t-66 122h123q20 -55 91 -55t71 67.5t-74 67.5q-39 0 -67 -16l-39 36l45 154h117l-29 -100q6 2 25 2q63 0 105 -40t42 -114t-57.5 -122t-143.5 -48z" />
    <glyph glyph-name="uni0328.case" 
d="M-137 -395q-86 0 -135.5 48t-49.5 122q0 119 123 225h174q-49 -37 -80.5 -87t-31.5 -87q0 -63 71 -64q33 0 62 7v-146q-47 -18 -133 -18z" />
    <glyph glyph-name="uni0337.case" 
d="M-543 -90l326 1220h211l-326 -1220h-211z" />
    <glyph glyph-name="uni0338.case" 
d="M-977 -78l436 1589h207l-436 -1589h-207z" />
    <glyph glyph-name="brevecombcy" 
d="M-241.5 1247q-108.5 0 -176 65.5t-71.5 180.5h141q6 -109 105 -109t106 109h141q-4 -117 -70.5 -181.5t-175 -64.5z" />
    <glyph glyph-name="brevecombcy.case" 
d="M-239.5 1573q-108.5 0 -176 65.5t-71.5 180.5h141q6 -109 105 -109t106 109h141q-4 -117 -70.5 -181.5t-175 -64.5z" />
    </font>
</defs>
</svg>
