<svg xmlns="http://www.w3.org/2000/svg" width="70" height="42" viewBox="0 0 70 42">
    <g fill="none" fill-rule="evenodd">
        <rect width="70" height="42" fill="#F5F6F7" rx="2"/>
        <path fill="#0072CE" d="M59 24h-2.304c-.23 0-.383.011-.511.127-.134.114-.185.283-.185.506 0 .265.113.445.276.523.134.062.277.08.488.08l.685.024c.69.023 1.152.18 1.434.566.051.054.082.114.117.174v-2zm0 4.138c-.332.486-.98.733-1.857.733h-2.642v-1.23h2.632c.26 0 .443-.034.553-.141a.504.504 0 0 0 .162-.374.47.47 0 0 0-.167-.379c-.1-.087-.244-.127-.482-.127-1.285-.044-2.888.04-2.888-1.774 0-.83.528-1.706 1.963-1.706H59V22h-2.532c-.765 0-1.32.183-1.713.468V22H51.01c-.6 0-1.302.149-1.635.468V22h-6.688v.468c-.533-.384-1.43-.468-1.845-.468H36.43v.468C36.009 22.06 35.072 22 34.5 22h-4.937l-1.13 1.224L27.376 22H20v7.996h7.237l1.164-1.243 1.097 1.243 4.46.004v-1.881h.44c.591.01 1.29-.015 1.905-.281v2.158h3.68v-2.084h.177c.226 0 .249.01.249.236v1.848h11.177c.71 0 1.451-.182 1.862-.512v.512h3.546c.737 0 1.458-.104 2.006-.369v-1.49zm-5.411-2.303c.268.29.411.654.411 1.272 0 1.29-.773 1.893-2.16 1.893h-2.678v-1.287h2.667c.261 0 .446-.036.562-.148a.543.543 0 0 0 .162-.392.524.524 0 0 0-.167-.396c-.106-.092-.25-.134-.49-.134-1.286-.045-2.896.042-2.896-1.857 0-.87.524-1.786 1.966-1.786h2.756v1.277H51.2c-.25 0-.413.01-.55.108-.152.098-.207.242-.207.432 0 .226.127.38.3.447.146.053.301.068.536.068l.74.02c.746.02 1.258.154 1.57.483zm-11.913-.927c-.21.085-.469.092-.774.092H39v-1h1.928c.28 0 .558.004.748.08.203.073.324.21.324.4 0 .191-.121.345-.324.428zm.268 1.304c.331.117.603.329.73.503.21.293.24.567.247 1.096V29h-1.497v-.75c0-.362.037-.896-.24-1.175-.218-.215-.55-.266-1.094-.266h-1.592V29H37v-6h3.44c.755 0 1.305.032 1.794.283.47.274.766.648.766 1.333 0 .957-.664 1.446-1.056 1.596zM44 23h5v1.24h-3.508v1.092h3.422v1.224h-3.422v1.194l3.508.005V29h-5v-6zm-8.976 2H33v-1h2.042c.566 0 .958.138.958.481 0 .34-.374.519-.976.519zM31 29l-2-2.54L31 24v5zm-4.586-2H23v-1.02h3.048v-1.047H23V24h3.481L28 25.495 26.414 27zM37 24.977c0 1.666-1.217 2.01-2.443 2.01h-1.75V29H30.08l-1.728-1.986L26.557 29H21v-6h5.642l1.727 1.967L30.153 23h4.483c1.113 0 2.364.315 2.364 1.977zM15 16l-1.003-2L13 16h2zm20.677-1.093c-.215.09-.47.093-.774.093H33v-1h1.928c.273 0 .558.008.743.081.203.066.329.205.329.398 0 .197-.12.355-.323.428zM48 16l-1.003-2L46 16h2zm-22 3h-1.426l-.005-4.7-2.017 4.7h-1.22l-2.023-4.703V19h-2.828l-.535-1.338H13.05L12.51 19H11l2.49-6h2.067l2.365 5.68V13h2.27l1.82 4.07L23.684 13H26v6zm6 0h-5v-6h5v1.25h-3.503v1.08h3.419v1.23h-3.42v1.2H32V19zm5-4.384c0 .957-.554 1.45-.877 1.6.272.119.505.33.616.504.175.299.206.565.206 1.101V19h-1.256l-.004-.757c0-.36.03-.88-.197-1.169-.182-.21-.46-.256-.907-.256h-1.336V19H32v-6h2.863c.636 0 1.105.02 1.507.287.394.268.63.66.63 1.329zM39 19h-1v-6h1v6zm16 0h-1.873l-2.506-4.503V19H47.93l-.514-1.338h-2.746l-.5 1.338h-1.546c-.643 0-1.456-.154-1.917-.664-.464-.51-.706-1.2-.706-2.29 0-.89.144-1.704.713-2.346.427-.48 1.096-.7 2.007-.7H44v1.286h-1.253c-.482 0-.755.077-1.017.355-.226.253-.38.73-.38 1.36 0 .642.118 1.105.363 1.408.204.238.574.31.921.31h.594L45.091 13h1.98l2.239 5.675V13h2.012l2.324 4.179V13H55v6zm-44 .996h2.317l.523-1.274h1.17l.52 1.274h4.559v-.974l.407.978h2.366l.407-.992v.988H34.6l-.006-2.09h.22c.153.005.198.02.198.275v1.815h5.86v-.487c.472.256 1.207.487 2.174.487h2.466l.527-1.274h1.17l.516 1.274h4.75v-1.21l.72 1.21H57V12h-3.767v.944L52.705 12H48.84v.944L48.355 12h-5.222c-.874 0-1.642.123-2.263.467V12h-3.603v.467c-.395-.354-.933-.467-1.532-.467H22.571l-.883 2.065L20.78 12h-4.147v.944L16.179 12h-3.537L11 15.802v4.194z"/>
    </g>
</svg>
