<svg xmlns="http://www.w3.org/2000/svg" width="70" height="42" viewBox="0 0 70 42">
    <g fill="none" fill-rule="evenodd">
        <rect width="70" height="42" fill="#F5F6F7" rx="2"/>
        <path fill="#000268" d="M14.721 11H55.28C57.334 11 59 12.687 59 14.768v13.465C59 30.313 57.334 32 55.279 32H14.72C12.667 32 11 30.313 11 28.233V14.768C11 12.688 12.667 11 14.721 11z"/>
        <path fill="#FFF" d="M13 15.365v13.27A2.367 2.367 0 0 0 15.369 31H37V13H15.369A2.367 2.367 0 0 0 13 15.365zM38 27v-7.87h1.702v1.012h.02c.37-.786 1.15-1.142 1.99-1.142C43.19 19 44 20.476 44 21.832c0 1.658-.851 3.036-2.44 3.036-.646 0-1.344-.247-1.694-.915h-.02V27H38zm4-5.561c0-.77-.356-1.439-.995-1.439-.603 0-1.005.647-1.005 1.517 0 .847.457 1.483 1.005 1.483.62 0 .995-.636.995-1.561zM50 24.868h-1.553c-.01-.309-.038-.605-.038-.903h-.019c-.386.717-.857 1.035-1.554 1.035-.97 0-1.836-.56-1.836-1.805 0-1.75 1.63-1.96 2.533-1.96.273 0 .575.034.791.078-.01-.782-.51-.991-1.12-.991-.546 0-1.094.12-1.563.43l-.029-1.344c.603-.287 1.234-.408 1.959-.408 1.253 0 2.335.628 2.335 2.379v2.135c0 .451.02.903.094 1.354zm-3-2.321c0 .286.346.453.8.453.735 0 1.2-.492 1.2-.976-.248-.009-.53-.024-.821-.024-.66 0-1.179.15-1.179.547zM50.373 26.87c.373.086.746.13 1.129.13 1.664 0 2.057-1.368 2.571-2.778L56 19h-1.816l-1.079 3.66h-.02L51.955 19H50l2.127 5.738c-.13.495-.473.776-.918.776-.253 0-.473-.033-.716-.119l-.12 1.475z"/>
        <path fill="#FF0007" d="M19.305 19.128H21v4.873C21 26.27 19.92 27 17.735 27c-.895 0-1.633-.19-2.07-.35l.094-1.505c.572.286 1.05.455 1.831.455 1.08 0 1.663-.519 1.663-1.599v-.297h-.02c-.448.646-1.072.943-1.821.943-1.486 0-2.412-1.144-2.412-2.775C15 20.23 15.76 19 17.444 19c.8 0 1.445.445 1.841 1.124h.02v-.996zM17 21.518c0 .946.443 1.482.94 1.482.59 0 1.06-.63 1.06-1.564 0-.677-.313-1.436-1.06-1.436-.617 0-.94.69-.94 1.518zM24 17h-2v1h2zM22 24h2v-5h-2zM29 19.057a4.559 4.559 0 0 0-.64-.057c-.82 0-1.291.394-1.617 1.014h-.021v-.9H25V24h1.89v-2.063c0-.957.494-1.529 1.375-1.529.221 0 .43 0 .64.055L29 19.057zM32 25c-1.704 0-3-1.1-3-2.994C29 20.101 30.296 19 32 19c1.703 0 3 1.101 3 3.006C35 23.9 33.703 25 32 25zm0-2c.71 0 1-.707 1-1.495 0-.798-.29-1.505-1-1.505s-1 .707-1 1.505c0 .788.29 1.495 1 1.495z"/>
    </g>
</svg>
