<svg xmlns="http://www.w3.org/2000/svg" width="70" height="42" viewBox="0 0 70 42">
    <g fill="none" fill-rule="evenodd">
        <rect width="70" height="42" fill="#F5F6F7" rx="2"/>
        <path fill="#54B230" d="M44 22H46.744a1.927 1.927 0 0 1 .181.01 2.372 2.372 0 0 1 .118.015l.018.003a1.333 1.333 0 0 1 .363.122 1.295 1.295 0 0 1 .272.186 1.072 1.072 0 0 1 .181.22A.882.882 0 0 1 48 23a.863.863 0 0 1-.213.571 1.03 1.03 0 0 1-.272.23 1.274 1.274 0 0 1-.408.161l-.046.01-.018.003a.701.701 0 0 1-.072.01 2.366 2.366 0 0 1-.227.015H44v-2zm3.97-3.23a.875.875 0 0 1-.247.869 1.057 1.057 0 0 1-.246.18 1.32 1.32 0 0 1-.345.132 1.528 1.528 0 0 1-.148.029l-.012.001a1.005 1.005 0 0 1-.087.01 3.38 3.38 0 0 1-.197.009H44v-2H46.738a2.613 2.613 0 0 1 .234.017l.012.002a1.506 1.506 0 0 1 .591.222 1.181 1.181 0 0 1 .197.171.965.965 0 0 1 .148.222c.02.043.037.088.05.135zM53.98 7H54v23.333a4.53 4.53 0 0 1-.958 2.782l-.047.06a4.915 4.915 0 0 1-.141.167l-.047.053a4.923 4.923 0 0 1-.141.148l-.047.047-.047.046-.047.044c-.015.014-.031.03-.047.043a4.906 4.906 0 0 1-.282.237l-.046.036-.047.035-.047.035c-.016.01-.032.022-.047.033-.016.01-.032.022-.047.033l-.047.031-.047.032-.047.03-.047.03a4.577 4.577 0 0 1-.141.083l-.047.027-.047.026-.047.025-.047.025-.047.024-.047.024-.047.022-.047.023-.047.021-.047.021-.046.02-.047.02-.047.02-.047.018-.047.018-.047.018-.047.017-.047.017-.047.015-.047.016-.047.015-.047.014-.047.014-.047.014-.047.013-.047.012-.047.012-.047.012-.047.01-.047.011-.047.01-.047.01-.046.009-.047.009-.047.008-.047.008-.047.007-.047.007-.047.006c-.016.002-.031.005-.047.006l-.047.006-.047.005-.047.004-.047.004-.047.004-.047.004-.047.002-.047.003-.047.002-.047.002h-.047l-.047.001h-.047l-.01.001H42v-9.514H49.614l.047-.001.047-.001.047-.002.047-.002.047-.003.047-.003.047-.004.047-.004.047-.004.047-.005.046-.006.047-.006.047-.006.047-.007.047-.008.047-.008.047-.009.047-.009.047-.01.047-.01.047-.01a3.722 3.722 0 0 0 .188-.05l.047-.015a3.1 3.1 0 0 0 .14-.046l.048-.017.047-.018.047-.018a3.057 3.057 0 0 0 .75-.44 2.369 2.369 0 0 0 .376-.392 2.084 2.084 0 0 0 .282-.529 1.983 1.983 0 0 0 .094-.388 2.166 2.166 0 0 0 0-.593 1.911 1.911 0 0 0-.235-.675 1.927 1.927 0 0 0-.328-.422 2.186 2.186 0 0 0-.282-.238 2.8 2.8 0 0 0-.657-.354l-.047-.018a3.643 3.643 0 0 0-.047-.017l-.047-.017a4.278 4.278 0 0 0-.188-.06l-.047-.012-.047-.013a3.735 3.735 0 0 0-.235-.054l-.047-.01-.047-.008-.047-.008a3.718 3.718 0 0 0-.047-.008l-.047-.007a3.834 3.834 0 0 0-.047-.006l-.047-.006-.046-.006-.047-.005-.047-.005-.047-.004-.047-.004-.044-.003v-.054l.044-.006.047-.008.047-.008.047-.008.047-.01.046-.01a3.439 3.439 0 0 0 .564-.174 2.776 2.776 0 0 0 .563-.321 2.256 2.256 0 0 0 .376-.362 2.004 2.004 0 0 0 .329-.592 1.926 1.926 0 0 0 .105-.643 2.196 2.196 0 0 0-.058-.498 1.87 1.87 0 0 0-.329-.684 1.843 1.843 0 0 0-.282-.296 2.243 2.243 0 0 0-.422-.289 2.495 2.495 0 0 0-.282-.133 3.472 3.472 0 0 0-.329-.114l-.047-.013a3.574 3.574 0 0 0-.094-.025l-.047-.011a3.573 3.573 0 0 0-.093-.021l-.047-.01-.047-.009-.047-.008-.047-.008-.047-.008-.047-.007-.047-.006-.047-.006-.047-.005-.047-.005-.047-.005-.047-.004-.047-.003-.047-.003-.047-.003h-.018l-.029-.002-.047-.003-.047-.003-.047-.002-.047-.002-.046-.002-.047-.002-.047-.001-.047-.001H42v-4.847a4.503 4.503 0 0 1 .853-2.64c.015-.021.03-.043.047-.064a4.941 4.941 0 0 1 .093-.122l.047-.058.047-.056a4.25 4.25 0 0 1 .047-.055l.047-.053.047-.051.047-.05a5.09 5.09 0 0 1 .094-.096l.047-.046.047-.045.047-.044.047-.041.047-.042.047-.04a5.149 5.149 0 0 1 .188-.15l.047-.036.047-.035a5.067 5.067 0 0 1 .093-.066l.047-.032.047-.032.047-.03.047-.03.047-.029.047-.028.047-.028.047-.026.047-.027.047-.025.047-.025.047-.024.047-.024.047-.022.047-.023.047-.022.047-.02c.015-.008.03-.015.047-.021.015-.007.03-.014.047-.02l.047-.02.046-.018.047-.019.047-.018.047-.017.047-.017.047-.015.047-.016.047-.015.047-.015.047-.014.047-.013.047-.014.047-.012.047-.012.047-.012.047-.011.047-.01c.015-.004.031-.008.047-.01l.047-.01.047-.01.047-.009.047-.008.046-.008.047-.007.047-.007.047-.007.047-.006.047-.005.047-.006.047-.005.047-.004.047-.004.047-.003.047-.003c.016 0 .031-.002.047-.003.016 0 .031 0 .047-.002l.047-.001L46.75 7h.094L46.855 7H53.981z"/>
        <path fill="#006CB9" d="M16 23.192V11.667a4.502 4.502 0 0 1 .85-2.637l.048-.065.046-.061.047-.06.047-.059.047-.056a4.528 4.528 0 0 1 .094-.108l.047-.05c.015-.018.03-.034.047-.051l.046-.048a4.564 4.564 0 0 1 .094-.094l.047-.044.047-.044.047-.042c.015-.014.03-.028.047-.041.015-.014.03-.027.047-.04l.046-.04.047-.038a4.477 4.477 0 0 1 .235-.177l.047-.033a4.45 4.45 0 0 1 .187-.123l.047-.03.047-.027c.015-.01.031-.02.047-.028.015-.01.03-.018.047-.027l.046-.026.047-.025.047-.026.047-.024.047-.023.047-.023.047-.022.047-.022.046-.021.047-.021.047-.02.047-.02.047-.018.047-.019.047-.017.047-.018.046-.017.047-.015.047-.016.047-.015.047-.015.047-.014.047-.014.047-.013.046-.012.047-.013.047-.011.047-.011.047-.011.047-.01.047-.01.047-.01.046-.008.047-.009.047-.008.047-.007.047-.007.047-.007.047-.006.047-.006.047-.005.046-.005.047-.004.047-.004.047-.003.047-.003.047-.003.047-.002.047-.002.046-.002h.094L20.882 7H28v23.333a4.524 4.524 0 0 1-.462 1.986 4.531 4.531 0 0 1-.562.879 5.102 5.102 0 0 1-.188.217c-.015.017-.03.034-.047.05l-.046.05-.047.047a4.855 4.855 0 0 1-.188.178c-.015.014-.03.028-.047.041-.015.014-.03.027-.047.04l-.046.04-.047.038-.047.038-.047.037-.047.036-.047.034c-.015.011-.03.023-.047.034l-.047.033-.046.033-.047.03-.047.032-.047.03-.047.029-.047.028-.047.028c-.015.01-.031.018-.047.027l-.046.026c-.016.01-.032.018-.047.026a4.289 4.289 0 0 1-.094.05l-.047.023-.047.024-.047.022-.047.022-.046.021-.047.021-.047.02-.047.02-.047.019-.047.018c-.015.006-.031.013-.047.018l-.047.018-.046.017-.047.016-.047.016-.047.015-.047.015-.047.014-.047.014-.047.013-.046.013-.047.012-.047.012-.047.011-.047.011-.047.01-.047.01-.047.01-.046.009-.047.008-.047.008-.047.008-.047.007-.047.007-.047.006-.047.006-.046.005-.047.005-.047.005-.047.004c-.016 0-.031.002-.047.004l-.047.002-.047.003-.047.003-.046.001-.047.002h-.047l-.047.001-.044.001H16v-9.835s.035.01.1.025l.048.012.046.01.047.011.047.011.047.01.047.01.047.01.047.01.047.01.046.01.047.01.047.01.047.009.047.01.047.008.047.01.047.008.046.009.047.009.047.008.047.009.047.008.047.008.047.008.047.008.046.008.047.008.047.008.047.007.047.008.047.007.047.007.047.007.046.007.047.007.047.007.047.007.047.007.047.006.047.007.047.006.046.007.047.006.047.006.047.006.047.006.047.006.047.005.047.006.046.005.047.006.047.005.047.005.047.005.047.005.047.005.047.005.046.005.047.005.047.004.047.005.047.004.047.004.047.004.047.005.046.003.047.004.047.004.047.004.047.003.047.004.047.003.047.003.046.004.047.003.047.003.047.003.047.002.047.003.047.003.047.002.046.002.047.003.047.002.047.002.047.002.047.002.047.002.047.001.047.002.046.001.047.002.047.001.047.001.047.001.047.001h.047l.047.002h.093l.047.001H21.21l.047-.001h.047l.047-.002h.047l.047-.002.046-.001.047-.001.047-.002.047-.001.047-.002.047-.002.047-.002.047-.002.046-.003.047-.002.047-.003.047-.003.047-.003.047-.003.047-.003.047-.003.046-.004.047-.004.047-.004.047-.004.047-.004.047-.004.047-.005.047-.005.046-.005.047-.005.047-.005.047-.005.047-.006.047-.006.047-.006.047-.006.046-.007.047-.007.047-.007.047-.007.047-.007.047-.008.047-.007.047-.009.046-.008.047-.009.047-.008.047-.01.047-.009.047-.01.047-.01.047-.01.046-.01.047-.01.047-.012.047-.01.047-.013.047-.012.047-.012.047-.012.046-.013.047-.014.047-.013.047-.014.047-.015.047-.015.047-.015.047-.015.046-.016.047-.017.047-.016.047-.018.047-.018.047-.018.047-.019.047-.019.046-.02.047-.02.047-.02.047-.023.047-.021.047-.023.047-.024.047-.024a4.494 4.494 0 0 0 .14-.076l.047-.027.047-.028.047-.029.047-.03.047-.03.046-.032c.016-.01.032-.022.047-.033a3.457 3.457 0 0 0 .188-.143l.047-.038.047-.04.046-.042a3.02 3.02 0 0 0 .094-.09l.047-.047.047-.05a2.945 2.945 0 0 0 .656-1.143 3.344 3.344 0 0 0 .094-.378 4.504 4.504 0 0 0 .07-.787v-5.415H22.851l-.036 5.415a2.733 2.733 0 0 1-.058.554 2.33 2.33 0 0 1-.187.53 2.037 2.037 0 0 1-.844.872 2.511 2.511 0 0 1-.61.244c-.015.004-.03.009-.046.012a2.945 2.945 0 0 1-.282.057l-.047.006a3.626 3.626 0 0 1-.093.012l-.047.005-.047.004-.047.004a3.738 3.738 0 0 1-.094.006l-.047.002-.046.002h-.047l-.047.001H20.085l-.047-.002h-.047l-.047-.002-.046-.002-.047-.002-.047-.003-.047-.002-.047-.003-.047-.003-.047-.004-.047-.004-.046-.004-.047-.004-.047-.005-.047-.004-.047-.006-.047-.005-.047-.006-.047-.006-.046-.006-.047-.006-.047-.007-.047-.007-.047-.007-.047-.008-.047-.008-.047-.008-.046-.008-.047-.009-.047-.009-.047-.009-.047-.01-.047-.009-.047-.01-.047-.01-.046-.01-.047-.01-.047-.012-.047-.01-.047-.012-.047-.012-.047-.012-.047-.012-.046-.012-.047-.013-.047-.013-.047-.013-.047-.013-.047-.014-.047-.013-.047-.014-.046-.015-.047-.014-.047-.015-.047-.015-.047-.015-.047-.015-.047-.016-.047-.016-.046-.016-.047-.016-.047-.017-.047-.016-.047-.017-.047-.017-.047-.018-.047-.017-.046-.018-.047-.018-.047-.018-.047-.019-.047-.018-.047-.02-.047-.018-.047-.02-.046-.02-.047-.019-.047-.02-.047-.02-.047-.02-.047-.02-.047-.021-.047-.021-.046-.021-.047-.021-.101-.047z"/>
        <path fill="#E10238" d="M29.1 17.696a4.375 4.375 0 0 0-.1.08v-6.109a4.503 4.503 0 0 1 .85-2.636l.048-.065.046-.062.047-.06.047-.059.047-.055a4.584 4.584 0 0 1 .094-.108l.047-.051c.015-.017.03-.034.047-.05a4.661 4.661 0 0 1 .14-.142l.047-.045.047-.044.047-.041.047-.042a4.214 4.214 0 0 1 .094-.08l.046-.037a5.606 5.606 0 0 1 .328-.243 5.592 5.592 0 0 1 .141-.09l.047-.03.047-.028.047-.028.047-.027.046-.026.047-.025.047-.025.047-.024.047-.024.047-.023.047-.022.047-.022.046-.021.047-.021.047-.02.047-.02.047-.018.047-.019.047-.017c.015-.006.03-.012.047-.017l.046-.018.047-.015.047-.016.047-.015.047-.015.047-.014.047-.014.047-.013.046-.012.047-.013.047-.011.047-.011.047-.011.047-.01.047-.01.047-.01.046-.008.047-.009.047-.008.047-.007.047-.007.047-.007.047-.006.047-.006.046-.005.047-.005.047-.004.047-.004.047-.003.047-.003.047-.003.047-.002.046-.002.047-.002h.094l.02-.001H41v23.333a4.52 4.52 0 0 1-.79 2.55c-.015.022-.03.045-.047.067a4.882 4.882 0 0 1-.234.304l-.047.056-.047.053a4.615 4.615 0 0 1-.047.052l-.047.05-.046.049-.047.048-.047.046a4.752 4.752 0 0 1-.094.089l-.047.042-.047.042c-.015.014-.03.027-.047.04l-.046.04-.047.038-.047.038-.047.036-.047.036-.047.035c-.015.011-.03.023-.047.034l-.047.033-.046.032-.047.032-.047.03-.047.03-.047.03-.047.028-.047.028-.047.027-.046.026a5.086 5.086 0 0 1-.047.026l-.047.025-.047.024-.047.024-.047.023-.047.023-.047.022-.046.021-.047.021-.047.02-.047.02-.047.019-.047.018-.047.018c-.015.006-.03.012-.047.017l-.046.018-.047.016-.047.016-.047.015-.047.015-.047.014-.047.014-.047.013-.046.013a4.108 4.108 0 0 1-.047.012l-.047.012-.047.011-.047.011-.047.01-.047.01-.047.01-.046.009-.047.008-.047.008-.047.008-.047.007-.047.007-.047.006-.047.006-.046.005-.047.005-.047.005-.047.004c-.016 0-.031.002-.047.004l-.047.002-.047.003-.047.003-.046.001-.047.002h-.047l-.047.001-.044.001H29V24.225a4.477 4.477 0 0 0 .194.151l.047.035c.016.01.031.022.047.033a4.813 4.813 0 0 0 .094.063l.047.031.047.03.047.03.046.028.047.028.047.028.047.026.047.026.047.026.047.025.047.024.046.024.047.023.047.023.047.022.047.022.047.022.047.02.047.02.046.02.047.02.047.02.047.018.047.019.047.018.047.018.047.017.046.017.047.016.047.016.047.016.047.016.047.015.047.015c.015.005.03.01.047.014l.046.015.047.013.047.014.047.013.047.014.047.012.047.013.047.012.046.012.047.012.047.011.047.012.047.01.047.012.047.01.047.01.046.01.047.01.047.01.047.009.047.01.047.008.047.009.047.008.046.009.047.008.047.008.047.007.047.008.047.007.047.008.047.006.046.007.047.007.047.006.047.007.047.005.047.006.047.006.047.006.046.005.047.005.047.005.047.005.047.005.047.005.047.004.047.004.046.005.047.004.047.003.047.004.047.004.047.003.047.003.047.003.046.003.047.003.047.003.047.003.047.002.047.002.047.003.047.002.046.002.047.002.047.001.047.002.047.001.047.002.047.001.047.001.046.001.047.001h.047l.047.002H34.726l.047.001H35.054l.047-.001.047-.001h.047l.046-.002h.047l.047-.001.047-.002h.047l.047-.002.047-.001.046-.002.047-.002.047-.001.047-.002.047-.002.047-.002h.023l.024-.002.047-.002.047-.002.046-.003.047-.003.047-.002.047-.003.047-.003.047-.004.047-.003.047-.004.046-.003.047-.004.047-.004.047-.004.047-.004.047-.005.047-.004.047-.005.046-.005.047-.004.047-.005.047-.005.047-.006.047-.005.047-.005.047-.006.046-.005.047-.006.047-.006.047-.006.047-.006.047-.006.047-.006.047-.007.046-.006.047-.007.047-.007.047-.006.047-.007.047-.007.047-.007.047-.007.046-.008.047-.007.047-.007.047-.008.047-.007.047-.008.047-.008.047-.008.046-.008.047-.008.047-.008.047-.008.047-.009.047-.008.047-.009.047-.008.046-.009.047-.009.047-.008.047-.01.047-.008.047-.01.047-.009.047-.009.046-.01.047-.009.047-.01.047-.01.047-.009.047-.01.047-.01.047-.01.046-.01.047-.01.047-.01.047-.011.047-.01.047-.012.046-.01v-1.975l-.046.022-.047.023-.047.022-.047.021-.047.022-.047.021-.046.022-.047.02-.047.021-.047.02-.047.021-.047.02-.047.02-.047.02-.046.019-.047.019-.047.019-.047.019-.047.018-.047.018-.047.018-.047.018-.046.017-.047.017-.047.017-.047.017-.047.016-.047.016-.047.016-.047.016-.046.015-.047.015-.047.015-.047.015-.047.014-.047.014-.047.014-.047.014-.046.013-.047.013-.047.013-.047.013-.047.012-.047.012-.047.012-.047.011-.046.011-.047.011-.047.011-.047.01-.047.011-.047.01-.047.01-.047.01-.046.009-.047.009-.047.008-.047.009-.047.008-.047.008-.047.008-.047.008-.046.007-.047.007-.047.007-.047.006-.047.007-.047.006-.047.005-.047.006-.046.005-.047.005-.047.005-.047.005-.047.004-.047.004-.047.004-.047.004-.028.002-.018.001-.047.003-.047.003-.047.003-.047.002-.047.002-.047.002-.047.001-.047.001h-.046l-.047.001H35.335l-.047-.002h-.047l-.046-.003-.047-.001-.047-.003-.047-.003-.047-.003-.047-.003-.047-.004-.047-.004-.047-.005-.046-.005-.047-.006-.047-.006-.047-.006-.047-.007-.047-.007-.047-.008-.047-.008-.046-.008-.047-.01-.047-.01-.047-.01-.047-.01-.047-.012-.047-.011-.047-.013-.046-.012a4.249 4.249 0 0 1-.141-.043l-.047-.015-.047-.016-.047-.017-.047-.018-.046-.017-.047-.02-.047-.02-.047-.02-.047-.021a3.563 3.563 0 0 1-.094-.045l-.047-.024-.046-.026-.047-.025a3.51 3.51 0 0 1-.094-.056l-.047-.029-.047-.03a2.898 2.898 0 0 1-.187-.136l-.047-.037a2.759 2.759 0 0 1-.14-.124l-.048-.044a2.619 2.619 0 0 1-.28-.325 2.674 2.674 0 0 1-.33-.582 2.992 2.992 0 0 1-.14-.423 3.416 3.416 0 0 1-.093-.544 4.2 4.2 0 0 1 .046-1.138 3.426 3.426 0 0 1 .141-.515 3.015 3.015 0 0 1 .188-.411 2.767 2.767 0 0 1 .468-.617 2.735 2.735 0 0 1 .141-.13l.047-.039.047-.037a3.118 3.118 0 0 1 .093-.07l.047-.034.047-.031.047-.031.047-.03a2.896 2.896 0 0 1 .094-.055l.047-.025.046-.026.047-.023a3.59 3.59 0 0 1 .094-.046l.047-.021.047-.02.047-.02.047-.02.046-.017.047-.018.047-.017.047-.016.047-.015a4.261 4.261 0 0 1 .14-.043l.047-.012.047-.013.047-.012.047-.01.047-.011.047-.01.047-.01.047-.01.046-.008.047-.009.047-.007.047-.007.047-.007.047-.007.047-.005.047-.006.046-.005.047-.005.047-.004.047-.004.047-.003.047-.003.047-.003.047-.003c.015 0 .03 0 .047-.002l.046-.001.047-.002h.047l.047-.001h.187l.047.002.047.001.047.002.047.002.047.002.047.002.047.003.047.003.018.002.028.002.047.003.047.004.047.004.047.005.047.004.047.005.047.005.046.005.047.006.047.006.047.006.047.006.047.006.047.007.047.007.046.007.047.008.047.007.047.008.047.008.047.009.047.008.047.01.046.009.047.009.047.01.047.01.047.01.047.01.047.011.047.011.046.011.047.012.047.012.047.011.047.013.047.012.047.013.047.013.046.013.047.014.047.014.047.014.047.014.047.015.047.015.047.015.046.015.047.016.047.016.047.016.047.017.047.016.047.017.047.018.046.017.047.018.047.018.047.018.047.019.047.018.047.02.047.019.046.02.047.019.047.02.047.02.047.02.047.021.047.021.047.021.046.022.047.021.047.022.047.022.047.022.047.023.046.022v-1.975l-.046-.011-.047-.011-.047-.01-.047-.011-.047-.01-.047-.011-.046-.01-.047-.01-.047-.01-.047-.01-.047-.01-.047-.01-.047-.01-.047-.009-.046-.01-.047-.008-.047-.01-.047-.009-.047-.009-.047-.009-.047-.008-.047-.01-.046-.008-.047-.009-.047-.008-.047-.008-.047-.009-.047-.008-.047-.008-.047-.008-.046-.008-.047-.008-.047-.008-.047-.007-.047-.008-.047-.008-.047-.007-.047-.007-.046-.007-.047-.008-.047-.007-.047-.007-.047-.006-.047-.007-.047-.007-.047-.006-.046-.007-.047-.006-.047-.007-.047-.006-.047-.006-.047-.006-.047-.005-.047-.006-.046-.006-.047-.005-.047-.006-.047-.005-.047-.005-.047-.005-.047-.005-.047-.005-.046-.005-.047-.004-.047-.005-.047-.004-.047-.004-.047-.004-.047-.004-.047-.004-.046-.004-.047-.003-.047-.004-.047-.003-.047-.003-.047-.003-.047-.003-.047-.002-.046-.003-.047-.002-.047-.002-.024-.001-.023-.001-.047-.002-.047-.002-.047-.002-.047-.002-.047-.001-.046-.002-.047-.001-.047-.001-.047-.001-.047-.002h-.047l-.047-.001-.046-.001-.047-.001H35.1l-.047-.001h-.094l-.047-.001H34.68l-.047.001h-.047l-.047.001-.047.001h-.047l-.046.002-.047.001-.047.001-.047.002-.047.001-.047.002-.047.001-.047.002-.046.002-.047.002-.047.003-.047.002-.047.002-.047.003-.047.003-.047.003-.046.003-.047.003-.047.003-.047.003-.047.004-.047.004-.047.003-.047.004-.046.005-.047.004-.047.004-.047.005-.047.005-.047.005-.047.005-.047.005-.046.005-.047.006-.047.006-.047.006-.047.006-.047.006-.047.006-.047.007-.046.007-.047.007-.047.007-.047.007-.047.008-.047.007-.047.008-.047.008-.046.009-.047.008-.047.01-.047.008-.047.01-.047.008-.047.01-.047.01-.046.01-.047.01-.047.01-.047.012-.047.01-.047.012-.047.011-.047.012-.046.012-.047.012-.047.013-.047.013-.047.013-.047.013-.047.014-.047.014-.046.014-.047.015-.047.015-.047.015-.047.015-.047.016-.047.016-.047.017-.046.017-.047.017-.047.018-.047.018-.047.018-.047.019-.047.019-.047.02-.046.02-.047.02-.047.02-.047.022-.047.022-.047.023-.047.022-.047.024-.046.024-.047.024-.047.025a4.968 4.968 0 0 0-.047.025l-.047.026-.047.027-.047.028-.047.027a5.43 5.43 0 0 0-.046.03l-.047.029-.047.03-.047.03a5.537 5.537 0 0 0-.094.064l-.047.033a4.925 4.925 0 0 0-.14.105z"/>
    </g>
</svg>
