<svg xmlns="http://www.w3.org/2000/svg" width="70" height="42" viewBox="0 0 70 42">
    <g fill="none" fill-rule="evenodd">
        <rect width="70" height="42" fill="#F5F6F7" rx="2"/>
        <path fill="#C00" d="M59 21c0 7.733-6.267 14-14 14-7.732 0-14-6.267-14-14 0-7.732 6.268-14 14-14 7.733 0 14 6.268 14 14"/>
        <path fill="#06C" d="M33.986 29.89a13.9 13.9 0 0 1-1.066-1.482h4.962c.298-.475.566-.97.807-1.483h-6.575c-.224-.48-.424-.974-.593-1.482h7.76c.467-1.396.719-2.89.719-4.443 0-1.017-.108-2.01-.314-2.964h-8.57c.109-.506.246-1 .407-1.483h7.756a14.076 14.076 0 0 0-.592-1.482h-6.572c.24-.512.51-1.006.807-1.483h4.958a14.148 14.148 0 0 0-1.066-1.481h-2.826c.435-.528.907-1.023 1.413-1.482A13.95 13.95 0 0 0 26.001 7C18.268 7 12 13.268 12 21c0 7.733 6.268 14 14 14 3.618 0 6.917-1.372 9.401-3.624.507-.46.98-.956 1.414-1.485h-2.829"/>
        <path fill="#006" d="M34.401 24.767a5.888 5.888 0 0 1-1.655.233C30.94 24.998 30 24.115 30 22.425 30 20.452 31.197 19 32.822 19c1.33 0 2.178.814 2.178 2.09 0 .422-.057.835-.198 1.417h-3.211c-.114.826.446 1.188 1.401 1.188.572 0 1.09-.11 1.662-.358l-.253 1.43zM33.985 21c0-.12.199-.981-.837-1-.572 0-.982.356-1.148 1h1.985zM36.685 20.956c0 .729.42 1.233 1.378 1.608.732.292.847.377.847.638 0 .362-.323.527-1.041.523a6.073 6.073 0 0 1-1.612-.225L36 24.83c.516.117 1.24.155 1.881.17 1.911 0 2.793-.61 2.793-1.928 0-.793-.368-1.26-1.275-1.607-.759-.295-.848-.359-.848-.626 0-.315.301-.473.887-.473.355 0 .842.031 1.303.086L41 19.115A14.398 14.398 0 0 0 39.403 19c-2.024 0-2.725.888-2.718 1.956M29.28 24.905h-1.582l.037-.606c-.482.478-1.124.701-1.996.701C24.707 25 24 24.354 24 23.426c0-1.41 1.229-2.225 3.342-2.225.217 0 .493.015.777.044.058-.189.074-.27.074-.372 0-.387-.332-.529-1.221-.529a7.937 7.937 0 0 0-2.017.257l.27-1.295c.95-.22 1.57-.306 2.274-.306 1.636 0 2.5.587 2.5 1.69.014.294-.098.885-.155 1.144-.064.376-.517 2.557-.565 3.071zM28 22.016a5.71 5.71 0 0 0-.414-.016c-1.053 0-1.586.2-1.586.596 0 .249.26.404.666.404.756 0 1.302-.405 1.334-.984zM43.308 24.82c-.418.125-.745.18-1.097.18-.782 0-1.209-.438-1.209-1.217-.024-.214.167-1.203.21-1.478.043-.277.72-4.305.72-4.305h1.519l-.23 1.333H44l-.212 1.36h-.782s-.43 2.361-.43 2.542c0 .286.16.41.523.41.174 0 .308-.017.412-.051l-.203 1.226M51.236 19.01c-1.279 0-2.278.519-2.858 1.385l.503-1.285c-.928-.336-1.526.143-2.067.825 0 0-.09.113-.18.216v-1.01h-1.639c-.222 1.782-.614 3.59-.92 5.376l-.075.389h1.762c.167-.907.305-1.642.441-2.23.375-1.608 1.005-2.1 1.95-1.883a3.702 3.702 0 0 0-.338 1.591c0 1.439.793 2.616 2.761 2.616C52.562 25 54 23.954 54 21.57c0-1.438-.958-2.56-2.764-2.56zm-.4 3.99c-.52.009-.836-.47-.836-1.189 0-.85.46-1.811 1.2-1.811.596 0 .8.52.8 1.074 0 1.21-.451 1.926-1.165 1.926z"/>
        <path fill="#006" d="M23.621 25h-1.75l1.04-5.381L20.517 25h-1.595l-.291-5.35L17.587 25H16l1.352-7h2.734l.228 3.902L22.046 18H25l-1.379 7"/>
        <path fill="#FFF" d="M35.4 24.767a5.876 5.876 0 0 1-1.654.233C31.94 24.998 31 24.115 31 22.425 31 20.452 32.197 19 33.822 19c1.33 0 2.178.814 2.178 2.089 0 .423-.058.835-.198 1.418h-3.21c-.115.825.445 1.188 1.4 1.188.572 0 1.09-.11 1.662-.359l-.253 1.43zM34.986 21c0-.121.199-.981-.837-1-.572 0-.982.356-1.148 1h1.985zM36.685 20.955c0 .73.42 1.233 1.378 1.609.732.292.847.376.847.637 0 .362-.323.528-1.04.524a6.077 6.077 0 0 1-1.613-.225L36 24.83c.516.117 1.24.155 1.881.17 1.911 0 2.794-.61 2.794-1.929 0-.792-.369-1.259-1.276-1.606-.759-.295-.848-.36-.848-.626 0-.314.301-.474.887-.474.355 0 .841.033 1.303.087L41 19.115A14.19 14.19 0 0 0 39.404 19c-2.025 0-2.725.888-2.719 1.955M30.28 24.906h-1.582l.038-.606c-.483.477-1.125.7-1.997.7C25.708 25 25 24.355 25 23.426c0-1.41 1.229-2.225 3.342-2.225.217 0 .493.015.777.044.059-.189.074-.27.074-.372 0-.388-.332-.53-1.22-.53a7.93 7.93 0 0 0-2.018.258l.27-1.295c.95-.22 1.57-.306 2.274-.306 1.636 0 2.5.587 2.5 1.69.014.295-.099.884-.154 1.144-.065.376-.518 2.557-.565 3.072zM29 22.016a5.393 5.393 0 0 0-.415-.016c-1.051 0-1.585.2-1.585.595 0 .25.26.405.666.405.756 0 1.302-.405 1.334-.984zM43.308 23.82c-.419.125-.745.18-1.098.18-.781 0-1.208-.438-1.208-1.217-.025-.214.166-1.203.21-1.478.043-.277.72-4.305.72-4.305h1.519l-.23 1.333H44l-.212 1.36h-.782s-.43 2.361-.43 2.54c0 .288.159.412.523.412.173 0 .308-.017.412-.052l-.203 1.226M52 21.073c0 1.21-.452 1.927-1.165 1.927-.52.008-.835-.47-.835-1.189 0-.85.46-1.811 1.199-1.811.596 0 .801.52.801 1.073zm2 .491c0-1.44-.93-2.564-2.682-2.564C49.303 19 48 20.367 48 22.38c0 1.44.769 2.62 2.678 2.62C52.605 25 54 23.953 54 21.564z"/>
        <path fill="#FFF" d="M45.086 19.065c-.242 1.835-.67 3.696-1.005 5.534L44 25h1.923c.693-3.551.926-4.563 2.378-4.207l.699-1.68c-1.013-.346-1.665.148-2.255.85.053-.316.153-.621.129-.898h-1.788M24.621 24h-1.75l1.04-5.381L21.517 24h-1.595l-.292-5.35L18.587 24H17l1.352-7h2.734l.145 4.334L23.155 17H26l-1.379 7"/>
    </g>
</svg>
