<svg xmlns="http://www.w3.org/2000/svg" width="70" height="42" viewBox="0 0 70 42">
    <g fill="none" fill-rule="evenodd">
        <rect width="70" height="42" fill="#F5F6F7" rx="2"/>
        <path fill="#862165" d="M43.5 17a1.5 1.5 0 1 0 0-3 1.5 1.5 0 0 0 0 3zm-13.318 1.48c-.072.19-.59 1.722-1.843 3.31V15L25 15.69V28h3.339v-3.805C29.306 25.713 29.783 28 29.783 28h4c-.396-1.722-2.126-4.897-2.126-4.897 1.552-2.061 2.235-4.258 2.343-4.622h-3.818zm9.859-.477c-3.343.105-5.041 1.56-5.041 4.454V28h3.648v-4.52c0-1.733.234-2.476 2.352-2.547v-2.879c-.356-.073-.96-.05-.96-.05zm-20.972 1.782c-.422-.028-1.397-.091-1.397-.974 0-1.066 1.404-1.066 1.931-1.066.926 0 2.126.275 2.983.533 0 0 .478.17.884.343l.038.01v-2.918l-.052-.015C22.446 15.342 21.27 15 19.09 15 15.332 15 14 17.2 14 19.086c0 1.087.463 3.646 4.768 3.94.364.023 1.332.08 1.332.992 0 .753-.792 1.197-2.125 1.197-1.461 0-2.88-.374-3.74-.73v3.006c1.289.34 2.742.509 4.445.509 3.674 0 5.32-2.082 5.32-4.146 0-2.34-1.842-3.861-4.931-4.07zM42 28h3V18h-3v10zm10-12.394V28h3V15l-3 .606zm-5 0L50 15v13h-3V15.606z"/>
    </g>
</svg>
