<svg xmlns="http://www.w3.org/2000/svg" width="70" height="42" viewBox="0 0 70 42">
    <g fill="none" fill-rule="evenodd">
        <rect width="70" height="42" fill="#F5F6F7" rx="2"/>
        <path fill="#01798A" d="M56.622 6.003L44.752 6h-.003l-.027.002c-1.631.05-3.662 1.367-4.032 2.99l-5.613 25.01c-.37 1.64.636 2.973 2.255 2.998h12.47c1.594-.08 3.143-1.381 3.507-2.987l5.614-25.01c.375-1.655-.655-3-2.3-3"/>
        <path fill="#024381" d="M35.345 34.003l5.62-25.007c.37-1.624 2.403-2.941 4.035-2.991l-4.724-.003L31.764 6c-1.637.034-3.696 1.36-4.066 2.996l-5.621 25.007c-.372 1.639.637 2.972 2.257 2.997h13.269c-1.62-.025-2.628-1.358-2.258-2.997"/>
        <path fill="#DD0228" d="M21.65 34.003l5.425-25.005C27.432 7.362 29.42 6.037 31 6.003L20.476 6c-1.589 0-3.626 1.341-3.989 2.998l-5.425 25.005a3.255 3.255 0 0 0-.062.449v.464c.106 1.194.982 2.064 2.24 2.084h10.588c-1.563-.025-2.537-1.358-2.178-2.997"/>
        <path fill="#FFF" d="M32.22 24.078h.197c.18 0 .301-.069.358-.206l.51-.872h1.364l-.285.574H36l-.208.879h-1.946c-.224.385-.5.567-.832.545H32l.22-.92zm-.555.922H35l-.213.886h-1.34l-.205.856h1.305l-.213.886H33.03l-.303 1.264c-.075.211.024.306.294.285h1.064l-.197.823h-2.042c-.387 0-.52-.253-.398-.76l.387-1.612H31l.212-.886h.834l.205-.856h-.798l.212-.886zm6.064-1.98l-.053.507S38.308 23 38.881 23H41l-.81 3.258c-.068.373-.356.558-.865.558h-2.401l-.563 2.288c-.032.123.013.186.135.186h.472l-.174.71h-1.2c-.462 0-.654-.154-.578-.463l1.59-6.517h1.123zM39 24h-1.786L37 25s.297-.287.795-.298c.495-.01 1.061 0 1.061 0L39 24zm-.334 1.994c.136.032.212-.062.221-.284L39 25h-1.845l-.155.994h1.666zM37.094 27h1.232l-.023.525h.328c.166 0 .248-.052.248-.156l.097-.34H40l-.137.496c-.115.413-.422.628-.92.65h-.656l-.003.896c-.012.144.12.217.391.217h.617l-.199.71h-1.48c-.414.02-.617-.174-.613-.587L37.094 27zM22.974 18.58c-.171.776-.568 1.372-1.183 1.795-.61.416-1.395.625-2.358.625-.905 0-1.57-.213-1.993-.64-.294-.305-.44-.69-.44-1.157 0-.193.025-.4.075-.624L18.1 14h1.549l-1.012 4.527a1.356 1.356 0 0 0-.042.348.84.84 0 0 0 .187.57c.183.22.481.33.895.33.477 0 .87-.108 1.174-.326a1.48 1.48 0 0 0 .594-.922L22.459 14H24l-1.026 4.58M28.877 17H30l-.88 4H28l.877-4m.28-2H30l-.157 1H29l.157-1M31.43 19.613c-.285-.261-.429-.614-.43-1.061a2.731 2.731 0 0 1 .058-.536c.129-.618.404-1.109.827-1.47.422-.364.932-.546 1.529-.546.489 0 .876.131 1.16.394.284.264.426.62.426 1.073 0 .078-.006.168-.017.264a4.72 4.72 0 0 1-.045.284c-.126.609-.4 1.094-.823 1.45-.424.357-.932.535-1.525.535-.49 0-.877-.129-1.16-.387m2.096-.873c.2-.172.344-.433.432-.78a1.193 1.193 0 0 0 .042-.322c0-.203-.065-.36-.196-.47-.13-.113-.314-.168-.553-.168-.315 0-.572.088-.773.263-.203.176-.347.441-.438.795a3.398 3.398 0 0 0-.032.161.932.932 0 0 0-.008.152c0 .2.065.355.196.465.13.11.314.164.555.164.317 0 .574-.087.775-.26M42.528 23.992l.27-.992h1.368l-.059.364S44.806 23 45.31 23H47l-.269.992h-.266l-1.275 4.676h.266l-.253.93h-.266l-.11.402h-1.325l.11-.403H41l.255-.929h.261l1.277-4.676h-.265zm1.726.008L44 25s.435-.188.81-.241c.082-.35.19-.759.19-.759h-.746zm-1 2L43 27s.48-.255.81-.277c.095-.386.19-.723.19-.723h-.746zm.542 3L44 28h-.795L43 29h.796zM47 23h1.442l.061.65c-.01.166.071.245.242.245H49l-.258 1.103h-1.06c-.404.025-.613-.164-.632-.572L47 23zm-.461 2H51l-.262.853h-1.42l-.244.793h1.42l-.264.852h-1.58l-.358.5h.773l.18.999c.02.1.116.148.28.148h.24l-.253.823h-.85c-.441.02-.669-.116-.687-.41l-.205-.914-.704.972c-.167.274-.422.402-.767.382H45l.253-.823h.405a.558.558 0 0 0 .43-.207l1.101-1.47h-1.42l.263-.852h1.54l.246-.793h-1.543L46.54 25zM23.782 16.099h.97l-.111.563.139-.16A1.511 1.511 0 0 1 25.927 16c.408 0 .702.118.887.356.181.237.231.566.145.987L26.425 20h-.997l.483-2.408c.05-.249.036-.434-.04-.554-.077-.119-.221-.178-.43-.178a.934.934 0 0 0-.648.238c-.176.159-.293.38-.35.662L23.998 20H23l.782-3.901M35.782 16.099h.97l-.11.563.138-.16A1.514 1.514 0 0 1 37.927 16c.408 0 .703.118.886.356.181.237.233.566.145.987L38.426 20h-.998l.483-2.408c.05-.249.035-.434-.04-.554-.08-.119-.221-.178-.43-.178a.94.94 0 0 0-.648.238c-.177.159-.294.38-.349.662L35.997 20H35l.782-3.901M41.347 14h2.915c.561 0 .995.136 1.293.402.296.27.445.656.445 1.16v.015c0 .095-.006.203-.014.32a5.06 5.06 0 0 1-.057.355c-.129.667-.427 1.202-.888 1.609a2.412 2.412 0 0 1-1.64.608h-1.564L41.354 21H40l1.347-7M42 17h1.538c.401 0 .72-.082.951-.243.23-.163.383-.412.467-.75.013-.063.022-.119.032-.17.005-.05.012-.099.012-.146 0-.242-.098-.417-.294-.526-.197-.112-.504-.165-.931-.165h-1.306L42 17M52.31 21.303c-.482.998-.943 1.58-1.213 1.85-.27.269-.806.892-2.097.844l.111-.762c1.086-.325 1.674-1.792 2.009-2.441l-.4-4.783.84-.011h.705l.076 3 1.321-3H55l-2.69 5.303"/>
        <path fill="#FFF" d="M49.77 17.11l-.522.336c-.546-.4-1.044-.647-2.005-.23-1.31.57-2.404 4.932 1.201 3.495l.206.228 1.418.034L51 17.01l-1.23.1m-.904 2.075c-.273.542-.883.9-1.361.799-.478-.1-.649-.623-.372-1.167.273-.543.887-.9 1.361-.799.478.1.65.623.372 1.167"/>
    </g>
</svg>
