<svg xmlns="http://www.w3.org/2000/svg" width="70" height="42" viewBox="0 0 70 42">
    <g fill="none" fill-rule="evenodd">
        <rect width="70" height="42" fill="#F5F6F7" rx="2"/>
        <path fill="#26337A" d="M29 27l2.31-13H35l-2.309 13H29M45 14.569A7.904 7.904 0 0 0 42.014 14c-3.295 0-5.615 1.84-5.634 4.476-.02 1.95 1.655 3.037 2.919 3.685 1.298.664 1.735 1.089 1.73 1.683-.01.908-1.037 1.324-1.995 1.324-1.334 0-2.043-.205-3.14-.71l-.428-.217L35 27.277c.777.378 2.218.706 3.713.723 3.502 0 5.777-1.818 5.804-4.633.012-1.546-.876-2.717-2.8-3.685-1.164-.629-1.88-1.045-1.87-1.682 0-.563.603-1.167 1.908-1.167a5.615 5.615 0 0 1 2.494.521l.3.155.451-2.94M49 23c.3-.767 1.44-3.728 1.44-3.728-.022.036.297-.772.48-1.272l.244 1.15s.693 3.183.836 3.85h-3zm4.296-9h-2.582c-.801 0-1.4.23-1.752 1.078L44 27h3.51s.572-1.604.702-1.956l4.28.007c.1.454.407 1.949.407 1.949H56l-2.704-13zM26.396 14l-3.328 8.878-.357-1.805c-.62-2.079-2.551-4.333-4.711-5.462L21.045 27l3.6-.002L30 14h-3.604"/>
        <path fill="#ED982D" d="M19.353 14h-5.31l-.043.267c4.132 1.066 6.865 3.64 8 6.733l-1.154-5.914c-.199-.816-.777-1.057-1.493-1.086"/>
    </g>
</svg>
