<svg xmlns="http://www.w3.org/2000/svg" width="70" height="42" viewBox="0 0 70 42">
    <g fill="none" fill-rule="evenodd">
        <rect width="70" height="42" fill="#F5F6F7" rx="2"/>
        <path fill="#045EA0" d="M52.016 28.07h.688v.21c.158-.15.399-.28.644-.28.423 0 .652.226.652.755 0 .395-.004.82-.008 1.245h-.688c.004-.372.008-.747.008-1.145 0-.158-.043-.28-.249-.28-.11 0-.269.092-.36.176L52.7 30H52l.016-1.93M50.5 28c.99 0 1.5.656 1.5 1.5s-.51 1.5-1.5 1.5-1.5-.656-1.5-1.5.51-1.5 1.5-1.5zm0 3c.384 0 .5-.521.5-1 0-.478-.116-1-.5-1s-.5.522-.5 1c0 .479.116 1 .5 1zM47.022 28.054h.954v.274h.01a.84.84 0 0 1 .702-.328c.104 0 .213.008.312.023l-.126.664a1.542 1.542 0 0 0-.34-.038c-.317 0-.564.189-.564.227L47.953 30H47l.022-1.946M45.02 27.74h.404L45.42 27h.862l-.02.74h.733l-.015.546h-.734c0 .303-.026.623-.026.81 0 .19.057.28.257.28.123 0 .226-.051.328-.103l.195.51c-.262.135-.58.217-.882.217-.723 0-.76-.385-.76-.887 0-.269.026-.537.026-.827H45l.02-.545M45 30.711a1.452 1.452 0 0 1-.804.289C43.5 31 43 30.49 43 29.567c0-.945.495-1.567 1.244-1.567.26 0 .574.106.743.245l-.244.633a.774.774 0 0 0-.356-.111c-.378 0-.63.289-.63.75 0 .4.243.716.565.716.143 0 .287-.082.408-.16l.27.638M41.893 30.583c-.226.279-.57.417-.876.417-.7 0-1.017-.722-1.017-1.439 0-.844.436-1.561 1.036-1.561.735 0 .964.756.964 1.717h-1.335c0 .216.096.583.463.583.233 0 .363-.1.543-.277l.222.56zM42 30c0-.526-.13-1-.435-1-.288 0-.507.495-.565 1h1zM39 27h.996L40 31h-.996L39 27M36 27h2v.625h-1.243l-.008.576h1.238v.598h-1.242l.004.576h1.226V30H36L36 27"/>
        <path fill="#0161AB" d="M55 24a1 1 0 1 1 2 0 1 1 0 0 1-2 0zm.999 1a1 1 0 1 0 .003-2 1 1 0 0 0-.003 2zm.287 0H56v-1h.518c.109 0 .218.001.314.05a.29.29 0 0 1 .155.25c0 .114-.08.22-.211.26L57 25h-.318l-.186-.396h-.21V25zM56 24.224h.113c.042 0 .088.004.125-.016a.122.122 0 0 0 .051-.102.111.111 0 0 0-.05-.089c-.035-.021-.092-.017-.13-.017H56v.224z"/>
        <path fill="#0066B2" d="M50.903 25l-.396-2.08H46.22L45.516 25H42l5.03-12.957S47.336 11 48.588 11H51.3L54 25h-3.097zM47 20h3l-1.08-5L47 20zM42.522 14.494L43 11.59S41.527 11 39.992 11c-1.66 0-5.602.764-5.602 4.477 0 3.495 4.627 3.539 4.627 5.373 0 1.835-4.15 1.507-5.52.35L33 24.236s1.493.764 3.776.764c2.282 0 5.726-1.245 5.726-4.63 0-3.517-4.668-3.845-4.668-5.374 0-1.529 3.258-1.332 4.688-.502M30.692 25H27l2.307-14H33l-2.308 14M15.758 13.144L18.737 25h3.665L28 11h-3.787l-3.353 9.63-.398-2.074-1.184-6.295S19.136 11 17.61 11h-5.545l-.033.12-.029.117H12l.032-.116z"/>
        <path fill="#F9A533" d="M20 18l-1.12-5.832S18.747 11 17.304 11h-5.242l-.061.22s2.52.53 4.937 2.515C19.247 15.635 20 18 20 18"/>
    </g>
</svg>
