<?xml version="1.0" encoding="utf-8"?>
<!-- Generator: Adobe Illustrator 26.0.1, SVG Export Plug-In . SVG Version: 6.00 Build 0)  -->
<svg version="1.2" baseProfile="tiny" id="Layer_1" xmlns="http://www.w3.org/2000/svg" xmlns:xlink="http://www.w3.org/1999/xlink"
	 x="0px" y="0px" viewBox="0 0 107 32" overflow="visible" xml:space="preserve">
<g>
	<path fill="#FFFFFF" d="M31.7,3.3c0.7,0,1.2,0.6,1.2,1.2V21h8.5c0.7,0,1.2,0.5,1.2,1.1s-0.5,1.1-1.2,1.1h-9.7
		c-0.4,0.1-0.7-0.1-1-0.3c-0.3-0.3-0.4-0.6-0.4-1V4.5c0-0.3,0.1-0.6,0.4-0.8C31,3.4,31.4,3.3,31.7,3.3z"/>
	<path fill="#FFFFFF" d="M55.9,8.7c0.3,0,0.6,0.1,0.8,0.3c0.2,0.2,0.4,0.5,0.4,0.8c0,0.1,0,0.3-0.1,0.4l-6.8,15.8
		c-0.9,2.1-2.4,2.9-4.4,2.9c-0.2,0-0.4,0-0.7-0.1c-0.5,0-0.9-0.4-1-1c0-0.3,0.1-0.6,0.4-0.7c0.2-0.2,0.5-0.3,0.8-0.3
		c0.1,0,0.2,0,0.4,0c1,0,1.7-0.3,2.2-1.5l0.9-2.2l-5.5-13.1c-0.1-0.1-0.1-0.3-0.1-0.4c0-0.3,0.1-0.6,0.3-0.8
		c0.2-0.2,0.5-0.3,0.8-0.3c0.4,0,0.9,0.3,1.1,0.7l4.6,11.2l4.6-11.2C55.1,9,55.5,8.7,55.9,8.7z"/>
	<path fill="#FFFFFF" d="M62.1,3.4c0.6,0,1.1,0.5,1.2,1v12.2l8-7.5c0.2-0.2,0.4-0.3,0.7-0.3c0.6,0,1,0.5,1,1c0,0.3-0.1,0.5-0.3,0.7
		l-5.3,5l5.5,6c0.1,0.2,0.3,0.5,0.3,0.8c0,0.5-0.3,0.9-0.7,1c-0.4,0.1-0.9,0.1-1.3-0.3l-5.4-6.2L63.2,19v3.1c-0.1,0.6-0.5,1-1.2,1
		s-1.1-0.5-1.2-1V4.4C61,3.8,61.5,3.4,62.1,3.4z"/>
	<path fill="#FFFFFF" d="M78.7,3.4c0.6,0,1.1,0.5,1.2,1v12.2l8-7.5c0.2-0.2,0.4-0.3,0.7-0.3c0.6,0,1,0.5,1,1c0,0.3-0.1,0.5-0.3,0.7
		l-5.3,5l5.5,6c0.1,0.2,0.3,0.5,0.3,0.8c0,0.3-0.1,0.6-0.3,0.8c-0.2,0.2-0.5,0.3-0.8,0.3c-0.4,0-0.7-0.1-0.9-0.3l-5.4-6.2L79.8,19
		v3.1c-0.1,0.6-0.5,1-1.2,1c-0.6,0-1.1-0.5-1.2-1V4.4C77.6,3.8,78.1,3.4,78.7,3.4z"/>
	<path fill="#FFFFFF" d="M99.9,8.5c4.5,0,7.1,3.4,7.1,7.1c0,0.7-0.4,1.1-1.4,1.1H95c0.2,2.7,2.1,5,5.3,5c1.5,0,2.8-0.5,4-1.3
		c0.1-0.1,0.4-0.1,0.5-0.1c0.5,0,0.9,0.4,0.9,0.9c0,0.3-0.1,0.6-0.4,0.8c-1.5,1.1-3.3,1.7-5.3,1.7c-4.4,0-7.6-3.1-7.6-7.5
		C92.6,11.9,95.7,8.5,99.9,8.5z M99.9,10.3c-3.1,0-4.7,2.6-4.9,4.8h9.7C104.7,13,103.2,10.3,99.9,10.3z"/>
	<path fill="#FFFFFF" d="M12,3.3c0.7,0,1.3,0.5,1.3,1.2v7.2h8c0.7,0,1.3,0.5,1.3,1.2c0,0.6-0.6,1.2-1.3,1.2h-9.2c-0.1,0-0.1,0-0.1,0
		c-0.4,0-0.7-0.1-0.9-0.3c-0.2-0.2-0.4-0.5-0.4-0.8V4.5C10.8,3.8,11.4,3.3,12,3.3z"/>
	<path fill="#F27065" d="M8.2,12.2c0.7,0,1.2,0.6,1.2,1.2c0,0.6-0.6,1.2-1.2,1.2H1.4c-0.7,0-1.2-0.6-1.2-1.2c0-0.6,0.6-1.2,1.2-1.2
		C1.4,12.2,8.2,12.2,8.2,12.2z"/>
	<path fill="#F27065" d="M12.2,15.4L12.2,15.4c0.1,0.1,0.3,0.1,0.4,0.2l6.5,5.9c0.4,0.3,0.5,0.8,0.3,1.3c-0.2,0.4-0.7,0.8-1.2,0.8
		l0,0c-0.4,0-0.7-0.1-0.9-0.3l-5.7-5.2l-5.6,5.1c-0.3,0.3-0.8,0.4-1.2,0.3c-0.4-0.1-0.8-0.4-0.9-0.8c-0.1-0.4,0-0.8,0.4-1.1l6.5-5.9
		C11.1,15.2,11.7,15.1,12.2,15.4z"/>
</g>
</svg>
