<svg xmlns="http://www.w3.org/2000/svg" width="48" height="48" viewBox="0 0 48 48">
    <g fill="none" fill-rule="evenodd">
        <rect width="47" height="47" x=".5" y=".5" stroke="#3F4D60" stroke-opacity=".1" rx="4"/>
        <path fill="#1D1D1B" d="M45 24c0 11.598-9.402 21-21 21S3 35.598 3 24 12.402 3 24 3s21 9.402 21 21"/>
        <path fill="#FFF" d="M24 42.173C13.98 42.173 5.827 34.021 5.827 24 5.827 13.98 13.979 5.827 24 5.827c10.02 0 18.173 8.152 18.173 18.173 0 3.896-1.215 7.61-3.512 10.741a.673.673 0 1 1-1.086-.796A16.695 16.695 0 0 0 40.827 24c0-9.278-7.549-16.827-16.827-16.827-9.278 0-16.827 7.549-16.827 16.827 0 9.278 7.549 16.827 16.827 16.827 2.809 0 5.588-.706 8.038-2.04a.673.673 0 0 1 .644 1.182A18.2 18.2 0 0 1 24 42.173"/>
        <path fill="#FFF" d="M33.24 24.162h-8.4a.646.646 0 0 1-.646-.647v-8.4a.646.646 0 0 1 1.292 0v7.754h7.754a.646.646 0 0 1 0 1.293M29.94 32.562a.644.644 0 0 1-.457-.19L24 26.89l-5.483 5.482a.646.646 0 1 1-.914-.913l5.94-5.94a.646.646 0 0 1 .914 0l5.94 5.94a.646.646 0 0 1-.457 1.103M22.32 24.162h-7.56a.646.646 0 0 1 0-1.293h7.56a.646.646 0 0 1 0 1.293"/>
    </g>
</svg>
