<svg xmlns="http://www.w3.org/2000/svg" width="48" height="48" viewBox="0 0 48 48">
    <g fill="none" fill-rule="evenodd">
        <rect width="47" height="47" x=".5" y=".5" stroke="#3F4D60" stroke-opacity=".1" rx="4"/>
        <path fill="#FFA200" d="M45 24c0 11.598-9.402 21-21 21S3 35.598 3 24 12.402 3 24 3s21 9.402 21 21"/>
        <path fill="#FFF" d="M43.25 24c0 10.631-8.619 19.25-19.25 19.25S4.75 34.631 4.75 24 13.369 4.75 24 4.75 43.25 13.369 43.25 24"/>
        <path fill="#FFA200" d="M23.735 11.167c.89 0 1.76.09 2.598.263a10.528 10.528 0 0 0-6.576-6.435 10.45 10.45 0 0 1 2.224 6.294 12.94 12.94 0 0 1 1.754-.122M24.265 36.805c-.89 0-1.76-.09-2.598-.263a10.528 10.528 0 0 0 6.576 6.435 10.45 10.45 0 0 1-2.224-6.294c-.574.078-1.159.122-1.754.122M36.82 23.72c0 .891-.092 1.76-.264 2.6a10.527 10.527 0 0 0 6.435-6.577 10.45 10.45 0 0 1-6.294 2.224c.078.574.122 1.159.122 1.754M11.18 24.251c0-.89.092-1.76.264-2.598a10.527 10.527 0 0 0-6.435 6.576 10.45 10.45 0 0 1 6.294-2.225 12.917 12.917 0 0 1-.122-1.753M30.084 12.7a12.89 12.89 0 0 1 2.132 1.509c.55-3.17-.391-6.447-2.554-8.84a10.45 10.45 0 0 1-1.164 6.573c.538.214 1.068.464 1.586.757M17.916 35.272a12.88 12.88 0 0 1-2.132-1.509c-.55 3.17.391 6.447 2.554 8.84a10.45 10.45 0 0 1 1.164-6.573 12.914 12.914 0 0 1-1.586-.758M35.024 17.438a12.9 12.9 0 0 1 1.051 2.391 10.527 10.527 0 0 0 2.359-8.894 10.449 10.449 0 0 1-4.38 5.038c.35.46.677.947.97 1.465M12.976 30.534a12.9 12.9 0 0 1-1.051-2.391 10.527 10.527 0 0 0-2.359 8.893A10.449 10.449 0 0 1 13.946 32c-.35-.46-.677-.947-.97-1.465M35.18 30.265c-.453.767-.972 1.47-1.547 2.105 3.16.606 6.453-.279 8.883-2.4a10.451 10.451 0 0 1-6.552-1.278c-.224.534-.483 1.06-.785 1.573M12.82 17.707c.453-.767.972-1.47 1.547-2.105a10.528 10.528 0 0 0-8.883 2.4c2.191-.29 4.489.106 6.552 1.278.224-.534.483-1.06.785-1.573M30.41 35.091c-.78.43-1.586.768-2.405 1.021a10.527 10.527 0 0 0 8.864 2.47 10.45 10.45 0 0 1-4.982-4.443 12.88 12.88 0 0 1-1.478.952M17.59 12.88c.78-.428 1.586-.767 2.405-1.02a10.527 10.527 0 0 0-8.864-2.47 10.45 10.45 0 0 1 4.982 4.443c.465-.345.956-.665 1.478-.952"/>
        <path fill="#FFF" d="M37.708 24c0 7.571-6.137 13.708-13.708 13.708-7.57 0-13.708-6.137-13.708-13.708 0-7.571 6.137-13.708 13.708-13.708 7.57 0 13.708 6.137 13.708 13.708"/>
        <path fill="#FFA200" d="M36.833 24c0 7.088-5.745 12.833-12.833 12.833S11.167 31.088 11.167 24 16.912 11.167 24 11.167 36.833 16.912 36.833 24"/>
        <path stroke="#FFF" stroke-width="2" d="M31.875 24a7.875 7.875 0 1 1-15.75 0 7.875 7.875 0 0 1 15.75 0z"/>
        <path fill="#FFF" d="M22.12 23.44c-1.527-1.185-1.644-3.38-.277-4.746 1.367-1.367 3.806-1.42 5.173-.053l-.9 1.143c-.797-.798-2.444-.856-3.242-.059-.797.798-.614 1.992.277 2.684.798.619 2.498 1.577 3.2 2.26.993.966 1.88 2.965.106 4.74-1.367 1.366-4.235 1.349-5.93-.657l1.03-1.03c.798.797 2.302 1.786 3.869.655.914-.66.66-1.994-.106-2.677-.731-.651-2.402-1.641-3.2-2.26"/>
        <path fill="#FFF" d="M24.485 17.642c.933 0 1.86.33 2.531 1l-.9 1.142c-.412-.414-1.054-.628-1.687-.628-.59 0-1.17.185-1.555.57-.797.797-.614 1.992.277 2.683.798.619 2.498 1.577 3.2 2.26.993.966 1.88 2.965.106 4.74-.614.614-1.533.949-2.51.949a4.48 4.48 0 0 1-3.42-1.606l1.03-1.03c.54.538 1.402 1.165 2.388 1.165.473 0 .974-.143 1.48-.51.915-.66.661-1.994-.105-2.677-.732-.651-2.402-1.641-3.2-2.26-1.527-1.185-1.644-3.379-.277-4.746.697-.696 1.672-1.052 2.642-1.052"/>
        <path fill="#FFF" d="M24 20.208c-.294 0-.58.037-.854.1a1.04 1.04 0 0 0-.193.67c.008.126.04.252.09.373a2.82 2.82 0 0 1 3.76 2.949c.3.3.553.642.753 1.007.15-.408.236-.847.236-1.307A3.792 3.792 0 0 0 24 20.208M21.557 26.897l.02.02a3.776 3.776 0 0 0 3.789.617.902.902 0 0 0 .06-.273 1.41 1.41 0 0 0-.185-.732 2.82 2.82 0 0 1-3.997-3.12 3.75 3.75 0 0 1-.658-1.05 3.781 3.781 0 0 0 .97 4.54"/>
    </g>
</svg>
