<svg xmlns="http://www.w3.org/2000/svg" xmlns:xlink="http://www.w3.org/1999/xlink" width="48" height="48" viewBox="0 0 48 48">
    <defs>
        <path id="a" d="M3.264 4.707H.05V.05h3.213z"/>
    </defs>
    <g fill="none" fill-rule="evenodd">
        <rect width="47" height="47" x=".5" y=".5" stroke="#3F4D60" stroke-opacity=".1" rx="4"/>
        <path fill="#1D1D1B" d="M24.856 32.308c-.208.19-.389.383-.548.581.46.665.69 1.403.69 2.348 0 .068.174.123.39.123.216 0 .39-.055.39-.123 0-1.198-.311-2.113-.922-2.929"/>
        <path fill="#1D1D1B" d="M27.188 29.603c-.01-.007-.017-.015-.027-.021-1.178-.74-2.143-1.437-2.581-1.865-1.004-.98-1.251-1.62-1.354-2.067-.357-1.549.401-2.543 1.159-2.924.32-.16.595-.208.974-.233.535-.008.872.21 1.088.355l.035.022c.135.09.279.191.431.3.856.606 2.029 1.353 3.509 1.353.288 0 .52-.15.52-.438 0-.288-.232-.439-.52-.439-1.149 0-2.123-.772-2.906-1.326-.164-.115-.317-.224-.46-.318l-.032-.021a3.392 3.392 0 0 0-.585-.324c.847-.356 1.708-.97 2.398-1.661.204-.203.286-.533.083-.737-.204-.202-.533-.12-.737.082-.94.94-2.367 1.58-3.015 1.597-.013 0-.025.003-.037.004a4.314 4.314 0 0 0-.664.102c-.026.006.103-1.893.006-3.288-.02-.286-.151-.52-.439-.52a.52.52 0 0 0-.52.52c0 1.535-.154 2.552-.295 3.225a1.477 1.477 0 0 0-.332-.043c-.625 0-2.042-.636-3.001-1.596-.204-.203-.534-.285-.737-.082-.203.204-.121.533.082.737.697.697 1.55 1.31 2.387 1.664a3.367 3.367 0 0 0-.574.32l-.032.02c-.143.095-.296.203-.459.318-.783.555-1.759 1.327-2.908 1.327-.287 0-.52.151-.52.439 0 .287.233.438.52.438 1.48 0 2.653-.748 3.51-1.354.153-.108.296-.21.431-.299l.034-.022c.126-.084.294-.193.515-.269-.607.914-.92 2.18-.596 3.585.18.78.55 1.427 1.27 2.133-.464.351-1.099.78-1.901 1.285-.01.006-.018.014-.027.02-2.179 1.419-4.137 3.095-4.137 5.635v.002c.003.09.235.162.521.162.288 0 .52-.074.52-.164v-.001c0-1.674 1.081-2.93 2.79-4.164-.671.962-.993 2.324-.993 4.165 0 .068.175.123.39.123.217 0 .391-.055.391-.123 0-2.834.826-3.92 1.567-4.445.464.31.871.605 1.228.898.169-.192.352-.378.548-.56-.32-.266-.678-.531-1.072-.803a18.811 18.811 0 0 0 1.397-1.004c.444.336.953.699 1.406 1.002-2.086 1.437-3.148 2.69-3.148 4.912 0 .068.175.123.391.123.216 0 .391-.055.391-.123 0-1.98.992-3.057 3.067-4.445.74.525 1.567 1.611 1.567 4.445 0 .068.175.123.39.123.216 0 .391-.055.391-.123 0-1.841-.322-3.203-.994-4.165 1.71 1.235 2.79 2.49 2.79 4.165 0 .09.234.164.521.164.288 0 .52-.074.52-.164h.001c0-2.54-1.958-4.216-4.136-5.634"/>
        <path fill="#1D1D1B" d="M10.715 24.145c0 .388 1.977 1.748 4.076 1.748 2.086 0 3.48-.782 3.48-1.748 0-.965-1.394-1.748-3.48-1.748-2.1 0-4.076 1.36-4.076 1.748M14.617 14.728c-.275.274.161 2.633 1.645 4.118 1.476 1.475 3.015 1.907 3.697 1.224.683-.682.25-2.221-1.225-3.696-1.484-1.485-3.843-1.92-4.117-1.646M37.353 24.145c0 .388-1.977 1.748-4.076 1.748-2.086 0-3.48-.782-3.48-1.748 0-.965 1.394-1.748 3.48-1.748 2.1 0 4.076 1.36 4.076 1.748M33.451 14.728c.275.274-.161 2.633-1.646 4.118-1.475 1.475-3.014 1.907-3.696 1.224-.683-.682-.25-2.221 1.225-3.696 1.484-1.485 3.843-1.92 4.117-1.646M24.034 10.827c-.388 0-1.748 1.976-1.748 4.075 0 2.086.783 3.48 1.748 3.48s1.748-1.394 1.748-3.48c0-2.1-1.36-4.075-1.748-4.075M11.975 41.366l-.223-.177 1.237-1.558-1.707-1.356-1.238 1.557-.223-.177 2.822-3.552.223.178-1.413 1.778 1.708 1.357 1.413-1.779.223.177zM8.158 37.936l-1.392-1.743.215-.172 1.214 1.52 1.339-1.07-1.021-1.278.215-.172 1.021 1.278 1.56-1.247-1.254-1.569.215-.172 1.431 1.792zM7.79 32.655l-1.824 2.339-.14-.27.97-1.206c.226-.28.443-.547.665-.838l-.012-.022c-.364.016-.717.026-1.073.058l-1.543.109-.135-.259 2.96-.164 1.628-.852.132.253-1.629.852zM4.09 30.97l-.632-2.138.264-.078.551 1.865 1.645-.486-.464-1.568.264-.078.464 1.568 1.915-.566-.57-1.925.265-.078.65 2.199zM5.196 25.514c-.053-.723-.405-1.094-1.071-1.045-.68.051-.898.465-.844 1.188l.06.803 1.915-.143-.06-.803zm2.255-1.336l-1.999 1.255.065.865 2.08-.155.02.284-4.523.338-.086-1.162c-.06-.81.23-1.366 1.095-1.43.72-.054 1.163.323 1.306.952l2.017-1.275.025.328zM7.358 21.855c.169-1.097-.582-1.7-1.752-1.881-1.164-.179-2.034.177-2.202 1.274l-.095.618 3.955.608.094-.619zM3 22.107l.143-.931c.19-1.244 1.153-1.704 2.508-1.496 1.361.21 2.169.942 1.978 2.18l-.143.937L3 22.107zM7.18 16.718l-.883-.066c-.559-.046-1.055-.08-1.626-.152l-.01.023c.468.336.858.643 1.297.994l.694.551.529-1.35zm.28.023l-.59 1.506 1.275 1.012-.107.271-3.697-3 .104-.265 4.748.317-.11.283-1.623-.124zM5.859 13.301l.161-.234 1.64 1.127 1.234-1.797-1.639-1.128.162-.235 3.738 2.572-.162.234-1.872-1.287-1.235 1.797 1.872 1.288-.162.235zM9.007 9.28l.209-.195 2.907 3.115 1.372-1.281.188.201-1.58 1.476zM15.1 4.914c.429-.208.872-.13 1.19.03l-.061.258c-.32-.15-.67-.19-1.004-.028-.804.388-.962 1.344-.414 2.479S16.208 9.28 16.995 8.9c.38-.183.583-.488.69-.952l.237.107c-.105.495-.332.88-.812 1.111-.904.436-1.938-.082-2.567-1.384-.625-1.296-.381-2.416.556-2.868M18.062 3.876l.277-.069 1.027 4.137 1.822-.452.066.267-2.098.52zM21.804 3.163l.284-.027.43 4.518-.283.027zM24.353 3l.395.037.604 2.733.227 1.03.025.003.408-.971 1.093-2.574.401.038-.422 4.517-.277-.026.277-2.968c.034-.37.097-.842.15-1.217L27.21 3.6l-.408.964-1.128 2.619-.247-.023-.624-2.783-.228-1.024-.025-.002c-.023.378-.048.852-.083 1.223l-.277 2.968-.26-.024L24.354 3zM30.647 7.017l.032-.885c.024-.56.04-1.058.088-1.631l-.024-.009c-.317.48-.608.882-.942 1.334l-.524.715 1.37.476zm-.012.28l-1.528-.531-.961 1.312-.276-.095 2.854-3.81.269.093-.131 4.757-.287-.1.06-1.626zM34.303 6.095l-1.122-.659.139-.237 2.486 1.457-.14.238-1.117-.655-2.156 3.678-.246-.145zM37.307 7.817l1.655 1.497-.185.204-1.443-1.306-1.15 1.272 1.213 1.098-.184.204-1.214-1.098-1.338 1.481 1.488 1.348-.184.204-1.7-1.539zM40.066 14.594c.42.723.888.91 1.53.535.661-.384.66-.85.243-1.568l-.381-.653-1.773 1.033.38.653zm1.48-2.067l.562.964c.459.787.445 1.419-.364 1.89-.768.447-1.418.194-1.873-.587l-.418-.718-1.684.98-.144-.246 3.921-2.283zM43.546 16.482l.101.266-4.241 1.609-.101-.267zM42.647 22.033c1.233-.225 1.911-.916 1.763-1.727-.149-.817-1.027-1.223-2.26-.998-1.24.226-1.945.922-1.796 1.739.148.81 1.054 1.212 2.293.986m-.55-3.018c1.408-.257 2.42.27 2.598 1.24.175.963-.586 1.813-1.994 2.07-1.415.259-2.456-.263-2.631-1.227-.177-.969.611-1.824 2.027-2.083M45 24.13l-.02.297-3.31 1.498-.931.403-.002.025c.44.01.882.022 1.321.052l2.775.187-.018.266-4.526-.306.02-.297 3.31-1.497.931-.403.002-.025c-.434-.01-.847-.02-1.287-.05l-2.81-.19.019-.265 4.526.306zM44.344 29.21l-.647 2.133-.263-.08.564-1.861-1.641-.497-.475 1.565-.263-.08.474-1.565-1.91-.578-.583 1.92-.264-.08.665-2.193zM42.87 33.249l-1.07 1.957-.241-.132.933-1.708-1.505-.822-.784 1.436-.242-.132.784-1.436-1.752-.957-.963 1.762-.241-.132 1.099-2.012zM38.222 36.319c-.474.548-.488 1.06.017 1.496.516.445.962.307 1.437-.241l.526-.61-1.453-1.255-.527.61zm-2.538-.653l2.3.528.567-.656-1.578-1.363.186-.215 3.433 2.964-.762.881c-.53.614-1.13.802-1.786.235-.547-.472-.592-1.052-.247-1.597l-2.327-.528.214-.249zM35.322 37.13c-.462-.117-.947-.05-1.327.24-.493.375-.584.91-.259 1.338.342.45.72.394 1.162.31l.68-.129c.386-.077.931-.138 1.34.4.395.52.27 1.194-.267 1.603-.394.3-.86.344-1.236.258l.003-.271a1.24 1.24 0 0 0 1.058-.217c.429-.326.523-.796.223-1.19-.317-.417-.763-.328-1.091-.268l-.676.134c-.498.093-.99.112-1.41-.44-.421-.554-.329-1.282.303-1.762.473-.36 1.009-.414 1.507-.29l-.01.283zM18.579 39.754l.892.21-.396 1.683 1.356.32.397-1.683.886.21-1.03 4.368-.886-.209.43-1.822-1.357-.32-.43 1.822-.892-.21z"/>
        <g transform="translate(22.552 40.421)">
            <mask id="b" fill="#fff">
                <use xlink:href="#a"/>
            </mask>
            <path fill="#1D1D1B" d="M1.941.051c.502-.008.928.26 1.206.566l-.492.635c-.208-.204-.402-.331-.687-.327-.564.01-.996.561-.981 1.463.015.923.414 1.454 1.003 1.444.334-.006.567-.168.762-.412l.512.605c-.328.439-.77.673-1.273.682-1.047.017-1.915-.761-1.94-2.27C.029.95.902.069 1.942.052" mask="url(#b)"/>
        </g>
        <path fill="#1D1D1B" d="M28.362 42.203c.488-.117.665-.415.555-.87-.11-.455-.403-.561-.873-.448l-.488.118.318 1.318.488-.118zm-1.887-1.769l1.434-.345c.856-.206 1.62-.023 1.876 1.035.247 1.024-.348 1.649-1.18 1.85l-.542.13.357 1.479-.892.215-1.053-4.364z"/>
    </g>
</svg>
